<svg width="199" height="276" viewBox="0 0 199 276" fill="none" xmlns="http://www.w3.org/2000/svg">
<path d="M101.5 273.5C88.0001 273.5 79.6966 248.379 81.4035 236.5L110.99 237.985C111.18 248.379 109.562 273.5 101.5 273.5Z" fill="#446ADB" stroke="white" stroke-width="4" stroke-linecap="round"/>
<path d="M67.5 274C47.5001 274 44.6532 248.379 46.417 236.5L76.9898 237.985C77.1858 248.379 75.0001 274 67.5 274Z" fill="#446ADB" stroke="white" stroke-width="4" stroke-linecap="round"/>
<path d="M161.062 200.067C161.36 184.779 157.249 172.156 152.319 159.695C151.33 157.196 150.312 154.71 149.288 152.211C144.961 141.65 140.547 130.874 137.96 118.103C137.071 113.713 136.232 109.339 135.397 104.988C130.182 77.802 125.139 51.5158 109.156 27.8797C107.895 26.0143 107.071 23.1382 106.458 19.3667C106.023 16.6888 105.719 13.7489 105.395 10.6165C105.266 9.36658 105.133 8.08599 104.988 6.77914C104.922 6.18304 104.591 5.64813 104.088 5.32185C103.585 4.99557 102.962 4.91236 102.391 5.09515C89.8236 9.11658 83.55 14.6628 76.2824 21.4343C74.813 21.3373 73.2724 21.3453 71.6858 21.379C71.0976 21.3914 70.5049 21.4074 69.903 21.4235C68.9094 21.4502 67.8911 21.4776 66.8277 21.4912C65.578 18.5146 64.7097 16.5326 64.0457 15.017C62.3243 11.088 61.9759 10.2928 59.9156 3.4253C59.6313 2.47755 58.6967 1.88017 57.7171 2.0201C53.6755 2.59748 50.6694 4.37272 47.4463 7.66299C44.5321 10.6379 41.3078 14.9941 36.8649 20.9968C36.5928 21.3645 36.3161 21.7383 36.0346 22.1184C33.7348 24.068 31.2379 27.1631 28.7381 30.9438C26.1475 34.8617 23.4791 39.6305 20.9484 44.8817C15.8917 55.3743 11.327 67.9129 9.03728 79.616C5.7209 96.5663 5.39845 109.576 5.0493 123.663C4.92082 128.846 4.78873 134.175 4.50254 139.9C4.31721 143.608 4.01201 147.536 3.69119 151.666C2.17488 171.183 0.309705 195.192 9.1027 221.571C14.5117 237.798 23.2562 247.051 35.6062 252.191C47.7592 257.249 63.2548 258.25 81.9729 258.5C100.768 258.75 116.311 257.393 129.019 251.039C141.573 244.762 151.093 233.754 158.408 215.387C167.629 214.732 175.69 217.242 179.406 222.147C180.329 223.365 181.277 225.392 182.083 227.978C182.878 230.53 183.494 233.492 183.825 236.479C184.156 239.471 184.194 242.429 183.868 244.986C183.536 247.584 182.853 249.561 181.915 250.781C180.733 252.317 179.483 253.659 178.285 254.919C178.164 255.046 178.043 255.173 177.922 255.3C176.878 256.396 175.838 257.486 175.036 258.535C174.146 259.699 173.332 261.078 173.209 262.675C173.078 264.377 173.754 265.922 175.005 267.329C175.84 268.268 176.909 268.796 178.087 268.914C179.209 269.027 180.312 268.757 181.305 268.337C183.27 267.504 185.278 265.875 187.088 264.002C190.712 260.251 194.171 254.853 195.42 250.559C197.855 242.188 196.453 230.018 192.38 218.817C190.13 212.63 184.484 207.943 178.269 204.836C172.737 202.07 166.477 200.412 161.062 200.067Z" fill="#446ADB" stroke="white" stroke-width="4" stroke-linecap="round" stroke-linejoin="round"/>
<path d="M42.8583 49.9801C47.0251 50.3465 45.3436 58.904 44.6537 62.5891C43.9638 66.274 42.569 74.9017 39.0963 74.7545C35.6237 74.6075 35.3271 66.0744 36.141 60.8258C36.955 55.5772 38.6917 49.614 42.8583 49.9801Z" fill="white"/>
<path d="M78.2011 50.2256C82.1885 50.5807 81.302 58.61 80.6444 62.1521C79.987 65.6944 78.6588 73.9874 75.3354 73.8436C72.0121 73.6994 71.7221 65.4957 72.4969 60.4505C73.2719 55.4055 74.2134 49.8703 78.2011 50.2256Z" fill="white"/>
<path d="M44.0002 89.1742C48.0001 88 52.0002 87.5 56.1296 89.1742" stroke="white" stroke-width="4" stroke-linecap="round"/>
<rect x="25.6248" y="47.586" width="56.0163" height="10.2222" transform="rotate(1.74065 25.6248 47.586)" fill="#446ADB"/>
<path d="M22.3257 50.1575C38.8648 50.9755 45.8736 51.5925 46.1586 53.3192" stroke="white" stroke-width="4" stroke-linecap="round"/>
<path d="M83.1226 53.2781C66.6258 52.0828 59.6056 51.838 59.135 53.4754" stroke="white" stroke-width="4" stroke-linecap="round"/>
<path d="M65.0096 145.948C64.8444 156.505 66.8234 162.777 70.3298 164.192C71.9563 164.849 73.9114 164.46 76.1336 162.97C81.7439 159.207 81.3731 149.756 80.4864 145.5" stroke="white" stroke-width="2.5" stroke-linecap="round"/>
<path d="M5.00006 143.5C4.83486 154.057 5.82343 160.777 9.32981 162.192C10.9563 162.849 12.9114 162.46 15.1336 160.97C20.7439 157.207 21.8867 148.756 21.0001 144.5" stroke="white" stroke-width="2.5" stroke-linecap="round"/>
<path d="M102 274C90.5294 274.819 79.6967 248.379 81.4036 236.5L110.99 237.985C111.18 248.379 109 273.5 102 274Z" fill="#446ADB"/>
<path d="M83.0002 242C81.2933 253.879 90.1878 273.5 102 273.5C109 273.5 111.18 248.379 110.991 237.985" stroke="white" stroke-width="2.5" stroke-linecap="round"/>
</svg>
