<svg width="251" height="159" viewBox="0 0 251 159" fill="none" xmlns="http://www.w3.org/2000/svg">
<mask id="path-1-outside-1_203_287" maskUnits="userSpaceOnUse" x="-1" y="1.78041" width="252" height="157" fill="black">
<rect fill="white" x="-1" y="1.78041" width="252" height="157"/>
<path fill-rule="evenodd" clip-rule="evenodd" d="M210.5 56C213.828 65.2709 214.67 78.7236 212.219 92.3816C220.641 95.0429 227.94 98.1408 228.5 101.5C228.989 104.431 222.59 110.191 206.543 111.26C202.915 119.516 197.803 127.104 191 133C189.827 134.017 188.622 134.991 187.389 135.92C195.086 138.458 201.478 141.365 202 144.5C202.744 148.966 187.5 160 146.5 151L146.881 150.599C134.426 151.296 122.278 148.778 112.5 143C108.053 140.372 103.842 137.721 100 135.156C76 139 75.5 122.5 79 117.5C64.6736 117.362 40.897 111.85 28.5618 93.6808C28.2526 93.6276 27.9312 93.5703 27.5991 93.5111L27.5927 93.51L27.5865 93.5089L27.5847 93.5086C21.5972 92.4416 12.1228 90.7532 7.57429 100.5C0.574288 115.5 3.57429 73 19.0743 63C19.4143 63.0255 19.7468 63.0607 20.0719 63.1052C20.1012 51.6683 23.4556 41.481 28.8978 33.1303C23.569 32.5505 17.455 32.7467 12 33.7751C12.3038 33.3459 12.6443 32.8479 13.0231 32.2938C18.4424 24.368 31.706 4.96974 57.4824 11.3167C58.4823 11.0104 59.4888 10.7379 60.5 10.5C86 4.5 147.5 2.5 173 15C190.048 23.3568 197.933 30.1493 203.379 39.5608C207.553 36.8988 212.526 34.7368 217.5 34C231 32 244 39.5 246.5 49C249 58.5 237 72 234.5 74.5C232 77 223.5 75 226.5 68C227.632 65.358 229.334 63.5707 231.042 61.7779C233.858 58.8206 236.689 55.8483 237 49C237.388 40.4649 219.715 40.9605 207.804 48.8518C208.702 51.0756 209.584 53.4479 210.5 56Z"/>
</mask>
<path fill-rule="evenodd" clip-rule="evenodd" d="M210.5 56C213.828 65.2709 214.67 78.7236 212.219 92.3816C220.641 95.0429 227.94 98.1408 228.5 101.5C228.989 104.431 222.59 110.191 206.543 111.26C202.915 119.516 197.803 127.104 191 133C189.827 134.017 188.622 134.991 187.389 135.92C195.086 138.458 201.478 141.365 202 144.5C202.744 148.966 187.5 160 146.5 151L146.881 150.599C134.426 151.296 122.278 148.778 112.5 143C108.053 140.372 103.842 137.721 100 135.156C76 139 75.5 122.5 79 117.5C64.6736 117.362 40.897 111.85 28.5618 93.6808C28.2526 93.6276 27.9312 93.5703 27.5991 93.5111L27.5927 93.51L27.5865 93.5089L27.5847 93.5086C21.5972 92.4416 12.1228 90.7532 7.57429 100.5C0.574288 115.5 3.57429 73 19.0743 63C19.4143 63.0255 19.7468 63.0607 20.0719 63.1052C20.1012 51.6683 23.4556 41.481 28.8978 33.1303C23.569 32.5505 17.455 32.7467 12 33.7751C12.3038 33.3459 12.6443 32.8479 13.0231 32.2938C18.4424 24.368 31.706 4.96974 57.4824 11.3167C58.4823 11.0104 59.4888 10.7379 60.5 10.5C86 4.5 147.5 2.5 173 15C190.048 23.3568 197.933 30.1493 203.379 39.5608C207.553 36.8988 212.526 34.7368 217.5 34C231 32 244 39.5 246.5 49C249 58.5 237 72 234.5 74.5C232 77 223.5 75 226.5 68C227.632 65.358 229.334 63.5707 231.042 61.7779C233.858 58.8206 236.689 55.8483 237 49C237.388 40.4649 219.715 40.9605 207.804 48.8518C208.702 51.0756 209.584 53.4479 210.5 56Z" fill="#446ADB"/>
<path d="M212.219 92.3816L208.282 91.6752C207.927 93.6545 209.096 95.5899 211.014 96.1958L212.219 92.3816ZM210.5 56L206.735 57.3515L210.5 56ZM228.5 101.5L232.446 100.842V100.842L228.5 101.5ZM206.543 111.26L206.277 107.269C204.79 107.368 203.481 108.286 202.881 109.651L206.543 111.26ZM191 133L193.62 136.023L191 133ZM187.389 135.92L184.98 132.727C183.792 133.623 183.2 135.105 183.443 136.573C183.686 138.041 184.723 139.253 186.137 139.719L187.389 135.92ZM202 144.5L198.054 145.158L202 144.5ZM146.5 151L143.603 148.241C142.607 149.287 142.252 150.789 142.675 152.17C143.097 153.551 144.232 154.597 145.642 154.907L146.5 151ZM146.881 150.599L149.778 153.358C150.91 152.17 151.201 150.411 150.513 148.922C149.824 147.432 148.296 146.514 146.658 146.606L146.881 150.599ZM112.5 143L114.535 139.556H114.535L112.5 143ZM100 135.156L102.221 131.829C101.382 131.27 100.363 131.047 99.3674 131.207L100 135.156ZM79 117.5L82.2769 119.794C83.1283 118.578 83.236 116.99 82.5567 115.67C81.8775 114.35 80.523 113.514 79.0385 113.5L79 117.5ZM28.5618 93.6808L31.8712 91.4341C31.2609 90.5352 30.3113 89.9232 29.2406 89.7388L28.5618 93.6808ZM27.5991 93.5111L28.3007 89.5732L28.2948 89.5721L27.5991 93.5111ZM27.5927 93.51L26.8858 97.4471L26.897 97.4491L27.5927 93.51ZM27.5865 93.5089L26.8664 97.4436L26.8796 97.446L27.5865 93.5089ZM27.5847 93.5086L28.3048 89.5739C28.2987 89.5728 28.2926 89.5717 28.2865 89.5706L27.5847 93.5086ZM7.57429 100.5L11.199 102.192L7.57429 100.5ZM19.0743 63L19.3734 59.0112C18.5045 58.946 17.638 59.1664 16.9058 59.6388L19.0743 63ZM20.0719 63.1052L19.5294 67.0682C20.6724 67.2247 21.8273 66.8801 22.6977 66.1227C23.568 65.3654 24.069 64.2691 24.0719 63.1154L20.0719 63.1052ZM28.8978 33.1303L32.249 35.3142C33.0081 34.1495 33.1079 32.6741 32.5127 31.4177C31.9175 30.1613 30.7126 29.3041 29.3305 29.1537L28.8978 33.1303ZM12 33.7751L8.73495 31.4644C7.79326 32.795 7.75321 34.5639 8.63373 35.9358C9.51424 37.3076 11.1392 38.0079 12.741 37.7059L12 33.7751ZM13.0231 32.2938L9.72119 30.0361L9.72119 30.0361L13.0231 32.2938ZM57.4824 11.3167L56.5261 15.2007C57.2276 15.3734 57.9629 15.3529 58.6538 15.1413L57.4824 11.3167ZM60.5 10.5L61.4161 14.3937L60.5 10.5ZM173 15L171.239 18.5917L173 15ZM203.379 39.5608L199.917 41.5642C200.464 42.5084 201.372 43.1885 202.432 43.4469C203.491 43.7054 204.611 43.5198 205.53 42.9332L203.379 39.5608ZM217.5 34L216.914 30.0432L217.5 34ZM226.5 68L230.177 69.5757V69.5757L226.5 68ZM231.042 61.7779L233.938 64.5364V64.5364L231.042 61.7779ZM237 49L233.004 48.8184V48.8184L237 49ZM207.804 48.8518L205.595 45.5172C204.01 46.5671 203.383 48.5871 204.095 50.3496L207.804 48.8518ZM216.156 93.0881C218.697 78.9263 217.886 64.7358 214.265 54.6485L206.735 57.3515C209.77 65.8061 210.642 78.5208 208.282 91.6752L216.156 93.0881ZM232.446 100.842C232.092 98.7213 230.782 97.1395 229.579 96.0579C228.331 94.9357 226.773 93.9691 225.148 93.1275C221.888 91.4386 217.694 89.9166 213.424 88.5675L211.014 96.1958C215.166 97.5079 218.833 98.8656 221.468 100.231C222.791 100.916 223.689 101.52 224.23 102.007C224.816 102.534 224.628 102.599 224.554 102.158L232.446 100.842ZM206.809 115.251C215.233 114.69 221.451 112.882 225.643 110.587C227.729 109.446 229.444 108.111 230.645 106.623C231.777 105.22 232.834 103.172 232.446 100.842L224.554 102.158C224.41 101.293 224.85 101.065 224.419 101.599C224.056 102.05 223.261 102.771 221.802 103.57C218.904 105.156 213.9 106.761 206.277 107.269L206.809 115.251ZM193.62 136.023C200.956 129.664 206.389 121.554 210.205 112.869L202.881 109.651C199.441 117.479 194.65 124.543 188.38 129.977L193.62 136.023ZM189.798 139.114C191.102 138.13 192.377 137.1 193.62 136.023L188.38 129.977C187.276 130.934 186.142 131.851 184.98 132.727L189.798 139.114ZM205.946 143.842C205.615 141.856 204.444 140.348 203.333 139.293C202.193 138.21 200.776 137.281 199.304 136.477C196.355 134.864 192.558 133.413 188.641 132.122L186.137 139.719C189.917 140.965 193.164 142.237 195.465 143.495C196.62 144.127 197.379 144.671 197.824 145.094C198.3 145.546 198.124 145.576 198.054 145.158L205.946 143.842ZM145.642 154.907C166.536 159.493 181.251 159.066 190.866 156.682C195.659 155.495 199.332 153.783 201.857 151.828C203.117 150.852 204.195 149.734 204.943 148.484C205.676 147.26 206.244 145.633 205.946 143.842L198.054 145.158C197.942 144.484 198.197 144.178 198.078 144.377C197.974 144.55 197.664 144.957 196.959 145.503C195.554 146.591 192.993 147.913 188.942 148.917C180.872 150.917 167.464 151.507 147.358 147.093L145.642 154.907ZM143.985 147.841L143.603 148.241L149.397 153.759L149.778 153.358L143.985 147.841ZM110.465 146.444C121.039 152.692 134.002 155.326 147.105 154.593L146.658 146.606C134.85 147.266 123.517 144.864 114.535 139.556L110.465 146.444ZM97.7792 138.483C101.684 141.09 105.957 143.78 110.465 146.444L114.535 139.556C110.149 136.965 106.001 134.352 102.221 131.829L97.7792 138.483ZM75.7231 115.206C74.3054 117.231 73.5209 120.003 73.4317 122.78C73.3404 125.626 73.9638 128.855 75.8023 131.775C79.6962 137.962 87.8263 141.157 100.633 139.106L99.3674 131.207C88.1737 132.999 84.0538 129.867 82.5727 127.514C81.7237 126.165 81.3784 124.571 81.4276 123.037C81.4791 121.435 81.9446 120.269 82.2769 119.794L75.7231 115.206ZM25.2524 95.9275C38.6715 115.694 64.0945 121.357 78.9615 121.5L79.0385 113.5C65.2526 113.368 43.1226 108.007 31.8712 91.4341L25.2524 95.9275ZM26.8974 97.4491C27.2275 97.5079 27.5604 97.5672 27.883 97.6228L29.2406 89.7388C28.9448 89.6879 28.635 89.6327 28.3007 89.5732L26.8974 97.4491ZM26.897 97.4491L26.9033 97.4502L28.2948 89.5721L28.2885 89.571L26.897 97.4491ZM26.8796 97.446L26.8858 97.4471L28.2996 89.573L28.2933 89.5719L26.8796 97.446ZM26.8646 97.4432L26.8664 97.4436L28.3065 89.5742L28.3048 89.5739L26.8646 97.4432ZM11.199 102.192C12.8722 98.6062 15.2171 97.3411 17.7479 96.886C20.6161 96.3701 23.7777 96.8932 26.883 97.4465L28.2865 89.5706C25.4042 89.057 20.8348 88.2024 16.3318 89.0123C11.4914 89.8829 6.82488 92.647 3.94955 98.8085L11.199 102.192ZM16.9058 59.6388C12.0857 62.7486 8.59114 68.0974 6.11459 73.5277C3.59627 79.0496 1.90241 85.162 0.950915 90.4116C0.473643 93.0448 0.173011 95.5165 0.0559211 97.6434C-0.0564713 99.685 -0.0180573 101.693 0.337524 103.26C0.494195 103.951 0.840939 105.182 1.77954 106.191C2.31613 106.768 3.13256 107.359 4.24194 107.584C5.35434 107.809 6.34554 107.581 7.08053 107.246C8.36229 106.662 9.18961 105.619 9.65173 104.961C10.1967 104.186 10.7084 103.243 11.199 102.192L3.94956 98.8085C3.56522 99.632 3.28003 100.115 3.10745 100.36C2.85203 100.723 3.04117 100.295 3.76531 99.9651C4.22149 99.7574 4.95402 99.5658 5.82805 99.7426C6.69906 99.9187 7.29742 100.377 7.63637 100.742C8.17971 101.325 8.21297 101.815 8.13918 101.49C8.03382 101.026 7.94333 99.9087 8.04383 98.0832C8.13963 96.3429 8.39368 94.2052 8.82266 91.8384C9.68367 87.088 11.2086 81.6379 13.3934 76.8473C15.6199 71.9651 18.3129 68.2514 21.2428 66.3612L16.9058 59.6388ZM20.6145 59.1422C20.2069 59.0864 19.7932 59.0427 19.3734 59.0112L18.7751 66.9888C19.0355 67.0083 19.2868 67.035 19.5294 67.0682L20.6145 59.1422ZM25.5467 30.9463C19.6964 39.9232 16.1033 50.8618 16.0719 63.0949L24.0719 63.1154C24.0992 52.4748 27.2148 43.0388 32.249 35.3142L25.5467 30.9463ZM12.741 37.7059C17.7963 36.7528 23.5145 36.5681 28.4652 37.1068L29.3305 29.1537C23.6235 28.5328 17.1136 28.7406 11.2589 29.8444L12.741 37.7059ZM9.72119 30.0361C9.33697 30.5981 9.01622 31.067 8.73495 31.4644L15.265 36.0859C15.5913 35.6249 15.9516 35.0978 16.3251 34.5515L9.72119 30.0361ZM58.4388 7.4327C29.7834 0.376865 15.033 22.2675 9.72119 30.0361L16.3251 34.5515C21.8518 26.4686 33.6286 9.56261 56.5261 15.2007L58.4388 7.4327ZM59.5838 6.60633C58.4858 6.86469 57.3942 7.1603 56.311 7.49205L58.6538 15.1413C59.5704 14.8606 60.4918 14.6112 61.4161 14.3937L59.5838 6.60633ZM174.761 11.4083C161.143 4.73301 138.598 2.126 116.807 1.81291C94.8638 1.49763 72.7612 3.50578 59.5838 6.60633L61.4161 14.3937C73.7388 11.4942 95.1361 9.50237 116.693 9.81209C138.402 10.124 159.357 12.767 171.239 18.5917L174.761 11.4083ZM206.841 37.5575C200.837 27.1814 192.163 19.9391 174.761 11.4083L171.239 18.5917C187.932 26.7745 195.029 33.1173 199.917 41.5642L206.841 37.5575ZM205.53 42.9332C209.361 40.4901 213.806 38.591 218.086 37.9568L216.914 30.0432C211.247 30.8827 205.745 33.3075 201.228 36.1885L205.53 42.9332ZM218.086 37.9568C223.951 37.0879 229.711 38.2895 234.236 40.7134C238.821 43.1695 241.744 46.6447 242.632 50.018L250.368 47.982C248.756 41.8553 243.929 36.8305 238.014 33.6616C232.039 30.4605 224.549 28.9121 216.914 30.0432L218.086 37.9568ZM242.632 50.018C243 51.4168 242.894 53.2338 242.208 55.4643C241.529 57.6726 240.363 60.0119 238.968 62.2786C236.171 66.8245 232.761 70.5825 231.672 71.6716L237.328 77.3284C238.739 75.9175 242.579 71.6755 245.782 66.4714C247.387 63.8631 248.909 60.8899 249.854 57.817C250.793 54.7662 251.25 51.3332 250.368 47.982L242.632 50.018ZM231.672 71.6716C231.85 71.4929 231.977 71.456 231.938 71.4703C231.903 71.4831 231.782 71.5181 231.575 71.5284C231.134 71.5503 230.637 71.446 230.269 71.2566C230.1 71.1692 230 71.0859 229.949 71.0325C229.905 70.9854 229.894 70.9594 229.89 70.9471C229.886 70.9378 229.857 70.86 229.87 70.6677C229.884 70.4651 229.949 70.1074 230.177 69.5757L222.823 66.4243C221.771 68.8788 221.534 71.3898 222.376 73.6935C223.207 75.9668 224.887 77.4831 226.606 78.3684C228.301 79.2415 230.21 79.606 231.972 79.5185C233.657 79.4349 235.758 78.8984 237.328 77.3284L231.672 71.6716ZM230.177 69.5757C230.99 67.6786 232.198 66.3635 233.938 64.5364L228.145 59.0193C226.47 60.778 224.275 63.0374 222.823 66.4243L230.177 69.5757ZM233.938 64.5364C235.312 63.0945 237.073 61.271 238.453 58.7972C239.879 56.2414 240.814 53.1725 240.996 49.1816L233.004 48.8184C232.874 51.6758 232.238 53.5172 231.467 54.8989C230.65 56.3627 229.588 57.504 228.145 59.0193L233.938 64.5364ZM240.996 49.1816C241.171 45.3362 239.158 42.4622 236.274 40.8006C233.624 39.2738 230.275 38.7417 226.984 38.7661C220.338 38.8154 212.187 41.1496 205.595 45.5172L210.013 52.1863C215.332 48.6627 221.972 46.8035 227.044 46.7659C229.612 46.7469 231.353 47.198 232.28 47.7322C232.973 48.1316 233.023 48.3962 233.004 48.8184L240.996 49.1816ZM214.265 54.6485C213.341 52.0739 212.439 49.6468 211.513 47.3539L204.095 50.3496C204.965 52.5044 205.827 54.8218 206.735 57.3515L214.265 54.6485Z" fill="white" mask="url(#path-1-outside-1_203_287)"/>
<path d="M191 133C213.5 113.5 217.5 75.5 210.5 56C203.5 36.5 198.5 27.5 173 15C147.5 2.5 86 4.5 60.5 10.5C35 16.5 12.5 44.5 22.5 80.5C30.5 109.3 61.6667 117.333 79 117.5C75.5 122.5 76 139 100 135.156C103.842 137.721 108.053 140.372 112.5 143C134.5 156 168.5 152.5 191 133Z" fill="#446ADB"/>
<path d="M12 33.7751C16.8419 26.9336 31.0181 2.61731 60.9876 12.3168C70.026 15.242 44.8237 44.3984 42.4037 38.8853C39.9837 33.3723 24.313 31.4538 12 33.7751Z" fill="#446ADB"/>
<path d="M7.57429 100.5C0.574288 115.5 3.57429 73 19.0743 63C35.0743 64.2 34.4076 86.8333 31.0743 94C26.2409 93.8333 13.1743 88.5 7.57429 100.5Z" fill="#446ADB"/>
<path d="M147 152C188 161 204.744 148.966 204 144.5C203 138.5 185.5 133.833 173.5 130.5" stroke="white" stroke-width="2.5" stroke-linecap="round" stroke-linejoin="round"/>
<path d="M190.5 110C217.5 116 231.744 106.966 231 102.5C230 96.5 214 92.8333 202 89.5" stroke="white" stroke-width="2.5" stroke-linecap="round" stroke-linejoin="round"/>
<path d="M237 49C237.5 38 208 42 199.5 57.5C197 61.0949 195.5 57.5 193 53C190.5 48.5 204 36 217.5 34C231 32 244 39.5 246.5 49C249 58.5 237 72 234.5 74.5C232 77 223.5 75 226.5 68C229.5 61 236.5 60 237 49Z" fill="#446ADB"/>
<path d="M204.5 39C206.5 42.3333 209.2 48.6 210 51" stroke="white" stroke-width="2.5" stroke-linecap="round"/>
<path d="M111.743 49.3702C84.7636 61.3353 83.1682 95.3846 87.4314 109.672" stroke="white" stroke-width="2.5" stroke-linecap="round"/>
<path d="M112.5 44.5C115 72.5 121 78 129.5 77C138 76 148 56 143.5 44.5" stroke="white" stroke-width="2.5" stroke-linecap="round"/>
<path d="M76.5 119.5C93 104 110.5 94.4327 120 101.933C129.5 109.433 108.5 134.5 98 137" stroke="white" stroke-width="2.5" stroke-linecap="round"/>
<ellipse opacity="0.35" cx="61" cy="54.5" rx="27" ry="26.5" fill="#5144DB"/>
<ellipse opacity="0.35" cx="61" cy="54.5" rx="19" ry="18.5" fill="#5144DB"/>
<ellipse cx="61" cy="54.5" rx="11" ry="11.5" fill="#5144DB"/>
<circle opacity="0.35" cx="45.5" cy="79.5" r="28.5" fill="#5144DB"/>
<circle opacity="0.35" cx="45.5" cy="79.5" r="19.5" fill="#5144DB"/>
<circle cx="45.5" cy="79.5" r="12.5" fill="#5144DB"/>
<path d="M64 83.4717C67.3811 78.1585 71.044 73.6101 72.4528 72" stroke="white" stroke-width="3.5" stroke-linecap="round"/>
<path d="M27.2453 65.0377C23.5 73.5 28.7924 83.0912 30 84.5M41 41C46.5 35.4528 55.5 34 60.4528 35.4528" stroke="white" stroke-width="2.5" stroke-linecap="round"/>
<path d="M43.2399 77.8108C42.559 77.4278 43.0714 79.7549 43.2725 80.0902C43.7354 80.8617 45.0772 82.1549 46.1393 81.7356C46.3722 81.6437 46.2601 80.9023 46.2418 80.7381C46.1321 79.7511 45.3951 78.8771 44.6197 78.3096C43.7893 77.7018 42.021 76.9166 42.2704 78.6498C42.4582 79.9552 44.0112 80.822 45.2303 80.822C46.6423 80.822 44.9657 78.6859 44.629 78.3515C44.2825 78.0074 42 76.0661 42 77.5544C42 78.245 42.7098 78.4731 43.2399 78.6498" stroke="white" stroke-width="4" stroke-linecap="round"/>
<path d="M60.2399 52.8108C59.559 52.4278 60.0714 54.7549 60.2725 55.0902C60.7354 55.8617 62.0772 57.1549 63.1393 56.7356C63.3722 56.6437 63.2601 55.9023 63.2418 55.7381C63.1321 54.7511 62.3951 53.8771 61.6197 53.3096C60.7893 52.7018 59.021 51.9166 59.2704 53.6498C59.4582 54.9552 61.0112 55.822 62.2303 55.822C63.6423 55.822 61.9657 53.6859 61.629 53.3515C61.2825 53.0074 59 51.0661 59 52.5544C59 53.245 59.7098 53.4731 60.2399 53.6498" stroke="white" stroke-width="4" stroke-linecap="round"/>
</svg>
