<svg width="240" height="269" viewBox="0 0 240 269" fill="none" xmlns="http://www.w3.org/2000/svg">
<path d="M44.099 214.05L51.0465 209.39C60.6329 202.959 69.4489 195.915 70.7232 193.67C71.9976 191.425 80.8142 184.383 90.3996 177.952L199.819 104.546C205.906 112.895 208.675 124.494 208.041 139.326C221.149 126.542 224.806 110.682 220.164 95.7228C219.479 93.5183 217.88 90.1715 216.594 88.2551L210.768 79.5706C209.482 77.6533 206.789 75.3221 204.759 74.3675C200.699 72.4582 197.823 67.1837 198.341 62.5953L198.676 59.6271C198.985 56.8963 197.993 52.8276 196.462 50.5448L193.854 46.6569C192.323 44.3747 189.227 43.765 186.946 45.2959L160.478 63.0517C158.196 64.5831 157.586 67.6789 159.117 69.9601L161.726 73.8489C163.257 76.1311 166.693 78.3931 169.394 78.8964L174.182 79.7882C178.722 80.6347 184.494 84.4338 187.066 88.2692L188.232 90.0061L79.9359 162.354C70.3378 168.766 60.4667 174.238 57.9064 174.566C55.3464 174.893 45.4852 180.38 35.8997 186.811L28.9522 191.471C25.1175 194.045 24.0939 199.246 26.6655 203.08L32.492 211.764C35.0637 215.598 40.2653 216.623 44.099 214.05Z" fill="#442DDB" stroke="white" stroke-width="5" stroke-miterlimit="3" stroke-linecap="round" stroke-linejoin="round"/>
<path d="M135.888 4.65181C136.155 3.97909 136.729 3.47562 137.43 3.29882C138.132 3.12203 138.876 3.29348 139.429 3.75958C140.654 4.79129 141.661 6.62572 142.494 8.50737C143.376 10.5001 144.232 12.9518 145.02 15.5854C146.598 20.8563 147.96 27.0438 148.725 32.1469L148.728 32.1677C150.227 42.1607 153.232 62.1938 154.737 76.2409C154.847 77.2618 154.825 78.5114 154.173 79.5522C153.363 80.8459 152.021 81.1931 150.901 81.0947C149.907 81.0074 148.919 80.5824 148.055 80.1071C147.149 79.6088 146.172 78.9376 145.159 78.1541C141.138 75.0432 135.845 69.6045 130.841 63.7413C125.824 57.8624 120.969 51.4064 117.856 46.19C116.317 43.6123 115.109 41.1819 114.577 39.2051C114.316 38.2366 114.148 37.1317 114.371 36.0865C114.629 34.8803 115.409 33.8216 116.737 33.357C118.202 32.8441 119.956 31.5064 121.892 29.3509C123.79 27.237 125.693 24.5284 127.497 21.5715C131.102 15.6598 134.173 8.98018 135.888 4.65181Z" fill="#446ADB" stroke="white" stroke-width="4.5" stroke-linecap="round" stroke-linejoin="round"/>
<path d="M163.184 193.152L163.166 193.229L163.139 193.305C159.887 202.653 162.568 212.858 167.24 220.165C169.571 223.811 172.331 226.625 174.949 228.211C177.602 229.819 179.786 230 181.321 229.111C184.002 227.559 185.645 226.008 186.701 224.484C187.754 222.964 188.283 221.384 188.612 219.67C188.825 218.554 188.941 217.486 189.066 216.338C189.144 215.618 189.226 214.866 189.337 214.051C189.613 212.03 190.054 209.864 191.087 207.621C192.153 205.307 193.641 203.809 195.402 203.098C197.152 202.391 198.963 202.545 200.522 203.133C202.072 203.718 203.45 204.756 204.434 205.962C205.401 207.145 206.117 208.655 206.038 210.203C205.926 212.393 205.237 218.827 203.271 225.452C202.287 228.768 200.969 232.182 199.211 235.151C197.458 238.112 195.214 240.722 192.338 242.297C180.04 249.036 162.358 242.937 154.027 228.097C149.933 220.805 147.709 211.746 147.258 204.324C147.033 200.615 147.244 197.219 147.941 194.606C148.604 192.124 149.879 189.751 152.25 189.203C152.777 189.081 153.307 188.954 153.828 188.829C154.726 188.614 155.597 188.405 156.383 188.239C157.622 187.978 158.849 187.778 159.897 187.825C160.94 187.872 162.187 188.189 162.907 189.361C163.567 190.433 163.5 191.791 163.184 193.152Z" fill="#446ADB" stroke="white" stroke-width="3"/>
<path d="M86.8291 5.37207C86.8718 4.64973 86.5646 3.9509 86.0034 3.4941C85.4422 3.0373 84.6956 2.87827 83.997 3.06675C81.4889 3.74336 78.1508 5.83531 74.3771 9.13108C70.5349 12.4866 66.0404 17.2684 61.2243 23.6125C58.7002 26.9374 55.7696 32.3669 52.8838 38.559C49.9783 44.7932 47.0527 51.9439 44.5563 58.8076C42.0633 65.6619 39.9778 72.2857 38.771 77.4577C38.1703 80.0316 37.7669 82.3307 37.6601 84.1537C37.6071 85.0598 37.6208 85.9435 37.7612 86.7264C37.8904 87.4474 38.1903 88.4521 39.0215 89.1767C40.1449 90.156 41.5716 89.9604 42.2691 89.812C43.1333 89.6281 44.0874 89.2447 45.0523 88.7757C47.0075 87.8253 49.4599 86.2974 52.1695 84.4139C57.6123 80.6305 64.3718 75.2164 70.79 69.5241C77.2007 63.8385 83.3493 57.8061 87.535 52.7775C89.6125 50.2818 91.3017 47.9215 92.2711 45.9063C92.752 44.9066 93.1307 43.8411 93.2089 42.7955C93.2906 41.7017 93.0439 40.4485 92.0531 39.4818C90.9418 38.3976 89.9173 36.4438 89.0744 33.6723C88.2477 30.9543 87.6675 27.6951 87.2829 24.253C86.5138 17.3713 86.5539 10.0197 86.8291 5.37207Z" fill="#446ADB" stroke="white" stroke-width="4.5" stroke-linecap="round" stroke-linejoin="round"/>
<path d="M146.715 52.4516C132.551 28.8445 100.772 19.8362 67.0228 38.7356C58.3379 43.5991 51.1455 52.058 45.2022 62.2456C39.2475 72.4527 34.4592 84.546 30.6514 96.8833C23.0365 121.556 19.2663 147.457 18.0076 161.806C16.7352 176.312 18.5013 199.355 29.1837 218.987C39.9474 238.768 59.7113 254.953 93.9692 255.48C127.492 255.997 148.377 244.929 160.253 229.108C172.064 213.374 174.693 193.295 172.483 176.224C172.259 174.488 172.005 172.491 171.723 170.269C170.022 156.858 167.285 135.286 163.595 113.899C161.445 101.433 158.965 88.9951 156.17 78.2458C153.387 67.5478 150.247 58.3389 146.715 52.4516Z" fill="#446ADB" stroke="white" stroke-width="4" stroke-linecap="round"/>
<path d="M44.099 214.05L51.0465 209.39C60.6329 202.959 69.4489 195.915 70.7232 193.67C71.9976 191.425 80.8142 184.383 90.3996 177.952L199.819 104.546C205.906 112.895 208.675 124.494 208.041 139.326C221.149 126.542 224.806 110.682 220.164 95.7228C219.479 93.5183 217.88 90.1715 216.594 88.2551L210.768 79.5706C209.482 77.6533 206.789 75.3221 204.759 74.3675C200.699 72.4582 197.823 67.1837 198.341 62.5953L198.676 59.6271C198.985 56.8963 197.993 52.8276 196.462 50.5448L193.854 46.6569C192.323 44.3747 189.227 43.765 186.946 45.2959L160.478 63.0517C158.196 64.5831 157.586 67.6789 159.117 69.9601L161.726 73.8489C163.257 76.1311 166.693 78.3931 169.394 78.8964L174.182 79.7882C178.722 80.6347 184.494 84.4338 187.066 88.2692L188.232 90.0061L79.9359 162.354C70.3378 168.766 60.4667 174.238 57.9064 174.566C55.3464 174.893 45.4852 180.38 35.8997 186.811L28.9522 191.471C25.1175 194.045 24.0939 199.246 26.6655 203.08L32.492 211.764C35.0637 215.598 40.2653 216.623 44.099 214.05Z" fill="#442DDB" stroke="white" stroke-width="3" stroke-miterlimit="3" stroke-linecap="round" stroke-linejoin="round"/>
<path d="M62.7494 157.408C71.2634 166.886 73.6029 173.831 69.768 178.243C65.9338 182.656 59.4007 181.179 50.1688 173.813" fill="#446ADB"/>
<path d="M62.7494 157.408C71.2634 166.886 73.6029 173.831 69.768 178.243C65.9338 182.656 59.4007 181.179 50.1688 173.813" stroke="white" stroke-width="2.91" stroke-miterlimit="3" stroke-linecap="round" stroke-linejoin="round"/>
<path d="M130.855 161.983C124.977 150.68 124.446 143.371 129.261 140.055C134.075 136.739 140.033 139.801 147.133 149.24" fill="#446ADB"/>
<path d="M130.855 161.983C124.977 150.68 124.446 143.371 129.261 140.055C134.075 136.739 140.033 139.801 147.133 149.24" stroke="white" stroke-width="2.91" stroke-miterlimit="3" stroke-linecap="round" stroke-linejoin="round"/>
<path d="M46.5 238.481C49.0946 256.262 58.5 264.481 65 264.481C71.5 264.481 72.658 261.636 73 244.981" fill="#446ADB"/>
<path d="M46.5 238.481C49.0946 256.262 58.5 264.481 65 264.481C71.5 264.481 72.658 261.636 73 244.981" stroke="white" stroke-width="2.91" stroke-miterlimit="3" stroke-linecap="round" stroke-linejoin="round"/>
<path d="M108 245.981C110 259.981 119 267.481 123.392 267.481C127.785 267.481 132.658 261.636 133 244.981" fill="#446ADB"/>
<path d="M108 245.981C110 259.981 119 267.481 123.392 267.481C127.785 267.481 132.658 261.636 133 244.981" stroke="white" stroke-width="2.91" stroke-miterlimit="3" stroke-linecap="round" stroke-linejoin="round"/>
<path d="M146.5 32.4806C148 42.4806 151 62.4806 152.5 76.4806C154 90.4806 109.48 38.2806 117.48 35.4806C125.48 32.6806 134.48 14.314 137.98 5.48063C141.147 8.1473 145 22.4806 146.5 32.4806Z" fill="#446ADB"/>
<path d="M63.0164 24.9729C53.5329 37.4652 36.4171 83.9214 40.5 87.4806C44.5829 91.0399 96.5486 47.0113 90.4818 41.0923C84.415 35.1734 84.0214 14.7239 84.583 5.23908C80.586 6.31739 72.5 12.4806 63.0164 24.9729Z" fill="#446ADB"/>
<path d="M80.4591 64.0663C84.4862 64.5308 82.5207 72.4975 81.7075 75.9292C80.8942 79.3608 79.204 87.4015 75.8416 87.1625C72.4792 86.9236 72.5251 78.9221 73.5198 74.0295C74.5145 69.1369 76.4322 63.6019 80.4591 64.0663Z" fill="white"/>
<path d="M114.76 64.6975C118.667 65.1804 117.507 72.9932 116.733 76.4306C115.959 79.8683 114.354 87.9236 111.092 87.6697C107.83 87.4155 107.841 79.3922 108.784 74.4905C109.728 69.5889 110.853 64.2143 114.76 64.6975Z" fill="white"/>
<rect x="76.7233" y="62.0735" width="9.85856" height="9.85856" transform="rotate(18.6297 76.7233 62.0735)" fill="#446ADB"/>
<rect x="106.553" y="64.4804" width="12.5534" height="9.85856" transform="rotate(-5.31392 106.553 64.4804)" fill="#446ADB"/>
<path fill-rule="evenodd" clip-rule="evenodd" d="M107.656 93.7231C108.408 94.2269 108.352 95.095 107.533 95.662C103.84 98.2175 93.6796 102.369 81.3937 99.6937C80.3701 99.4709 79.8918 98.7025 80.3254 97.9774C80.759 97.2524 81.9402 96.8453 82.9638 97.0681C93.4936 99.3607 102.016 95.7727 104.813 93.8376C105.632 93.2706 106.905 93.2193 107.656 93.7231Z" fill="white"/>
<path fill-rule="evenodd" clip-rule="evenodd" d="M100.784 64.494C99.941 64.1591 99.526 63.2253 99.857 62.4082C100.281 61.3628 101.278 60.5509 102.539 59.9691C103.836 59.3701 105.605 58.9208 107.914 58.7082C112.533 58.283 119.554 58.7836 129.89 61.2184C130.773 61.4265 131.327 62.2908 131.127 63.149C130.926 64.0072 130.048 64.5342 129.164 64.3262C119.019 61.9363 112.392 61.5124 108.27 61.8918C106.21 62.0815 104.836 62.4667 103.978 62.863C103.551 63.0601 103.275 63.2488 103.108 63.3969C102.949 63.538 102.91 63.6218 102.91 63.6218L102.91 63.6208C102.579 64.4379 101.627 64.8288 100.784 64.494Z" fill="white"/>
<path d="M61.7985 62.4027C62.1404 63.2324 63.0934 63.6489 63.9269 63.3329C71.0521 60.6316 76.5495 59.9519 80.4739 60.1473C84.4546 60.3455 86.6962 61.4322 87.4733 62.0978C88.1619 62.6875 89.1911 62.6275 89.7722 61.9637C90.3532 61.2999 90.2661 60.2838 89.5776 59.6941C88.0276 58.3666 84.955 57.1551 80.5559 56.9361C76.1004 56.7143 70.1525 57.4984 62.6886 60.3281C61.8551 60.6441 61.4565 61.5729 61.7985 62.4027Z" fill="white"/>
</svg>
