<svg width="917" height="1321" viewBox="0 0 917 1321" fill="none" xmlns="http://www.w3.org/2000/svg">
<path d="M294.512 172.717C295.643 157.56 278.502 97.9472 362.1 28.9022C386.879 7.06354 491.03 7.64549 617.661 29.6978C744.291 51.75 831.762 129.991 861.904 187.478C892.046 244.965 852.779 335.807 846.184 367.19C834.963 420.585 807.274 468.966 810.947 528.812C816.689 622.349 746.893 669.189 767.313 719.066C787.369 768.054 771.454 723.238 694.891 741.909C708.936 795.046 631.564 758.765 690.664 742.989C692.093 742.607 693.502 742.248 694.891 741.909C693.688 737.359 691.816 732.153 689.129 726.223C679.766 719.335 656.749 691.902 639.593 637.271C618.148 568.982 586.714 578.63 489.258 577.244C391.801 575.857 277.616 730.356 238.558 754.058C199.5 777.76 124.801 771.031 80.5475 724.328C45.1448 686.966 179.107 428.592 253.389 337.138C253.05 330.278 243.047 355.566 249.726 297.111C258.702 218.563 278.222 187.827 294.512 172.717Z" fill="#446ADB"/>
<path d="M294.512 172.717C295.643 157.56 278.502 97.9472 362.1 28.9022C386.879 7.06354 491.03 7.64549 617.661 29.6978C744.291 51.75 831.762 129.991 861.904 187.478C892.046 244.965 852.779 335.807 846.184 367.19C834.963 420.585 807.274 468.966 810.947 528.812C816.689 622.349 746.893 669.189 767.313 719.066C787.733 768.943 770.865 721.581 690.664 742.989C626.503 760.116 723.187 801.41 689.129 726.223C679.766 719.335 656.749 691.902 639.593 637.271C618.148 568.982 586.714 578.63 489.258 577.244C391.801 575.857 277.616 730.356 238.558 754.058C199.5 777.76 124.801 771.031 80.5475 724.328C45.1448 686.966 179.107 428.592 253.389 337.138M294.512 172.717C278.222 187.827 258.702 218.563 249.726 297.111C243.047 355.566 253.05 330.278 253.389 337.138M294.512 172.717C322.703 161.254 408.742 143.185 527.367 162.613C675.648 186.898 785.465 219.645 809.355 274.717C827.832 317.31 754.949 454.621 703.986 476.12C653.022 497.619 581.626 473.573 471.267 442.909C360.907 412.244 350.043 427.371 303.466 427.226C288.302 427.178 258.508 356.679 253.389 337.138" stroke="white" stroke-width="12"/>
<path d="M439.357 285.335L440.788 274.579L430.917 279.085C383.323 300.812 337.045 341.809 291.961 401.445C246.855 461.111 202.716 539.737 159.496 637.182C148.523 661.924 137.606 687.885 126.745 715.066C86.1191 816.731 50.2343 920.195 28.3673 1008.21C17.4353 1052.21 9.97005 1092.49 7.1985 1126.83C4.43914 1161.03 6.27023 1190 14.4911 1210.97C20.6776 1226.75 34.3434 1240.36 53.3016 1252C72.3191 1263.68 97.2027 1273.72 126.758 1282.14C185.883 1298.98 264.628 1309.6 354.84 1313.46C479.646 1318.8 601.022 1304.06 666.742 1275.27L666.903 1275.2C685.603 1267.01 713.183 1254.92 718.551 1224.53C762.432 1217.7 816.349 1201.98 849.007 1177.07C850.724 1175.76 852.647 1174.34 854.718 1172.8C862.452 1167.06 872.245 1159.8 881.033 1151.4C892.162 1140.77 902.629 1127.48 905.605 1111.73L899.71 1110.61L905.605 1111.73C911.065 1082.83 917.668 1047.19 889.528 1021.14C853.919 988.165 805.936 996.521 782.807 1006.2L782.807 1006.2C776.912 1008.67 770.389 1013.19 765.894 1019.46C761.288 1025.89 758.733 1034.33 761.589 1043.85C764.285 1052.84 771.348 1057.74 778.145 1060.16C784.866 1062.56 792.099 1062.85 797.076 1062.15C806.363 1060.85 818.868 1061.26 829.458 1064.79C840.024 1068.32 847.584 1074.51 849.672 1084.16L855.536 1082.89L849.672 1084.16C851.467 1092.45 850.193 1099.11 847.189 1104.69C844.11 1110.41 839.013 1115.36 832.655 1119.68C821.837 1127.03 808.61 1131.8 798.244 1135.54C796.253 1136.26 794.367 1136.94 792.624 1137.59C759.826 1149.89 737.679 1152.94 715.92 1150.8C715.287 1142.54 714.413 1132.91 713.416 1121.92C707.566 1057.43 697.46 946.043 706.826 788.784C711.389 712.152 745.927 571.428 810.902 366.021L813.643 357.353L804.596 358.24C765.381 362.081 733.429 369.06 708.963 379.354C685.407 389.264 659.255 405.121 630.532 426.762C603.363 415.078 570.952 406.433 533.393 400.742C496.74 395.188 464.323 392.497 436.178 392.716C434.705 383.301 433.66 372.764 433.053 361.091C432.359 347.739 434.392 322.641 439.357 285.335Z" fill="#446ADB" stroke="white" stroke-width="12"/>
<path d="M389.723 650.043C389.323 647.643 389.923 645.243 391.423 643.243C392.823 641.243 395.023 639.943 397.423 639.643C399.823 639.243 402.323 639.843 404.223 641.243C406.223 642.743 407.523 644.843 407.923 647.243C408.323 650.243 409.223 653.043 410.523 655.743C411.223 657.243 412.323 658.543 413.523 659.643C414.823 660.643 416.223 661.543 417.823 661.943C420.523 662.843 423.423 663.243 426.323 663.243C429.423 663.243 432.523 662.743 435.523 661.943C437.123 661.443 438.723 660.743 440.023 659.643C441.223 658.743 442.223 657.643 442.923 656.343C444.023 654.443 444.823 652.343 445.323 650.143C445.823 647.743 447.223 645.643 449.223 644.243C451.223 642.943 453.723 642.443 456.123 642.943C458.523 643.443 460.623 644.843 461.923 646.843C463.323 648.843 463.823 651.343 463.323 653.743C462.423 657.943 460.923 661.843 458.823 665.543C456.923 668.943 454.323 671.943 451.223 674.243C448.023 676.743 444.423 678.543 440.523 679.543C435.923 680.843 431.223 681.543 426.423 681.643C421.623 681.643 416.923 680.943 412.423 679.543C408.423 678.343 404.723 676.243 401.623 673.543C398.423 670.843 395.823 667.543 394.023 663.843C391.923 659.443 390.423 654.843 389.723 650.043Z" fill="white"/>
<path d="M398.495 468.543C417.679 473.379 403.226 511.372 397.162 527.759C391.098 544.145 377.93 582.677 361.82 579.372C345.71 576.068 350.903 536.689 358.752 513.222C366.601 489.755 379.312 463.708 398.495 468.543Z" fill="white"/>
<path d="M563.496 493.443C582.679 498.278 571.881 535.898 565.816 552.284C559.752 568.671 546.585 607.202 530.474 603.898C514.364 600.593 519.558 561.214 527.406 537.747C535.255 514.281 544.312 488.607 563.496 493.443Z" fill="white"/>
<path d="M294.512 172.721C295.642 157.564 282.358 66.1232 362.099 28.9062C441.84 -8.31082 491.03 7.64952 617.66 29.7018C744.29 51.7541 831.761 129.995 861.904 187.482C867.396 199.552 878.308 231.068 878.012 260.579C877.643 297.468 829.659 445.243 827.702 484.862C825.745 524.482 822.262 586.823 826.623 634.463C829.588 666.85 842.842 711.148 850.638 752.363C858.434 793.578 856.67 852.836 806.43 864.799C756.19 876.762 725.229 805.666 724.033 800.473C722.836 795.28 713.357 695.521 727.786 615.198C739.33 550.94 726.543 489.806 718.707 467.271C713.67 471.113 708.732 474.121 703.985 476.124C653.022 497.623 581.625 473.577 471.265 442.913C360.905 412.248 350.042 427.375 303.465 427.23C288.301 427.182 264.26 422.809 259.141 403.268C258.802 396.408 243.046 355.57 249.726 297.115C258.701 218.567 278.221 187.831 294.512 172.721Z" fill="#446ADB"/>
<path d="M294.512 172.721C295.642 157.564 282.358 66.1232 362.099 28.9062C441.84 -8.31082 491.03 7.64952 617.66 29.7018C744.29 51.7541 831.761 129.995 861.904 187.482C867.396 199.552 878.308 231.068 878.012 260.579C877.643 297.468 829.659 445.243 827.702 484.862C825.745 524.482 822.262 586.823 826.623 634.463C829.588 666.85 842.842 711.148 850.638 752.363C858.434 793.578 856.67 852.836 806.43 864.799M294.512 172.721C278.221 187.831 258.701 218.567 249.726 297.115C243.046 355.57 258.802 396.408 259.141 403.268C264.26 422.809 288.301 427.182 303.465 427.23C350.042 427.375 360.905 412.248 471.265 442.913C581.625 473.577 653.022 497.623 703.985 476.124C708.732 474.121 713.67 471.113 718.707 467.271M294.512 172.721C322.703 161.258 408.741 143.189 527.366 162.617C675.647 186.902 760.861 220.912 784.751 275.983C801.506 314.608 767.734 429.864 718.707 467.271M718.707 467.271C726.543 489.806 739.33 550.94 727.786 615.198C713.357 695.521 722.836 795.28 724.033 800.473C725.229 805.666 756.19 876.762 806.43 864.799M806.43 864.799C811.834 894.63 811.153 933.443 806.43 948.423" stroke="white" stroke-width="12" stroke-linecap="round"/>
<path d="M503.575 248.794C505.586 246.349 509.506 247.098 510.474 250.113L521.129 283.321C521.496 284.466 522.358 285.384 523.476 285.823L555.943 298.562C558.89 299.719 559.389 303.679 556.821 305.531L528.53 325.926C527.555 326.629 526.948 327.733 526.876 328.932L524.793 363.746C524.604 366.907 520.992 368.605 518.437 366.734L490.297 346.131C489.328 345.421 488.091 345.185 486.928 345.487L453.174 354.264C450.109 355.061 447.378 352.15 448.368 349.142L459.267 316.013C459.643 314.872 459.485 313.622 458.838 312.609L440.06 283.22C438.356 280.552 440.28 277.054 443.446 277.066L478.322 277.195C479.524 277.199 480.663 276.663 481.427 275.735L503.575 248.794Z" fill="white"/>
</svg>
