<svg width="413" height="502" viewBox="0 0 413 502" fill="none" xmlns="http://www.w3.org/2000/svg">
<g opacity="0.65">
<path opacity="0.65" d="M330.848 260.909C313.807 251.777 292.556 258.201 283.422 275.244L220.538 392.588C215.971 401.11 223.334 413.961 236.967 421.268L249.313 427.884C262.948 435.19 277.725 434.204 282.291 425.682L345.177 308.337C354.31 291.294 347.89 270.042 330.848 260.909Z" fill="#446ADB"/>
</g>
<path d="M246.069 473.4C255.647 465.563 257.06 451.425 249.223 441.847C241.386 432.269 227.248 430.856 217.671 438.693C208.093 446.53 206.679 460.667 214.516 470.245C222.353 479.823 236.493 481.237 246.069 473.4Z" fill="white" fill-opacity="0.35"/>
<path d="M204.437 497.759C211.919 491.636 213.024 480.591 206.9 473.109C200.779 465.626 189.732 464.522 182.25 470.644C174.767 476.767 173.663 487.812 179.786 495.295C185.908 502.778 196.955 503.882 204.437 497.759Z" fill="white" fill-opacity="0.25"/>
<path d="M86.7927 357.133C84.9328 391.721 112.03 421.001 143.227 436.373C140.62 440.97 131.628 454.668 107.649 465.315C83.6692 475.961 48.6138 464.25 34.0391 445.686C19.4644 427.121 28.7662 420.091 19.3172 416.242C9.86819 412.392 -3.65635 433.752 18.0904 460.407C39.8371 487.063 84.7954 499.705 117.463 488.624C150.131 477.544 168.799 456.191 175.124 448.139C183.176 451.36 196.277 450.979 208.249 451.82C324.797 459.999 385.222 364.439 393.58 277.389C399.496 215.772 417.218 78.8642 397.18 34.6984C379.274 45.4197 357.285 65.2489 350.642 77.4166C343.723 68.6263 324.26 60.9709 316.209 59.235C319.254 48.1543 308.237 17.6615 301.487 7.70824C289.478 13.2817 269.065 42.1465 261.002 56.7813C204.068 92.709 202.844 155.91 187.393 177.01C155.221 220.941 91.2743 273.773 86.7927 357.133Z" fill="#446ADB" stroke="white" stroke-width="12" stroke-miterlimit="3" stroke-linecap="square"/>
<path d="M86.7927 357.133C84.9328 391.721 112.03 421.001 143.227 436.373C140.62 440.97 131.628 454.668 107.649 465.315C83.6692 475.961 48.6138 464.25 34.0391 445.686C19.4644 427.121 28.7662 420.091 19.3172 416.242C9.86819 412.392 -3.65635 433.752 18.0904 460.407C39.8371 487.063 84.7954 499.705 117.463 488.624C150.131 477.544 168.799 456.191 175.124 448.139C183.176 451.36 196.277 450.979 208.249 451.82C324.797 459.999 385.222 364.439 393.58 277.389C399.496 215.772 417.218 78.8642 397.18 34.6984C379.274 45.4197 357.285 65.2489 350.642 77.4166C343.723 68.6263 324.26 60.9709 316.209 59.235C319.254 48.1543 308.237 17.6615 301.487 7.70824C289.478 13.2817 269.065 42.1465 261.002 56.7813C204.068 92.709 202.844 155.91 187.393 177.01C155.221 220.941 91.2743 273.773 86.7927 357.133Z" fill="#446ADB"/>
<rect x="113.756" y="321.767" width="138.02" height="213.467" rx="18" transform="rotate(-74.6089 113.756 321.767)" fill="white"/>
<rect x="126.629" y="314.426" width="117.09" height="193.228" rx="18" transform="rotate(-74.6089 126.629 314.426)" fill="#446ADB"/>
<ellipse cx="234.79" cy="284.237" rx="51.6465" ry="93.4158" transform="rotate(-44.9494 234.79 284.237)" fill="white"/>
<ellipse cx="234.913" cy="284.114" rx="45.1353" ry="85.4922" transform="rotate(-44.9494 234.913 284.114)" fill="#446ADB"/>
<path d="M225.892 267.844L237.631 293.367C230.847 296.489 222.816 293.527 219.684 286.748L213.329 272.992L205.364 276.302L211.79 252.957L233.836 263.329L225.892 267.844Z" fill="white"/>
<path d="M245.294 301.402L233.556 275.879C240.34 272.758 248.37 275.72 251.502 282.499L257.857 296.254L265.823 292.945L259.397 316.289L237.35 305.917L245.294 301.402Z" fill="white"/>
<path d="M149.501 291.309L155.635 304.646C152.09 306.277 147.894 304.729 146.258 301.187L142.937 293.999L138.775 295.729L142.132 283.53L153.653 288.95L149.501 291.309Z" fill="white"/>
<path d="M158.697 307.626L152.563 294.289C156.108 292.658 160.304 294.206 161.94 297.748L165.261 304.936L169.423 303.207L166.066 315.405L154.545 309.985L158.697 307.626Z" fill="white"/>
<path d="M311.294 259.66L317.428 272.996C313.883 274.628 309.687 273.08 308.05 269.538L304.729 262.35L300.567 264.079L303.925 251.881L315.445 257.301L311.294 259.66Z" fill="white"/>
<path d="M320.489 275.977L314.356 262.64C317.9 261.009 322.097 262.557 323.733 266.099L327.054 273.287L331.216 271.557L327.858 283.756L316.338 278.336L320.489 275.977Z" fill="white"/>
<path d="M137.803 330.106C158.812 311.423 176.397 304.062 190.557 308.023C200.08 310.687 195.173 328.866 175.835 362.561" fill="#446ADB"/>
<path d="M137.803 330.106C158.812 311.423 176.397 304.062 190.557 308.023C200.08 310.687 195.173 328.866 175.835 362.561" stroke="white" stroke-width="5" stroke-miterlimit="3" stroke-linecap="round" stroke-linejoin="round"/>
<path d="M235.32 378.21C237.63 345.894 244.332 328.175 255.427 325.053C266.52 321.931 276.149 337.196 284.312 370.849" fill="#446ADB"/>
<path d="M235.32 378.21C237.63 345.894 244.332 328.175 255.427 325.053C266.52 321.931 276.149 337.196 284.312 370.849" stroke="white" stroke-width="5" stroke-miterlimit="3" stroke-linecap="round" stroke-linejoin="round"/>
<path d="M202.115 180.691C188.849 209.956 190.076 228.358 205.795 235.898C213.87 239.772 226.165 229.159 242.681 204.059" fill="#446ADB"/>
<path d="M202.115 180.691C188.849 209.956 190.076 228.358 205.795 235.898C213.87 239.772 226.165 229.159 242.681 204.059" stroke="white" stroke-width="5" stroke-miterlimit="3" stroke-linecap="round" stroke-linejoin="round"/>
<path d="M273.271 213.815C259.66 236.946 257.615 250.441 267.136 254.3C283.905 261.098 301.898 252.51 321.117 228.537" fill="#446ADB"/>
<path d="M273.271 213.815C259.66 236.946 257.615 250.441 267.136 254.3C283.905 261.098 301.898 252.51 321.117 228.537" stroke="white" stroke-width="5" stroke-miterlimit="3" stroke-linecap="round" stroke-linejoin="round"/>
<path d="M258.464 94.7676C257.007 96.3477 249.981 107.436 247 118.304" stroke="white" stroke-width="7" stroke-miterlimit="3" stroke-linecap="round" stroke-linejoin="round"/>
<path d="M310.086 112.317C307.342 116.535 299.264 126.748 296.58 135.298" stroke="white" stroke-width="7" stroke-miterlimit="3" stroke-linecap="round" stroke-linejoin="round"/>
<path d="M250.218 145.907C251.023 147.912 252.221 149.697 253.739 151.168M271.266 154.417C269.037 155.151 266.889 155.493 264.866 155.498M253.739 151.168C249.352 155.498 247.503 162.611 252.281 165.107M253.739 151.168C255.175 152.56 256.898 153.67 258.842 154.417M264.866 155.498C263.148 161.415 257.059 167.603 252.281 165.107M264.866 155.498C262.697 155.503 260.671 155.121 258.842 154.417M252.281 165.107L258.842 154.417" stroke="white" stroke-width="7" stroke-miterlimit="3" stroke-linecap="round" stroke-linejoin="round"/>
</svg>
