<?xml version="1.0" encoding="UTF-8" standalone="no"?><!-- Generator: Gravit.io --><svg xmlns="http://www.w3.org/2000/svg" xmlns:xlink="http://www.w3.org/1999/xlink" style="isolation:isolate" viewBox="0 0 1920 1145.36" width="1920pt" height="1145.36pt"><defs><clipPath id="_clipPath_cks4AhcZCsuD921zC3qMZNVaW1ZXxbM9"><rect width="1920" height="1145.36"/></clipPath></defs><g clip-path="url(#_clipPath_cks4AhcZCsuD921zC3qMZNVaW1ZXxbM9)"><defs><filter id="lLTpK4S74nJwKAPppRZBhVyMO4rsKsAM" x="-200%" y="-200%" width="400%" height="400%" filterUnits="objectBoundingBox" color-interpolation-filters="sRGB"><feOffset xmlns="http://www.w3.org/2000/svg" in="SourceGraphic" dx="0" dy="-50"/><feGaussianBlur xmlns="http://www.w3.org/2000/svg" stdDeviation="42.93609062839028" result="pf_100_offsetBlur"/><feComposite xmlns="http://www.w3.org/2000/svg" in="SourceGraphic" in2="pf_100_offsetBlur" result="pf_100_inverse" operator="out"/><feFlood xmlns="http://www.w3.org/2000/svg" flood-color="#000000" flood-opacity="0.1" result="pf_100_color"/><feComposite xmlns="http://www.w3.org/2000/svg" in="pf_100_color" in2="pf_100_inverse" operator="in" result="pf_100_shadow"/><feComposite xmlns="http://www.w3.org/2000/svg" in="pf_100_shadow" in2="SourceGraphic" operator="over"/></filter></defs><g filter="url(#lLTpK4S74nJwKAPppRZBhVyMO4rsKsAM)"><path d=" M 0 0 L 1920 0 L 1920 965 C 1621.333 1193.333 1305.333 865.333 901 1009 C 496.667 1152.667 193.333 1193.333 0 1080 L 0 0 Z " id="Hero" fill="rgb(67,103,215)"/><clipPath id="_clipPath_pD4wEFrAmZy7TrdvMO8EzWA348xVjf7B"><path d=" M 0 0 L 1920 0 L 1920 965 C 1621.333 1193.333 1305.333 865.333 901 1009 C 496.667 1152.667 193.333 1193.333 0 1080 L 0 0 Z " id="Hero" fill="rgb(67,103,215)"/></clipPath><g clip-path="url(#_clipPath_pD4wEFrAmZy7TrdvMO8EzWA348xVjf7B)"><g id="BG"><defs><filter id="CqeNSemNfLr3NMor2xMpnTL5QWBLhzuZ" x="-200%" y="-200%" width="400%" height="400%" filterUnits="objectBoundingBox" color-interpolation-filters="sRGB"><feOffset xmlns="http://www.w3.org/2000/svg" in="SourceGraphic" dx="50" dy="50"/><feGaussianBlur xmlns="http://www.w3.org/2000/svg" stdDeviation="85.87218125678056" result="pf_100_offsetBlur"/><feComposite xmlns="http://www.w3.org/2000/svg" in="SourceGraphic" in2="pf_100_offsetBlur" result="pf_100_inverse" operator="out"/><feFlood xmlns="http://www.w3.org/2000/svg" flood-color="#000000" flood-opacity="0.05" result="pf_100_color"/><feComposite xmlns="http://www.w3.org/2000/svg" in="pf_100_color" in2="pf_100_inverse" operator="in" result="pf_100_shadow"/><feComposite xmlns="http://www.w3.org/2000/svg" in="pf_100_shadow" in2="SourceGraphic" operator="over"/></filter></defs><g filter="url(#CqeNSemNfLr3NMor2xMpnTL5QWBLhzuZ)"><circle vector-effect="non-scaling-stroke" cx="1316.5" cy="442.4999999999999" r="1138.5" id="Ellipse" fill="rgb(68,81,219)"/></g><defs><filter id="8VU5naebappWvH2YmHc4PDSijFMoOZ8h" x="-200%" y="-200%" width="400%" height="400%" filterUnits="objectBoundingBox" color-interpolation-filters="sRGB"><feOffset xmlns="http://www.w3.org/2000/svg" in="SourceGraphic" dx="50" dy="50"/><feGaussianBlur xmlns="http://www.w3.org/2000/svg" stdDeviation="85.87218125678056" result="pf_100_offsetBlur"/><feComposite xmlns="http://www.w3.org/2000/svg" in="SourceGraphic" in2="pf_100_offsetBlur" result="pf_100_inverse" operator="out"/><feFlood xmlns="http://www.w3.org/2000/svg" flood-color="#000000" flood-opacity="0.1" result="pf_100_color"/><feComposite xmlns="http://www.w3.org/2000/svg" in="pf_100_color" in2="pf_100_inverse" operator="in" result="pf_100_shadow"/><feComposite xmlns="http://www.w3.org/2000/svg" in="pf_100_shadow" in2="SourceGraphic" operator="over"/></filter></defs><g filter="url(#8VU5naebappWvH2YmHc4PDSijFMoOZ8h)"><circle vector-effect="non-scaling-stroke" cx="1316.5000000000018" cy="442.5000000000005" r="877.9999999999999" id="Ellipse" fill="rgb(70,59,225)"/></g><defs><filter id="waK8P1O6KptITbqIJWpJnFhiwrW31wAL" x="-200%" y="-200%" width="400%" height="400%" filterUnits="objectBoundingBox" color-interpolation-filters="sRGB"><feOffset xmlns="http://www.w3.org/2000/svg" in="SourceGraphic" dx="50" dy="50"/><feGaussianBlur xmlns="http://www.w3.org/2000/svg" stdDeviation="85.87218125678056" result="pf_100_offsetBlur"/><feComposite xmlns="http://www.w3.org/2000/svg" in="SourceGraphic" in2="pf_100_offsetBlur" result="pf_100_inverse" operator="out"/><feFlood xmlns="http://www.w3.org/2000/svg" flood-color="#000000" flood-opacity="0.15" result="pf_100_color"/><feComposite xmlns="http://www.w3.org/2000/svg" in="pf_100_color" in2="pf_100_inverse" operator="in" result="pf_100_shadow"/><feComposite xmlns="http://www.w3.org/2000/svg" in="pf_100_shadow" in2="SourceGraphic" operator="over"/></filter></defs><g filter="url(#waK8P1O6KptITbqIJWpJnFhiwrW31wAL)"><circle vector-effect="non-scaling-stroke" cx="1316.5000000000025" cy="442.5000000000007" r="624.2500000000002" id="Ellipse" fill="rgb(69,46,221)"/></g><defs><filter id="9eFXtNTuyJh0fUFScVxK6ZnVampmJy8M" x="-200%" y="-200%" width="400%" height="400%" filterUnits="objectBoundingBox" color-interpolation-filters="sRGB"><feOffset xmlns="http://www.w3.org/2000/svg" in="SourceGraphic" dx="50" dy="50"/><feGaussianBlur xmlns="http://www.w3.org/2000/svg" stdDeviation="85.87218125678056" result="pf_100_offsetBlur"/><feComposite xmlns="http://www.w3.org/2000/svg" in="SourceGraphic" in2="pf_100_offsetBlur" result="pf_100_inverse" operator="out"/><feFlood xmlns="http://www.w3.org/2000/svg" flood-color="#000000" flood-opacity="0.2" result="pf_100_color"/><feComposite xmlns="http://www.w3.org/2000/svg" in="pf_100_color" in2="pf_100_inverse" operator="in" result="pf_100_shadow"/><feComposite xmlns="http://www.w3.org/2000/svg" in="pf_100_shadow" in2="SourceGraphic" operator="over"/></filter></defs><g filter="url(#9eFXtNTuyJh0fUFScVxK6ZnVampmJy8M)"><circle vector-effect="non-scaling-stroke" cx="1316.5000000000025" cy="442.5000000000006" r="388.5" id="Ellipse" fill="rgb(65,43,208)"/></g><linearGradient id="_lgradient_12" x1="0" y1="0.5" x2="1" y2="0.5" gradientTransform="matrix(928,0,0,1243,0,0)" gradientUnits="userSpaceOnUse"><stop offset="0.8695652173913043%" stop-opacity="1" style="stop-color:rgb(67,103,215)"/><stop offset="100%" stop-opacity="0" style="stop-color:rgb(67,103,215)"/></linearGradient><rect x="0" y="0" width="928" height="1243" transform="matrix(1,0,0,1,0,0)" id="Rectangle" fill="url(#_lgradient_12)"/></g><g id="Planet" filter="url(#UspFTPytPHEDiQNEttQUmVoiNKqlGB4Y)"><path d=" M 396.88 1017.939 C 399.728 1012.433 402.025 1006.536 403.694 1000.306 C 416.323 953.175 388.312 904.658 341.181 892.029 C 294.051 879.401 245.534 907.412 232.905 954.543 C 231.235 960.774 230.276 967.029 229.99 973.221 C 231.697 974.068 233.418 974.89 235.148 975.693 C 242.598 979.161 250.167 982.387 257.824 985.365 C 266.278 988.665 274.83 991.72 283.47 994.525 C 292.728 997.55 302.076 1000.317 311.49 1002.839 C 320.904 1005.362 330.383 1007.64 339.912 1009.649 C 348.798 1011.539 357.731 1013.17 366.702 1014.539 C 374.823 1015.789 382.991 1016.779 391.176 1017.501 C 393.077 1017.67 394.978 1017.819 396.88 1017.939 Z  M 379.011 1041.665 C 357.446 1062.016 326.137 1071.05 295.418 1062.819 C 264.699 1054.588 242.102 1031.11 233.601 1002.703 C 238.58 1004.868 243.603 1006.938 248.661 1008.908 C 257.561 1012.371 266.56 1015.589 275.64 1018.544 C 285.329 1021.707 295.111 1024.601 304.952 1027.238 C 314.793 1029.874 324.712 1032.26 334.684 1034.365 C 344.025 1036.345 353.427 1038.058 362.867 1039.509 C 368.232 1040.332 373.617 1041.051 379.011 1041.665 Z " fill-rule="evenodd" id="Compound Shape" fill="rgb(255,255,255)"/><path d=" M 418.338 973.401 C 447.675 988.659 464.731 1004.299 461.641 1015.832 C 456.078 1036.593 387.333 1036.236 308.221 1015.038 C 229.109 993.84 169.396 959.777 174.959 939.016 C 177.987 927.713 199.744 922.67 231.706 923.841" id="Ellipse" fill="none" vector-effect="non-scaling-stroke" stroke-width="14.735" stroke="rgb(255,255,255)" stroke-linejoin="miter" stroke-linecap="round" stroke-miterlimit="3"/></g><defs><filter id="UspFTPytPHEDiQNEttQUmVoiNKqlGB4Y" x="-200%" y="-200%" width="400%" height="400%" filterUnits="objectBoundingBox" color-interpolation-filters="sRGB"><feGaussianBlur xmlns="http://www.w3.org/2000/svg" in="SourceGraphic" stdDeviation="21.46804531419514"/><feOffset xmlns="http://www.w3.org/2000/svg" dx="-50" dy="50" result="pf_100_offsetBlur"/><feFlood xmlns="http://www.w3.org/2000/svg" flood-color="#000000" flood-opacity="0.15"/><feComposite xmlns="http://www.w3.org/2000/svg" in2="pf_100_offsetBlur" operator="in" result="pf_100_dropShadow"/><feBlend xmlns="http://www.w3.org/2000/svg" in="SourceGraphic" in2="pf_100_dropShadow" mode="normal"/></filter></defs><g id="Planet" filter="url(#LH209zKhWHkFYCihRHlHjwmxbBxBSkva)"><path d=" M 1848.591 122.964 C 1849.14 118.668 1849.232 114.248 1848.833 109.758 C 1845.815 75.801 1815.795 50.682 1781.837 53.7 C 1747.88 56.718 1722.761 86.738 1725.779 120.696 C 1726.178 125.185 1727.049 129.52 1728.347 133.652 C 1729.67 133.799 1730.997 133.925 1732.325 134.037 C 1738.045 134.526 1743.786 134.827 1749.525 134.945 C 1755.865 135.083 1762.209 135.036 1768.552 134.804 C 1775.353 134.569 1782.151 134.142 1788.934 133.539 C 1795.716 132.936 1802.483 132.157 1809.219 131.189 C 1815.503 130.299 1821.757 129.226 1827.972 127.972 C 1833.601 126.844 1839.199 125.535 1844.744 124.045 C 1846.031 123.701 1847.314 123.342 1848.591 122.964 Z  M 1842.557 142.82 C 1833.287 161.349 1814.908 174.787 1792.775 176.754 C 1770.642 178.721 1750.181 168.735 1737.788 152.133 C 1741.575 152.359 1745.368 152.513 1749.16 152.592 C 1755.831 152.73 1762.508 152.683 1769.175 152.444 C 1776.292 152.196 1783.406 151.748 1790.496 151.118 C 1797.587 150.488 1804.668 149.674 1811.717 148.663 C 1818.322 147.722 1824.903 146.591 1831.445 145.278 C 1835.163 144.531 1838.869 143.712 1842.557 142.82 Z " fill-rule="evenodd" id="Compound Shape" fill="rgb(255,255,255)"/><path d=" M 1851.989 88.59 C 1874.901 91.566 1889.845 97.738 1890.584 106.047 C 1891.913 121.005 1846.716 137.262 1789.715 142.328 C 1732.715 147.395 1685.358 139.365 1684.029 124.407 C 1683.305 116.263 1696.373 107.734 1717.628 100.836" id="Ellipse" fill="none" vector-effect="non-scaling-stroke" stroke-width="10.295" stroke="rgb(255,255,255)" stroke-linejoin="miter" stroke-linecap="round" stroke-miterlimit="3"/></g><defs><filter id="LH209zKhWHkFYCihRHlHjwmxbBxBSkva" x="-200%" y="-200%" width="400%" height="400%" filterUnits="objectBoundingBox" color-interpolation-filters="sRGB"><feGaussianBlur xmlns="http://www.w3.org/2000/svg" in="SourceGraphic" stdDeviation="21.46804531419514"/><feOffset xmlns="http://www.w3.org/2000/svg" dx="-50" dy="50" result="pf_100_offsetBlur"/><feFlood xmlns="http://www.w3.org/2000/svg" flood-color="#000000" flood-opacity="0.15"/><feComposite xmlns="http://www.w3.org/2000/svg" in2="pf_100_offsetBlur" operator="in" result="pf_100_dropShadow"/><feBlend xmlns="http://www.w3.org/2000/svg" in="SourceGraphic" in2="pf_100_dropShadow" mode="normal"/></filter></defs><g id="Rocket" filter="url(#XsijrHypGmG4WhaT17myFMPGOxBZdlN0)"><g id="Bubbles"><g opacity="0.2"><path d=" M 1072.158 131.003 C 1066.682 122.767 1068.922 111.634 1077.158 106.158 C 1085.395 100.682 1096.527 102.922 1102.003 111.158 C 1107.48 119.395 1105.239 130.527 1097.003 136.003 C 1088.767 141.48 1077.634 139.239 1072.158 131.003 Z " id="Ellipse" fill="rgb(255,255,255)"/></g><g opacity="0.15"><path d=" M 1102.781 158.069 C 1099.231 152.731 1100.683 145.515 1106.022 141.965 C 1111.36 138.416 1118.575 139.868 1122.125 145.206 C 1125.674 150.545 1124.222 157.76 1118.884 161.31 C 1113.546 164.859 1106.33 163.407 1102.781 158.069 Z " id="Ellipse" fill="rgb(255,255,255)"/></g><g opacity="0.25"><path d=" M 1047.104 168.862 C 1041.431 160.331 1043.752 148.8 1052.283 143.127 C 1060.815 137.455 1072.346 139.776 1078.019 148.307 C 1083.691 156.838 1081.37 168.369 1072.839 174.042 C 1064.308 179.714 1052.776 177.394 1047.104 168.862 Z " id="Ellipse" fill="rgb(255,255,255)"/></g><g opacity="0.15"><path d=" M 1123.942 126.817 C 1120.393 121.479 1121.845 114.263 1127.183 110.714 C 1132.521 107.164 1139.737 108.616 1143.286 113.955 C 1146.836 119.293 1145.384 126.508 1140.045 130.058 C 1134.707 133.607 1127.492 132.155 1123.942 126.817 Z " id="Ellipse" fill="rgb(255,255,255)"/></g><g opacity="0.15"><path d=" M 1159.797 128.023 C 1157.759 124.957 1158.593 120.813 1161.659 118.774 C 1164.725 116.735 1168.869 117.569 1170.908 120.635 C 1172.946 123.701 1172.112 127.846 1169.046 129.884 C 1165.98 131.923 1161.836 131.089 1159.797 128.023 Z " id="Ellipse" fill="rgb(255,255,255)"/></g><g opacity="0.15"><path d=" M 1187.639 130.569 C 1186.412 128.723 1186.914 126.228 1188.76 125.001 C 1190.606 123.773 1193.101 124.276 1194.328 126.121 C 1195.556 127.967 1195.054 130.462 1193.208 131.69 C 1191.362 132.917 1188.867 132.415 1187.639 130.569 Z " id="Ellipse" fill="rgb(255,255,255)"/></g><g opacity="0.15"><path d=" M 1143.62 144.742 C 1141.389 141.387 1142.302 136.851 1145.657 134.62 C 1149.013 132.389 1153.548 133.302 1155.779 136.657 C 1158.01 140.013 1157.097 144.548 1153.742 146.779 C 1150.387 149.01 1145.851 148.097 1143.62 144.742 Z " id="Ellipse" fill="rgb(255,255,255)"/></g></g><path d=" M 1014.316 198.168 C 1015.48 198.2 1016.645 198.232 1017.813 198.266 C 1018.09 197.88 1018.548 197.46 1019.44 196.99 C 1021.97 195.65 1024.41 194.13 1026.72 192.44 C 1028.89 190.86 1030.94 189.12 1032.85 187.24 C 1034.73 185.4 1036.46 183.43 1038.04 181.33 C 1039.66 179.19 1041.11 176.94 1042.39 174.58 C 1043.76 172.06 1044.96 169.44 1045.97 166.75 C 1047.1 163.75 1048.02 160.68 1048.72 157.56 C 1049.54 153.93 1050.14 150.26 1050.52 146.57 C 1050.87 143.11 1050.98 139.64 1050.85 136.16 C 1050.74 133.11 1050.38 130.07 1049.79 127.08 C 1049.24 124.3 1048.47 121.56 1047.49 118.9 C 1046.53 116.31 1045.36 113.79 1044 111.38 C 1042.6 108.92 1041.01 106.57 1039.24 104.36 C 1037.31 101.95 1035.21 99.69 1032.94 97.6 C 1030.37 95.22 1027.63 93.03 1024.74 91.06 C 1022.893 89.798 1021.003 88.6 1019.072 87.471 L 1019.072 87.471 C 1016.401 87.234 1013.641 87.012 1010.815 86.804 L 1010.815 86.804 C 1010.806 86.883 1010.798 86.961 1010.79 87.04 C 1010.72 87.83 1010.5 88.6 1010.15 89.31 C 1009.78 90.06 1009.29 90.74 1008.7 91.33 C 1008.18 91.86 1007.6 92.32 1006.97 92.72 C 1006.17 93.22 1005.34 93.66 1004.48 94.02 C 1004.11 94.18 1003.74 94.32 1003.36 94.46 C 1002.94 94.61 1002.52 94.75 1002.09 94.88 C 1000.87 95.26 999.62 95.56 998.37 95.8 C 996.64 96.14 994.9 96.4 993.15 96.6 C 991.29 96.81 989.42 96.97 987.55 97.07 C 985.08 97.21 982.6 97.29 980.13 97.31 C 978.3 97.33 976.48 97.32 974.66 97.29 C 972.5 97.26 970.33 97.2 968.17 97.11 C 966.63 97.05 965.08 96.98 963.53 96.9 C 961.81 96.81 960.09 96.71 958.37 96.6 C 953.32 96.27 948.27 95.87 943.24 95.39 C 935.55 94.66 927.88 93.83 926.176 93.623 C 922.889 93.224 921.898 90.8 923.966 88.213 L 923.966 88.213 C 924.95 86.981 926.168 85.501 927.668 83.738 C 894.094 83.51 861.659 84.403 838.641 86.343 C 813.09 88.497 780.17 104.252 765.174 121.502 C 765.174 121.502 754.418 133.335 736.523 154.06 L 736.523 154.06 C 737.789 155.379 738.953 156.791 740.02 158.28 C 741.56 160.43 742.89 162.72 743.99 165.12 C 745.2 167.77 746.17 170.52 746.91 173.33 C 747.69 176.31 748.31 179.32 748.77 182.36 C 749.15 184.85 749.36 187.37 749.42 189.88 C 749.454 191.697 749.393 193.514 749.229 195.324 C 761.817 195.705 777.899 195.575 797.296 195.961 C 822.507 196.463 867.195 196.072 923.353 196.568 C 920.879 194.039 918.785 191.83 917.199 190.087 C 914.97 187.638 915.836 185.392 919.132 185.074 C 921.14 184.88 929.13 184.21 937.13 183.62 C 942.42 183.23 947.72 182.9 953.03 182.64 C 960.34 182.28 967.65 182.08 974.97 182.06 C 979.58 182.04 984.19 182.19 988.79 182.51 C 990.52 182.64 992.25 182.79 993.98 182.98 C 995.34 183.13 996.7 183.32 998.06 183.54 C 999.86 183.83 1001.64 184.2 1003.41 184.66 C 1004.62 184.97 1005.82 185.37 1006.97 185.86 C 1007.81 186.2 1008.61 186.61 1009.39 187.07 C 1009.99 187.43 1010.56 187.85 1011.08 188.33 C 1011.41 188.63 1011.73 188.97 1012.01 189.33 C 1012.27 189.66 1012.5 190.01 1012.7 190.39 C 1012.88 190.74 1013.03 191.11 1013.15 191.49 C 1013.26 191.87 1013.34 192.26 1013.38 192.65 L 1013.38 192.65 C 1013.49 193.77 1013.65 194.89 1013.87 195.99 C 1014.011 196.718 1014.161 197.444 1014.316 198.168 Z  M 1029.86 88.574 C 1035.084 89.594 1041.488 92.94 1044.878 96.534 C 1068.624 121.717 1065.189 174.867 1038.509 193.025 C 1035.975 194.751 1032.317 196.254 1028.625 197.223 C 1028.977 196.98 1029.325 196.732 1029.67 196.48 C 1032.03 194.76 1034.27 192.86 1036.36 190.81 C 1038.41 188.8 1040.31 186.63 1042.04 184.34 C 1043.8 182 1045.38 179.54 1046.78 176.97 C 1048.26 174.24 1049.56 171.42 1050.65 168.51 C 1051.86 165.3 1052.84 162.01 1053.6 158.66 C 1054.46 154.84 1055.09 150.97 1055.49 147.08 C 1055.87 143.39 1055.99 139.68 1055.85 135.98 C 1055.72 132.66 1055.34 129.36 1054.69 126.11 C 1054.09 123.07 1053.25 120.08 1052.18 117.17 C 1051.13 114.32 1049.85 111.56 1048.35 108.92 C 1046.82 106.22 1045.08 103.65 1043.14 101.23 C 1041.06 98.63 1038.78 96.19 1036.34 93.93 C 1034.282 92.022 1032.118 90.232 1029.86 88.574 L 1029.86 88.574 L 1029.86 88.574 Z  M 733.661 157.368 C 728.971 162.783 723.486 169.194 717.592 176.153 C 712.62 182.024 714.402 189.059 721.568 191.855 C 726.746 193.875 734.547 194.766 744.874 195.202 C 745.044 193.472 745.106 191.726 745.07 189.98 C 745.02 187.65 744.82 185.32 744.47 183.02 C 744.03 180.12 743.44 177.26 742.71 174.43 C 742.03 171.86 741.14 169.35 740.04 166.93 C 739.05 164.78 737.87 162.73 736.49 160.81 C 735.621 159.602 734.68 158.449 733.661 157.368 L 733.661 157.368 L 733.661 157.368 L 733.661 157.368 L 733.661 157.368 L 733.661 157.368 Z  M 927.37 89.99 C 933.9 82.05 940.68 74.32 947.7 66.82 C 954.71 59.32 962.02 52.11 969.6 45.2 C 973.13 41.98 976.91 39.05 980.9 36.42 C 985.13 33.64 989.56 31.17 994.15 29.04 C 999.23 26.69 1004.48 24.72 1009.85 23.14 C 1015.09 21.6 1020.4 20.35 1025.77 19.39 C 1024.39 23.61 1023.03 27.84 1021.68 32.07 C 1020.37 36.17 1019.09 40.29 1017.83 44.41 C 1016.1 50.06 1014.42 55.72 1012.81 61.41 C 1011.79 65.01 1010.83 68.62 1009.92 72.25 C 1009.14 75.39 1008.44 78.55 1007.81 81.73 C 1007.49 83.37 1007.25 85.02 1007.09 86.68 C 1007.05 87.02 1006.96 87.35 1006.81 87.66 C 1006.62 88.05 1006.36 88.4 1006.06 88.71 C 1005.73 89.03 1005.37 89.32 1004.98 89.57 C 1004.36 89.96 1003.71 90.3 1003.03 90.59 C 1002.72 90.72 1002.42 90.84 1002.11 90.95 C 1001.74 91.08 1001.37 91.21 1001 91.32 C 999.9 91.66 998.79 91.93 997.67 92.15 C 996.03 92.46 994.38 92.71 992.73 92.9 C 990.94 93.11 989.14 93.26 987.35 93.35 C 984.93 93.48 982.51 93.56 980.09 93.59 C 978.3 93.6 976.51 93.6 974.72 93.57 C 972.58 93.53 970.45 93.47 968.32 93.39 C 966.79 93.33 965.26 93.26 963.73 93.18 C 962.02 93.09 960.31 92.99 958.61 92.88 C 953.59 92.56 948.59 92.16 943.59 91.68 C 938.18 91.17 932.77 90.61 927.37 89.99 L 927.37 89.99 L 927.37 89.99 Z  M 1009.67 193.02 C 1009.79 194.26 1009.98 195.49 1010.22 196.71 C 1010.6 198.68 1011.05 200.64 1011.55 202.59 C 1011.94 204.13 1012.36 205.67 1012.8 207.2 C 1013.38 209.22 1013.99 211.23 1014.62 213.23 C 1015.08 214.69 1015.55 216.16 1016.03 217.62 C 1016.6 219.34 1017.18 221.06 1017.77 222.78 C 1019.42 227.62 1021.14 232.44 1022.92 237.24 C 1025.11 243.14 1027.34 249.03 1029.62 254.91 C 1023.45 254.12 1017.33 253.02 1011.27 251.61 C 1005.33 250.23 999.5 248.43 993.81 246.22 C 988.83 244.29 983.99 242.01 979.33 239.39 C 975.08 237 971.02 234.28 967.19 231.27 C 958.85 224.69 950.78 217.78 943.01 210.54 C 935.44 203.5 928.1 196.2 921.02 188.66 C 926.48 188.18 931.94 187.74 937.4 187.33 C 942.67 186.95 947.94 186.62 953.21 186.36 C 960.46 186 967.72 185.81 974.98 185.78 C 979.5 185.76 984.02 185.91 988.53 186.23 C 990.21 186.35 991.89 186.5 993.57 186.68 C 994.87 186.83 996.17 187 997.46 187.21 C 999.15 187.49 1000.82 187.84 1002.47 188.27 C 1003.52 188.54 1004.55 188.88 1005.55 189.3 C 1006.21 189.57 1006.86 189.9 1007.48 190.27 C 1007.87 190.5 1008.23 190.77 1008.56 191.08 C 1008.75 191.25 1008.93 191.44 1009.09 191.64 C 1009.21 191.79 1009.31 191.94 1009.4 192.11 C 1009.47 192.26 1009.53 192.41 1009.58 192.56 C 1009.62 192.71 1009.65 192.86 1009.67 193.02 L 1009.67 193.02 Z " fill-rule="evenodd" id="Rocket" fill="rgb(255,255,255)"/><path d=" M 754.222 148.927 Q 756.842 152.411 761.317 153.767 Q 785.522 161.101 840.931 156.039 C 844.093 150.398 842.928 130.644 838.655 119.455 Q 807.422 124.208 791.437 122.092 Q 784.905 121.227 780.907 118.328 C 771.783 126.816 762.891 137.019 754.222 148.927 Z  M 752.37 145.672 Q 749.986 140.047 750.682 130.888 L 774.641 105.676 Q 775.005 112.094 778.425 116.058 C 769.278 124.647 760.591 134.516 752.37 145.672 Z " fill-rule="evenodd" id="Compound Shape" fill="rgb(81,68,219)"/><path d=" M 791.997 147.446 C 791.979 147.686 791.917 147.919 791.822 148.137 C 791.731 148.336 791.607 148.519 791.448 148.669 C 791.284 148.825 791.096 148.946 790.886 149.033 C 790.64 149.135 790.377 149.202 790.111 149.232 C 789.845 149.268 789.573 149.254 789.31 149.208 C 789.08 149.164 788.862 149.069 788.672 148.94 C 788.475 148.811 788.312 148.641 788.189 148.441 C 788.044 148.212 787.928 147.961 787.861 147.699 C 787.828 147.564 787.843 147.424 787.912 147.304 C 787.981 147.189 788.09 147.102 788.225 147.068 C 788.358 147.028 788.499 147.05 788.619 147.118 C 788.734 147.187 788.821 147.297 788.861 147.43 C 788.904 147.589 788.972 147.745 789.057 147.886 C 789.109 147.962 789.173 148.03 789.254 148.084 C 789.33 148.138 789.415 148.173 789.505 148.188 C 789.665 148.22 789.829 148.227 789.99 148.209 C 790.164 148.19 790.335 148.146 790.497 148.077 C 790.587 148.042 790.663 147.99 790.738 147.925 C 790.793 147.862 790.842 147.794 790.878 147.721 C 790.928 147.602 790.958 147.48 790.969 147.353 C 790.979 147.22 791.047 147.093 791.15 147.006 C 791.26 146.919 791.393 146.872 791.533 146.888 C 791.666 146.899 791.793 146.966 791.879 147.069 C 791.966 147.173 792.013 147.312 791.997 147.446 L 791.997 147.446 L 791.997 147.446 Z  M 787.22 137.488 C 788.324 137.64 787.752 139.855 787.514 140.81 C 787.277 141.764 786.78 144.002 785.858 143.917 C 784.937 143.833 784.982 141.597 785.275 140.236 C 785.568 138.874 786.117 137.337 787.22 137.488 L 787.22 137.488 Z  M 770.658 181.259 C 768.441 177.045 770.602 164.929 773.877 153.063 C 774.315 151.478 774.763 149.962 775.221 148.514 Q 780.64 131.396 788.028 126.977 Q 787.96 130.15 788.151 131.316 Q 788.343 132.483 788.611 133.383 Q 791.029 133.062 794.332 133.193 Q 797.634 133.323 800.031 134.087 Q 802.303 131.918 804.199 130.86 Q 806.095 129.802 809.323 129.119 Q 805.791 146.957 806.127 153.502 C 806.678 164.211 808.402 171.015 808.946 174.019 C 810.342 174.048 811.665 173.744 813.589 172.767 C 814.698 172.204 816.104 170.731 815.395 168.62 C 814.936 167.252 813.013 167.214 811.911 167.496 C 811.455 167.613 810.508 167.596 810.206 166.888 C 809.865 166.087 810.473 165.377 811.012 165.077 C 812.198 164.418 814.671 163.718 816.711 165.225 C 818.438 166.5 818.728 168.668 818.6 170.355 C 818.479 171.943 817.466 173.255 816.604 174.079 C 814.937 175.671 811.942 176.896 809.502 177.529 C 809.529 179.226 808.157 180.039 807.082 180.66 C 803.651 182.641 797.014 184.217 790.016 184.694 C 779.902 185.384 772.245 184.273 770.658 181.259 L 770.658 181.259 L 770.658 181.259 Z  M 796.606 137.854 C 797.71 138.005 797.34 140.177 797.103 141.132 C 796.865 142.086 796.369 144.324 795.447 144.239 C 794.525 144.155 794.57 141.919 794.863 140.558 C 795.156 139.196 795.503 137.703 796.606 137.854 Z " fill-rule="evenodd" id="Compound Shape" fill="rgb(255,255,255)"/></g><defs><filter id="XsijrHypGmG4WhaT17myFMPGOxBZdlN0" x="-200%" y="-200%" width="400%" height="400%" filterUnits="objectBoundingBox" color-interpolation-filters="sRGB"><feGaussianBlur xmlns="http://www.w3.org/2000/svg" in="SourceGraphic" stdDeviation="21.46804531419514"/><feOffset xmlns="http://www.w3.org/2000/svg" dx="-50" dy="50" result="pf_100_offsetBlur"/><feFlood xmlns="http://www.w3.org/2000/svg" flood-color="#000000" flood-opacity="0.15"/><feComposite xmlns="http://www.w3.org/2000/svg" in2="pf_100_offsetBlur" operator="in" result="pf_100_dropShadow"/><feBlend xmlns="http://www.w3.org/2000/svg" in="SourceGraphic" in2="pf_100_dropShadow" mode="normal"/></filter></defs><defs><filter id="X6otW4BFdzw4Rn30Twe1jZRP06NAMfUj" x="-200%" y="-200%" width="400%" height="400%" filterUnits="objectBoundingBox" color-interpolation-filters="sRGB"><feGaussianBlur xmlns="http://www.w3.org/2000/svg" in="SourceGraphic" stdDeviation="21.46804531419514"/><feOffset xmlns="http://www.w3.org/2000/svg" dx="-50" dy="50" result="pf_100_offsetBlur"/><feFlood xmlns="http://www.w3.org/2000/svg" flood-color="#000000" flood-opacity="0.2"/><feComposite xmlns="http://www.w3.org/2000/svg" in2="pf_100_offsetBlur" operator="in" result="pf_100_dropShadow"/><feBlend xmlns="http://www.w3.org/2000/svg" in="SourceGraphic" in2="pf_100_dropShadow" mode="normal"/></filter></defs><g filter="url(#X6otW4BFdzw4Rn30Twe1jZRP06NAMfUj)"><mask id="_mask_r0j7sntTghwwGzVWdm8LmF1OvI79kjSv" x="-200%" y="-200%" width="400%" height="400%"><rect x="-200%" y="-200%" width="400%" height="400%" style="fill:white;"/><path d=" M 784 240.5 L 1722 166.25 L 1722 839 L 784 758 L 784 240.5 Z " id="Path" fill="black" stroke="none"/></mask><path d=" M 784 240.5 L 1722 166.25 L 1722 839 L 784 758 L 784 240.5 Z " id="Path" fill="rgb(235,235,235)" mask="url(#_mask_r0j7sntTghwwGzVWdm8LmF1OvI79kjSv)" vector-effect="non-scaling-stroke" stroke-width="10" stroke="rgb(255,255,255)" stroke-linejoin="round" stroke-linecap="round" stroke-miterlimit="3"/><path d=" M 784 240.5 L 1722 166.25 L 1722 839 L 784 758 L 784 240.5 Z " id="Path" fill="rgb(235,235,235)"/></g><g id="HammerCat" filter="url(#4ebgBUq6PMGn36WoOOxLcb5e6RldMydV)"><g id="Jetpack"><g style="mix-blend-mode:normal;" opacity="0.65"><path d="M 563.06 744.702 L 563.06 744.702 C 570.476 747.778 574.001 756.296 570.925 763.714 L 549.749 814.784 C 548.211 818.492 542.145 819.506 536.211 817.045 L 530.838 814.817 C 524.904 812.357 521.335 807.348 522.873 803.639 L 544.049 752.57 C 547.125 745.152 555.643 741.627 563.06 744.702 Z" style="stroke:none;fill:#FFFFFF;stroke-miterlimit:10;"/></g><circle vector-effect="non-scaling-stroke" cx="526.3740426083714" cy="827.8291399377679" r="9.311334589587204" id="Ellipse" fill="rgb(255,255,255)" fill-opacity="0.35"/><circle vector-effect="non-scaling-stroke" cx="517.2724097677333" cy="862.1646862368698" r="4.3646880888695705" id="Ellipse" fill="rgb(255,255,255)" fill-opacity="0.35"/><path d=" M 520.182 847.616 C 520.182 843.601 523.442 840.341 527.457 840.341 C 531.472 840.341 534.731 843.601 534.731 847.616 C 534.731 851.631 531.472 854.89 527.457 854.89 C 523.442 854.89 520.182 851.631 520.182 847.616 Z " id="Ellipse" fill="rgb(255,255,255)" fill-opacity="0.35"/></g><path d=" M 540.551 835.977 C 540.536 837.121 522.623 838.64 509.998 847.616 C 495.708 857.776 496.176 878.532 505.633 876.714 C 515.09 874.895 501.9 862.992 517.272 854.89 C 529.305 848.548 542.534 848.602 542.879 849.514 C 546.09 857.996 552.45 865.03 560.919 870.894 C 558.191 885.989 553.317 895.709 558.009 897.082 C 572.922 901.447 581.861 890.127 585.653 882.533 C 603.234 887.416 615.594 887.632 632.209 881.078 C 630.277 889.353 626.883 900.339 632.209 899.992 C 651.055 898.764 665.126 870.875 670.036 854.153 C 674.947 837.431 681.494 803.696 680.221 777.781 C 678.948 751.865 670.027 718.266 667.127 705.036 C 664.434 692.753 658.629 681.428 649.668 671.015 C 645.106 678.326 641.726 686.287 639.484 694.852 C 627.727 692.107 620.967 690.681 607.476 693.397 C 605.873 687.661 601.27 675.529 592.927 667.209 C 584.084 678.495 576.089 717.632 574.013 725.404 C 567.654 749.216 567.103 764.414 559.464 777.781 C 548.69 796.635 540.935 805.269 540.551 835.977 Z " id="Body" fill="rgb(255,255,255)"/><g id="Face"><path d=" M 613.296 712.31 Q 615.66 718.312 614.75 726.859" id="Path" fill="none" vector-effect="non-scaling-stroke" stroke-width="4.365" stroke="rgb(81,68,219)" stroke-linejoin="round" stroke-linecap="round" stroke-miterlimit="3"/><path d=" M 643.596 712.31 Q 645.96 718.312 645.051 726.859" id="Path" fill="none" vector-effect="non-scaling-stroke" stroke-width="4.365" stroke="rgb(81,68,219)" stroke-linejoin="round" stroke-linecap="round" stroke-miterlimit="3"/><path d=" M 624.935 742.863 Q 625.571 745.773 629.299 745.773 Q 633.028 745.773 635.119 741.408" id="Path" fill="none" vector-effect="non-scaling-stroke" stroke-width="4.365" stroke="rgb(81,68,219)" stroke-linejoin="round" stroke-linecap="round" stroke-miterlimit="3"/></g><g id="Helmet"><circle vector-effect="non-scaling-stroke" cx="619.1119375143765" cy="703.5810190079629" r="78.56438559964272" id="Ellipse" fill="rgb(255,255,255)" fill-opacity="0.1" stroke-width="4.365" stroke="rgb(255,255,255)" stroke-linejoin="miter" stroke-linecap="square" stroke-miterlimit="3"/><path d=" M 580.486 651.064 C 573.737 654.478 563.371 665.117 561.268 672.23 C 560.813 673.77 561.642 675.531 563.12 676.161 L 566.744 677.707 C 568.221 678.336 569.855 677.618 570.389 676.104 C 572.924 668.918 582.827 663.259 587.678 659.656 C 588.967 658.698 589.171 656.926 588.132 655.702 L 584.965 651.969 C 583.926 650.744 581.919 650.339 580.486 651.064 Z " id="Path" fill="rgb(255,255,255)" fill-opacity="0.15"/></g><path d=" M 540.588 780.99 L 547.671 780.687 C 557.445 780.268 566.932 779.066 568.845 778.005 L 568.845 778.005 C 570.758 776.944 580.245 775.743 590.018 775.324 L 701.577 770.543 C 702.293 779.27 699.174 788.883 692.167 799.331 C 707.293 795.872 716.941 786.015 720.189 773.145 C 720.667 771.248 720.988 768.121 720.904 766.167 L 720.525 757.313 C 720.441 755.358 719.523 752.483 718.476 750.896 L 718.476 750.896 C 716.382 747.722 716.631 742.637 719.032 739.547 L 720.585 737.548 C 722.014 735.709 723.093 732.328 722.994 730.001 L 722.824 726.037 C 722.724 723.71 720.754 721.902 718.428 722.002 L 691.443 723.158 C 689.116 723.258 687.308 725.228 687.408 727.554 L 687.578 731.519 C 687.678 733.846 689.164 736.999 690.896 738.556 L 693.965 741.315 C 696.875 743.932 699.373 749.229 699.54 753.139 L 699.616 754.91 L 589.337 759.421 C 579.563 759.821 570.007 759.42 568.01 758.527 L 568.01 758.527 C 566.014 757.633 556.458 757.248 546.685 757.667 L 539.602 757.97 C 535.692 758.138 532.655 761.448 532.822 765.357 L 533.202 774.211 C 533.369 778.12 536.679 781.158 540.588 780.99 Z " id="Hammer" fill="rgb(255,255,255)" vector-effect="non-scaling-stroke" stroke-width="2.91" stroke="rgb(81,68,219)" stroke-linejoin="round" stroke-linecap="round" stroke-miterlimit="3"/><g id="Paws"><path d=" M 590.017 780.691 Q 594.302 765.073 601.656 766.142 Q 609.01 767.21 607.476 782.145" id="Path" fill="rgb(255,255,255)" vector-effect="non-scaling-stroke" stroke-width="2.91" stroke="rgb(81,68,219)" stroke-linejoin="round" stroke-linecap="round" stroke-miterlimit="3"/><path d=" M 640.996 783.639 Q 642.105 767.482 649.525 767.074 Q 656.945 766.665 658.397 781.609" id="Path" fill="rgb(255,255,255)" vector-effect="non-scaling-stroke" stroke-width="2.91" stroke="rgb(81,68,219)" stroke-linejoin="round" stroke-linecap="round" stroke-miterlimit="3"/></g></g><defs><filter id="4ebgBUq6PMGn36WoOOxLcb5e6RldMydV" x="-200%" y="-200%" width="400%" height="400%" filterUnits="objectBoundingBox" color-interpolation-filters="sRGB"><feGaussianBlur xmlns="http://www.w3.org/2000/svg" in="SourceGraphic" stdDeviation="21.46804531419514"/><feOffset xmlns="http://www.w3.org/2000/svg" dx="-50" dy="50" result="pf_100_offsetBlur"/><feFlood xmlns="http://www.w3.org/2000/svg" flood-color="#000000" flood-opacity="0.15"/><feComposite xmlns="http://www.w3.org/2000/svg" in2="pf_100_offsetBlur" operator="in" result="pf_100_dropShadow"/><feBlend xmlns="http://www.w3.org/2000/svg" in="SourceGraphic" in2="pf_100_dropShadow" mode="normal"/></filter></defs><g id="GamepadCat" filter="url(#SVO3t07CHXwB6uyvclK94dHSNcxNwRAH)"><g id="Jetpack"><g style="mix-blend-mode:normal;" opacity="0.65"><path d="M 1737.932 707.387 L 1737.932 707.387 C 1724.042 699.943 1706.72 705.179 1699.275 719.071 L 1648.017 814.72 C 1644.295 821.666 1650.296 832.141 1661.409 838.097 L 1671.472 843.49 C 1682.586 849.445 1694.631 848.641 1698.353 841.695 L 1749.612 746.046 C 1757.056 732.154 1751.823 714.831 1737.932 707.387 Z" style="stroke:none;fill:#FFFFFF;stroke-miterlimit:10;"/></g><path d=" M 1668.828 880.59 C 1676.635 874.202 1677.787 862.678 1671.399 854.871 C 1665.011 847.064 1653.487 845.912 1645.68 852.3 C 1637.873 858.688 1636.721 870.212 1643.109 878.019 C 1649.497 885.826 1661.022 886.978 1668.828 880.59 Z " id="Ellipse" fill="rgb(255,255,255)" fill-opacity="0.35"/><path d=" M 1621.833 929.581 C 1625.493 926.587 1626.033 921.185 1623.039 917.525 C 1620.044 913.866 1614.642 913.326 1610.983 916.32 C 1607.323 919.315 1606.783 924.717 1609.778 928.376 C 1612.772 932.036 1618.174 932.576 1621.833 929.581 Z " id="Ellipse" fill="rgb(255,255,255)" fill-opacity="0.2"/><path d=" M 1634.893 900.446 C 1640.992 895.455 1641.892 886.452 1636.901 880.353 C 1631.911 874.254 1622.907 873.354 1616.808 878.344 C 1610.709 883.335 1609.809 892.338 1614.8 898.437 C 1619.79 904.537 1628.794 905.437 1634.893 900.446 Z " id="Ellipse" fill="rgb(255,255,255)" fill-opacity="0.25"/></g><mask id="_mask_h6slxHBODuWOdEDrwkgl7FAaX6BmQhaN" x="-200%" y="-200%" width="400%" height="400%"><rect x="-200%" y="-200%" width="400%" height="400%" style="fill:white;"/><path d=" M 1539 785.82 C 1537.484 814.013 1559.571 837.879 1585 850.409 C 1582.875 854.156 1575.546 865.322 1556 874 C 1536.454 882.678 1507.88 873.132 1496 858 C 1484.12 842.868 1491.702 837.138 1484 834 C 1476.298 830.862 1465.274 848.273 1483 870 C 1500.726 891.727 1537.372 902.032 1564 893 C 1590.628 883.968 1605.844 866.563 1611 860 C 1617.563 862.625 1628.242 862.315 1638 863 C 1733 869.667 1782.253 791.775 1789.066 720.82 C 1793.888 670.595 1808.333 559 1792 523 C 1777.405 531.739 1759.481 547.902 1754.066 557.82 C 1748.427 550.655 1732.562 544.415 1726 543 C 1728.482 533.968 1719.502 509.113 1714 501 C 1704.211 505.543 1687.572 529.071 1681 541 C 1634.592 570.285 1633.595 621.801 1621 639 C 1594.777 674.808 1542.653 717.872 1539 785.82 Z " id="Body" fill="black" stroke="none"/></mask><path d=" M 1539 785.82 C 1537.484 814.013 1559.571 837.879 1585 850.409 C 1582.875 854.156 1575.546 865.322 1556 874 C 1536.454 882.678 1507.88 873.132 1496 858 C 1484.12 842.868 1491.702 837.138 1484 834 C 1476.298 830.862 1465.274 848.273 1483 870 C 1500.726 891.727 1537.372 902.032 1564 893 C 1590.628 883.968 1605.844 866.563 1611 860 C 1617.563 862.625 1628.242 862.315 1638 863 C 1733 869.667 1782.253 791.775 1789.066 720.82 C 1793.888 670.595 1808.333 559 1792 523 C 1777.405 531.739 1759.481 547.902 1754.066 557.82 C 1748.427 550.655 1732.562 544.415 1726 543 C 1728.482 533.968 1719.502 509.113 1714 501 C 1704.211 505.543 1687.572 529.071 1681 541 C 1634.592 570.285 1633.595 621.801 1621 639 C 1594.777 674.808 1542.653 717.872 1539 785.82 Z " id="Body" fill="rgb(255,255,255)" mask="url(#_mask_h6slxHBODuWOdEDrwkgl7FAaX6BmQhaN)" vector-effect="non-scaling-stroke" stroke-width="12" stroke="rgb(68,45,219)" stroke-linejoin="miter" stroke-linecap="square" stroke-miterlimit="3"/><path d=" M 1539 785.82 C 1537.484 814.013 1559.571 837.879 1585 850.409 C 1582.875 854.156 1575.546 865.322 1556 874 C 1536.454 882.678 1507.88 873.132 1496 858 C 1484.12 842.868 1491.702 837.138 1484 834 C 1476.298 830.862 1465.274 848.273 1483 870 C 1500.726 891.727 1537.372 902.032 1564 893 C 1590.628 883.968 1605.844 866.563 1611 860 C 1617.563 862.625 1628.242 862.315 1638 863 C 1733 869.667 1782.253 791.775 1789.066 720.82 C 1793.888 670.595 1808.333 559 1792 523 C 1777.405 531.739 1759.481 547.902 1754.066 557.82 C 1748.427 550.655 1732.562 544.415 1726 543 C 1728.482 533.968 1719.502 509.113 1714 501 C 1704.211 505.543 1687.572 529.071 1681 541 C 1634.592 570.285 1633.595 621.801 1621 639 C 1594.777 674.808 1542.653 717.872 1539 785.82 Z " id="Body" fill="rgb(255,255,255)"/><g id="Controller"><path d=" M 1602.815 654.943 C 1586.011 661.692 1551.277 718.561 1547.63 726.976 C 1543.983 735.391 1535.142 763.803 1548.366 770.155 C 1561.59 776.507 1597.543 752.825 1608.814 753.68 C 1620.086 754.535 1688.011 775.734 1693.948 781.198 C 1699.885 786.663 1705.728 824.213 1714.626 825.891 C 1723.525 827.568 1738.296 822.337 1745.661 800.164 C 1753.026 777.991 1756.024 712.029 1749.085 702.143 C 1742.147 692.256 1727.513 682.454 1720.608 680.928 C 1713.704 679.401 1705.933 680.483 1683.247 671.074 C 1660.56 661.664 1655.448 662.948 1648.106 658.379 C 1640.764 653.811 1619.619 648.195 1602.815 654.943 Z " id="Controller" fill="rgb(255,255,255)" vector-effect="non-scaling-stroke" stroke-width="5" stroke="rgb(81,68,219)" stroke-linejoin="miter" stroke-linecap="square" stroke-miterlimit="3"/><path d=" M 1627.75 736.51 L 1626.659 739.836 C 1625.97 741.933 1627.115 744.195 1629.212 744.883 L 1631.112 745.507 C 1633.21 746.195 1635.472 745.051 1636.16 742.953 L 1637.251 739.628 L 1640.577 740.719 C 1642.675 741.407 1644.936 740.263 1645.625 738.165 L 1646.248 736.265 C 1646.936 734.167 1645.792 731.906 1643.695 731.217 L 1640.369 730.126 L 1641.46 726.801 C 1642.149 724.703 1641.004 722.441 1638.907 721.753 L 1637.006 721.129 C 1634.909 720.441 1632.647 721.585 1631.959 723.683 L 1630.867 727.008 L 1627.542 725.917 C 1625.444 725.229 1623.183 726.373 1622.494 728.471 L 1621.871 730.371 C 1621.182 732.469 1622.327 734.731 1624.424 735.419 L 1627.75 736.51 Z " id="Path" fill="rgb(255,255,255)" vector-effect="non-scaling-stroke" stroke-width="5" stroke="rgb(81,68,219)" stroke-linejoin="miter" stroke-linecap="square" stroke-miterlimit="3"/><path d=" M 1700.301 727.313 L 1699.21 730.639 C 1698.522 732.736 1699.666 734.998 1701.764 735.686 L 1703.664 736.31 C 1705.762 736.998 1708.024 735.854 1708.712 733.756 L 1709.803 730.431 L 1713.129 731.522 C 1715.226 732.21 1717.488 731.066 1718.176 728.968 L 1718.8 727.068 C 1719.488 724.971 1718.344 722.709 1716.246 722.02 L 1712.921 720.929 L 1714.012 717.604 C 1714.7 715.506 1713.556 713.244 1711.458 712.556 L 1709.558 711.932 C 1707.46 711.244 1705.199 712.388 1704.51 714.486 L 1703.419 717.812 L 1700.094 716.72 C 1697.996 716.032 1695.734 717.176 1695.046 719.274 L 1694.422 721.174 C 1693.734 723.272 1694.878 725.534 1696.976 726.222 L 1700.301 727.313 Z " id="Path" fill="rgb(255,255,255)" vector-effect="non-scaling-stroke" stroke-width="5" stroke="rgb(81,68,219)" stroke-linejoin="miter" stroke-linecap="square" stroke-miterlimit="3"/><circle vector-effect="non-scaling-stroke" cx="1617" cy="694" r="13" id="Ellipse" fill="rgb(255,255,255)" stroke-width="5" stroke="rgb(81,68,219)" stroke-linejoin="round" stroke-linecap="butt" stroke-miterlimit="3"/><circle vector-effect="non-scaling-stroke" cx="1671" cy="746.3469003090988" r="13" id="Ellipse" fill="rgb(255,255,255)" stroke-width="5" stroke="rgb(81,68,219)" stroke-linejoin="round" stroke-linecap="butt" stroke-miterlimit="3"/></g><g id="Paws"><path d=" M 1580.579 763.79 Q 1606.266 740.947 1623.579 745.79 Q 1635.223 749.047 1611.579 790.244" id="Path" fill="rgb(255,255,255)" vector-effect="non-scaling-stroke" stroke-width="5" stroke="rgb(81,68,219)" stroke-linejoin="round" stroke-linecap="round" stroke-miterlimit="3"/><path d=" M 1660.066 803 Q 1662.89 763.488 1676.455 759.671 Q 1690.019 755.854 1700 797" id="Path" fill="rgb(255,255,255)" vector-effect="non-scaling-stroke" stroke-width="5" stroke="rgb(81,68,219)" stroke-linejoin="round" stroke-linecap="round" stroke-miterlimit="3"/><path d=" M 1633 642 Q 1616.781 677.781 1636 687 Q 1645.873 691.736 1666.066 661.048" id="Path" fill="rgb(255,255,255)" vector-effect="non-scaling-stroke" stroke-width="5" stroke="rgb(81,68,219)" stroke-linejoin="round" stroke-linecap="round" stroke-miterlimit="3"/><path d=" M 1691 669 Q 1674.359 697.281 1686 702 Q 1706.502 710.311 1730 681" id="Path" fill="rgb(255,255,255)" vector-effect="non-scaling-stroke" stroke-width="5" stroke="rgb(81,68,219)" stroke-linejoin="round" stroke-linecap="round" stroke-miterlimit="3"/></g><g id="Face"><path d=" M 1678.931 571.963 C 1677.744 573.251 1672.017 582.289 1669.587 591.148" id="Path" fill="none" vector-effect="non-scaling-stroke" stroke-width="5" stroke="rgb(81,68,219)" stroke-linejoin="round" stroke-linecap="round" stroke-miterlimit="3"/><path d=" M 1721.009 586.268 C 1718.772 589.706 1712.188 598.031 1710 605" id="Path" fill="none" vector-effect="non-scaling-stroke" stroke-width="5" stroke="rgb(81,68,219)" stroke-linejoin="round" stroke-linecap="round" stroke-miterlimit="3"/><path d=" M 1672.21 613.647 C 1674.615 619.643 1681.345 623.225 1689.366 620.584" id="Path" fill="none" vector-effect="non-scaling-stroke" stroke-width="5" stroke="rgb(81,68,219)" stroke-linejoin="round" stroke-linecap="round" stroke-miterlimit="3"/></g><g id="Helmet"><path d=" M 1625.403 632.307 C 1612.747 609.369 1608.003 581.935 1613.966 554.342 C 1627.066 493.721 1686.92 455.14 1747.542 468.241 C 1808.163 481.341 1846.744 541.195 1833.644 601.816 C 1827.37 630.845 1810.377 654.819 1787.713 670.485 C 1760.055 671.056 1721.983 662.775 1690.389 655.947 C 1657.36 648.809 1636.864 638.797 1625.403 632.307 Z " id="Path" fill="rgb(255,255,255)" fill-opacity="0.1" vector-effect="non-scaling-stroke" stroke-width="6.243" stroke="rgb(255,255,255)" stroke-linejoin="round" stroke-linecap="round" stroke-miterlimit="3"/><path d=" M 1669.54 497.598 C 1658.708 503.177 1642.131 520.436 1638.826 531.919 C 1638.11 534.405 1639.467 537.233 1641.854 538.231 L 1647.711 540.678 C 1650.098 541.676 1652.721 540.5 1653.564 538.054 C 1657.565 526.448 1673.453 517.217 1681.226 511.356 C 1683.291 509.798 1683.598 506.942 1681.91 504.981 L 1676.765 499.004 C 1675.077 497.043 1671.84 496.413 1669.54 497.598 Z " id="Path" fill="rgb(255,255,255)" fill-opacity="0.15"/></g><g id="Hose"><path d=" M 1815.039 646.974 C 1808.823 643.981 1807.859 633.073 1812.888 622.63 C 1817.916 612.188 1827.045 606.14 1833.261 609.133 L 1815.039 646.974 Z " id="Ellipse" fill="rgb(255,255,255)"/><g id="Group"><path d=" M 601.38 1155.27 L 584.62 1148.73 C 588.82 1137.94 593.67 1127.42 599.14 1117.22 C 604.72 1106.82 610.85 1096.72 617.51 1086.97 C 624.33 1077 631.62 1067.35 639.35 1058.07 C 647.27 1048.56 655.59 1039.39 664.29 1030.59 C 673.19 1021.58 682.42 1012.91 691.98 1004.6 C 701.73 996.12 711.76 987.98 722.07 980.19 C 732.55 972.27 743.27 964.69 754.23 957.44 C 765.31 950.11 776.61 943.1 788.1 936.43 C 813.91 921.47 840.6 908.08 868.03 896.35 C 895.11 884.72 922.85 874.71 951.11 866.37 C 964.84 862.31 978.71 858.68 992.67 855.49 C 1006.23 852.39 1019.9 849.74 1033.64 847.54 C 1046.88 845.43 1060.2 843.8 1073.56 842.66 C 1086.34 841.57 1099.17 841.02 1112 841 C 1122.59 841.01 1133.17 841.53 1143.72 842.56 C 1154.25 843.59 1164.74 845.06 1175.15 846.97 C 1185.63 848.88 1196.04 851.16 1206.36 853.8 C 1216.78 856.47 1227.14 859.42 1237.4 862.66 C 1247.79 865.94 1258.11 869.43 1268.35 873.14 C 1278.71 876.9 1289.02 880.8 1299.27 884.85 C 1309.63 888.95 1319.95 893.13 1330.23 897.4 L 1361.31 910.4 C 1361.31 910.4 1361.31 910.4 1361.31 910.4 C 1372.47 915.11 1383.64 919.78 1394.83 924.42 C 1406.05 929.07 1417.31 933.61 1428.62 938.05 C 1439.93 942.49 1451.3 946.75 1462.75 950.83 C 1474.18 954.9 1485.69 958.73 1497.29 962.3 C 1508.87 965.86 1520.55 969.1 1532.31 972 C 1544.08 974.9 1555.95 977.4 1567.89 979.48 C 1579.88 981.57 1591.96 983.18 1604.09 984.3 C 1616.36 985.42 1628.68 985.99 1641.01 986 C 1650.42 986.01 1659.84 985.57 1669.21 984.69 C 1678.01 983.86 1686.76 982.59 1695.44 980.88 C 1703.63 979.27 1711.73 977.23 1719.71 974.76 C 1727.3 972.41 1734.76 969.65 1742.06 966.49 C 1755.87 960.52 1768.98 953.03 1781.14 944.17 C 1792.75 935.68 1803.41 925.96 1812.93 915.17 C 1822.3 904.54 1830.56 892.98 1837.59 880.67 C 1844.65 868.32 1850.54 855.33 1855.19 841.88 C 1859.9 828.27 1863.43 814.28 1865.74 800.06 C 1868.08 785.67 1869.26 771.11 1869.25 756.54 C 1869.25 737.16 1867.22 717.84 1863.2 698.89 C 1862.46 695.46 1861.47 692.1 1860.23 688.82 C 1858.9 685.25 1857.36 681.77 1855.63 678.37 C 1853.84 674.84 1851.89 671.4 1849.78 668.06 C 1847.68 664.73 1845.44 661.49 1843.06 658.34 C 1840.81 655.35 1838.43 652.45 1835.93 649.66 C 1833.69 647.14 1831.32 644.73 1828.84 642.44 C 1826.81 640.55 1824.65 638.78 1822.39 637.16 C 1821.51 636.53 1820.59 635.94 1819.65 635.39 C 1818.93 634.97 1818.18 634.59 1817.42 634.26 L 1824.58 617.74 C 1826.01 618.36 1827.4 619.07 1828.74 619.86 C 1830.15 620.68 1831.52 621.56 1832.85 622.51 C 1835.74 624.58 1838.49 626.83 1841.09 629.25 C 1843.98 631.92 1846.74 634.73 1849.36 637.67 C 1852.19 640.84 1854.88 644.12 1857.44 647.51 C 1860.11 651.05 1862.63 654.7 1865 658.45 C 1867.41 662.27 1869.64 666.19 1871.68 670.21 C 1873.71 674.2 1875.52 678.31 1877.09 682.5 C 1878.63 686.61 1879.87 690.82 1880.8 695.11 C 1885.08 715.31 1887.25 735.89 1887.25 756.53 C 1887.26 772.08 1886.01 787.6 1883.5 802.95 C 1881.03 818.18 1877.25 833.18 1872.2 847.76 C 1867.19 862.27 1860.84 876.28 1853.22 889.6 C 1845.58 902.97 1836.61 915.52 1826.43 927.08 C 1816.05 938.84 1804.42 949.45 1791.75 958.71 C 1778.51 968.36 1764.24 976.51 1749.21 983.01 C 1741.31 986.43 1733.24 989.41 1725.02 991.96 C 1716.44 994.61 1707.73 996.81 1698.91 998.54 C 1689.65 1000.37 1680.3 1001.73 1670.9 1002.61 C 1660.96 1003.55 1650.98 1004.01 1640.99 1004 C 1628.12 1003.99 1615.26 1003.4 1602.44 1002.22 C 1589.83 1001.06 1577.27 999.39 1564.79 997.21 C 1552.44 995.06 1540.17 992.48 1528 989.48 C 1515.91 986.49 1503.9 983.17 1492 979.5 C 1480.15 975.85 1468.38 971.95 1456.7 967.78 C 1445.08 963.64 1433.53 959.31 1422.04 954.8 C 1410.63 950.33 1399.26 945.74 1387.94 941.05 L 1354.31 926.99 C 1344 922.64 1333.67 918.32 1323.33 914.02 C 1313.14 909.79 1302.91 905.65 1292.65 901.59 C 1282.56 897.6 1272.42 893.76 1262.22 890.07 C 1252.21 886.44 1242.13 883.03 1231.98 879.83 C 1222.04 876.69 1212 873.83 1201.9 871.24 C 1191.98 868.71 1181.98 866.52 1171.91 864.67 C 1161.99 862.86 1152 861.46 1141.96 860.48 C 1132.01 859.5 1122.01 859.01 1112 859 C 1099.68 859.02 1087.36 859.55 1075.09 860.6 C 1062.16 861.7 1049.29 863.27 1036.48 865.32 C 1023.13 867.45 1009.86 870.02 996.68 873.04 C 983.08 876.15 969.58 879.68 956.2 883.63 C 928.62 891.78 901.55 901.55 875.12 912.89 C 848.36 924.34 822.32 937.4 797.14 952 C 785.95 958.49 774.95 965.32 764.16 972.45 C 753.52 979.49 743.1 986.86 732.93 994.55 C 722.95 1002.09 713.23 1009.98 703.79 1018.19 C 694.58 1026.19 685.67 1034.55 677.1 1043.24 C 668.75 1051.68 660.78 1060.47 653.18 1069.59 C 645.81 1078.43 638.87 1087.62 632.38 1097.13 C 626.08 1106.34 620.28 1115.89 615.01 1125.72 C 609.88 1135.29 605.33 1145.16 601.38 1155.27 Z " id="Path" fill="rgb(68,106,219)"/><path d=" M 1821 626 C 1837.333 633 1865.667 667.135 1872 697 C 1901.39 835.59 1827.526 995 1641 995 C 1444.318 995 1282.974 850 1112 850 C 926.136 850 661 977 593 1152" id="Path" fill="none" vector-effect="non-scaling-stroke" stroke-width="18" stroke-dasharray="112,4" stroke="rgb(255,255,255)" stroke-linejoin="round" stroke-linecap="butt" stroke-miterlimit="3"/></g></g></g><defs><filter id="SVO3t07CHXwB6uyvclK94dHSNcxNwRAH" x="-200%" y="-200%" width="400%" height="400%" filterUnits="objectBoundingBox" color-interpolation-filters="sRGB"><feGaussianBlur xmlns="http://www.w3.org/2000/svg" in="SourceGraphic" stdDeviation="21.46804531419514"/><feOffset xmlns="http://www.w3.org/2000/svg" dx="-50" dy="50" result="pf_100_offsetBlur"/><feFlood xmlns="http://www.w3.org/2000/svg" flood-color="#000000" flood-opacity="0.15"/><feComposite xmlns="http://www.w3.org/2000/svg" in2="pf_100_offsetBlur" operator="in" result="pf_100_dropShadow"/><feBlend xmlns="http://www.w3.org/2000/svg" in="SourceGraphic" in2="pf_100_dropShadow" mode="normal"/></filter></defs></g></g><g id="Logo"><g id="Group"><path d=" M 187.302 62.819 C 187.607 62.968 187.939 63.046 188.278 63.06 C 188.78 63.039 189.261 62.848 189.65 62.515 C 190.287 61.964 190.81 61.292 191.185 60.535 C 191.404 60.09 191.793 59.75 192.26 59.588 C 192.734 59.425 193.25 59.46 193.695 59.679 C 194.141 59.899 194.48 60.288 194.643 60.761 C 194.799 61.228 194.77 61.744 194.551 62.19 C 193.95 63.406 193.115 64.481 192.09 65.358 C 191.029 66.27 189.686 66.787 188.292 66.808 C 187.267 66.801 186.263 66.532 185.365 66.03 C 184.601 65.592 184.028 64.877 183.759 64.036 C 183.519 63.307 183.413 62.544 183.434 61.78 C 183.448 60.783 183.561 59.786 183.759 58.81 C 183.979 57.678 184.254 56.554 184.587 55.451 C 185.322 52.975 186.199 50.543 187.21 48.167 C 188.144 45.904 189.191 43.683 190.336 41.519 C 190.796 40.656 191.291 39.801 191.807 38.973 C 192.203 38.316 192.656 37.7 193.158 37.127 C 193.483 36.753 193.943 36.519 194.445 36.484 C 194.94 36.449 195.428 36.618 195.803 36.944 C 196.178 37.269 196.404 37.729 196.439 38.231 C 196.475 38.726 196.312 39.214 195.987 39.588 C 195.619 40.006 195.287 40.458 195.004 40.939 C 194.523 41.696 194.07 42.481 193.653 43.273 C 192.557 45.338 191.56 47.459 190.669 49.616 C 189.707 51.872 188.879 54.178 188.179 56.525 C 187.882 57.516 187.635 58.527 187.437 59.545 C 187.281 60.309 187.196 61.087 187.182 61.872 C 187.168 62.19 187.21 62.508 187.302 62.819 Z " id="Path" fill="rgb(255,255,255)"/><path d=" M 185.319 47.668 C 184.967 47.644 184.616 47.48 184.358 47.199 C 184.1 46.918 183.96 46.567 183.983 46.192 C 184.006 45.817 184.17 45.465 184.452 45.208 C 184.709 44.973 185.084 44.833 185.459 44.856 C 187.544 44.95 189.653 44.877 191.739 44.645 C 193.004 44.505 195.155 43.975 196.432 43.516 C 197.656 43.076 199.053 42.947 198.809 44.475 C 198.62 45.66 197.861 46.114 197.141 46.391 C 195.622 46.976 192.834 47.418 192.067 47.434 C 189.705 47.482 187.568 47.762 185.319 47.668 Z " id="Path" fill="rgb(255,255,255)"/><path d=" M 212.315 64.92 C 212.04 65.153 211.75 65.372 211.446 65.577 C 210.364 66.277 209.183 66.822 207.952 67.204 C 207.075 67.48 206.191 67.713 205.293 67.911 C 204.947 67.989 204.6 68.067 204.254 68.159 C 203.737 69.46 203.193 70.761 202.634 72.055 C 201.708 74.219 200.64 76.327 199.424 78.349 C 198.893 79.233 198.306 80.082 197.663 80.888 C 197.083 81.63 196.418 82.316 195.697 82.925 C 195.159 83.356 194.544 83.667 193.886 83.858 C 193.243 84.049 192.571 84.148 191.892 84.148 C 190.499 84.183 189.127 83.731 188.031 82.861 C 187.401 82.345 186.906 81.68 186.581 80.93 C 186.242 80.11 186.072 79.226 186.086 78.335 C 186.086 78.335 186.093 78.328 186.093 78.321 L 186.1 77.981 C 186.1 77.967 186.1 77.96 186.1 77.946 C 186.185 76.065 186.843 74.247 187.988 72.748 C 188.844 71.687 189.855 70.775 190.994 70.026 C 193.356 68.364 195.909 66.999 198.603 65.966 C 199.544 65.627 200.484 65.316 201.446 65.033 C 201.651 64.495 201.849 63.951 202.054 63.399 L 204.777 55.762 C 205.569 53.47 206.382 51.186 207.217 48.909 C 207.945 46.901 208.737 44.914 209.6 42.955 C 209.798 42.495 210.173 42.141 210.632 41.957 C 211.099 41.774 211.615 41.788 212.068 41.986 C 212.521 42.184 212.881 42.559 213.065 43.025 C 213.242 43.485 213.235 44.001 213.03 44.454 C 212.209 46.342 211.439 48.258 210.738 50.196 L 208.32 56.992 L 205.852 63.916 C 206.184 63.824 206.51 63.725 206.842 63.626 C 207.733 63.35 208.589 62.954 209.381 62.452 C 209.734 62.204 210.06 61.928 210.357 61.61 C 210.512 61.433 210.682 61.271 210.866 61.122 C 211.304 60.754 211.856 60.556 212.429 60.563 C 213.001 60.592 213.553 60.839 213.963 61.242 C 214.133 61.398 214.296 61.568 214.444 61.737 C 214.805 62.14 215.208 62.501 215.639 62.826 C 215.795 62.925 215.965 62.996 216.148 63.039 C 216.495 63.145 216.849 63.194 217.209 63.187 C 217.732 63.215 218.242 63.039 218.645 62.706 C 218.843 62.515 218.998 62.275 219.097 62.013 C 219.281 61.504 219.38 60.959 219.373 60.408 C 219.373 60.401 219.373 60.394 219.373 60.387 L 219.38 60.302 C 219.366 59.729 219.26 59.156 219.055 58.626 C 218.793 57.947 218.489 57.296 218.15 56.66 C 217.626 55.691 217.188 54.687 216.827 53.654 C 216.665 53.152 216.587 52.629 216.58 52.106 C 216.559 50.408 217.372 48.803 218.751 47.827 C 219.571 47.254 220.533 46.95 221.53 46.943 C 222.428 46.936 223.312 47.212 224.048 47.721 C 224.847 48.301 225.434 49.128 225.71 50.076 C 225.801 50.352 225.851 50.642 225.872 50.932 C 225.943 51.554 225.759 52.183 225.37 52.678 C 224.981 53.166 224.415 53.485 223.793 53.555 C 222.874 53.626 222.004 53.103 221.636 52.254 C 221.424 51.752 221.438 51.193 221.664 50.705 C 221.629 50.698 221.594 50.691 221.558 50.691 C 221.325 50.691 221.099 50.762 220.908 50.889 C 220.533 51.165 220.314 51.611 220.335 52.077 C 220.328 52.212 220.349 52.346 220.384 52.473 C 220.674 53.301 221.035 54.107 221.452 54.885 C 221.87 55.656 222.23 56.455 222.548 57.275 C 222.916 58.23 223.114 59.241 223.128 60.266 C 223.128 60.281 223.128 60.295 223.128 60.309 L 223.128 60.415 C 223.128 61.405 222.951 62.388 222.612 63.321 C 222.301 64.149 221.799 64.891 221.155 65.493 C 220.052 66.461 218.616 66.978 217.153 66.942 C 216.481 66.935 215.809 66.843 215.165 66.659 C 214.564 66.504 213.991 66.242 213.482 65.889 C 213.072 65.592 212.683 65.266 212.315 64.92 Z  M 199.607 69.601 C 197.309 70.514 195.124 71.695 193.101 73.123 C 192.288 73.653 191.553 74.311 190.937 75.061 C 190.28 75.945 189.898 76.998 189.848 78.102 L 189.834 78.413 C 189.834 78.773 189.898 79.134 190.032 79.466 C 190.117 79.65 190.237 79.813 190.393 79.947 C 190.81 80.266 191.319 80.421 191.843 80.4 C 192.182 80.407 192.514 80.357 192.84 80.258 C 193.016 80.209 193.179 80.131 193.328 80.018 C 193.837 79.58 194.304 79.092 194.721 78.568 C 195.265 77.882 195.76 77.168 196.213 76.418 C 197.337 74.537 198.334 72.586 199.19 70.57 C 199.332 70.245 199.473 69.927 199.607 69.601 Z " fill-rule="evenodd" id="Compound Path" fill="rgb(255,255,255)"/><circle vector-effect="non-scaling-stroke" cx="212.8589615773513" cy="38.12138362606523" r="2.1087612436240306" id="Ellipse" fill="rgb(255,255,255)"/><circle vector-effect="non-scaling-stroke" cx="198.5375056609255" cy="62.00267884967775" r="2.353858834179448" id="Ellipse" fill="rgb(255,255,255)"/><path d=" M 177.939 52.268 C 178.01 51.83 178.236 51.427 178.583 51.137 C 178.562 51.087 178.533 51.045 178.512 51.002 C 178.456 50.917 178.371 50.854 178.272 50.833 L 178.01 50.818 C 177.706 50.833 177.416 50.91 177.147 51.052 C 176.652 51.321 176.171 51.625 175.719 51.964 C 175.705 51.978 175.69 51.985 175.676 51.999 L 175.641 52.021 C 174.736 52.678 173.958 53.492 173.35 54.432 C 172.572 55.578 172.006 56.858 171.681 58.209 C 171.575 58.633 171.518 59.071 171.518 59.503 C 171.511 60.083 171.652 60.662 171.921 61.172 C 172.183 61.645 172.544 62.049 172.982 62.367 C 174.078 63.123 175.386 63.519 176.716 63.484 C 177.579 63.498 178.434 63.329 179.219 62.968 C 180.422 62.381 181.518 61.596 182.458 60.641 C 182.812 60.288 183.144 59.899 183.434 59.489 C 183.54 59.361 183.625 59.213 183.675 59.057 C 183.823 58.583 184.155 58.187 184.594 57.961 C 185.039 57.728 185.549 57.685 186.022 57.834 C 186.496 57.982 186.892 58.315 187.126 58.76 C 187.352 59.199 187.394 59.715 187.246 60.189 C 187.069 60.754 186.793 61.278 186.426 61.744 C 186.03 62.296 185.591 62.812 185.103 63.293 C 183.858 64.552 182.416 65.584 180.825 66.355 C 179.538 66.949 178.137 67.253 176.723 67.232 C 174.616 67.268 172.551 66.638 170.818 65.429 C 169.913 64.778 169.156 63.937 168.619 62.954 C 168.053 61.886 167.756 60.691 167.77 59.474 C 167.777 58.753 167.862 58.032 168.039 57.325 C 168.463 55.55 169.206 53.866 170.231 52.353 C 171.094 51.045 172.183 49.899 173.449 48.98 C 173.456 48.973 173.463 48.966 173.47 48.966 L 173.491 48.952 C 174.092 48.499 174.722 48.096 175.386 47.742 C 176.193 47.318 177.084 47.085 177.996 47.063 C 178.052 47.063 178.102 47.063 178.151 47.07 L 178.583 47.092 C 178.625 47.099 178.668 47.099 178.71 47.106 C 179.955 47.268 181.065 47.983 181.716 49.065 C 182.204 49.871 182.465 50.804 182.458 51.752 C 182.465 52.176 182.409 52.601 182.281 53.004 C 182.098 53.711 181.595 54.291 180.924 54.574 C 180.775 54.637 180.62 54.687 180.457 54.708 L 180.28 54.729 C 180.252 54.736 180.224 54.736 180.202 54.743 C 179.651 54.8 179.099 54.63 178.668 54.277 C 178.236 53.93 177.968 53.421 177.911 52.869 C 177.89 52.707 177.897 52.544 177.925 52.388 L 177.939 52.268 Z " id="Path" fill="rgb(255,255,255)"/></g><path d=" M 135.784 45.232 C 135.735 45.5 135.636 45.755 135.501 45.988 C 135.374 46.201 135.211 46.392 135.013 46.54 C 134.808 46.696 134.582 46.809 134.334 46.879 C 134.045 46.964 133.74 47.007 133.436 47.007 C 133.132 47.014 132.828 46.964 132.538 46.879 C 132.284 46.802 132.05 46.667 131.852 46.498 C 131.647 46.328 131.485 46.116 131.371 45.875 C 131.237 45.599 131.138 45.302 131.096 44.998 C 131.074 44.843 131.11 44.687 131.202 44.56 C 131.294 44.44 131.428 44.355 131.584 44.334 C 131.739 44.305 131.895 44.348 132.022 44.44 C 132.142 44.532 132.227 44.666 132.255 44.822 C 132.284 45.005 132.34 45.189 132.418 45.359 C 132.468 45.451 132.531 45.536 132.616 45.607 C 132.694 45.677 132.786 45.727 132.885 45.755 C 133.062 45.812 133.245 45.84 133.429 45.84 C 133.627 45.84 133.825 45.812 134.016 45.755 C 134.122 45.727 134.214 45.677 134.306 45.614 C 134.377 45.55 134.441 45.479 134.49 45.401 C 134.561 45.274 134.61 45.14 134.639 44.998 C 134.667 44.85 134.759 44.716 134.886 44.631 C 135.02 44.546 135.176 44.51 135.332 44.546 C 135.48 44.574 135.614 44.666 135.699 44.793 C 135.784 44.921 135.82 45.083 135.784 45.232 L 135.784 45.232 L 135.784 45.232 Z  M 131.653 33.419 C 132.877 33.728 131.955 36.151 131.568 37.197 C 131.181 38.242 130.341 40.7 129.314 40.489 C 128.286 40.278 128.617 37.766 129.118 36.269 C 129.619 34.772 130.43 33.111 131.653 33.419 L 131.653 33.419 Z  M 107.515 80.636 C 105.546 75.613 109.499 62.239 114.675 49.286 C 115.366 47.557 116.06 45.905 116.758 44.332 Q 125.007 25.733 133.88 21.683 Q 133.406 25.248 133.475 26.585 Q 133.545 27.923 133.734 28.97 Q 136.498 28.912 140.2 29.473 Q 143.903 30.034 146.506 31.195 Q 149.338 29.037 151.605 28.083 Q 153.873 27.129 157.594 26.764 Q 151.38 46.41 150.938 53.824 C 150.216 65.953 151.305 73.831 151.542 77.282 C 153.11 77.49 154.638 77.313 156.928 76.454 C 158.247 75.96 160.014 74.476 159.481 72.01 C 159.135 70.412 156.975 70.129 155.698 70.308 C 155.17 70.382 154.105 70.245 153.855 69.41 C 153.571 68.464 154.344 67.742 154.989 67.471 C 156.407 66.878 159.28 66.399 161.389 68.352 C 163.174 70.004 163.228 72.483 162.873 74.366 C 162.538 76.14 161.233 77.49 160.158 78.31 C 158.082 79.893 154.555 80.898 151.728 81.305 C 151.546 83.219 149.898 83.963 148.61 84.527 C 144.498 86.329 136.825 87.271 128.885 86.931 C 117.409 86.44 108.924 84.23 107.515 80.636 L 107.515 80.636 L 107.515 80.636 Z  M 142.178 35.008 C 143.402 35.316 142.713 37.716 142.326 38.761 C 141.939 39.806 141.099 42.264 140.072 42.053 C 139.044 41.842 139.375 39.331 139.876 37.834 C 140.377 36.337 140.954 34.699 142.178 35.008 Z " fill-rule="evenodd" id="Compound Shape" fill="rgb(255,255,255)"/></g><g id="HeroSide"><text transform="matrix(1,0,0,1,100,263.262)" id="Text" style="font-family:'Open Sans';font-weight:300;font-size:120px;font-style:normal;fill:#ffffff;stroke:none;">Meet ct.js,</text><text transform="matrix(1,0,0,1,100,330.113)" id="Text" style="font-family:'Open Sans';font-weight:300;font-size:48px;font-style:normal;fill:#ffffff;stroke:none;">your new 2D game engine</text><text transform="matrix(1,0,0,1,100,392.706)" id="Text" style="font-family:'Open Sans';font-weight:400;font-size:24px;font-style:normal;fill:#ffffff;stroke:none;">ct.js makes learning programming fun</text><text transform="matrix(1,0,0,1,100,428.658)" id="Text" style="font-family:'Open Sans';font-weight:400;font-size:24px;font-style:normal;fill:#ffffff;stroke:none;">and game development easy by its visual tools,</text><text transform="matrix(1,0,0,1,100,464.61)" id="Text" style="font-family:'Open Sans';font-weight:400;font-size:24px;font-style:normal;fill:#ffffff;stroke:none;">good docs and flexible, modular library.</text><text transform="matrix(1,0,0,1,100,510.367)" id="Text" style="font-family:'Open Sans';font-weight:400;font-size:24px;font-style:normal;fill:#ffffff;stroke:none;">It is free, open-source, and is loved by hobbyists,</text><text transform="matrix(1,0,0,1,100,546.319)" id="Text" style="font-family:'Open Sans';font-weight:400;font-size:24px;font-style:normal;fill:#ffffff;stroke:none;">professionals, teachers, and their students.</text><g id="Group"><path d="M 141.748 600 L 391.252 600 C 414.293 600 433 618.707 433 641.748 L 433 643.571 C 433 666.613 414.293 685.32 391.252 685.32 L 141.748 685.32 C 118.707 685.32 100 666.613 100 643.571 L 100 641.748 C 100 618.707 118.707 600 141.748 600 Z" style="fill:none;stroke:#000000;stroke-width:8;stroke-linecap:round;stroke-linejoin:round;stroke-miterlimit:2;"/><text transform="matrix(1,0,0,1,196,650.969)" id="Text" style="font-family:'Open Sans';font-weight:400;font-size:24px;font-style:normal;fill:#ffffff;stroke:none;">Download v1.2.0</text><g id="Group"><path d=" M 137.812 645.429 L 137.812 655.985 C 137.812 657.908 139.408 659.504 141.331 659.504 L 169.481 659.504 C 171.404 659.504 173 657.908 173 655.985 L 173 645.429 L 169.481 645.429 L 169.481 655.985 L 141.331 655.985 L 141.331 645.429 L 137.812 645.429 Z " id="Path" fill="rgb(255,255,255)"/><rect x="153.647" y="624.316" width="3.519" height="3.519" transform="matrix(1,0,0,1,0,0)" id="Rectangle" fill="rgb(255,255,255)"/><rect x="153.647" y="629.595" width="3.519" height="3.519" transform="matrix(1,0,0,1,0,0)" id="Rectangle" fill="rgb(255,255,255)"/><path d=" M 153.647 634.873 L 153.647 647.463 L 147.929 641.801 L 145.455 644.275 L 155.406 654.226 L 165.357 644.275 L 162.884 641.801 L 157.166 647.463 L 157.166 634.873 L 153.647 634.873 Z " id="Path" fill="rgb(255,255,255)"/></g></g></g><g opacity="0.15"><path d=" M 1623 628 Q 1643 645.75 1687 658 Q 1731 670.25 1792 666" id="Path" fill="none" vector-effect="non-scaling-stroke" stroke-width="7" stroke="rgb(68,45,219)" stroke-linejoin="round" stroke-linecap="round" stroke-miterlimit="3"/></g></g></svg>