<?xml version="1.0" encoding="utf-8"?>
<svg width="36.002" height="35.998" viewBox="0 0 36.002 35.998" fill="none" xmlns="http://www.w3.org/2000/svg">
  <g id="aliencat">
    <path id="Shape" d="M33.4215 19.9273C33.0625 16.6583 34.6875 14.9983 33.6875 12.9983C33.6875 12.9983 36.6875 3.99828 34.6875 0.298296C34.0135 -0.947706 27.2835 1.98628 24.6875 3.99828C24.6875 3.99828 20.6875 3.00029 17.6875 3.00029C14.6875 3.00029 10.6875 3.99828 10.6875 3.99828C8.0915 1.98628 1.3615 -0.947706 0.6875 0.298296C-1.3125 3.99828 1.6875 12.9983 1.6875 12.9983C0.6875 14.9983 2.3125 16.6583 1.9535 19.9273C1.5585 23.5113 4.3445 26.3683 4.6875 26.9983C5.0775 27.7143 7.0545 30.0233 9.6875 31.9983C13.6875 34.9983 15.6875 35.9983 17.6875 35.9983C19.6875 35.9983 21.6875 34.9983 25.6875 31.9983C28.3205 30.0233 30.2975 27.7143 30.6875 26.9983C31.0305 26.3683 33.8165 23.5113 33.4215 19.9273L33.4215 19.9273Z" fill="#FFCC4D" transform="translate(0.314 0)" />
    <path id="Shape" d="M0.28 0.404681C0.726999 -0.937299 5.92 1.40468 6.92 2.40468C6.92 2.40468 2.28 5.40468 1.28 8.40468C1.28 8.40468 -0.72 3.40468 0.28 0.404681L0.28 0.404681ZM32.28 0.404681C31.833 -0.937299 26.64 1.40468 25.64 2.40468C25.64 2.40468 30.28 5.40468 31.28 8.40468C31.28 8.40468 33.28 3.40468 32.28 0.404681L32.28 0.404681Z" fill="#F18F26" fill-rule="evenodd" transform="translate(1.721 2.594)" />
    <path id="Shape" d="M0 0.389987C0 -1.02401 6.066 1.78696 5.066 2.78696C4.066 3.78696 3.066 4.38999 2.066 5.38999C1.066 6.38999 0 1.38999 0 0.389987L0 0.389987ZM26.132 0.389987C26.132 -1.02401 20.066 1.78696 21.066 2.78696C22.066 3.78696 23.066 4.38999 24.066 5.38999C25.066 6.38999 26.132 1.38999 26.132 0.389987L26.132 0.389987Z" fill="#FFCC4D" fill-rule="evenodd" transform="translate(4.935 5.211)" />
    <path id="Shape" d="M0.702073 6.45874C0.55407 6.45874 0.408067 6.39376 0.309067 6.26876C0.13807 6.05175 0.175072 5.73776 0.392068 5.56674C0.55407 5.43975 4.41207 2.44674 11.0401 2.96176C11.3151 2.98175 11.5211 3.22274 11.5001 3.49774C11.4791 3.77276 11.2431 3.99874 10.9631 3.95776C4.73007 3.48376 1.04807 6.32376 1.01207 6.35275C0.919068 6.42376 0.810067 6.45874 0.702073 6.45874L0.702073 6.45874ZM9.57007 1.79574C9.52107 1.79574 9.47007 1.78875 9.42107 1.77374C4.63107 0.27676 0.684067 1.42675 0.644067 1.43774C0.379067 1.51876 0.101067 1.36776 0.0210731 1.10275C-0.0579293 0.837765 0.0920723 0.55975 0.356072 0.48074C0.529069 0.428738 4.64207 -0.766239 9.71807 0.818752C9.98207 0.90176 10.1291 1.18176 10.0461 1.44574C9.98007 1.65875 9.78307 1.79574 9.57007 1.79574L9.57007 1.79574ZM35.3001 6.45874C35.4481 6.45874 35.5941 6.39376 35.6931 6.26876C35.8641 6.05175 35.8271 5.73776 35.6101 5.56674C35.4481 5.43975 31.5901 2.44674 24.9621 2.96176C24.6871 2.98175 24.4811 3.22274 24.5021 3.49774C24.5231 3.77276 24.7591 3.99874 25.0391 3.95776C31.2721 3.48376 34.9541 6.32376 34.9901 6.35275C35.0831 6.42376 35.1921 6.45874 35.3001 6.45874L35.3001 6.45874ZM26.4321 1.79574C26.4811 1.79574 26.5321 1.78875 26.5811 1.77374C31.3711 0.27676 35.3181 1.42675 35.3581 1.43774C35.6231 1.51876 35.9011 1.36776 35.9811 1.10275C36.0601 0.837765 35.9101 0.55975 35.6461 0.48074C35.4731 0.428738 31.3601 -0.766239 26.2841 0.818752C26.0201 0.90176 25.8731 1.18176 25.9561 1.44574C26.0211 1.65875 26.2191 1.79574 26.4321 1.79574L26.4321 1.79574Z" fill="#FEE7B8" fill-rule="evenodd" transform="translate(0 23.54)" />
    <path id="Shape" d="M9.15471 3.49728C12.2787 6.62128 13.5447 10.4203 11.9827 11.9823C10.4207 13.5443 6.62172 12.2793 3.49772 9.15427C0.372715 6.03027 -0.893283 2.23126 0.669713 0.669281C2.23272 -0.892731 6.03071 0.37326 9.15471 3.49728L9.15471 3.49728ZM18.1487 3.49728C15.0247 6.62128 13.7587 10.4203 15.3207 11.9823C16.8827 13.5443 20.6817 12.2793 23.8057 9.15427C26.9307 6.02927 28.1967 2.23126 26.6337 0.669281C25.0717 -0.892731 21.2727 0.372284 18.1487 3.49728L18.1487 3.49728ZM13.6517 19.6523C11.3047 19.6523 10.0767 18.4923 9.94471 18.3593C9.55371 17.9683 9.55371 17.3363 9.94471 16.9453C10.3317 16.5583 10.9577 16.5543 11.3487 16.9353C11.3997 16.9823 12.1547 17.6523 13.6517 17.6523C15.1707 17.6523 15.9247 16.9633 15.9567 16.9333C16.3547 16.5593 16.9837 16.5703 17.3647 16.9623C17.7437 17.3553 17.7447 17.9733 17.3587 18.3583C17.2267 18.4923 15.9987 19.6523 13.6517 19.6523L13.6517 19.6523Z" fill="#292F33" fill-rule="evenodd" transform="translate(4.35 13)" />
    <path id="Shape" d="M3.00001 0C6.00001 0 6.00001 0.5 6.00001 1.5C6.00001 2.5 4.50001 4.5 3.00001 4.5C1.50001 4.5 0 2.5 0 1.5C0 0.5 -0.000999451 0 3.00001 0L3.00001 0Z" fill="#E75A70" transform="translate(15.001 24.498)" />
  </g>
</svg>