<?xml version="1.0" encoding="utf-8"?>
<svg width="41.523" height="44.821" viewBox="0 0 41.523 44.821" fill="none" xmlns="http://www.w3.org/2000/svg">
  <g id="crazycat">
    <path id="Shape" d="M39.5665 18.0572C38.0193 15.1552 37.0547 13.7532 35.3835 12.2682C35.3835 12.2682 34.8271 2.79718 31.5962 0.104182C30.5077 -0.801823 25.3483 4.42117 23.6851 7.25317C23.6851 7.25317 19.6005 7.81219 16.815 8.92617C14.0295 10.0402 10.686 12.4522 10.686 12.4522C7.52854 11.5472 0.190233 11.3222 0.0271354 12.7292C-0.455965 16.9082 5.67153 24.1502 5.67153 24.1502C5.48564 26.3782 5.75383 28.0592 6.63443 31.2282C7.59853 34.7022 9.38913 37.0632 9.94164 37.5202C10.5695 38.0402 13.2626 39.4502 16.4407 40.3062C21.2687 41.6072 27.211 40.3072 29.068 39.5642C30.925 38.8222 36.1247 35.6652 38.7247 31.3942C40.4361 28.5832 41.4145 25.7052 41.5105 24.8952C41.5955 24.1832 41.2645 21.2382 39.5665 18.0572L39.5665 18.0572Z" fill="#FFCC4D" />
    <path id="Shape" d="M0.000905037 12.0611C-0.0823965 10.6492 5.609 10.8952 6.90881 11.4522C6.90881 11.4522 3.7145 15.9612 3.9 19.1181C3.9 19.1181 0.186406 15.2182 0.000905037 12.0611L0.000905037 12.0611ZM29.713 0.17915C28.7996 -0.900836 24.8475 3.20115 24.2904 4.50114C24.2904 4.50114 29.7126 5.56416 31.7551 7.97816C31.7551 7.97816 31.7554 2.59315 29.713 0.17915L29.713 0.17915Z" fill="#F18F26" fill-rule="evenodd" transform="translate(1.957 2.804)" />
    <path id="Shape" d="M0.029458 9.92702C-0.495643 8.61504 6.18046 8.97203 5.62336 10.272C5.06616 11.572 4.36156 12.503 3.80436 13.803C3.24716 15.103 0.400758 10.856 0.029458 9.92702L0.029458 9.92702ZM24.2931 0.224046C23.768 -1.08897 19.1796 3.77403 20.4794 4.33104C21.7792 4.88805 22.9316 5.07604 24.2315 5.63402C25.5313 6.19103 24.6644 1.15202 24.2931 0.224046L24.2931 0.224046Z" fill="#FFCC4D" fill-rule="evenodd" transform="translate(5.62 6.265)" />
    <path id="Shape" d="M1.82088 13.0092C1.67598 13.0402 1.51978 13.0062 1.39738 12.9042C1.18568 12.7262 1.15778 12.4112 1.33527 12.1992C1.46788 12.0422 4.63338 8.32423 11.2269 7.47523C11.5002 7.43822 11.7511 7.63222 11.7867 7.90623C11.8223 8.17921 11.6374 8.44923 11.3549 8.46623C5.15648 9.27421 2.13197 12.8062 2.10268 12.8422C2.02618 12.9312 1.92658 12.9872 1.82088 13.0092L1.82088 13.0092ZM9.54977 6.63423C9.50178 6.64424 9.45038 6.64723 9.39938 6.64223C4.40468 6.15523 0.775673 8.08723 0.738778 8.10621C0.495881 8.23924 0.192879 8.14824 0.0604787 7.90523C-0.0710216 7.66221 0.019074 7.35924 0.261376 7.22822C0.420075 7.14223 4.20238 5.13222 9.49508 5.64723C9.77048 5.67424 9.97157 5.91823 9.94427 6.19423C9.92318 6.41621 9.75828 6.59022 9.54977 6.63423L9.54977 6.63423ZM35.6898 5.94423C35.8347 5.91423 35.9644 5.82023 36.0354 5.67824C36.1584 5.43022 36.0584 5.13023 35.8111 5.00722C35.6266 4.91621 31.2387 2.77421 24.8555 4.63222C24.5904 4.70823 24.438 4.98521 24.5147 5.25023C24.5914 5.51521 24.8686 5.68822 25.1343 5.59123C31.1391 3.85423 35.3235 5.88222 35.3647 5.90321C35.4702 5.95424 35.5841 5.96623 35.6898 5.94423L35.6898 5.94423ZM26.0564 3.19023C26.1044 3.18022 26.1529 3.16322 26.1978 3.13823C30.5811 0.695234 34.6798 1.01423 34.7212 1.01723C34.9972 1.04222 35.2385 0.837233 35.2627 0.562239C35.2859 0.286238 35.0823 0.0452404 34.8077 0.0212231C34.6277 0.00623894 30.3574 -0.323778 25.712 2.26423C25.4705 2.39921 25.3838 2.70323 25.519 2.94523C25.6261 3.14021 25.8479 3.23424 26.0564 3.19023L26.0564 3.19023Z" fill="#FEE7B8" fill-rule="evenodd" transform="translate(5.258 19.901)" />
    <path id="Shape" d="M11.7612 4.55935C12.5374 7.75936 10.5721 10.9844 7.37156 11.7604C4.17096 12.5364 0.946369 10.5713 0.169369 7.37136C-0.606831 4.17037 1.35846 0.945366 4.55896 0.169365C7.75956 -0.606636 10.985 1.35735 11.7612 4.55935L11.7612 4.55935Z" fill="#F4F7F9" transform="translate(21.599 9.733)" />
    <path id="Shape" d="M2.09175 4.07374C3.21635 4.04273 4.10355 3.10673 4.07335 1.98273C4.04315 0.857734 3.10695 -0.0292597 1.98235 0.000739098C0.857744 0.0307379 -0.0294552 0.966743 0.000749588 2.09174C0.0310459 3.21674 0.96715 4.10374 2.09175 4.07374L2.09175 4.07374Z" fill="#292F33" transform="translate(25.106 10.94)" />
    <path id="Shape" d="M7.76484 3.01001C8.27774 5.12298 6.97954 7.25201 4.86654 7.76501C2.75354 8.27798 0.624836 6.979 0.111942 4.866C-0.400959 2.75299 0.897335 0.624998 3.01024 0.111998C5.12324 -0.401003 7.25194 0.897001 7.76484 3.01001L7.76484 3.01001Z" fill="#F4F7F9" transform="translate(10.545 17.638)" />
    <path id="Shape" d="M2.4002 3.83023C3.4425 3.57724 4.0825 2.52725 3.8297 1.48523C3.5769 0.44223 2.527 -0.197754 1.4847 0.0552368C0.442307 0.308228 -0.197701 1.35825 0.0552063 2.40024C0.308006 3.44324 1.3579 4.08325 2.4002 3.83023L2.4002 3.83023Z" fill="#292F33" transform="translate(12.843 20.936)" />
    <path id="Shape" d="M10.5575 3.27184C7.03619 4.12585 4.60149 4.28185 1.57508 4.42086C0.884785 4.45486 -0.367916 4.89285 0.103489 6.83685C1.04618 10.7238 6.69069 14.4998 12.9154 12.9899C19.1391 11.4799 22.4266 5.53786 21.4839 1.65084C21.0125 -0.293159 19.697 -0.110146 19.0685 0.178856C16.3154 1.43984 14.0788 2.41784 10.5575 3.27184L10.5575 3.27184Z" fill="#292F33" transform="translate(14.395 26.442)" />
    <path id="Shape" d="M2.43763 0.650459C5.22313 -0.462547 5.40883 0.00144196 5.78013 0.929451C6.15143 1.85847 5.50133 4.27247 4.10863 4.82944C2.71583 5.38645 0.580427 4.08646 0.209127 3.15745C-0.162271 2.22947 -0.348772 1.76545 2.43763 0.650459L2.43763 0.650459Z" fill="#E75A70" transform="translate(19.789 22.997)" />
    <path id="Shape" d="M0 0.22998L0.161201 6.228C0.241798 9.22699 1.7478 12.187 4.5986 12.111C7.4494 12.034 8.7942 8.99698 8.7137 5.99799L8.5525 0L0 0.22998L0 0.22998Z" fill="#E8596E" transform="translate(19.134 32.708)" />
    <path id="Shape" d="M0.7295 6.85202C1.0304 6.84402 1.2677 6.59402 1.2597 6.29303L1.0906 0L0 0.0290222L0.169098 6.32202C0.178101 6.62302 0.428604 6.86002 0.7295 6.85202L0.7295 6.85202Z" fill="#DD2F45" transform="translate(22.893 33.847)" />
    <path id="Shape" d="M0 4.24301C0 4.24301 3.1513 4.508 8.9824 3.09399C14.8135 1.67999 17.4933 0 17.4933 0C17.4933 0 16.4931 4.358 9.6899 6.009C2.8868 7.659 0 4.24301 0 4.24301L0 4.24301Z" fill="#FFFFFF" transform="translate(16.442 28.564)" />
  </g>
</svg>