<?xml version="1.0" encoding="utf-8"?>
<svg width="43.303" height="35.998" viewBox="0 0 43.303 35.998" fill="none" xmlns="http://www.w3.org/2000/svg">
  <defs>
    <radialGradient id="gradient_1" gradientUnits="userSpaceOnUse" cx="0" cy="0" r="1" gradientTransform="matrix(0 5 -4.545 0 5.5 5)">
      <stop offset="0.495" stop-color="#F4F7F9" />
      <stop offset="1" stop-color="#E75A70" />
    </radialGradient>
  </defs>
  <g id="cursedhahacat">
    <path id="Shape" d="M35.5764 19.9273C35.2174 16.6583 34.8424 14.9983 33.8424 12.9983C33.8424 12.9983 36.8424 3.99828 34.8424 0.298296C34.1684 -0.947706 27.4384 1.98628 24.8424 3.99828C24.8424 3.99828 20.8424 3.00029 17.8424 3.00029C14.8424 3.00029 10.8424 3.99828 10.8424 3.99828C8.2464 1.98628 1.51641 -0.947706 0.842411 0.298296C-1.15759 3.99828 1.84241 12.9983 1.84241 12.9983C0.842411 14.9983 0.467411 16.6583 0.108402 19.9273C-0.286587 23.5113 0.499409 26.3683 0.842411 26.9983C1.23241 27.7143 3.20942 30.0233 5.84241 31.9983C9.84241 34.9983 15.8424 35.9983 17.8424 35.9983C19.8424 35.9983 25.8424 34.9983 29.8424 31.9983C32.4754 30.0233 34.4524 27.7143 34.8424 26.9983C35.1854 26.3683 35.9714 23.5113 35.5764 19.9273L35.5764 19.9273Z" fill="#FFCC4D" transform="translate(3.93 0)" />
    <path id="Shape" d="M20.9148 0.0190544C19.9378 0.21104 15.8918 1.82804 10.8918 1.82804C5.8918 1.82804 1.8458 0.21104 0.868793 0.0190544C-0.108196 -0.171955 -0.223202 1.09205 0.333805 2.96003C0.891804 4.82804 3.8918 8.82804 10.8918 8.82804C17.8918 8.82804 20.8918 4.82804 21.4498 2.96003C22.0068 1.09205 21.8918 -0.171955 20.9148 0.0190544L20.9148 0.0190544Z" fill="#292F33" transform="translate(10.88 22)" />
    <path id="Shape" d="M0 0C0 0 5 2 10 2C15 2 20 0 20 0C20 0 19.5 3 18.5 3C17.5 3 17 2 17 2C17 2 13 4 10 4C7 4 3 2 3 2C3 2 2.5 3 1.5 3C0.5 3 0 0 0 0L0 0Z" fill="#F5F8FA" transform="translate(11.772 22.828)" />
    <path id="Shape" d="M3 0C6 0 6 0.5 6 1.5C6 2.5 4.5 4.5 3 4.5C1.5 4.5 0 2.5 0 1.5C0 0.5 -0.00100708 0 3 0L3 0Z" fill="#E75A70" transform="translate(18.772 17.959)" />
    <path id="Shape" d="M0.28 0.404681C0.726991 -0.937299 5.92 1.40468 6.92 2.40468C6.92 2.40468 2.28 5.40468 1.28 8.40468C1.28 8.40468 -0.72 3.40468 0.28 0.404681L0.28 0.404681ZM32.28 0.404681C31.833 -0.937299 26.64 1.40468 25.64 2.40468C25.64 2.40468 30.28 5.40468 31.28 8.40468C31.28 8.40468 33.28 3.40468 32.28 0.404681L32.28 0.404681Z" fill="#F18F26" fill-rule="evenodd" transform="translate(5.492 2.594)" />
    <path id="Shape" d="M0 0.389987C0 -1.02401 6.06601 1.78696 5.06601 2.78696C4.06601 3.78696 3.06601 4.38999 2.06601 5.38999C1.06601 6.38999 0 1.38999 0 0.389987L0 0.389987ZM26.132 0.389987C26.132 -1.02401 20.066 1.78696 21.066 2.78696C22.066 3.78696 23.066 4.38999 24.066 5.38999C25.066 6.38999 26.132 1.38999 26.132 0.389987L26.132 0.389987Z" fill="#FFCC4D" fill-rule="evenodd" transform="translate(8.706 5.211)" />
    <path id="Shape" d="M5.5 10C8.537 10 11 7.76099 11 5C11 2.23901 8.537 0 5.5 0C2.46201 0 0 2.23901 0 5C0 7.76099 2.46201 10 5.5 10L5.5 10Z" fill="url(#gradient_1)" transform="translate(22.771 8)" />
    <path id="Shape" d="M5.5 10C8.537 10 11 7.76099 11 5C11 2.23901 8.537 0 5.5 0C2.46201 0 0 2.23901 0 5C0 7.76099 2.46201 10 5.5 10L5.5 10Z" fill="url(#gradient_1)" transform="translate(9.771 8)" />
    <path id="Shape" d="M0.702075 6.45877C0.554065 6.45877 0.408069 6.39376 0.30907 6.26876C0.138065 6.05175 0.175067 5.73776 0.392063 5.56674C0.554065 5.43975 4.41207 2.44674 11.0401 2.96176C11.3151 2.98175 11.5211 3.22274 11.5001 3.49774C11.4791 3.77276 11.2431 3.99874 10.9631 3.95776C4.73008 3.48376 1.04807 6.32376 1.01207 6.35275C0.919071 6.42376 0.810062 6.45877 0.702075 6.45877L0.702075 6.45877ZM9.57007 1.79574C9.52108 1.79574 9.47007 1.78875 9.42107 1.77374C4.63106 0.27676 0.68407 1.42675 0.644062 1.43774C0.379062 1.51876 0.101062 1.36776 0.0210757 1.10275C-0.0579343 0.837765 0.0920749 0.55975 0.356067 0.48074C0.529071 0.428738 4.64206 -0.766239 9.71807 0.818752C9.98207 0.90176 10.1291 1.18176 10.0461 1.44577C9.98008 1.65875 9.78307 1.79574 9.57007 1.79574L9.57007 1.79574ZM31.3001 6.45877C31.4481 6.45877 31.5941 6.39376 31.6931 6.26876C31.8641 6.05175 31.8271 5.73776 31.6101 5.56674C31.4481 5.43975 27.5901 2.44674 20.9621 2.96176C20.6871 2.98175 20.4811 3.22274 20.5021 3.49774C20.5231 3.77276 20.7591 3.99874 21.0391 3.95776C27.2721 3.48376 30.9541 6.32376 30.9901 6.35275C31.0831 6.42376 31.1921 6.45877 31.3001 6.45877L31.3001 6.45877ZM22.4321 1.79574C22.4811 1.79574 22.5321 1.78875 22.5811 1.77374C27.3711 0.27676 31.3181 1.42675 31.3581 1.43774C31.6231 1.51876 31.9011 1.36776 31.9811 1.10275C32.0601 0.837765 31.9101 0.55975 31.6461 0.48074C31.4731 0.428738 27.3601 -0.766239 22.2841 0.818752C22.0201 0.90176 21.8731 1.18176 21.9561 1.44577C22.0211 1.65875 22.2191 1.79574 22.4321 1.79574L22.4321 1.79574Z" fill="#FEE7B8" fill-rule="evenodd" transform="translate(5.771 18.001)" />
    <path id="Shape" d="M2.5 5C3.88 5 5 3.88101 5 2.5C5 1.11899 3.88 0 2.5 0C1.119 0 0 1.11899 0 2.5C0 3.88101 1.119 5 2.5 5L2.5 5Z" fill="#292F33" transform="translate(12.771 11)" />
    <path id="Shape" d="M2.5 5C3.88 5 5 3.88101 5 2.5C5 1.11899 3.88 0 2.5 0C1.119 0 0 1.11899 0 2.5C0 3.88101 1.119 5 2.5 5L2.5 5Z" fill="#292F33" transform="translate(25.771 11)" />
    <path id="Shape" d="M6.05923 9.90835C8.43021 11.3253 11.4992 10.5533 12.9162 8.18234C14.3342 5.81234 13.5632 2.74334 11.1922 1.32534C8.82123 -0.09165 0.556219 -0.373663 0.0432186 0.485346C-0.468775 1.34335 3.69022 8.49136 6.05923 9.90835L6.05923 9.90835Z" fill="#5DADEC" transform="translate(29.676 14.786)" />
    <path id="Shape" d="M0.753147 8.34782C2.21015 10.6948 5.29114 11.4158 7.63814 9.95885C9.98314 8.50282 14.0231 1.28685 13.4961 0.435835C12.9681 -0.414171 4.70914 0.00584221 2.36315 1.46284C0.0171393 2.91984 -0.703854 6.00282 0.753147 8.34782L0.753147 8.34782Z" fill="#5DADEC" transform="translate(0 14.745)" />
    <path id="Shape" d="M8.71515 2.49696C9.02716 2.59794 9.35115 2.53996 9.60115 2.36595C9.77215 2.24595 9.90715 2.07194 9.97716 1.85896C10.1501 1.33397 9.86516 0.768964 9.33916 0.59596C4.17315 -1.10005 0.576155 1.35194 0.425154 1.45796C-0.0248432 1.77296 -0.134844 2.39094 0.178144 2.84395C0.490156 3.29594 1.11215 3.41096 1.56614 3.10096C1.68616 3.01896 4.53415 1.12294 8.71515 2.49696L8.71515 2.49696Z" fill="#292F33" transform="translate(24.321 5.125)" />
    <path id="Shape" d="M0.0352249 1.64762C0.0942307 1.86561 0.22123 2.04661 0.385231 2.17362C0.624229 2.3606 0.94622 2.43763 1.26223 2.35163C5.50222 1.2016 8.24523 3.23462 8.36823 3.32761C8.80422 3.66562 9.43023 3.58661 9.76922 3.15162C10.1082 2.71662 10.0302 2.08762 9.59522 1.7486C9.45023 1.63563 5.98623 -1.00338 0.738228 0.42063C0.20623 0.565619 -0.109779 1.11561 0.0352249 1.64762L0.0352249 1.64762Z" fill="#292F33" transform="translate(9.439 5.039)" />
  </g>
</svg>