<?xml version="1.0" encoding="utf-8"?>
<svg width="38.843" height="35.998" viewBox="0 0 38.843 35.998" fill="none" xmlns="http://www.w3.org/2000/svg">
  <g id="desperatecat">
    <path id="Shape" d="M35.5764 19.9273C35.2174 16.6583 34.8424 14.9983 33.8424 12.9983C33.8424 12.9983 36.8424 3.99828 34.8424 0.298296C34.1684 -0.947706 27.4384 1.98628 24.8424 3.99828C24.8424 3.99828 20.8424 3.00029 17.8424 3.00029C14.8424 3.00029 10.8424 3.99828 10.8424 3.99828C8.24641 1.98628 1.51641 -0.947706 0.842407 0.298296C-1.15759 3.99828 1.84241 12.9983 1.84241 12.9983C0.842407 14.9983 0.467407 16.6583 0.108407 19.9273C-0.286593 23.5113 0.499407 26.3683 0.842407 26.9983C1.23241 27.7143 3.20941 30.0233 5.84241 31.9983C9.84241 34.9983 15.8424 35.9983 17.8424 35.9983C19.8424 35.9983 25.8424 34.9983 29.8424 31.9983C32.4754 30.0233 34.4524 27.7143 34.8424 26.9983C35.1854 26.3683 35.9714 23.5113 35.5764 19.9273L35.5764 19.9273Z" fill="#FFCC4D" />
    <path id="Shape" d="M0.204081 0.404681C0.651081 -0.937299 6.84408 2.40468 7.84408 3.40468C7.84408 3.40468 3.20408 6.40468 2.20408 9.40468C2.20408 9.40468 -0.795916 3.40468 0.204081 0.404681L0.204081 0.404681ZM32.2041 0.404681C31.7571 -0.937299 26.5641 1.40468 25.5641 2.40468C25.5641 2.40468 30.2041 5.40468 31.2041 8.40468C31.2041 8.40468 33.2041 3.40468 32.2041 0.404681L32.2041 0.404681Z" fill="#F18F26" fill-rule="evenodd" transform="translate(1.638 2.594)" />
    <path id="Shape" d="M0 0.389987C0 -1.02401 6.06599 1.78696 5.066 2.78696C4.066 3.78696 3.066 4.38999 2.066 5.38999C1.066 6.38999 0 1.38999 0 0.389987L0 0.389987ZM26.132 0.389987C26.132 -1.02401 20.066 1.78696 21.066 2.78696C22.066 3.78696 23.066 4.38999 24.066 5.38999C25.066 6.38999 26.132 1.38999 26.132 0.389987L26.132 0.389987Z" fill="#FFCC4D" fill-rule="evenodd" transform="translate(4.776 5.211)" />
    <path id="Shape" d="M0.702072 6.45874C0.554072 6.45874 0.408072 6.39373 0.309072 6.26873C0.138072 6.05175 0.175072 5.73776 0.392072 5.56674C0.554072 5.43975 4.41207 2.44674 11.0401 2.96176C11.3151 2.98175 11.5211 3.22274 11.5001 3.49774C11.4791 3.77273 11.2431 3.99874 10.9631 3.95776C4.73007 3.48376 1.04807 6.32376 1.01207 6.35275C0.919072 6.42373 0.810072 6.45874 0.702072 6.45874L0.702072 6.45874ZM9.57006 1.79574C9.52106 1.79574 9.47006 1.78875 9.42106 1.77374C4.63107 0.27676 0.684072 1.42675 0.644072 1.43774C0.379072 1.51873 0.101072 1.36773 0.0210721 1.10275C-0.0579278 0.837734 0.092072 0.55975 0.356072 0.48074C0.529072 0.428738 4.64207 -0.766239 9.71806 0.818752C9.98206 0.90176 10.1291 1.18176 10.0461 1.44574C9.98006 1.65875 9.78306 1.79574 9.57006 1.79574L9.57006 1.79574ZM35.3001 6.45874C35.4481 6.45874 35.5941 6.39373 35.6931 6.26873C35.8641 6.05175 35.8271 5.73776 35.6101 5.56674C35.4481 5.43975 31.5901 2.44674 24.9621 2.96176C24.6871 2.98175 24.4811 3.22274 24.5021 3.49774C24.5231 3.77273 24.7591 3.99874 25.0391 3.95776C31.2721 3.48376 34.9541 6.32376 34.9901 6.35275C35.0831 6.42373 35.1921 6.45874 35.3001 6.45874L35.3001 6.45874ZM26.4321 1.79574C26.4811 1.79574 26.5321 1.78875 26.5811 1.77374C31.3711 0.27676 35.3181 1.42675 35.3581 1.43774C35.6231 1.51873 35.9011 1.36773 35.9811 1.10275C36.0601 0.837734 35.9101 0.55975 35.6461 0.48074C35.4731 0.428738 31.3601 -0.766239 26.2841 0.818752C26.0201 0.90176 25.8731 1.18176 25.9561 1.44574C26.0211 1.65875 26.2191 1.79574 26.4321 1.79574L26.4321 1.79574Z" fill="#FEE7B8" fill-rule="evenodd" transform="translate(2.841 22.045)" />
    <path id="Circle" d="M0 5C0 2.23858 2.23858 0 5 0C7.76142 0 10 2.23858 10 5C10 7.76142 7.76142 10 5 10C2.23858 10 0 7.76142 0 5Z" fill="#292F33" fill-rule="evenodd" fill-opacity="0.25" transform="translate(21.841 12)" />
    <path id="Circle" d="M0 3C0 1.34315 1.34315 0 3 0C4.65685 0 6 1.34315 6 3C6 4.65685 4.65685 6 3 6C1.34315 6 0 4.65685 0 3Z" fill="#292F33" fill-rule="evenodd" transform="translate(23.841 14)" />
    <path id="Shape" d="M16.5 17.6C14.752 19.096 12.4816 20 9.99996 20C4.47715 20 0 15.523 0 10C0 4.47699 4.47715 0 9.99996 0C12.4816 0 14.752 0.903992 16.5 2.39999C18.2481 0.903992 20.5185 0 23 0C28.5229 0 33 4.47699 33 10C33 15.523 28.5229 20 23 20C20.5185 20 18.2481 19.096 16.5 17.6L16.5 17.6Z" fill="#292F33" fill-rule="evenodd" fill-opacity="0.25" transform="translate(3.841 7)" />
    <path id="Shape" d="M13.5 9.603C12.4671 12.18 9.94606 14 6.99996 14C3.13401 14 0 10.866 0 7C0 3.134 3.13401 0 6.99996 0C9.94606 0 12.4671 1.82001 13.5 4.397C14.533 1.82001 17.054 0 20 0C23.866 0 27 3.134 27 7C27 10.866 23.866 14 20 14C17.054 14 14.533 12.18 13.5 9.603L13.5 9.603Z" fill="#292F33" fill-rule="evenodd" fill-opacity="0.25" transform="translate(6.841 10)" />
    <path id="Circle" d="M0 5C0 2.23858 2.23858 0 5 0C7.76142 0 10 2.23858 10 5C10 7.76142 7.76142 10 5 10C2.23858 10 0 7.76142 0 5Z" fill="#292F33" fill-rule="evenodd" fill-opacity="0.25" transform="translate(8.841 12)" />
    <path id="Circle" d="M0 3C0 1.34315 1.34315 0 3 0C4.65685 0 6 1.34315 6 3C6 4.65685 4.65685 6 3 6C1.34315 6 0 4.65685 0 3Z" fill="#292F33" fill-rule="evenodd" transform="translate(10.841 14)" />
    <path id="Shape" d="M3 0C6 0 6 0.5 6 1.5C6 2.5 4.5 4.5 3 4.5C1.5 4.5 0 2.5 0 1.5C0 0.5 -0.000999451 0 3 0L3 0Z" fill="#E75A70" transform="translate(17.842 23.003)" />
    <path id="Shape" d="M14 25L12 25C11.448 25 11 24.553 11 24C11 23.447 11.448 23 12 23L14 23C14.553 23 15 23.447 15 24C15 24.553 14.553 25 14 25L14 25ZM25.001 6C24.696 6 24.397 5.862 24.2 5.60001C21.56 2.07901 18.139 2.00201 17.994 2C17.444 1.99399 17 1.54401 17.003 0.994995C17.006 0.444 17.45 0 18 0C18.184 0 22.537 0.0499878 25.7999 4.39999C26.132 4.84201 26.042 5.46899 25.6 5.79999C25.42 5.935 25.21 6 25.001 6L25.001 6ZM0.998951 6C0.790951 6 0.57995 5.935 0.399951 5.79999C-0.0420494 5.46899 -0.13105 4.84201 0.199951 4.39999C3.46195 0.0499878 7.81595 0 7.99995 0C8.55195 0 8.99995 0.447998 8.99995 1C8.99995 1.55099 8.55495 1.99799 8.00395 2C7.84895 2.00201 4.43595 2.086 1.79995 5.60001C1.60395 5.862 1.30295 6 0.998951 6L0.998951 6Z" fill="#292F33" fill-rule="evenodd" transform="translate(7.528 8)" />
  </g>
</svg>