<?xml version="1.0" encoding="utf-8"?>
<svg width="36.002" height="38.002" viewBox="0 0 36.002 38.002" fill="none" xmlns="http://www.w3.org/2000/svg">
  <g id="eyebleedcat">
    <path id="Shape" d="M18 4C27.941 4 36 3.10397 36 2C36 0.894989 27.941 0 18 0C8.05901 0 0 0.894989 0 2C0 3.10397 8.05901 4 18 4L18 4Z" fill="#DD2E44" transform="translate(0 34.002)" />
    <path id="Shape" d="M35.5764 19.9273C35.2174 16.6583 34.8424 14.9983 33.8424 12.9983C33.8424 12.9983 36.8424 3.99828 34.8424 0.298296C34.1684 -0.947706 27.4384 1.98628 24.8424 3.99828C24.8424 3.99828 20.8424 3.00029 17.8424 3.00029C14.8424 3.00029 10.8424 3.99828 10.8424 3.99828C8.2464 1.98628 1.51641 -0.947706 0.842411 0.298296C-1.15759 3.99828 1.84241 12.9983 1.84241 12.9983C0.842411 14.9983 0.467411 16.6583 0.108402 19.9273C-0.286587 23.5113 0.499409 26.3683 0.842411 26.9983C1.23241 27.7143 3.20942 30.0233 5.84241 31.9983C9.84241 34.9983 15.8424 35.9983 17.8424 35.9983C19.8424 35.9983 25.8424 34.9983 29.8424 31.9983C32.4754 30.0233 34.4524 27.7143 34.8424 26.9983C35.1854 26.3683 35.9714 23.5113 35.5764 19.9273L35.5764 19.9273Z" fill="#FFCC4D" transform="translate(0.159 0)" />
    <path id="Shape" d="M0.702076 6.45877C0.554065 6.45877 0.408069 6.39376 0.30907 6.26876C0.138065 6.05175 0.175068 5.73776 0.392063 5.56674C0.554065 5.43975 4.41207 2.44674 11.0401 2.96176C11.3151 2.98175 11.5211 3.22274 11.5001 3.49774C11.4791 3.77276 11.2431 3.99874 10.9631 3.95776C4.73008 3.48376 1.04807 6.32376 1.01207 6.35275C0.919071 6.42376 0.810077 6.45877 0.702076 6.45877L0.702076 6.45877ZM9.57007 1.79574C9.52108 1.79574 9.47007 1.78875 9.42107 1.77374C4.63108 0.27676 0.68407 1.42675 0.644077 1.43774C0.379078 1.51876 0.101078 1.36776 0.0210759 1.10275C-0.0579341 0.837765 0.0920751 0.55975 0.356067 0.48074C0.529072 0.428738 4.64206 -0.766239 9.71807 0.818752C9.98207 0.90176 10.1291 1.18176 10.0461 1.44577C9.98008 1.65875 9.78307 1.79574 9.57007 1.79574L9.57007 1.79574ZM35.3001 6.45877C35.4481 6.45877 35.5941 6.39376 35.6931 6.26876C35.8641 6.05175 35.8271 5.73776 35.6101 5.56674C35.4481 5.43975 31.5901 2.44674 24.9621 2.96176C24.6871 2.98175 24.4811 3.22274 24.5021 3.49774C24.5231 3.77276 24.7591 3.99874 25.0391 3.95776C31.2721 3.48376 34.9541 6.32376 34.9901 6.35275C35.0831 6.42376 35.1921 6.45877 35.3001 6.45877L35.3001 6.45877ZM26.4321 1.79574C26.4811 1.79574 26.5321 1.78875 26.5811 1.77374C31.3711 0.27676 35.3181 1.42675 35.3581 1.43774C35.6231 1.51876 35.9011 1.36776 35.9811 1.10275C36.0601 0.837765 35.9101 0.55975 35.6461 0.48074C35.4731 0.428738 31.3601 -0.766239 26.2841 0.818752C26.0201 0.90176 25.8731 1.18176 25.9561 1.44577C26.0211 1.65875 26.2191 1.79574 26.4321 1.79574L26.4321 1.79574Z" fill="#FEE7B8" fill-rule="evenodd" transform="translate(0 20.001)" />
    <path id="Shape" d="M8 5.50201C8 8.26501 6.209 8.50201 4 8.50201C1.79001 8.50201 0 8.26501 0 5.50201C0 2.741 2.5 0 4 0C5.5 0 8 2.741 8 5.50201L8 5.50201Z" fill="#292F33" transform="translate(14 24.5)" />
    <path id="Shape" d="M7.62958 0.071991C7.75057 0.0230103 7.87658 0 8.00057 0C8.39658 0 8.77257 0.238007 8.92957 0.630005C9.13457 1.14301 8.88457 1.724 8.37157 1.92999C3.78658 3.76401 1.87157 6.50101 1.83158 6.55801L1.83057 6.55899C1.52257 7.017 0.904575 7.13901 0.445576 6.83301C-0.014431 6.52701 -0.138424 5.90601 0.168568 5.44601C0.257572 5.31299 2.40058 2.16299 7.62958 0.071991L7.62958 0.071991Z" fill="#292F33" transform="translate(20 12)" />
    <path id="Shape" d="M0.0717759 0.628998C0.228789 0.238007 0.603789 0 1.00078 0C1.12478 0 1.25078 0.0230103 1.37279 0.0710144C6.60078 2.16199 8.74379 5.31201 8.83278 5.44501C9.13878 5.90302 9.01478 6.51999 8.55778 6.828C8.09978 7.13501 7.47879 7.01401 7.17077 6.55801L7.17077 6.55701C7.13078 6.5 5.21478 3.763 0.628783 1.92899C0.115782 1.724 -0.133211 1.142 0.0717759 0.628998L0.0717759 0.628998Z" fill="#292F33" transform="translate(6.999 12)" />
    <path id="Shape" d="M16 0L20 0L20 19L16 18.954L16 0L16 0ZM0 19L4 18.954L4 0L0 0L0 19L0 19Z" fill="#DD2E44" fill-rule="evenodd" transform="translate(8 18.002)" />
    <path id="Shape" d="M8.99885 2.89076C8.84884 2.89076 8.69584 2.85673 8.55285 2.78575C5.04084 1.02974 1.48284 2.76774 1.44785 2.78575C0.952841 3.03474 0.35285 2.83174 0.105841 2.33876C-0.141153 1.84474 0.0588436 1.24376 0.552847 0.996748C0.734838 0.906752 5.05085 -1.20024 9.44785 0.996748C9.94184 1.24376 10.1418 1.84474 9.89484 2.33876C9.71885 2.68873 9.36585 2.89076 8.99885 2.89076L8.99885 2.89076ZM22.9988 2.89076C22.8488 2.89076 22.6958 2.85673 22.5528 2.78575C19.0398 1.02974 15.4828 2.76774 15.4479 2.78575C14.9538 3.03374 14.3538 2.83275 14.1058 2.33876C13.8588 1.84474 14.0588 1.24376 14.5528 0.996748C14.7348 0.906752 19.0538 -1.19927 23.4479 0.996748C23.9418 1.24376 24.1418 1.84474 23.8948 2.33876C23.7188 2.68873 23.3659 2.89076 22.9988 2.89076L22.9988 2.89076Z" fill="#292F33" fill-rule="evenodd" transform="translate(6 16.112)" />
    <path id="Shape" d="M3 4C4.65701 4 6 3.10397 6 2C6 0.894989 4.65701 0 3 0C1.343 0 0 0.894989 0 2C0 3.10397 1.343 4 3 4L3 4Z" fill="#E75A70" transform="translate(15 28.002)" />
    <path id="Shape" d="M3 0C6 0 6 0.5 6 1.5C6 2.5 4.5 4.5 3 4.5C1.5 4.5 0 2.5 0 1.5C0 0.5 -0.000991821 0 3 0L3 0Z" fill="#E75A70" transform="translate(15 20)" />
    <path id="Shape" d="M0.28 0.404681C0.727006 -0.937299 5.92 1.40468 6.92 2.40468C6.92 2.40468 2.28 5.40468 1.28 8.40468C1.28 8.40468 -0.72 3.40468 0.28 0.404681L0.28 0.404681ZM32.28 0.404681C31.833 -0.937299 26.64 1.40468 25.64 2.40468C25.64 2.40468 30.28 5.40468 31.28 8.40468C31.28 8.40468 33.28 3.40468 32.28 0.404681L32.28 0.404681Z" fill="#F18F26" fill-rule="evenodd" transform="translate(1.721 2.594)" />
    <path id="Shape" d="M0 0.389987C0 -1.02401 6.06599 1.78696 5.06599 2.78696C4.06599 3.78696 3.06599 4.38999 2.06599 5.38999C1.06599 6.38999 0 1.38999 0 0.389987L0 0.389987ZM26.132 0.389987C26.132 -1.02401 20.066 1.78696 21.066 2.78696C22.066 3.78696 23.066 4.38999 24.066 5.38999C25.066 6.38999 26.132 1.38999 26.132 0.389987L26.132 0.389987Z" fill="#FFCC4D" fill-rule="evenodd" transform="translate(4.935 5.211)" />
  </g>
</svg>