<?xml version="1.0" encoding="utf-8"?>
<svg width="36.002" height="35.998" viewBox="0 0 36.002 35.998" fill="none" xmlns="http://www.w3.org/2000/svg">
  <g id="flushedcat">
    <path id="Shape" d="M35.5764 19.9273C35.2174 16.6583 34.8424 14.9983 33.8424 12.9983C33.8424 12.9983 36.8424 3.99828 34.8424 0.298296C34.1684 -0.947706 27.4384 1.98628 24.8424 3.99828C24.8424 3.99828 20.8424 3.00029 17.8424 3.00029C14.8424 3.00029 10.8424 3.99828 10.8424 3.99828C8.24641 1.98628 1.51641 -0.947706 0.84241 0.298296C-1.15759 3.99828 1.84241 12.9983 1.84241 12.9983C0.84241 14.9983 0.46741 16.6583 0.108409 19.9273C-0.286596 23.5113 0.499407 26.3683 0.84241 26.9983C1.23241 27.7143 3.20941 30.0233 5.84241 31.9983C9.84241 34.9983 15.8424 35.9983 17.8424 35.9983C19.8424 35.9983 25.8424 34.9983 29.8424 31.9983C32.4754 30.0233 34.4524 27.7143 34.8424 26.9983C35.1854 26.3683 35.9714 23.5113 35.5764 19.9273L35.5764 19.9273Z" fill="#FFCC4D" transform="translate(0.159 0)" />
    <path id="Shape" d="M4 8C6.209 8 8 6.20901 8 4C8 1.79099 6.209 0 4 0C1.791 0 0 1.79099 0 4C0 6.20901 1.791 8 4 8L4 8Z" fill="#FF7892" transform="translate(27 19)" />
    <path id="Shape" d="M4 8C6.20901 8 8 6.20901 8 4C8 1.79099 6.20901 0 4 0C1.791 0 0 1.79099 0 4C0 6.20901 1.791 8 4 8L4 8Z" fill="#FF7892" transform="translate(1 19)" />
    <path id="Shape" d="M5.5 11C8.53801 11 11 8.53799 11 5.5C11 2.46201 8.53801 0 5.5 0C2.46201 0 0 2.46201 0 5.5C0 8.53799 2.46201 11 5.5 11L5.5 11Z" fill="#F5F8FA" transform="translate(19 9)" />
    <path id="Shape" d="M5.5 11C8.538 11 11 8.53799 11 5.5C11 2.46201 8.538 0 5.5 0C2.46201 0 0 2.46201 0 5.5C0 8.53799 2.46201 11 5.5 11L5.5 11Z" fill="#F5F8FA" transform="translate(6 9)" />
    <path id="Shape" d="M2.5 5C3.881 5 5 3.88101 5 2.5C5 1.11899 3.881 0 2.5 0C1.119 0 0 1.11899 0 2.5C0 3.88101 1.119 5 2.5 5L2.5 5Z" fill="#292F33" transform="translate(9 12)" />
    <path id="Shape" d="M2.5 5C3.881 5 5 3.88101 5 2.5C5 1.11899 3.881 0 2.5 0C1.119 0 0 1.11899 0 2.5C0 3.88101 1.119 5 2.5 5L2.5 5Z" fill="#292F33" transform="translate(22 12)" />
    <path id="Shape" d="M3 0C6 0 6 0.5 6 1.5C6 2.5 4.5 4.5 3 4.5C1.5 4.5 0 2.5 0 1.5C0 0.5 -0.00100708 0 3 0L3 0Z" fill="#E75A70" transform="translate(15.001 19.498)" />
    <path id="Shape" d="M0.28 0.404681C0.726999 -0.937299 5.92 1.40468 6.92 2.40468C6.92 2.40468 2.28 5.40468 1.28 8.40468C1.28 8.40468 -0.72 3.40468 0.28 0.404681L0.28 0.404681ZM32.28 0.404681C31.833 -0.937299 26.64 1.40468 25.64 2.40468C25.64 2.40468 30.28 5.40468 31.28 8.40468C31.28 8.40468 33.28 3.40468 32.28 0.404681L32.28 0.404681Z" fill="#F18F26" fill-rule="evenodd" transform="translate(1.721 2.594)" />
    <path id="Shape" d="M0 0.389987C0 -1.02401 6.066 1.78696 5.066 2.78696C4.066 3.78696 3.066 4.38999 2.066 5.38999C1.066 6.38999 0 1.38999 0 0.389987L0 0.389987ZM26.132 0.389987C26.132 -1.02401 20.066 1.78696 21.066 2.78696C22.066 3.78696 23.066 4.38999 24.066 5.38999C25.066 6.38999 26.132 1.38999 26.132 0.389987L26.132 0.389987Z" fill="#FFCC4D" fill-rule="evenodd" transform="translate(4.935 5.211)" />
    <path id="Shape" d="M0.702073 6.45874C0.55407 6.45874 0.408074 6.39376 0.309075 6.26876C0.13807 6.05175 0.175072 5.73776 0.392075 5.56674C0.55407 5.43975 4.41207 2.44674 11.0401 2.96176C11.3151 2.98175 11.5211 3.22274 11.5001 3.49774C11.4791 3.77276 11.2431 3.99874 10.9631 3.95776C4.73007 3.48376 1.04807 6.32376 1.01207 6.35275C0.919076 6.42376 0.810075 6.45874 0.702073 6.45874L0.702073 6.45874ZM9.57008 1.79574C9.52107 1.79574 9.47007 1.78875 9.42107 1.77374C4.63107 0.27676 0.684075 1.42675 0.644074 1.43774C0.379075 1.51876 0.101075 1.36776 0.0210731 1.10275C-0.0579293 0.837765 0.0920723 0.55975 0.356072 0.48074C0.529076 0.428738 4.64208 -0.766239 9.71807 0.818752C9.98207 0.90176 10.1291 1.18176 10.0461 1.44574C9.98007 1.65875 9.78308 1.79574 9.57008 1.79574L9.57008 1.79574ZM35.3001 6.45874C35.4481 6.45874 35.5941 6.39376 35.6931 6.26876C35.8641 6.05175 35.8271 5.73776 35.6101 5.56674C35.4481 5.43975 31.5901 2.44674 24.9621 2.96176C24.6871 2.98175 24.4811 3.22274 24.5021 3.49774C24.5231 3.77276 24.7591 3.99874 25.0391 3.95776C31.2721 3.48376 34.9541 6.32376 34.9901 6.35275C35.0831 6.42376 35.1921 6.45874 35.3001 6.45874L35.3001 6.45874ZM26.4321 1.79574C26.4811 1.79574 26.5321 1.78875 26.5811 1.77374C31.3711 0.27676 35.3181 1.42675 35.3581 1.43774C35.6231 1.51876 35.9011 1.36776 35.9811 1.10275C36.0601 0.837765 35.9101 0.55975 35.6461 0.48074C35.4731 0.428738 31.3601 -0.766239 26.2841 0.818752C26.0201 0.90176 25.8731 1.18176 25.9561 1.44574C26.0211 1.65875 26.2191 1.79574 26.4321 1.79574L26.4321 1.79574Z" fill="#FEE7B8" fill-rule="evenodd" transform="translate(0 19.54)" />
    <path id="Shape" d="M13.9999 25L11.9999 25C11.4479 25 10.9999 24.553 10.9999 24C10.9999 23.447 11.4479 23 11.9999 23L13.9999 23C14.553 23 14.9999 23.447 14.9999 24C14.9999 24.553 14.553 25 13.9999 25L13.9999 25ZM25.001 6C24.6959 6 24.397 5.862 24.1999 5.60001C21.5599 2.07901 18.139 2.00201 17.994 2C17.4439 1.99399 16.9999 1.54401 17.003 0.994995C17.0059 0.444 17.4499 0 17.9999 0C18.184 0 22.537 0.0499878 25.8 4.39999C26.132 4.84201 26.042 5.46899 25.6 5.79999C25.4199 5.935 25.21 6 25.001 6L25.001 6ZM0.998949 6C0.790948 6 0.57995 5.935 0.39995 5.79999C-0.0420518 5.46899 -0.131049 4.84201 0.199953 4.39999C3.46195 0.0499878 7.81595 0 7.99995 0C8.55195 0 8.99995 0.447998 8.99995 1C8.99995 1.55099 8.55495 1.99799 8.00395 2C7.84895 2.00201 4.43595 2.086 1.79995 5.60001C1.60395 5.862 1.30295 6 0.998949 6L0.998949 6Z" fill="#292F33" fill-rule="evenodd" transform="translate(5 5)" />
  </g>
</svg>