<?xml version="1.0" encoding="utf-8"?>
<svg width="35.685" height="35.998" viewBox="0 0 35.685 35.998" fill="none" xmlns="http://www.w3.org/2000/svg">
  <g id="hahacat">
    <path id="Shape" d="M35.5764 19.9273C35.2174 16.6583 34.8424 14.9983 33.8424 12.9983C33.8424 12.9983 36.8424 3.99828 34.8424 0.298296C34.1684 -0.947706 27.4384 1.98628 24.8424 3.99828C24.8424 3.99828 20.8424 3.00029 17.8424 3.00029C14.8424 3.00029 10.8424 3.99828 10.8424 3.99828C8.24641 1.98628 1.51641 -0.947706 0.842407 0.298296C-1.15759 3.99828 1.84241 12.9983 1.84241 12.9983C0.842407 14.9983 0.467407 16.6583 0.108407 19.9273C-0.286593 23.5113 0.499407 26.3683 0.842407 26.9983C1.23241 27.7143 3.20941 30.0233 5.84241 31.9983C9.84241 34.9983 15.8424 35.9983 17.8424 35.9983C19.8424 35.9983 25.8424 34.9983 29.8424 31.9983C32.4754 30.0233 34.4524 27.7143 34.8424 26.9983C35.1854 26.3683 35.9714 23.5113 35.5764 19.9273L35.5764 19.9273Z" fill="#FFCC4D" />
    <path id="Shape" d="M20.9148 0.0190544C19.9378 0.21104 15.8918 1.82804 10.8918 1.82804C5.89181 1.82804 1.8458 0.21104 0.868801 0.0190544C-0.108199 -0.171955 -0.223199 1.09205 0.333801 2.96003C0.891801 4.82804 3.89181 8.82804 10.8918 8.82804C17.8918 8.82804 20.8918 4.82804 21.4498 2.96003C22.0068 1.09205 21.8918 -0.171955 20.9148 0.0190544L20.9148 0.0190544Z" fill="#292F33" transform="translate(6.951 20)" />
    <path id="Shape" d="M0 0C0 0 4.99999 2 9.99999 2C15 2 20 0 20 0C20 0 19.5 3 18.5 3C17.5 3 17 2 17 2C17 2 13 4 9.99999 4C6.99999 4 2.99999 2 2.99999 2C2.99999 2 2.49999 3 1.5 3C0.5 3 0 0 0 0L0 0Z" fill="#F5F8FA" transform="translate(7.842 20.828)" />
    <path id="Shape" d="M3 0C6 0 6 0.5 6 1.5C6 2.5 4.5 4.5 3 4.5C1.5 4.5 0 2.5 0 1.5C0 0.5 -0.000999451 0 3 0L3 0Z" fill="#E75A70" transform="translate(14.842 15.959)" />
    <path id="Shape" d="M0.280001 0.404681C0.727001 -0.937299 5.92 1.40468 6.92 2.40468C6.92 2.40468 2.28 5.40468 1.28 8.40468C1.28 8.40468 -0.720001 3.40468 0.280001 0.404681L0.280001 0.404681ZM32.28 0.404681C31.833 -0.937299 26.64 1.40468 25.64 2.40468C25.64 2.40468 30.28 5.40468 31.28 8.40468C31.28 8.40468 33.28 3.40468 32.28 0.404681L32.28 0.404681Z" fill="#F18F26" fill-rule="evenodd" transform="translate(1.562 2.594)" />
    <path id="Shape" d="M0 0.389987C0 -1.02401 6.06599 1.78696 5.066 2.78696C4.066 3.78696 3.066 4.38999 2.066 5.38999C1.066 6.38999 0 1.38999 0 0.389987L0 0.389987ZM26.132 0.389987C26.132 -1.02401 20.066 1.78696 21.066 2.78696C22.066 3.78696 23.066 4.38999 24.066 5.38999C25.066 6.38999 26.132 1.38999 26.132 0.389987L26.132 0.389987Z" fill="#FFCC4D" fill-rule="evenodd" transform="translate(4.776 5.211)" />
    <path id="Shape" d="M5.5 10C8.5376 10 11 7.76099 11 5C11 2.23901 8.5376 0 5.5 0C2.4625 0 0 2.23901 0 5C0 7.76099 2.4625 10 5.5 10L5.5 10Z" fill="#F4F7F9" transform="translate(18.841 6)" />
    <path id="Shape" d="M5.49996 10C8.53756 10 11 7.76099 11 5C11 2.23901 8.53756 0 5.49996 0C2.46243 0 0 2.23901 0 5C0 7.76099 2.46243 10 5.49996 10L5.49996 10Z" fill="#F4F7F9" transform="translate(5.841 6)" />
    <path id="Shape" d="M0.835817 7.98599C0.891817 7.996 0.945818 8 1.00082 8C1.48082 8 1.90482 7.65302 1.98582 7.16501C2.02082 6.95401 2.90482 2 7.99982 2C8.55282 2 8.99982 1.552 8.99982 1C8.99982 0.447998 8.55282 0 7.99982 0C2.58382 0 0.406818 4.47101 0.0138187 6.83499C-0.0771828 7.38 0.290817 7.89499 0.835817 7.98599L0.835817 7.98599Z" fill="#292F33" transform="translate(17.841 2)" />
    <path id="Shape" d="M7.01396 7.16699C7.09696 7.655 7.51996 8 7.99896 8C8.05296 8 8.10896 7.996 8.16396 7.98599C8.70896 7.89499 9.07696 7.38 8.98596 6.83499C8.59196 4.47101 6.41596 0 1 0C0.448 0 0 0.447998 0 1C0 1.552 0.448 2 1 2C6.05896 2 6.97696 6.957 7.01396 7.16699L7.01396 7.16699Z" fill="#292F33" transform="translate(8.841 2)" />
    <path id="Shape" d="M0.702072 6.45877C0.554072 6.45877 0.408072 6.39376 0.309072 6.26876C0.138072 6.05175 0.175072 5.73776 0.392072 5.56674C0.554072 5.43975 4.41207 2.44674 11.0401 2.96176C11.3151 2.98175 11.5211 3.22274 11.5001 3.49774C11.4791 3.77276 11.2431 3.99874 10.9631 3.95776C4.73007 3.48376 1.04807 6.32376 1.01207 6.35275C0.919072 6.42376 0.810072 6.45877 0.702072 6.45877L0.702072 6.45877ZM9.57006 1.79574C9.52106 1.79574 9.47006 1.78875 9.42106 1.77374C4.63107 0.27676 0.684072 1.42675 0.644072 1.43774C0.379072 1.51876 0.101072 1.36776 0.0210721 1.10275C-0.0579278 0.837765 0.0920722 0.55975 0.356072 0.48074C0.529072 0.428738 4.64207 -0.766239 9.71806 0.818752C9.98206 0.90176 10.1291 1.18176 10.0461 1.44577C9.98006 1.65875 9.78306 1.79574 9.57006 1.79574L9.57006 1.79574ZM31.3001 6.45877C31.4481 6.45877 31.5941 6.39376 31.6931 6.26876C31.8641 6.05175 31.8271 5.73776 31.6101 5.56674C31.4481 5.43975 27.5901 2.44674 20.9621 2.96176C20.6871 2.98175 20.4811 3.22274 20.5021 3.49774C20.5231 3.77276 20.7591 3.99874 21.0391 3.95776C27.2721 3.48376 30.9541 6.32376 30.9901 6.35275C31.0831 6.42376 31.1921 6.45877 31.3001 6.45877L31.3001 6.45877ZM22.4321 1.79574C22.4811 1.79574 22.5321 1.78875 22.5811 1.77374C27.3711 0.27676 31.3181 1.42675 31.3581 1.43774C31.6231 1.51876 31.9011 1.36776 31.9811 1.10275C32.0601 0.837765 31.9101 0.55975 31.6461 0.48074C31.4731 0.428738 27.3601 -0.766239 22.2841 0.818752C22.0201 0.90176 21.8731 1.18176 21.9561 1.44577C22.0211 1.65875 22.2191 1.79574 22.4321 1.79574L22.4321 1.79574Z" fill="#FEE7B8" fill-rule="evenodd" transform="translate(1.841 16.001)" />
    <path id="Shape" d="M2.49996 5C3.88076 5 4.99996 3.88101 4.99996 2.5C4.99996 1.11899 3.88076 0 2.49996 0C1.11926 0 0 1.11899 0 2.5C0 3.88101 1.11926 5 2.49996 5L2.49996 5Z" fill="#292F33" transform="translate(9.841 6)" />
    <path id="Shape" d="M2.5 5C3.8808 5 5 3.88101 5 2.5C5 1.11899 3.8808 0 2.5 0C1.1193 0 0 1.11899 0 2.5C0 3.88101 1.1193 5 2.5 5L2.5 5Z" fill="#292F33" transform="translate(20.841 6)" />
  </g>
</svg>