<?xml version="1.0" encoding="utf-8"?>
<svg width="36.002" height="35.998" viewBox="0 0 36.002 35.998" fill="none" xmlns="http://www.w3.org/2000/svg">
  <g id="icryoncanvasandgetart">
    <path id="Shape" d="M35.5764 19.9273C35.2174 16.6583 34.8424 14.9983 33.8424 12.9983C33.8424 12.9983 36.8424 3.99828 34.8424 0.298296C34.1684 -0.947706 27.4384 1.98628 24.8424 3.99828C24.8424 3.99828 20.8424 3.00029 17.8424 3.00029C14.8424 3.00029 10.8424 3.99828 10.8424 3.99828C8.2464 1.98628 1.5164 -0.947706 0.842405 0.298296C-1.1576 3.99828 1.8424 12.9983 1.8424 12.9983C0.842405 14.9983 0.467405 16.6583 0.108407 19.9273C-0.286593 23.5113 0.499406 26.3683 0.842405 26.9983C1.23241 27.7143 3.20941 30.0233 5.8424 31.9983C9.8424 34.9983 15.8424 35.9983 17.8424 35.9983C19.8424 35.9983 25.8424 34.9983 29.8424 31.9983C32.4754 30.0233 34.4524 27.7143 34.8424 26.9983C35.1854 26.3683 35.9714 23.5113 35.5764 19.9273L35.5764 19.9273Z" fill="#FFCC4D" transform="translate(0.159 0)" />
    <path id="Shape" d="M3 0C6 0 6 0.5 6 1.5C6 2.5 4.5 4.5 3 4.5C1.5 4.5 0 2.5 0 1.5C0 0.5 -0.000999451 0 3 0L3 0Z" fill="#E75A70" transform="translate(15.001 19.498)" />
    <path id="Shape" d="M0.28 0.404681C0.727002 -0.937299 5.92 1.40468 6.92 2.40468C6.92 2.40468 2.28 5.40468 1.28 8.40468C1.28 8.40468 -0.72 3.40468 0.28 0.404681L0.28 0.404681ZM32.28 0.404681C31.833 -0.937299 26.64 1.40468 25.64 2.40468C25.64 2.40468 30.28 5.40468 31.28 8.40468C31.28 8.40468 33.28 3.40468 32.28 0.404681L32.28 0.404681Z" fill="#F18F26" fill-rule="evenodd" transform="translate(1.721 2.594)" />
    <path id="Shape" d="M0 0.389987C0 -1.02401 6.066 1.78696 5.066 2.78696C4.066 3.78696 3.066 4.38999 2.066 5.38999C1.066 6.38999 0 1.38999 0 0.389987L0 0.389987ZM26.132 0.389987C26.132 -1.02401 20.066 1.78696 21.066 2.78696C22.066 3.78696 23.066 4.38999 24.066 5.38999C25.066 6.38999 26.132 1.38999 26.132 0.389987L26.132 0.389987Z" fill="#FFCC4D" fill-rule="evenodd" transform="translate(4.935 5.211)" />
    <path id="Shape" d="M0.702071 6.45874C0.554073 6.45874 0.408073 6.39376 0.309074 6.26876C0.138072 6.05175 0.175071 5.73776 0.392074 5.56674C0.554073 5.43975 4.41207 2.44674 11.0401 2.96176C11.3151 2.98175 11.5211 3.22274 11.5001 3.49774C11.4791 3.77276 11.2431 3.99874 10.9631 3.95776C4.73007 3.48376 1.04807 6.32376 1.01207 6.35275C0.919074 6.42376 0.810073 6.45874 0.702071 6.45874L0.702071 6.45874ZM9.57007 1.79574C9.52108 1.79574 9.47007 1.78875 9.42107 1.77374C4.63107 0.27676 0.684074 1.42675 0.644073 1.43774C0.379073 1.51876 0.101074 1.36776 0.0210717 1.10275C-0.0579268 0.837765 0.0920709 0.55975 0.356071 0.48074C0.529071 0.428738 4.64207 -0.766239 9.71807 0.818752C9.98207 0.90176 10.1291 1.18176 10.0461 1.44574C9.98007 1.65875 9.78307 1.79574 9.57007 1.79574L9.57007 1.79574ZM35.3001 6.45874C35.4481 6.45874 35.5941 6.39376 35.6931 6.26876C35.8641 6.05175 35.8271 5.73776 35.6101 5.56674C35.4481 5.43975 31.5901 2.44674 24.9621 2.96176C24.6871 2.98175 24.4811 3.22274 24.5021 3.49774C24.5231 3.77276 24.7591 3.99874 25.0391 3.95776C31.2721 3.48376 34.9541 6.32376 34.9901 6.35275C35.0831 6.42376 35.1921 6.45874 35.3001 6.45874L35.3001 6.45874ZM26.4321 1.79574C26.4811 1.79574 26.5321 1.78875 26.5811 1.77374C31.3711 0.27676 35.3181 1.42675 35.3581 1.43774C35.6231 1.51876 35.9011 1.36776 35.9811 1.10275C36.0601 0.837765 35.9101 0.55975 35.6461 0.48074C35.4731 0.428738 31.3601 -0.766239 26.2841 0.818752C26.0201 0.90176 25.8731 1.18176 25.9561 1.44574C26.0211 1.65875 26.2191 1.79574 26.4321 1.79574L26.4321 1.79574Z" fill="#FEE7B8" fill-rule="evenodd" transform="translate(0 18.54)" />
    <path id="Shape" d="M16 0L20 0L20 18.498L16 19.998L16 0L16 0ZM0 18.498L4 19.998L4 0L0 0L0 18.498L0 18.498Z" fill="#5DADEC" fill-rule="evenodd" transform="translate(8 15.002)" />
    <path id="Shape" d="M0.179249 2.01745C0.41925 2.25646 1.61725 2.97445 1.85625 3.69247C2.09625 4.40945 2.57615 8.47646 4.01415 9.67345C5.49715 10.9054 11.0912 10.4475 12.1622 9.91344C14.5591 8.71847 14.8532 5.38247 15.2772 3.69247C15.5161 2.73547 16.9542 2.73547 16.9542 2.73547C16.9542 2.73547 18.3923 2.73547 18.6322 3.69146C19.0561 5.38247 19.3522 8.71847 21.7472 9.91247C22.8192 10.4475 28.4132 10.9065 29.8982 9.67446C31.3341 8.47747 31.8131 4.41045 32.0532 3.69247C32.2911 2.97546 33.4913 2.25747 33.7303 2.01845C33.9712 1.77947 33.9712 0.822471 33.7303 0.58245C33.2512 0.104453 27.5962 -0.321542 21.5072 0.343467C20.2921 0.476462 19.8302 0.821464 16.9532 0.821464C14.0782 0.821464 13.6143 0.475455 12.4002 0.343467C6.31525 -0.322549 0.659252 0.103446 0.179249 0.581473C-0.0597496 0.820457 -0.0597496 1.77846 0.179249 2.01745L0.179249 2.01745Z" fill="#292F33" fill-rule="evenodd" transform="translate(1 8.003)" />
    <path id="Shape" d="M17.8434 0.128593C17.6747 -0.0324173 17.4227 -0.0423965 17.2418 0.0996017C17.2048 0.128593 13.5263 2.9996 8.99991 2.9996C4.48481 2.9996 0.793912 0.128593 0.757909 0.0996017C0.577016 -0.0423965 0.325009 -0.0304031 0.156415 0.128593C-0.0112867 0.288597 -0.0491896 0.552605 0.0673113 0.756584C0.189511 0.971581 3.11491 5.9996 8.99991 5.9996C14.8848 5.9996 17.8111 0.971581 17.9324 0.756584C18.0489 0.551598 18.012 0.288597 17.8434 0.128593L17.8434 0.128593Z" fill="#292F33" transform="translate(9 24.001)" />
  </g>
</svg>