<?xml version="1.0" encoding="utf-8"?>
<svg width="47" height="36.048" viewBox="0 0 47 36.048" fill="none" xmlns="http://www.w3.org/2000/svg">
  <g id="illuminaticat">
    <path id="Shape" d="M0.100869 0.613134C0.100869 -1.60986 9.55427 2.80912 7.99587 4.38114C6.43747 5.95313 4.15927 6.92814 2.60087 8.50013C1.04247 10.0721 -0.399131 2.50013 0.100869 0.613134L0.100869 0.613134Z" fill="#FFCC4D" transform="translate(12.899 3)" />
    <path id="Shape" d="M0.173487 4.38114C-1.38492 2.80912 8.06849 -1.60986 8.06849 0.613134C8.06849 2.18512 6.40719 10.0441 4.84879 8.47211C3.29038 6.90012 1.73189 5.95313 0.173487 4.38114L0.173487 4.38114Z" fill="#FFCC4D" transform="translate(27.688 3)" />
    <path id="Shape" d="M0.129365 0.224948C0.404366 -0.521054 3.59866 0.780948 4.21387 1.33695C4.21387 1.33695 1.90746 4.00696 1.29237 5.67496C1.29237 5.67496 -0.485732 1.89295 0.129365 0.224948L0.129365 0.224948ZM19.8135 0.224948C19.5385 -0.521054 16.3442 0.780948 15.729 1.33695C15.729 1.33695 18.114 4.00696 18.7291 5.67496C18.7291 5.67496 20.4286 1.89295 19.8135 0.224948L19.8135 0.224948Z" fill="#F18F26" fill-rule="evenodd" transform="translate(14.084 4.335)" />
    <path id="Shape" d="M15.4091 2.65125C17.4495 -0.883751 22.5505 -0.883751 24.5909 2.65125L39.282 28.0963C41.322 31.6303 38.772 36.0483 34.691 36.0483L5.30912 36.0483C1.22822 36.0483 -1.32228 31.6303 0.718122 28.0963L15.4091 2.65125L15.4091 2.65125Z" fill="#FFCC4D" transform="translate(4 0)" />
    <path id="Shape" d="M0.916497 8.00003C0.723297 8.00003 0.532696 7.91904 0.403496 7.76505C0.180298 7.49603 0.228596 7.10703 0.511795 6.89502C0.723297 6.73804 5.7599 3.03104 14.4126 3.66904C14.7716 3.69303 15.0405 3.99204 15.0131 4.33203C14.9857 4.67304 14.6776 4.95304 14.312 4.90204C6.175 4.31503 1.36819 7.83304 1.3212 7.86902C1.19979 7.95703 1.0575 8.00003 0.916497 8.00003L0.916497 8.00003ZM12.4935 2.22403C12.4295 2.22403 12.363 2.21604 12.299 2.19702C6.0458 0.343019 0.892998 1.76703 0.840798 1.78104C0.494896 1.88104 0.131897 1.69403 0.0274965 1.36603C-0.0756033 1.03803 0.120197 0.693026 0.464798 0.595034C0.690697 0.531038 6.06009 -0.948973 12.6867 1.01404C13.0314 1.11704 13.2233 1.46402 13.1149 1.79102C13.0288 2.05503 12.7716 2.22403 12.4935 2.22403L12.4935 2.22403ZM46.083 8.00003C46.277 8.00003 46.467 7.91904 46.597 7.76505C46.82 7.49603 46.771 7.10703 46.488 6.89502C46.277 6.73804 41.24 3.03104 32.5874 3.66904C32.2284 3.69303 31.9595 3.99204 31.9869 4.33203C32.0143 4.67304 32.3224 4.95304 32.688 4.90204C40.825 4.31503 45.632 7.83304 45.679 7.86902C45.8 7.95703 45.942 8.00003 46.083 8.00003L46.083 8.00003ZM34.5065 2.22403C34.5705 2.22403 34.637 2.21604 34.701 2.19702C40.9542 0.343019 46.107 1.76703 46.159 1.78104C46.505 1.88104 46.868 1.69403 46.972 1.36603C47.076 1.03803 46.88 0.693026 46.535 0.595034C46.309 0.531038 40.9399 -0.948973 34.3133 1.01404C33.9686 1.11704 33.7767 1.46402 33.8851 1.79102C33.9699 2.05503 34.2284 2.22403 34.5065 2.22403L34.5065 2.22403Z" fill="#FEE7B8" fill-rule="evenodd" transform="translate(0 24)" />
    <path id="Shape" d="M21.7216 1.58176C21.7216 3.68475 16.8585 8.58176 10.8608 8.58176C4.8625 8.58176 0 4.28577 0 1.58176C0 -0.527252 21.7216 -0.527252 21.7216 1.58176L21.7216 1.58176Z" fill="#E1E8ED" transform="translate(13 19.418)" />
    <path id="Shape" d="M21.7216 7L0 7C0 4.892 4.8631 0 10.8608 0C16.8585 0 21.7216 4.89099 21.7216 7L21.7216 7Z" fill="#292F33" transform="translate(13 14)" />
    <path id="Shape" d="M20.1416 6.151C20.1416 7.99899 15.6317 12.303 10.0705 12.303C4.5087 12.303 0 8.526 0 6.151C0 4.298 4.5087 0 10.0705 0C15.6317 -0.00100708 20.1416 4.298 20.1416 6.151L20.1416 6.151Z" fill="#F5F8FA" transform="translate(13.79 14.849)" />
    <path id="Shape" d="M5.3824 10.764C8.355 10.764 10.7648 8.35498 10.7648 5.38199C10.7648 2.409 8.355 0 5.3824 0C2.40981 0 0 2.409 0 5.38199C0 8.35498 2.40981 10.764 5.3824 10.764L5.3824 10.764Z" fill="#8B5E3C" transform="translate(18.483 15.618)" />
    <path id="Shape" d="M2.99599 5.992C4.6507 5.992 5.992 4.651 5.992 2.996C5.992 1.341 4.6507 0 2.99599 0C1.3414 0 0 1.341 0 2.996C0 4.651 1.3414 5.992 2.99599 5.992L2.99599 5.992Z" fill="#292F33" transform="translate(20.87 18.004)" />
    <path id="Shape" d="M1.2727 2.54602C1.9756 2.54602 2.54539 1.97601 2.54539 1.27301C2.54539 0.570007 1.9756 0 1.2727 0C0.569801 0 0 0.570007 0 1.27301C0 1.97601 0.569801 2.54602 1.2727 2.54602L1.2727 2.54602Z" fill="#F5F8FA" transform="translate(20.673 17.818)" />
  </g>
</svg>