<?xml version="1.0" encoding="utf-8"?>
<svg width="38.646" height="37" viewBox="0 0 38.646 37" fill="none" xmlns="http://www.w3.org/2000/svg">
  <defs>
    <path id="path_1" d="M3.83301 0C7.44101 0 11.499 3.16199 11.499 4.517C11.274 6.09799 7.44101 5.194 4.51001 4.96899C1.57901 4.74298 0 4.065 0 2.70999C0 1.35498 0.225998 0 3.83301 0L3.83301 0Z" />
    <clipPath id="clip_path_2">
      <use p4:href="#path_1" xmlns:p4="http://www.w3.org/1999/xlink" />
    </clipPath>
    <path id="path_3" d="M7.879 0C4.17101 0 0 3.34799 0 4.78299C0.23201 6.45599 4.17101 5.5 7.18401 5.26099C10.196 5.022 11.818 4.30399 11.818 2.87C11.818 1.435 11.587 0 7.879 0L7.879 0Z" />
    <clipPath id="clip_path_4">
      <use p4:href="#path_3" xmlns:p4="http://www.w3.org/1999/xlink" />
    </clipPath>
  </defs>
  <g id="lunacyerrorcat" transform="matrix(-1 0 0 1 38.646 0)">
    <path id="Shape" d="M10.493 13.1695C10.803 12.2075 13.408 3.84856 11.484 0.289534C10.803 -0.970446 2.73099 2.10155 0 5.26353C3.20599 6.20555 9.407 10.4975 10.493 13.1695L10.493 13.1695Z" fill="#FFCC4D" transform="translate(18.682 0.093)" />
    <path id="Shape" d="M13.5195 5.35606C10.8215 3.30308 3.76247 -1.35991 1.01447 0.382059C-1.73253 2.12406 1.96347 13.4311 2.01847 13.5981C2.01947 13.5951 2.02147 13.5921 2.02246 13.5901C4.00447 10.5001 10.7825 6.02006 13.5195 5.35606L13.5195 5.35606Z" fill="#FFCC4D" transform="translate(2.863 0)" />
    <path id="Shape" d="M0.286266 0.413513C0.742259 -0.957489 6.04626 1.43451 7.06726 2.4555C7.06726 2.4555 2.32826 5.51953 1.30726 8.58353C1.30726 8.58353 -0.735738 3.47751 0.286266 0.413513L0.286266 0.413513ZM25.7533 0.413513C25.2963 -0.957489 19.9933 1.43451 18.9713 2.4555C18.9713 2.4555 23.7103 5.51953 24.7313 8.58353C24.7313 8.58353 26.7743 3.47751 25.7533 0.413513L25.7533 0.413513Z" fill="#F18F26" fill-rule="evenodd" transform="translate(3.997 1.25)" />
    <path id="Shape" d="M0 0.398313C0 -1.04569 6.19501 1.82434 5.173 2.84631C4.15201 3.86734 3.13101 4.48333 2.11 5.50433C1.088 6.52533 0 1.41934 0 0.398313L0 0.398313ZM24.101 0.398313C24.101 -1.04569 17.905 1.82434 18.927 2.84631C19.948 3.86734 20.969 4.48333 21.991 5.50433C23.012 6.52533 24.101 1.41934 24.101 0.398313L24.101 0.398313Z" fill="#FFCC4D" fill-rule="evenodd" transform="translate(4.786 2.583)" />
    <path id="Shape" d="M34.563 10.211C35.584 12.253 35.967 13.948 36.334 17.287C36.737 20.947 35.934 23.865 35.584 24.508C35.186 25.24 33.167 27.598 30.477 29.615C26.392 32.679 20.265 33.7 18.222 33.7C16.18 33.7 10.052 32.679 5.96697 29.615C3.27798 27.598 1.25898 25.24 0.859976 24.508C0.50997 23.865 -0.293024 20.947 0.110968 17.287C0.47698 13.948 0.859976 12.253 1.88198 10.211C3.88097 7.10901 8.34798 1.582 11.073 1.01901C11.073 1.01901 15.158 0 18.222 0C21.286 0 25.371 1.01901 25.371 1.01901C28.603 1.93402 33.541 7.58002 34.563 10.211L34.563 10.211Z" fill="#FFCC4D" transform="translate(0 3.3)" />
    <path id="Shape" d="M14.3321 1.77251C11.3486 3.91091 11.3948 5.23803 7.08511 5.20004C2.77544 5.16281 2.0985 3.55465 0.407843 1.77251C-1.28164 -0.00964355 2.52751 0.0288315 7.23851 0.0288315C11.9495 0.0288315 17.3155 -0.366734 14.3321 1.77251L14.3321 1.77251Z" fill="#292F33" transform="matrix(-1 0 -0 -1 28.846 35.702)" />
    <path id="Shape" d="M10.413 0.963394C9.81216 2.55184 5.75417 3.0451 4.76007 3.0451C3.76483 3.0451 0.83839 2.55182 0.113003 0.96339C-0.613544 -0.625061 2.30713 0.343639 4.76007 0.279015C7.21301 0.213665 11.0127 -0.624332 10.413 0.963394L10.413 0.963394Z" fill="#FFFFFF" transform="matrix(-1 0 -0 -1 26.759 32.498)" />
    <path id="Shape" d="M3.83301 0C7.44101 0 11.499 3.16199 11.499 4.517C11.274 6.09799 7.44101 5.194 4.51001 4.96899C1.57901 4.74298 0 4.065 0 2.70999C0 1.35498 0.225998 0 3.83301 0L3.83301 0Z" fill="#F4F7F9" transform="translate(22.2 11.199)" />
    <g id="Mask Group" transform="translate(22.2 11.199)">
      <path id="Shape" d="M3.83301 0C7.44101 0 11.499 3.16199 11.499 4.517C11.274 6.09799 7.44101 5.194 4.51001 4.96899C1.57901 4.74298 0 4.065 0 2.70999C0 1.35498 0.225998 0 3.83301 0L3.83301 0Z" />
      <g clip-path="url(#clip_path_2)">
        <g id="Group" transform="translate(1.671 1.401)">
          <path id="Circle" d="M0 2.0123C0 0.900937 0.900937 0 2.0123 0C3.12366 0 4.0246 0.900937 4.0246 2.0123C4.0246 3.12366 3.12366 4.0246 2.0123 4.0246C0.900937 4.0246 0 3.12366 0 2.0123Z" fill="#292F33" fill-rule="evenodd" />
        </g>
      </g>
    </g>
    <path id="Shape" d="M7.879 0C4.17101 0 0 3.34799 0 4.78299C0.23201 6.45599 4.17101 5.5 7.18401 5.26099C10.196 5.022 11.818 4.30399 11.818 2.87C11.818 1.435 11.587 0 7.879 0L7.879 0Z" fill="#F4F7F9" transform="translate(8.114 11.199)" />
    <g id="Mask Group" transform="translate(8.114 11.199)">
      <path id="Shape" d="M7.879 0C4.17101 0 0 3.34799 0 4.78299C0.23201 6.45599 4.17101 5.5 7.18401 5.26099C10.196 5.022 11.818 4.30399 11.818 2.87C11.818 1.435 11.587 0 7.879 0L7.879 0Z" />
      <g clip-path="url(#clip_path_4)">
        <g id="Group" transform="translate(3.612 1.401)">
          <path id="Circle" d="M0 2.0123C0 0.900937 0.900937 0 2.0123 0C3.12366 0 4.0246 0.900937 4.0246 2.0123C4.0246 3.12366 3.12366 4.0246 2.0123 4.0246C0.900937 4.0246 0 3.12366 0 2.0123Z" fill="#292F33" fill-rule="evenodd" />
        </g>
      </g>
    </g>
    <path id="Shape" d="M3.064 0C6.12799 0 6.12799 0.510986 6.12799 1.53198C6.12799 2.55301 4.59599 4.59601 3.064 4.59601C1.532 4.59601 0 2.55301 0 1.53198C0 0.510986 -0.00100708 0 3.064 0L3.064 0Z" fill="#E75A70" transform="translate(18.697 18.065)" />
    <path id="Shape" d="M9.9775 7.84541C10.1245 7.8824 10.2855 7.85341 10.4145 7.75441C10.6375 7.5814 10.6785 7.2614 10.5055 7.0384C10.3765 6.87239 7.2915 2.95439 0.595497 1.82939C0.318504 1.78142 0.0544968 1.9694 0.00749969 2.24641C-0.0394974 2.5244 0.138496 2.80641 0.426506 2.8354C6.7205 3.90339 9.6685 7.62642 9.6965 7.66441C9.77151 7.7574 9.87051 7.8184 9.9775 7.84541L9.9775 7.84541ZM2.34051 1.03639C2.3885 1.04841 2.44151 1.05339 2.49351 1.0514C7.6095 0.749403 11.2375 2.86342 11.2745 2.88441C11.5175 3.0294 11.8295 2.94841 11.9745 2.7054C12.1185 2.46242 12.0385 2.1504 11.7955 2.00639C11.6375 1.9124 7.8565 -0.286608 2.4345 0.0314159C2.1525 0.0484142 1.93751 0.289412 1.95451 0.571394C1.9665 0.799391 2.12951 0.983412 2.34051 1.03639L2.34051 1.03639Z" fill="#FEE7B8" fill-rule="evenodd" transform="translate(26.6 19.169)" />
    <path id="Shape" d="M0.187966 5.68068C0.313973 5.7827 0.473977 5.81569 0.621972 5.7827C0.728967 5.75868 0.82998 5.69969 0.906975 5.60869C0.936975 5.5717 3.97798 1.92369 10.297 1.0157C10.585 0.993698 10.771 0.71669 10.731 0.437698C10.691 0.158707 10.432 -0.0363007 10.153 0.00569153C3.43098 0.960709 0.247979 4.7997 0.114968 4.96169C-0.0630255 5.18068 -0.0310283 5.50169 0.187966 5.68068L0.187966 5.68068Z" fill="#FEE7B8" transform="matrix(0.998 0.07 -0.07 0.998 4.599 20.447)" />
    <path id="Shape" d="M9.58529 1.08238C9.63727 1.08638 9.68927 1.08238 9.73829 1.07137C9.95128 1.02437 10.1173 0.843369 10.1353 0.616379C10.1603 0.335373 9.95129 0.0883636 9.66929 0.0643768C4.25828 -0.390642 0.422277 1.71239 0.261281 1.80238C0.0152793 1.93938 -0.0727181 2.25038 0.0652823 2.49638C0.203283 2.74336 0.514287 2.83238 0.760274 2.69237C0.798284 2.67238 4.47828 0.651382 9.58529 1.08238L9.58529 1.08238Z" fill="#FEE7B8" transform="matrix(0.998 0.07 -0.07 0.998 3.425 18.457)" />
    <path id="Shape" d="M24.0425 7.12677C23.7431 7.07398 23.4736 6.88633 23.3249 6.5951C21.3403 2.67593 17.9906 2.00709 17.8481 1.97996C17.3085 1.87871 16.9502 1.35959 17.0483 0.820438C17.1468 0.279325 17.66 -0.0800104 18.2006 0.0153217C18.3818 0.0472741 22.6523 0.850012 25.1057 5.69262C25.3551 6.18441 25.1587 6.78542 24.6661 7.03367C24.4664 7.13551 24.2483 7.16307 24.0425 7.12677L24.0425 7.12677ZM1.18755 7.37967C0.984355 7.41917 0.76483 7.39562 0.562374 7.29747C0.0665121 7.05766 -0.1403 6.46017 0.100464 5.9641C2.46797 1.0796 6.72477 0.202268 6.90539 0.167158C7.44626 0.0620227 7.97035 0.415509 8.07548 0.95638C8.18043 1.49629 7.82969 2.0188 7.29017 2.12572C7.1384 2.15725 3.81003 2.8898 1.89671 6.83537C1.75411 7.12896 1.48597 7.32166 1.18755 7.37967L1.18755 7.37967Z" fill="#292F33" fill-rule="evenodd" transform="translate(8.559 5.023)" />
  </g>
</svg>