<?xml version="1.0" encoding="utf-8"?>
<svg width="36.002" height="35.998" viewBox="0 0 36.002 35.998" fill="none" xmlns="http://www.w3.org/2000/svg">
  <g id="monoclecat">
    <path id="Shape" d="M35.5764 19.9273C35.2174 16.6583 34.8424 14.9983 33.8424 12.9983C33.8424 12.9983 36.8424 3.99828 34.8424 0.298296C34.1684 -0.947706 27.4384 1.98628 24.8424 3.99828C24.8424 3.99828 20.8424 3.00029 17.8424 3.00029C14.8424 3.00029 10.8424 3.99828 10.8424 3.99828C8.24641 1.98628 1.51641 -0.947706 0.842407 0.298296C-1.15759 3.99828 1.84241 12.9983 1.84241 12.9983C0.842407 14.9983 0.467407 16.6583 0.108406 19.9273C-0.286591 23.5113 0.499405 26.3683 0.842407 26.9983C1.23241 27.7143 3.2094 30.0233 5.84241 31.9983C9.84241 34.9983 15.8424 35.9983 17.8424 35.9983C19.8424 35.9983 25.8424 34.9983 29.8424 31.9983C32.4754 30.0233 34.4524 27.7143 34.8424 26.9983C35.1854 26.3683 35.9714 23.5113 35.5764 19.9273L35.5764 19.9273Z" fill="#FFCC4D" transform="translate(0.159 0)" />
    <path id="Shape" d="M3 0C6 0 6 0.5 6 1.5C6 2.5 4.5 4.5 3 4.5C1.5 4.5 0 2.5 0 1.5C0 0.5 -0.00100708 0 3 0L3 0Z" fill="#E75A70" transform="translate(15.001 19.498)" />
    <path id="Shape" d="M0.28 0.404681C0.726999 -0.937299 5.92 1.40468 6.92001 2.40468C6.92001 2.40468 2.28 5.40468 1.28 8.40468C1.28 8.40468 -0.72 3.40468 0.28 0.404681L0.28 0.404681ZM32.28 0.404681C31.833 -0.937299 26.64 1.40468 25.64 2.40468C25.64 2.40468 30.28 5.40468 31.28 8.40468C31.28 8.40468 33.28 3.40468 32.28 0.404681L32.28 0.404681Z" fill="#F18F26" fill-rule="evenodd" transform="translate(1.721 2.594)" />
    <path id="Shape" d="M0 0.389987C0 -1.02401 6.06601 1.78696 5.06601 2.78696C4.06601 3.78696 3.06601 4.38999 2.066 5.38999C1.066 6.38999 0 1.38999 0 0.389987L0 0.389987ZM26.132 0.389987C26.132 -1.02401 20.066 1.78696 21.066 2.78696C22.066 3.78696 23.066 4.38999 24.066 5.38999C25.066 6.38999 26.132 1.38999 26.132 0.389987L26.132 0.389987Z" fill="#FFCC4D" fill-rule="evenodd" transform="translate(4.935 5.211)" />
    <path id="Shape" d="M0.702073 6.45874C0.55407 6.45874 0.408067 6.39376 0.309067 6.26876C0.13807 6.05175 0.175072 5.73776 0.392068 5.56674C0.55407 5.43975 4.41207 2.44674 11.0401 2.96176C11.3151 2.98175 11.5211 3.22274 11.5001 3.49774C11.4791 3.77276 11.2431 3.99874 10.9631 3.95776C4.73007 3.48376 1.04807 6.32376 1.01207 6.35275C0.919068 6.42376 0.810067 6.45874 0.702073 6.45874L0.702073 6.45874ZM9.57008 1.79574C9.52107 1.79574 9.47007 1.78875 9.42107 1.77374C4.63107 0.27676 0.684067 1.42675 0.644067 1.43774C0.379067 1.51876 0.101067 1.36776 0.0210731 1.10275C-0.0579293 0.837765 0.0920723 0.55975 0.356072 0.48074C0.529069 0.428738 4.64207 -0.766239 9.71807 0.818752C9.98206 0.90176 10.1291 1.18176 10.0461 1.44574C9.98007 1.65875 9.78308 1.79574 9.57008 1.79574L9.57008 1.79574ZM35.3001 6.45874C35.4481 6.45874 35.5941 6.39376 35.6931 6.26876C35.8641 6.05175 35.8271 5.73776 35.6101 5.56674C35.4481 5.43975 31.5901 2.44674 24.9621 2.96176C24.6871 2.98175 24.4811 3.22274 24.5021 3.49774C24.5231 3.77276 24.7591 3.99874 25.0391 3.95776C31.2721 3.48376 34.9541 6.32376 34.9901 6.35275C35.0831 6.42376 35.1921 6.45874 35.3001 6.45874L35.3001 6.45874ZM26.4321 1.79574C26.4811 1.79574 26.5321 1.78875 26.5811 1.77374C31.3711 0.27676 35.3181 1.42675 35.3581 1.43774C35.6231 1.51876 35.9011 1.36776 35.9811 1.10275C36.0601 0.837765 35.9101 0.55975 35.6461 0.48074C35.4731 0.428738 31.3601 -0.766239 26.2841 0.818752C26.0201 0.90176 25.8731 1.18176 25.9561 1.44574C26.0211 1.65875 26.2191 1.79574 26.4321 1.79574L26.4321 1.79574Z" fill="#FEE7B8" fill-rule="evenodd" transform="translate(0 18.54)" />
    <path id="Shape" d="M2.647 7.41199C4.10901 7.41199 5.29401 5.75299 5.29401 3.70599C5.29401 1.65997 4.10901 0 2.647 0C1.186 0 0 1.65997 0 3.70599C0 5.75299 1.186 7.41199 2.647 7.41199L2.647 7.41199Z" fill="#292F33" transform="translate(10.176 10.709)" />
    <path id="Shape" d="M6.882 13.764C10.683 13.764 13.764 10.683 13.764 6.88199C13.764 3.082 10.683 0 6.882 0C3.082 0 0 3.082 0 6.88199C0 10.683 3.082 13.764 6.882 13.764L6.882 13.764Z" fill="#F4F7F9" transform="translate(18.647 7.117)" />
    <path id="Shape" d="M8.4725 4.65149C8.1515 4.65149 7.83349 4.50549 7.6255 4.22849C6.6345 2.9075 5.59649 2.19949 4.54251 2.12448C3.15249 2.02948 2.0185 3.0715 1.8075 3.2825C1.3935 3.6965 0.724497 3.6965 0.310495 3.2825C-0.103498 2.8685 -0.103498 2.19849 0.310495 1.78549C0.767496 1.32849 2.43949 -0.150512 4.69149 0.0124822C6.3865 0.132477 7.9425 1.12347 9.31849 2.95749C9.6695 3.42548 9.57549 4.08948 9.1085 4.43948C8.91549 4.58249 8.69349 4.65149 8.4725 4.65149L8.4725 4.65149Z" fill="#292F33" transform="translate(7 5)" />
    <path id="Shape" d="M1.05899 22.235C0.473999 22.235 0 21.761 0 21.176L0 1.05899C0 0.473999 0.473999 0 1.05899 0C1.644 0 2.118 0.473999 2.118 1.05899L2.118 21.177C2.117 21.761 1.644 22.235 1.05899 22.235L1.05899 22.235Z" fill="#292F33" transform="translate(32.412 13.47)" />
    <path id="Shape" d="M15.883 6.353C15.829 6.353 15.778 6.36499 15.725 6.36899C14.993 2.741 11.782 0 7.94099 0C3.562 0 0 3.56198 0 7.94098C0 12.32 3.562 15.882 7.94099 15.882C11.409 15.882 14.356 13.644 15.436 10.539C15.58 10.57 15.729 10.588 15.882 10.588C17.052 10.588 18 9.63998 18 8.47C18 7.30099 17.052 6.353 15.883 6.353L15.883 6.353ZM7.94099 13.765C4.73 13.765 2.118 11.153 2.118 7.94098C2.118 4.72897 4.731 2.11697 7.94099 2.11697C11.152 2.11697 13.765 4.72897 13.765 7.94098C13.765 11.153 11.152 13.765 7.94099 13.765L7.94099 13.765Z" fill="#67757F" fill-rule="evenodd" transform="translate(17.589 6.058)" />
    <path id="Shape" d="M7.41231 2.91451C7.2533 2.91451 7.09131 2.87849 6.9393 2.80251C5.1203 1.8925 3.3523 1.8925 1.5333 2.80251C1.00931 3.06349 0.373307 2.85249 0.112306 2.32851C-0.149703 1.8055 0.0623026 1.16951 0.586305 0.907516C3.00731 -0.302505 5.4633 -0.302505 7.88631 0.907516C8.4093 1.16951 8.62131 1.8055 8.36031 2.32851C8.17531 2.70052 7.8013 2.91451 7.41231 2.91451L7.41231 2.91451Z" fill="#292F33" transform="translate(14.41 25.379)" />
    <path id="Shape" d="M8.991 0.940002C8.07899 0.347015 6.993 0 5.82401 0C2.608 0 0 2.60699 0 5.82401C0 6.99301 0.347992 8.07901 0.940002 8.991L8.991 0.940002L8.991 0.940002ZM3.339 11.084C4.09399 11.441 4.93401 11.647 5.82401 11.647C9.03999 11.647 11.648 9.04001 11.648 5.823C11.648 4.93301 11.442 4.09201 11.085 3.33801L3.339 11.084L3.339 11.084Z" fill="#BDDDF4" fill-rule="evenodd" transform="translate(19.705 8.176)" />
  </g>
</svg>