<?xml version="1.0" encoding="utf-8"?>
<svg width="34" height="34" viewBox="0 0 34 34" fill="none" xmlns="http://www.w3.org/2000/svg">
  <defs>
    <path id="path_1" d="M0 0L34 0L34 34L0 34L0 0Z" />
    <clipPath id="clip_path_2">
      <use p4:href="#path_1" xmlns:p4="http://www.w3.org/1999/xlink" />
    </clipPath>
    <path id="path_3" d="M6.49257 4.91865C10.0782 4.91865 12.9852 3.81788 12.9852 2.45932C12.9852 1.10072 10.0782 0 6.49257 0C2.907 0 0 1.10072 0 2.45932C0 3.81788 2.907 4.91865 6.49257 4.91865L6.49257 4.91865Z" />
    <clipPath id="clip_path_4">
      <use p4:href="#path_3" xmlns:p4="http://www.w3.org/1999/xlink" />
    </clipPath>
    <path id="path_5" d="M6.49259 4.91865C10.0782 4.91865 12.9852 3.81788 12.9852 2.45932C12.9852 1.10072 10.0782 0 6.49259 0C2.907 0 0 1.10072 0 2.45932C0 3.81788 2.907 4.91865 6.49259 4.91865L6.49259 4.91865Z" />
    <clipPath id="clip_path_6">
      <use p4:href="#path_5" xmlns:p4="http://www.w3.org/1999/xlink" />
    </clipPath>
  </defs>
  <g id="pogcat">
    <g id="Mask Group">
      <rect id="Rectangle" width="34" height="34" />
      <g clip-path="url(#clip_path_2)">
        <g id="Group" transform="translate(-8.5 -2.833)">
          <path id="Shape" d="M41.9975 19.6053C41.5739 16.3895 41.1319 14.7561 39.9504 12.7883C39.9504 12.7883 43.492 3.93418 41.1319 0.293338C40.3357 -0.932065 32.391 1.95367 29.3268 3.93418C29.3268 3.93418 24.605 2.95244 21.0634 2.95244C17.5217 2.95244 12.8 3.93418 12.8 3.93418C9.73569 1.95367 1.79105 -0.932065 0.994863 0.293338C-1.36671 3.93418 2.17496 12.7883 2.17496 12.7883C0.994863 14.7561 0.551463 16.3895 0.127864 19.6053C-0.338212 23.1314 0.589702 25.9421 0.994863 26.5626C1.45528 27.2667 3.78853 29.5376 6.8967 31.4812C11.6199 34.4336 18.7018 35.4168 21.0634 35.4168C23.4235 35.4168 30.5069 34.4336 35.2286 31.4812C38.3368 29.5376 40.6714 27.2667 41.1319 26.5626C41.537 25.9421 42.4635 23.1314 41.9975 19.6053L41.9975 19.6053Z" fill="#FFCC4D" fill-rule="evenodd" />
          <g id="Mask Group" transform="translate(24.604 11.807)">
            <path id="Shape" d="M6.49257 4.91865C10.0782 4.91865 12.9852 3.81788 12.9852 2.45932C12.9852 1.10072 10.0782 0 6.49257 0C2.907 0 0 1.10072 0 2.45932C0 3.81788 2.907 4.91865 6.49257 4.91865L6.49257 4.91865Z" />
            <g clip-path="url(#clip_path_4)">
              <g id="Group">
                <path id="Shape" d="M6.49257 4.91865C10.0782 4.91865 12.9852 3.81788 12.9852 2.45932C12.9852 1.10072 10.0782 0 6.49257 0C2.907 0 0 1.10072 0 2.45932C0 3.81788 2.907 4.91865 6.49257 4.91865L6.49257 4.91865Z" fill="#F5F8FA" fill-rule="evenodd" />
                <path id="Shape" d="M2.95091 4.91869C4.58009 4.91869 5.90183 3.81793 5.90183 2.45932C5.90183 1.10076 4.58009 0 2.95091 0C1.32032 0 0 1.10076 0 2.45932C0 3.81793 1.32032 4.91869 2.95091 4.91869L2.95091 4.91869Z" fill="#292F33" fill-rule="evenodd" transform="translate(7.083 0.492)" />
              </g>
            </g>
          </g>
          <g id="Mask Group" transform="translate(9.257 11.807)">
            <path id="Shape" d="M6.49259 4.91865C10.0782 4.91865 12.9852 3.81788 12.9852 2.45932C12.9852 1.10072 10.0782 0 6.49259 0C2.907 0 0 1.10072 0 2.45932C0 3.81788 2.907 4.91865 6.49259 4.91865L6.49259 4.91865Z" />
            <g clip-path="url(#clip_path_6)">
              <g id="Group">
                <path id="Shape" d="M6.49259 4.91865C10.0782 4.91865 12.9852 3.81788 12.9852 2.45932C12.9852 1.10072 10.0782 0 6.49259 0C2.907 0 0 1.10072 0 2.45932C0 3.81788 2.907 4.91865 6.49259 4.91865L6.49259 4.91865Z" fill="#F5F8FA" fill-rule="evenodd" />
                <path id="Shape" d="M2.95093 4.91869C4.58151 4.91869 5.90183 3.81793 5.90183 2.45932C5.90183 1.10076 4.58151 0 2.95093 0C1.32034 0 0 1.10076 0 2.45932C0 3.81793 1.32034 4.91869 2.95093 4.91869L2.95093 4.91869Z" fill="#292F33" fill-rule="evenodd" transform="translate(7.083 0.492)" />
              </g>
            </g>
          </g>
          <path id="Shape" d="M3.54167 0C7.08333 0 7.08333 0.491562 7.08333 1.47615C7.08333 2.45932 5.3125 4.42708 3.54167 4.42708C1.77083 4.42708 0 2.45932 0 1.47615C0 0.491562 -0.0014267 0 3.54167 0L3.54167 0Z" fill="#E75A70" fill-rule="evenodd" transform="translate(22.243 18.693)" />
          <path id="Shape" d="M0.330968 0.39808C0.85796 -0.922263 6.98787 1.38267 8.16937 2.36584C8.16937 2.36584 2.69114 5.31815 1.51104 8.26908C1.51104 8.26908 -0.850531 3.35039 0.330968 0.39808L0.330968 0.39808ZM38.1064 0.39808C37.578 -0.922263 31.448 1.38267 30.268 2.36584C30.268 2.36584 35.7448 5.31815 36.9249 8.26908C36.9249 8.26908 39.2865 3.35039 38.1064 0.39808L38.1064 0.39808Z" fill="#F18F26" fill-rule="evenodd" transform="translate(3.025 2.551)" />
          <path id="Shape" d="M0 0.383726C0 -1.00748 7.16126 1.75785 5.98117 2.74244C4.79967 3.72561 3.61959 4.3192 2.4395 5.30237C1.258 6.28696 0 1.36689 0 0.383726L0 0.383726ZM30.8493 0.383726C30.8493 -1.00748 23.6881 1.75785 24.8682 2.74244C26.0483 3.72561 27.2298 4.3192 28.4098 5.30237C29.5899 6.28696 30.8493 1.36689 30.8493 0.383726L30.8493 0.383726Z" fill="#FFCC4D" fill-rule="evenodd" transform="translate(5.639 5.127)" />
          <path id="Shape" d="M0.829006 6.35418C0.654755 6.35418 0.48193 6.29041 0.364335 6.16715C0.163171 5.95466 0.207096 5.64442 0.463512 5.47723C0.654755 5.35259 5.20793 2.40733 13.0322 2.9145C13.358 2.93291 13.6003 3.17091 13.5762 3.44151C13.5507 3.71206 13.273 3.9345 12.9415 3.89338C5.58334 3.42733 1.23702 6.22097 1.19452 6.25072C1.08542 6.32015 0.956522 6.35418 0.829006 6.35418L0.829006 6.35418ZM11.2982 1.767C11.2401 1.767 11.1792 1.75991 11.1211 1.74573C5.46718 0.272385 0.807757 1.40432 0.761022 1.41422C0.447927 1.49359 0.119267 1.34625 0.0243492 1.08556C-0.0677376 0.824905 0.109345 0.550072 0.421014 0.473593C0.62501 0.42115 5.47993 -0.753281 11.4724 0.805061C11.7841 0.887247 11.9569 1.16208 11.8592 1.42274C11.7813 1.63242 11.5489 1.767 11.2982 1.767L11.2982 1.767ZM41.6715 6.35418C41.8458 6.35418 42.0186 6.29041 42.1348 6.16715C42.3373 5.95466 42.2934 5.64442 42.037 5.47723C41.8458 5.35259 37.2912 2.40733 29.4669 2.9145C29.1425 2.93291 28.9003 3.17091 28.9243 3.44151C28.9498 3.71206 29.2275 3.9345 29.559 3.89338C36.9172 3.42733 41.2635 6.22097 41.306 6.25072C41.4151 6.32015 41.544 6.35418 41.6715 6.35418L41.6715 6.35418ZM31.2023 1.767C31.2604 1.767 31.3213 1.75991 31.3794 1.74573C37.0333 0.272385 41.6928 1.40432 41.7395 1.41422C42.0526 1.49359 42.3813 1.34625 42.4748 1.08556C42.5683 0.824905 42.3912 0.550072 42.0795 0.473593C41.8755 0.42115 37.0206 -0.753281 31.0281 0.805061C30.7164 0.887247 30.5436 1.16208 30.6413 1.42274C30.7178 1.63242 30.9516 1.767 31.2023 1.767L31.2023 1.767Z" fill="#FEE7B8" fill-rule="evenodd" transform="translate(4.535 18.734)" />
          <path id="Shape" d="M0.198913 2.07408C0.346251 2.19024 0.554505 2.27239 0.786819 2.31631C1.12542 2.38008 1.51357 2.36166 1.83516 2.24688C6.15033 0.723989 9.98242 1.38559 10.1567 1.41672C10.7701 1.53007 11.4416 1.35865 11.6583 1.03423C11.8751 0.708382 11.5521 0.351406 10.9372 0.236664C10.7333 0.198403 5.86701 -0.678496 0.526166 1.20708C-0.0164108 1.3983 -0.16375 1.78649 0.198913 2.07408L0.198913 2.07408Z" fill="#292F33" fill-rule="evenodd" transform="translate(8.402 6.348)" />
          <path id="Shape" d="M11.5269 2.07408C11.3795 2.19024 11.1713 2.27239 10.9389 2.31631C10.6004 2.38008 10.2108 2.36166 9.89062 2.24688C5.57544 0.723989 1.74336 1.38559 1.56911 1.41672C0.95569 1.53007 0.284191 1.35865 0.0674419 1.03423C-0.149307 0.708382 0.173687 0.351406 0.788528 0.236664C0.992525 0.198403 5.85877 -0.678496 11.1996 1.20708C11.7422 1.3983 11.8895 1.78649 11.5269 2.07408L11.5269 2.07408Z" fill="#292F33" fill-rule="evenodd" transform="translate(24.929 6.348)" />
          <path id="Shape" d="M10.2389 0.190388C15.4041 0.190388 17.206 -0.563297 16.8788 0.928465C13.1105 2.76164 16.4085 8.07552 7.93113 7.79222C3.84972 7.17312 -2.56071 2.16239 1.0773 2.16239C4.71672 2.16239 5.07372 0.190388 10.2389 0.190388L10.2389 0.190388Z" fill="#292F33" fill-rule="evenodd" transform="translate(17.062 24.896)" />
        </g>
      </g>
    </g>
  </g>
</svg>