<?xml version="1.0" encoding="utf-8"?>
<svg width="39" height="36" viewBox="0 0 39 36" fill="none" xmlns="http://www.w3.org/2000/svg">
  <defs>
    <path id="path_1" d="M5.3836 5C8.3569 5 10.7672 3.88 10.7672 2.5C10.7672 1.11899 8.3569 0 5.3836 0C2.4103 0 0 1.11899 0 2.5C0 3.88 2.4103 5 5.3836 5L5.3836 5Z" />
    <clipPath id="clip_path_2">
      <use p4:href="#path_1" xmlns:p4="http://www.w3.org/1999/xlink" />
    </clipPath>
    <path id="path_3" d="M5.38356 5C8.35686 5 10.7672 3.88 10.7672 2.5C10.7672 1.11899 8.35686 0 5.38356 0C2.41026 0 0 1.11899 0 2.5C0 3.88 2.41026 5 5.38356 5L5.38356 5Z" />
    <clipPath id="clip_path_4">
      <use p4:href="#path_3" xmlns:p4="http://www.w3.org/1999/xlink" />
    </clipPath>
  </defs>
  <g id="pogcat2">
    <path id="Shape" d="M34.8233 19.9283C34.4719 16.6593 34.1048 14.9993 33.126 12.9993C33.126 12.9993 36.0625 3.99828 34.1048 0.298296C33.4451 -0.947706 26.8575 1.98628 24.3165 3.99828C24.3165 3.99828 20.4012 3.00029 17.4647 3.00029C14.5282 3.00029 10.6129 3.99828 10.6129 3.99828C8.07183 1.98628 1.4843 -0.947706 0.824573 0.298296C-1.13309 3.99828 1.8034 12.9993 1.8034 12.9993C0.824573 14.9993 0.457512 16.6593 0.106112 19.9283C-0.280526 23.5123 0.488835 26.3703 0.824573 27.0003C1.20632 27.7163 3.14146 30.0253 5.71872 32.0003C9.63405 35.0003 15.507 36.0003 17.4647 36.0003C19.4223 36.0003 25.2953 35.0003 29.2106 32.0003C31.7879 30.0253 33.7231 27.7163 34.1048 27.0003C34.4405 26.3703 35.2099 23.5123 34.8233 19.9283L34.8233 19.9283Z" fill="#FFCC4D" />
    <g id="Mask Group" transform="translate(20.4 12.001)">
      <path id="Shape" d="M5.3836 5C8.3569 5 10.7672 3.88 10.7672 2.5C10.7672 1.11899 8.3569 0 5.3836 0C2.4103 0 0 1.11899 0 2.5C0 3.88 2.4103 5 5.3836 5L5.3836 5Z" />
      <g clip-path="url(#clip_path_2)">
        <g id="Group">
          <path id="Shape" d="M5.3836 5C8.3569 5 10.7672 3.88 10.7672 2.5C10.7672 1.11899 8.3569 0 5.3836 0C2.4103 0 0 1.11899 0 2.5C0 3.88 2.4103 5 5.3836 5L5.3836 5Z" fill="#F5F8FA" fill-rule="evenodd" />
          <path id="Shape" d="M2.4471 5C3.7986 5 4.8942 3.88 4.8942 2.5C4.8942 1.11899 3.7986 0 2.4471 0C1.0956 0 0 1.11899 0 2.5C0 3.88 1.0956 5 2.4471 5L2.4471 5Z" fill="#292F33" fill-rule="evenodd" transform="translate(5.873 0.5)" />
        </g>
      </g>
    </g>
    <g id="Mask Group" transform="translate(7.675 12.001)">
      <path id="Shape" d="M5.38356 5C8.35686 5 10.7672 3.88 10.7672 2.5C10.7672 1.11899 8.35686 0 5.38356 0C2.41026 0 0 1.11899 0 2.5C0 3.88 2.41026 5 5.38356 5L5.38356 5Z" />
      <g clip-path="url(#clip_path_4)">
        <g id="Group">
          <path id="Shape" d="M5.38356 5C8.35686 5 10.7672 3.88 10.7672 2.5C10.7672 1.11899 8.35686 0 5.38356 0C2.41026 0 0 1.11899 0 2.5C0 3.88 2.41026 5 5.38356 5L5.38356 5Z" fill="#F5F8FA" fill-rule="evenodd" />
          <path id="Shape" d="M2.4471 5C3.7986 5 4.8942 3.88 4.8942 2.5C4.8942 1.11899 3.7986 0 2.4471 0C1.0956 0 0 1.11899 0 2.5C0 3.88 1.0956 5 2.4471 5L2.4471 5Z" fill="#292F33" fill-rule="evenodd" transform="translate(5.873 0.5)" />
        </g>
      </g>
    </g>
    <path id="Shape" d="M2.9365 0C5.873 0 5.873 0.5 5.873 1.5C5.873 2.5 4.4047 4.5 2.9365 4.5C1.4683 4.5 0 2.5 0 1.5C0 0.5 -0.00100136 0 2.9365 0L2.9365 0Z" fill="#E75A70" transform="translate(18.444 19.001)" />
    <path id="Shape" d="M0.274072 0.404671C0.711602 -0.937309 5.79467 1.40467 6.7735 2.40568C6.7735 2.40568 2.23173 5.40568 1.2529 8.40568C1.2529 8.40568 -0.704757 3.40568 0.274072 0.404671L0.274072 0.404671ZM31.5966 0.404671C31.1591 -0.937309 26.076 1.40467 25.0972 2.40568C25.0972 2.40568 29.6389 5.40568 30.6178 8.40568C30.6178 8.40568 32.5754 3.40568 31.5966 0.404671L31.5966 0.404671Z" fill="#F18F26" fill-rule="evenodd" transform="translate(2.508 2.594)" />
    <path id="Shape" d="M0 0.390354C0 -1.02462 5.93761 1.78736 4.95876 2.78736C3.97993 3.78736 3.0011 4.39035 2.02227 5.39035C1.04344 6.39035 0 1.39035 0 0.390354L0 0.390354ZM25.5788 0.390354C25.5788 -1.02462 19.6412 1.78736 20.62 2.78736C21.5989 3.78736 22.5777 4.39035 23.5565 5.39035C24.5354 6.39035 25.5788 1.39035 25.5788 0.390354L25.5788 0.390354Z" fill="#FFCC4D" fill-rule="evenodd" transform="translate(4.675 5.212)" />
    <path id="Shape" d="M0.687207 6.45876C0.542337 6.45876 0.399427 6.39375 0.302527 6.26875C0.135148 6.05174 0.171368 5.73775 0.383768 5.56676C0.542337 5.43974 4.31867 2.44676 10.8064 2.96175C11.0755 2.98174 11.2772 3.22276 11.2566 3.49776C11.2361 3.77275 11.0051 3.99873 10.731 3.95775C4.62994 3.48375 1.02588 6.32375 0.990647 6.35274C0.899617 6.42375 0.792917 6.45876 0.687207 6.45876L0.687207 6.45876ZM9.36749 1.79576C9.31949 1.79576 9.26959 1.78874 9.22159 1.77376C4.53303 0.276749 0.669587 1.42674 0.630438 1.43776C0.371048 1.51875 0.0989275 1.36775 0.0206275 1.10274C-0.0567024 0.837753 0.0901177 0.559738 0.348528 0.480759C0.517868 0.428757 4.5438 -0.766251 9.51239 0.818741C9.77079 0.901749 9.91469 1.18175 9.83339 1.44576C9.76879 1.65874 9.57599 1.79576 9.36749 1.79576L9.36749 1.79576ZM34.5528 6.45876C34.6977 6.45876 34.8406 6.39375 34.9375 6.26875C35.1048 6.05174 35.0686 5.73775 34.8562 5.56676C34.6977 5.43974 30.9213 2.44676 24.4336 2.96175C24.1645 2.98174 23.9628 3.22276 23.9834 3.49776C24.0039 3.77275 24.2349 3.99873 24.509 3.95775C30.6101 3.48375 34.2141 6.32375 34.2493 6.35274C34.3404 6.42375 34.4471 6.45876 34.5528 6.45876L34.5528 6.45876ZM25.8725 1.79576C25.9205 1.79576 25.9704 1.78874 26.0184 1.77376C30.707 0.276749 34.5704 1.42674 34.6096 1.43776C34.8689 1.51875 35.1411 1.36775 35.2194 1.10274C35.2967 0.837753 35.1499 0.559738 34.8915 0.480759C34.7221 0.428757 30.6962 -0.766251 25.7277 0.818741C25.4692 0.901749 25.3254 1.18175 25.4066 1.44576C25.4702 1.65874 25.664 1.79576 25.8725 1.79576L25.8725 1.79576Z" fill="#FEE7B8" fill-rule="evenodd" transform="translate(3.76 19.043)" />
    <path id="Shape" d="M0.164478 2.10857C0.286618 2.22656 0.460188 2.31057 0.652168 2.35458C0.932758 2.41857 1.25555 2.39956 1.52184 2.28457C5.10004 0.736566 8.27754 1.40856 8.42124 1.43957C8.93044 1.55557 9.48684 1.38159 9.66644 1.05157C9.84634 0.720574 9.57884 0.357568 9.06934 0.240563C8.89954 0.201562 4.86454 -0.689429 0.436128 1.22656C-0.013422 1.42156 -0.135612 1.81658 0.164478 2.10857L0.164478 2.10857Z" fill="#292F33" transform="translate(6.966 6.453)" />
    <path id="Shape" d="M9.55805 2.10857C9.43585 2.22656 9.26235 2.31057 9.07035 2.35458C8.78975 2.41857 8.46695 2.39956 8.20065 2.28457C4.62245 0.736566 1.44495 1.40856 1.30125 1.43957C0.792049 1.55557 0.235649 1.38159 0.0560493 1.05157C-0.12385 0.720574 0.14365 0.357568 0.653149 0.240563C0.82295 0.201562 4.85795 -0.689429 9.28635 1.22656C9.73595 1.42156 9.85815 1.81658 9.55805 2.10857L9.55805 2.10857Z" fill="#292F33" transform="translate(20.67 6.453)" />
    <path id="Shape" d="M8.48947 0.193512C12.7722 0.193512 14.2662 -0.572479 13.9958 0.943512C10.8708 2.80652 13.6059 8.20752 6.57567 7.9205C3.19217 7.2905 -2.12353 2.19751 0.893467 2.19751C3.91057 2.19751 4.20687 0.193512 8.48947 0.193512L8.48947 0.193512Z" fill="#292F33" transform="translate(14.147 25.307)" />
  </g>
</svg>