<?xml version="1.0" encoding="utf-8"?>
<svg width="36.002" height="35.998" viewBox="0 0 36.002 35.998" fill="none" xmlns="http://www.w3.org/2000/svg">
  <g id="propersmirkcat">
    <path id="Shape" d="M35.5764 19.9273C35.2174 16.6583 34.8424 14.9983 33.8424 12.9983C33.8424 12.9983 36.8424 3.99828 34.8424 0.298296C34.1684 -0.947706 27.4384 1.98628 24.8424 3.99828C24.8424 3.99828 20.8424 3.00029 17.8424 3.00029C14.8424 3.00029 10.8424 3.99828 10.8424 3.99828C8.2464 1.98628 1.51641 -0.947706 0.842411 0.298296C-1.15759 3.99828 1.84241 12.9983 1.84241 12.9983C0.842411 14.9983 0.467411 16.6583 0.108402 19.9273C-0.286587 23.5113 0.499409 26.3683 0.842411 26.9983C1.23241 27.7143 3.20942 30.0233 5.84241 31.9983C9.84241 34.9983 15.8424 35.9983 17.8424 35.9983C19.8424 35.9983 25.8424 34.9983 29.8424 31.9983C32.4754 30.0233 34.4524 27.7143 34.8424 26.9983C35.1854 26.3683 35.9714 23.5113 35.5764 19.9273L35.5764 19.9273Z" fill="#FFCC4D" transform="translate(0.159 0)" />
    <path id="Shape" d="M3 0C6 0 6 0.5 6 1.5C6 2.5 4.5 4.5 3 4.5C1.5 4.5 0 2.5 0 1.5C0 0.5 -0.00100708 0 3 0L3 0Z" fill="#E75A70" transform="translate(15.001 19.498)" />
    <path id="Shape" d="M0.28 0.404681C0.726991 -0.937299 5.92 1.40468 6.92 2.40468C6.92 2.40468 2.28 5.40468 1.28 8.40468C1.28 8.40468 -0.72 3.40468 0.28 0.404681L0.28 0.404681ZM32.28 0.404681C31.833 -0.937299 26.64 1.40468 25.64 2.40468C25.64 2.40468 30.28 5.40468 31.28 8.40468C31.28 8.40468 33.28 3.40468 32.28 0.404681L32.28 0.404681Z" fill="#F18F26" fill-rule="evenodd" transform="translate(1.721 2.594)" />
    <path id="Shape" d="M0 0.389987C0 -1.02401 6.06601 1.78696 5.06601 2.78696C4.06601 3.78696 3.06601 4.38999 2.06601 5.38999C1.06601 6.38999 0 1.38999 0 0.389987L0 0.389987ZM26.132 0.389987C26.132 -1.02401 20.066 1.78696 21.066 2.78696C22.066 3.78696 23.066 4.38999 24.066 5.38999C25.066 6.38999 26.132 1.38999 26.132 0.389987L26.132 0.389987Z" fill="#FFCC4D" fill-rule="evenodd" transform="translate(4.935 5.211)" />
    <path id="Shape" d="M0.702076 6.45874C0.554065 6.45874 0.408069 6.39376 0.30907 6.26876C0.138065 6.05175 0.175068 5.73776 0.392063 5.56674C0.554065 5.43975 4.41207 2.44674 11.0401 2.96176C11.3151 2.98175 11.5211 3.22274 11.5001 3.49774C11.4791 3.77276 11.2431 3.99874 10.9631 3.95776C4.73008 3.48376 1.04807 6.32376 1.01207 6.35275C0.919071 6.42376 0.810062 6.45874 0.702076 6.45874L0.702076 6.45874ZM9.57007 1.79574C9.52108 1.79574 9.47007 1.78875 9.42107 1.77374C4.63108 0.27676 0.68407 1.42675 0.644062 1.43774C0.379062 1.51876 0.101063 1.36776 0.0210759 1.10275C-0.0579341 0.837765 0.0920751 0.55975 0.356067 0.48074C0.529072 0.428738 4.64206 -0.766239 9.71807 0.818752C9.98207 0.90176 10.1291 1.18176 10.0461 1.44574C9.98008 1.65875 9.78307 1.79574 9.57007 1.79574L9.57007 1.79574ZM35.3001 6.45874C35.4481 6.45874 35.5941 6.39376 35.6931 6.26876C35.8641 6.05175 35.8271 5.73776 35.6101 5.56674C35.4481 5.43975 31.5901 2.44674 24.9621 2.96176C24.6871 2.98175 24.4811 3.22274 24.5021 3.49774C24.5231 3.77276 24.7591 3.99874 25.0391 3.95776C31.2721 3.48376 34.9541 6.32376 34.9901 6.35275C35.0831 6.42376 35.1921 6.45874 35.3001 6.45874L35.3001 6.45874ZM26.4321 1.79574C26.4811 1.79574 26.5321 1.78875 26.5811 1.77374C31.3711 0.27676 35.3181 1.42675 35.3581 1.43774C35.6231 1.51876 35.9011 1.36776 35.9811 1.10275C36.0601 0.837765 35.9101 0.55975 35.6461 0.48074C35.4731 0.428738 31.3601 -0.766239 26.2841 0.818752C26.0201 0.90176 25.8731 1.18176 25.9561 1.44574C26.0211 1.65875 26.2191 1.79574 26.4321 1.79574L26.4321 1.79574Z" fill="#FEE7B8" fill-rule="evenodd" transform="translate(0 18.54)" />
    <path id="Shape" d="M20.327 16.622C20.174 16.49 19.9589 16.463 19.7759 16.553L15.7759 18.553C13.9049 19.488 9.04895 19.5 8.99994 19.5C8.72394 19.5 8.49994 19.724 8.49994 20C8.49994 20.185 8.60094 20.347 8.74994 20.433L8.75095 20.434C8.82195 20.474 8.90395 20.498 8.99094 20.5L15.999 20.5C18.6569 20.5 20.0879 18.315 20.4739 17.158C20.538 16.966 20.48 16.755 20.327 16.622L20.327 16.622ZM27.0009 6C26.6959 6 26.3969 5.862 26.2 5.60001C23.5589 2.07901 20.139 2.00101 19.9939 2C19.4439 1.99399 18.9999 1.54401 19.0029 0.994995C19.006 0.444 19.45 0 19.9999 0C20.1839 0 24.5369 0.0499878 27.7999 4.39999C28.1319 4.84201 28.042 5.46899 27.5999 5.79999C27.4199 5.935 27.2099 6 27.0009 6L27.0009 6ZM0.998952 6C0.790944 6 0.579946 5.935 0.399953 5.79999C-0.0420485 5.46899 -0.131053 4.84201 0.199956 4.39999C3.46195 0.0499878 7.81595 0 7.99994 0C8.55195 0 8.99994 0.447998 8.99994 1C8.99994 1.55099 8.55495 1.99799 8.00394 2C7.84795 2.00201 4.43494 2.086 1.79895 5.60001C1.60395 5.862 1.30295 6 0.998952 6L0.998952 6ZM11.8969 7.396C11.9199 7.34399 11.956 7.29999 11.9699 7.242C12.1039 6.70599 11.7779 6.16299 11.243 6.02899C11.0629 5.98401 6.77594 4.94901 3.44594 7.16699C2.98694 7.47299 2.86295 8.09399 3.16895 8.55399C3.36095 8.84399 3.67795 9 4.00095 9C4.19095 9 4.38395 8.94501 4.55495 8.832C5.64695 8.103 6.91695 7.83701 8.02295 7.771C8.01395 7.84698 7.99994 7.922 7.99994 8C7.99994 9.104 8.89596 10 9.99994 10C11.1039 10 11.9999 9.104 11.9999 8C11.9999 7.78799 11.958 7.58801 11.8969 7.396L11.8969 7.396ZM23.896 7.39499C23.9189 7.34299 23.9549 7.29999 23.969 7.24301C24.1039 6.707 23.7779 6.164 23.2419 6.03C23.062 5.98499 18.7759 4.95001 15.445 7.168C14.9849 7.474 14.861 8.095 15.1679 8.55499C15.3599 8.84399 15.678 9 16.0009 9C16.191 9 16.3839 8.94501 16.555 8.832C17.6469 8.103 18.9159 7.83801 20.0239 7.772C20.0149 7.84799 19.9999 7.922 19.9999 8C19.9999 9.104 20.896 10 21.9999 10C23.1039 10 23.9999 9.104 23.9999 8C23.9999 7.78799 23.958 7.58701 23.896 7.39499L23.896 7.39499Z" fill="#292F33" fill-rule="evenodd" transform="translate(4 8)" />
  </g>
</svg>