<?xml version="1.0" encoding="utf-8"?>
<svg width="36.002" height="41.981" viewBox="0 0 36.002 41.981" fill="none" xmlns="http://www.w3.org/2000/svg">
  <g id="thinkingcat">
    <path id="Shape" d="M35.5764 19.9273C35.2174 16.6583 34.8424 14.9983 33.8424 12.9983C33.8424 12.9983 36.8424 3.99828 34.8424 0.298296C34.1684 -0.947706 27.4384 1.98628 24.8424 3.99828C24.8424 3.99828 20.8424 3.00029 17.8424 3.00029C14.8424 3.00029 10.8424 3.99828 10.8424 3.99828C8.24641 1.98628 1.51641 -0.947706 0.842417 0.298296C-1.15758 3.99828 1.84242 12.9983 1.84242 12.9983C0.842417 14.9983 0.467417 16.6583 0.108408 19.9273C-0.286596 23.5113 0.499414 26.3683 0.842417 26.9983C1.23242 27.7143 3.20941 30.0233 5.84242 31.9983C9.84242 34.9983 15.8424 35.9983 17.8424 35.9983C19.8424 35.9983 25.8424 34.9983 29.8424 31.9983C32.4754 30.0233 34.4524 27.7143 34.8424 26.9983C35.1854 26.3683 35.9714 23.5113 35.5764 19.9273L35.5764 19.9273Z" fill="#FFCC4D" transform="translate(0.159 0)" />
    <path id="Shape" d="M3 0C6 0 6 0.5 6 1.5C6 2.5 4.5 4.5 3 4.5C1.5 4.5 0 2.5 0 1.5C0 0.5 -0.00100708 0 3 0L3 0Z" fill="#E75A70" transform="translate(15.001 19.498)" />
    <path id="Shape" d="M0.359154 2.15781C0.20916 2.01383 0.0921555 1.81781 0.0361557 1.58182C-0.102837 1.01081 0.17115 0.442814 0.648155 0.314823C5.34415 -0.952175 8.50716 2.00583 8.64016 2.13282C9.03916 2.51282 9.11616 3.18183 8.82015 3.62781C8.52316 4.07282 7.96116 4.12583 7.56416 3.74881C7.45016 3.64383 4.94715 1.36182 1.15215 2.38581C0.868156 2.46183 0.577156 2.36582 0.359154 2.15781L0.359154 2.15781Z" fill="#292F33" transform="translate(12.994 25)" />
    <path id="Shape" d="M11.3361 17.301C11.3361 17.301 12.6011 16.89 12.7651 15.949C12.9381 14.977 12.1411 14.782 12.1411 14.782C12.1411 14.782 13.1821 14.574 13.3131 13.406C13.4361 12.305 12.4521 12.043 12.4521 12.043C12.4521 12.043 13.4221 11.643 13.4681 10.504C13.5061 9.54502 12.4731 9.07603 12.4731 9.07603C12.4731 9.07603 17.5111 7.85502 18.0291 7.73503C18.5451 7.61503 19.3491 7.12004 19.0981 6.04103C18.8491 4.96101 17.8941 4.92302 17.4011 5.03804C16.9071 5.15303 10.6571 6.60402 8.50107 7.10603L7.06207 7.44001C6.52208 7.56703 6.27707 7.33003 6.65808 6.92802C7.16608 6.39201 7.49107 5.79902 7.60408 4.81501C7.72307 3.78001 7.37207 2.50203 7.17107 2.00602C6.79707 1.08503 6.16608 0.357037 5.43707 0.107037C4.30008 -0.282978 3.49208 0.42802 3.89508 1.66801C4.49907 3.52201 4.10307 5.04301 3.06207 5.96101C0.613068 8.11802 -0.525924 9.65602 0.232071 12.934C1.06007 16.509 4.60907 18.81 8.18407 17.982L11.3361 17.301L11.3361 17.301Z" fill="#F19020" transform="translate(4.94 23.83)" />
    <path id="Shape" d="M0.28 0.404681C0.726991 -0.937299 5.92 1.40468 6.92 2.40468C6.92 2.40468 2.28 5.40468 1.28 8.40468C1.28 8.40468 -0.72 3.40468 0.28 0.404681L0.28 0.404681ZM32.28 0.404681C31.833 -0.937299 26.64 1.40468 25.64 2.40468C25.64 2.40468 30.28 5.40468 31.28 8.40468C31.28 8.40468 33.28 3.40468 32.28 0.404681L32.28 0.404681Z" fill="#F18F26" fill-rule="evenodd" transform="translate(1.721 2.594)" />
    <path id="Shape" d="M0 0.389987C0 -1.02401 6.06601 1.78696 5.06601 2.78696C4.06601 3.78696 3.06601 4.38999 2.06601 5.38999C1.06601 6.38999 0 1.38999 0 0.389987L0 0.389987ZM26.132 0.389987C26.132 -1.02401 20.066 1.78696 21.066 2.78696C22.066 3.78696 23.066 4.38999 24.066 5.38999C25.066 6.38999 26.132 1.38999 26.132 0.389987L26.132 0.389987Z" fill="#FFCC4D" fill-rule="evenodd" transform="translate(4.935 5.211)" />
    <path id="Shape" d="M0.70207 6.45874C0.554075 6.45874 0.408079 6.39376 0.30908 6.26876C0.138075 6.05175 0.175077 5.73776 0.392072 5.56674C0.554075 5.43975 4.41208 2.44674 11.0401 2.96176C11.3151 2.98175 11.5211 3.22274 11.5001 3.49774C11.4791 3.77276 11.2431 3.99874 10.9631 3.95776C4.73007 3.48376 1.04808 6.32376 1.01207 6.35275C0.919081 6.42376 0.810072 6.45874 0.70207 6.45874L0.70207 6.45874ZM9.57008 1.79574C9.52107 1.79574 9.47008 1.78875 9.42108 1.77374C4.63107 0.27676 0.68408 1.42675 0.644071 1.43774C0.379072 1.51876 0.101072 1.36776 0.0210703 1.10275C-0.0579245 0.837765 0.0920694 0.55975 0.356077 0.48074C0.529081 0.428738 4.64207 -0.766239 9.71808 0.818752C9.98207 0.90176 10.1291 1.18176 10.0461 1.44574C9.98007 1.65875 9.78308 1.79574 9.57008 1.79574L9.57008 1.79574ZM35.3001 6.45874C35.4481 6.45874 35.5941 6.39376 35.6931 6.26876C35.8641 6.05175 35.8271 5.73776 35.6101 5.56674C35.4481 5.43975 31.5901 2.44674 24.9621 2.96176C24.6871 2.98175 24.4811 3.22274 24.5021 3.49774C24.5231 3.77276 24.7591 3.99874 25.0391 3.95776C31.2721 3.48376 34.9541 6.32376 34.9901 6.35275C35.0831 6.42376 35.1921 6.45874 35.3001 6.45874L35.3001 6.45874ZM26.4321 1.79574C26.4811 1.79574 26.5321 1.78875 26.5811 1.77374C31.3711 0.27676 35.3181 1.42675 35.3581 1.43774C35.6231 1.51876 35.9011 1.36776 35.9811 1.10275C36.0601 0.837765 35.9101 0.55975 35.6461 0.48074C35.4731 0.428738 31.3601 -0.766239 26.2841 0.818752C26.0201 0.90176 25.8731 1.18176 25.9561 1.44574C26.0211 1.65875 26.2191 1.79574 26.4321 1.79574L26.4321 1.79574Z" fill="#FEE7B8" fill-rule="evenodd" transform="translate(0 18.54)" />
    <path id="Shape" d="M2.5 6C3.87999 6 5 4.65701 5 3C5 1.34299 3.87999 0 2.5 0C1.119 0 0 1.34299 0 3C0 4.65701 1.119 6 2.5 6L2.5 6Z" fill="#292F33" transform="translate(9.994 13)" />
    <path id="Shape" d="M2.5 6C3.87999 6 5 4.65701 5 3C5 1.34299 3.87999 0 2.5 0C1.119 0 0 1.34299 0 3C0 4.65701 1.119 6 2.5 6L2.5 6Z" fill="#292F33" transform="translate(20.994 13)" />
    <path id="Shape" d="M0.476512 3.218C0.31251 3.12998 0.173503 2.994 0.0855055 2.81898C-0.130498 2.391 0.0855055 2.06498 0.478511 1.70698C4.67451 -2.11501 8.1775 1.66398 8.32151 1.74098C8.75451 1.972 8.9295 2.48799 8.7125 2.895C8.4965 3.3 7.97251 3.44099 7.5395 3.21299C7.4165 3.15 4.17451 0.38499 1.2615 3.25999C1.00451 3.369 0.714503 3.34498 0.476512 3.218L0.476512 3.218ZM12.6115 5.968C12.4555 5.86998 12.3255 5.72499 12.2495 5.54399C12.0625 5.102 12.2725 4.61698 12.7175 4.46C17.0985 2.92399 20.4025 4.93998 20.5405 5.02699C20.9555 5.287 21.0955 5.81398 20.8525 6.205C20.6105 6.59498 20.0765 6.69999 19.6615 6.443C19.5415 6.37098 16.9345 4.822 13.3945 6.06398C13.1285 6.15498 12.8415 6.11 12.6115 5.968L12.6115 5.968Z" fill="#292F33" fill-rule="evenodd" transform="translate(7.82 7.115)" />
  </g>
</svg>