<?xml version="1.0" encoding="utf-8"?>
<svg width="36.002" height="39.667" viewBox="0 0 36.002 39.667" fill="none" xmlns="http://www.w3.org/2000/svg">
  <g id="vomitcat">
    <path id="Shape" d="M35.5764 19.9273C35.2174 16.6583 34.8424 14.9983 33.8424 12.9983C33.8424 12.9983 36.8424 3.99828 34.8424 0.298296C34.1684 -0.947706 27.4384 1.98628 24.8424 3.99828C24.8424 3.99828 20.8424 3.00029 17.8424 3.00029C14.8424 3.00029 10.8424 3.99828 10.8424 3.99828C8.2464 1.98628 1.51641 -0.947706 0.842408 0.298296C-1.15759 3.99828 1.84241 12.9983 1.84241 12.9983C0.842408 14.9983 0.467408 16.6583 0.108407 19.9273C-0.286593 23.5113 0.499406 26.3683 0.842408 26.9983C1.23241 27.7143 3.20941 30.0233 5.84241 31.9983C9.8424 34.9983 15.8424 35.9983 17.8424 35.9983C19.8424 35.9983 25.8424 34.9983 29.8424 31.9983C32.4754 30.0233 34.4524 27.7143 34.8424 26.9983C35.1854 26.3683 35.9714 23.5113 35.5764 19.9273L35.5764 19.9273Z" fill="#FFCC4D" transform="translate(0.159 0)" />
    <path id="Shape" d="M10.125 9.20502C13.46 9.20502 15.672 9.59302 18.409 10.125C19.034 10.245 20.25 10.125 20.25 8.284C20.25 4.60202 16.02 0 10.125 0C4.23 0 0 4.60202 0 8.284C0 10.125 1.216 10.246 1.841 10.125C4.577 9.59302 6.79 9.20502 10.125 9.20502L10.125 9.20502Z" fill="#292F33" transform="translate(8.078 21.598)" />
    <path id="Shape" d="M4.78233 0.102589C4.96874 0.196583 9.35674 2.4666 10.7039 6.60061C10.8228 6.96459 10.7106 7.36159 10.4187 7.60961C10.1286 7.8586 9.71774 7.90758 9.37724 7.73461C5.49303 5.76061 1.15024 6.48958 1.10724 6.49761C0.898138 6.53359 0.692636 6.49858 0.517034 6.4096C0.261137 6.27959 0.0669341 6.0346 0.0143371 5.7296C-0.0757661 5.2166 0.268236 4.72658 0.781736 4.63659C0.914735 4.61361 3.01814 4.26259 5.69753 4.6516C5.72334 4.5436 5.75803 4.4356 5.81053 4.3326C5.96823 4.0216 6.22774 3.80059 6.52503 3.67458C5.23023 2.4656 3.94704 1.79659 3.92474 1.7856C3.46124 1.5476 3.27664 0.979603 3.51354 0.515583C3.75054 0.0515938 4.31793 -0.133404 4.78233 0.102589L4.78233 0.102589Z" fill="#292F33" transform="translate(5.178 9.811)" />
    <path id="Shape" d="M5.96834 0.102588C5.78204 0.197589 1.39404 2.4666 0.0467377 6.6006C-0.0720673 6.96559 0.0401382 7.3626 0.332039 7.61061C0.622032 7.8586 1.03294 7.90761 1.37354 7.73461C5.25764 5.76061 9.60053 6.49059 9.64353 6.49761C9.85254 6.53359 10.058 6.49861 10.2337 6.40959C10.4895 6.27959 10.6838 6.0356 10.7364 5.73061C10.8265 5.2166 10.4825 4.72759 9.96893 4.63759C9.83594 4.61461 7.73264 4.26259 5.05314 4.65261C5.02744 4.5436 4.99274 4.4356 4.94013 4.3326C4.78253 4.0226 4.52303 3.80059 4.22563 3.67461C5.52054 2.4666 6.80373 1.7976 6.82594 1.7856C7.28954 1.5476 7.47414 0.979602 7.23714 0.515613C7.00024 0.0515928 6.43284 -0.133405 5.96834 0.102588L5.96834 0.102588Z" fill="#292F33" transform="translate(20.609 9.754)" />
    <path id="Shape" d="M22.915 12.286L22.915 5.185C22.915 2.59201 19.026 0 15.137 0C11.248 0 7.359 2.59299 7.359 5.185L7.359 12.286C2.956 12.635 0 13.271 0 13.999C0 15.104 6.777 15.999 15.137 15.999C23.497 15.999 30.274 15.104 30.274 13.999C30.274 13.271 27.318 12.635 22.915 12.286L22.915 12.286Z" fill="#77AF57" transform="translate(3 23.668)" />
    <path id="Shape" d="M1.235 2.47C1.9171 2.47 2.47 1.91699 2.47 1.23499C2.47 0.553009 1.9171 0 1.235 0C0.552902 0 0 0.553009 0 1.23499C0 1.91699 0.552902 2.47 1.235 2.47L1.235 2.47Z" fill="#5D8F3F" transform="translate(14.843 25.66)" />
    <path id="Shape" d="M1.235 2.47C1.9171 2.47 2.47 1.91702 2.47 1.23502C2.47 0.553009 1.9171 0 1.235 0C0.552902 0 0 0.553009 0 1.23502C0 1.91702 0.552902 2.47 1.235 2.47L1.235 2.47Z" fill="#5D8F3F" transform="translate(19.666 28.072)" />
    <path id="Shape" d="M2.45424 1.43306C2.56344 0.760059 2.10624 0.12508 1.43305 0.0160713C0.759745 -0.0929375 0.125345 0.364063 0.0161457 1.03707C-0.093153 1.71108 0.364046 2.34505 1.03724 2.45406C1.71054 2.56307 2.34494 2.10607 2.45424 1.43306L2.45424 1.43306Z" fill="#5D8F3F" transform="translate(20.201 32.946)" />
    <path id="Shape" d="M3.50747 2.04803C3.66367 1.08605 3.01027 0.179039 2.04807 0.0230331C1.08587 -0.132973 0.179268 0.520042 0.0230713 1.48205C-0.133133 2.44405 0.52037 3.35104 1.48247 3.50704C2.44467 3.66305 3.35137 3.01003 3.50747 2.04803L3.50747 2.04803Z" fill="#5D8F3F" transform="translate(13.545 34.45)" />
    <path id="Shape" d="M3 0C6 0 6 0.5 6 1.5C6 2.5 4.5 4.5 3 4.5C1.5 4.5 0 2.5 0 1.5C0 0.5 -0.000999451 0 3 0L3 0Z" fill="#E75A70" transform="translate(15.001 18.498)" />
    <path id="Shape" d="M0.28 0.404681C0.726999 -0.937299 5.92 1.40468 6.92 2.40468C6.92 2.40468 2.28 5.40468 1.28 8.40468C1.28 8.40468 -0.72 3.40468 0.28 0.404681L0.28 0.404681ZM32.28 0.404681C31.833 -0.937299 26.64 1.40468 25.64 2.40468C25.64 2.40468 30.28 5.40468 31.28 8.40468C31.28 8.40468 33.28 3.40468 32.28 0.404681L32.28 0.404681Z" fill="#F18F26" fill-rule="evenodd" transform="translate(1.721 2.594)" />
    <path id="Shape" d="M0 0.389987C0 -1.02401 6.066 1.78696 5.066 2.78696C4.066 3.78696 3.066 4.38999 2.066 5.38999C1.066 6.38999 0 1.38999 0 0.389987L0 0.389987ZM26.132 0.389987C26.132 -1.02401 20.066 1.78696 21.066 2.78696C22.066 3.78696 23.066 4.38999 24.066 5.38999C25.066 6.38999 26.132 1.38999 26.132 0.389987L26.132 0.389987Z" fill="#FFCC4D" fill-rule="evenodd" transform="translate(4.935 5.211)" />
    <path id="Shape" d="M0.702075 8.08079C0.554072 8.08079 0.408072 8.01582 0.309073 7.89082C0.138072 7.67381 0.175075 7.35981 0.392074 7.18879C0.554072 7.06181 4.41207 2.0688 11.0401 2.58381C11.3151 2.6038 11.5211 2.8448 11.5001 3.11979C11.4791 3.39482 11.2431 3.6208 10.9631 3.57981C4.73007 3.10581 1.04807 7.94581 1.01207 7.9748C0.919074 8.04582 0.810073 8.08079 0.702075 8.08079L0.702075 8.08079ZM9.57007 1.4178C9.52108 1.4178 9.47007 1.41081 9.42108 1.39579C4.63107 -0.101187 0.684073 3.04881 0.644073 3.05979C0.379073 3.14082 0.101073 2.98982 0.0210714 2.7248C-0.0579272 2.45982 0.0920744 2.1818 0.356074 2.10279C0.529075 2.05079 4.64207 -1.14419 9.71807 0.440805C9.98207 0.523813 10.1291 0.803812 10.0461 1.06779C9.98007 1.2808 9.78308 1.4178 9.57007 1.4178L9.57007 1.4178ZM35.3001 8.08079C35.4481 8.08079 35.5941 8.01582 35.6931 7.89082C35.8641 7.67381 35.8271 7.35981 35.6101 7.18879C35.4481 7.06181 31.5901 2.0688 24.9621 2.58381C24.6871 2.6038 24.4811 2.8448 24.5021 3.11979C24.5231 3.39482 24.7591 3.6208 25.0391 3.57981C31.2721 3.10581 34.9541 7.94581 34.9901 7.9748C35.0831 8.04582 35.1921 8.08079 35.3001 8.08079L35.3001 8.08079ZM26.4321 1.4178C26.4811 1.4178 26.5321 1.41081 26.5811 1.39579C31.3711 -0.101187 35.3181 3.04881 35.3581 3.05979C35.6231 3.14082 35.9011 2.98982 35.9811 2.7248C36.0601 2.45982 35.9101 2.1818 35.6461 2.10279C35.4731 2.05079 31.3601 -1.14419 26.2841 0.440805C26.0201 0.523813 25.8731 0.803812 25.9561 1.06779C26.0211 1.2808 26.2191 1.4178 26.4321 1.4178L26.4321 1.4178Z" fill="#FEE7B8" fill-rule="evenodd" transform="translate(0 18.918)" />
  </g>
</svg>