<?xml version="1.0" encoding="utf-8"?>
<svg width="38" height="35.998" viewBox="0 0 38 35.998" fill="none" xmlns="http://www.w3.org/2000/svg">
  <g id="welpcat">
    <path id="Shape" d="M35.5764 19.9273C35.2174 16.6583 34.8424 14.9983 33.8424 12.9983C33.8424 12.9983 36.8424 3.99828 34.8424 0.298296C34.1684 -0.947706 27.4384 1.98628 24.8424 3.99828C24.8424 3.99828 20.8424 3.00029 17.8424 3.00029C14.8424 3.00029 10.8424 3.99828 10.8424 3.99828C8.24641 1.98628 1.51641 -0.947706 0.842417 0.298296C-1.15758 3.99828 1.84242 12.9983 1.84242 12.9983C0.842417 14.9983 0.467417 16.6583 0.108408 19.9273C-0.286596 23.5113 0.499414 26.3683 0.842417 26.9983C1.23242 27.7143 3.20941 30.0233 5.84242 31.9983C9.84242 34.9983 15.8424 35.9983 17.8424 35.9983C19.8424 35.9983 25.8424 34.9983 29.8424 31.9983C32.4754 30.0233 34.4524 27.7143 34.8424 26.9983C35.1854 26.3683 35.9714 23.5113 35.5764 19.9273L35.5764 19.9273Z" fill="#FFCC4D" transform="translate(0.159 0)" />
    <path id="Shape" d="M0 4C0 4 1 0 5 0C9 0 10 4 10 4C10 4 9 3 5 3C1 3 0 4 0 4L0 4Z" fill="#292F33" transform="translate(13.002 27.002)" />
    <path id="Shape" d="M10.879 0C9.97601 2.745 7.39401 4.715 4.38501 4.715C4.24101 4.715 4.09601 4.70999 3.95001 4.70099C2.47301 4.608 1.108 4.04599 0 3.117C0.0360107 3.612 0.076004 4.11401 0.136002 4.65701C0.28801 6.04501 1.02 7.13901 2.25201 7.82001C3.07201 8.27399 4.052 8.508 5.065 8.57199C6.79901 8.681 8.63501 8.29199 9.938 7.66299C11.315 6.99799 12.21 5.80099 12.394 4.37799C12.577 2.96301 12.04 1.45401 10.879 0L10.879 0Z" fill="#FFFFFF" transform="translate(19.458 11.651)" />
    <path id="Shape" d="M1.97699 0.166415C0.679993 0.716434 0.0299988 2.46744 0 5.45542L0.0389862 5.52344C0.935989 6.84244 2.41199 7.74744 4.127 7.85544C4.241 7.86243 4.355 7.86643 4.46799 7.86643C7.10199 7.86643 9.31699 5.92942 9.72099 3.34244C9.60599 3.23743 9.5 3.13043 9.37799 3.02643C5.66299 -0.143582 2.911 -0.230557 1.97699 0.166415L1.97699 0.166415Z" fill="#292F33" transform="translate(19.376 7)" />
    <path id="Shape" d="M4.46906 6.02399C7.47806 6.02399 10.0601 4.05399 10.9631 1.30899C10.6091 0.865997 10.192 0.428986 9.72205 0C9.31805 2.58698 7.10306 4.52399 4.46906 4.52399C4.35605 4.52399 4.24205 4.51999 4.12805 4.513C2.41306 4.405 0.937057 3.5 0.0400543 2.181L0.00105286 2.11298C-0.00595093 2.814 0.022049 3.586 0.0840454 4.42599C1.19205 5.35498 2.55705 5.91699 4.03406 6.00998C4.18005 6.01999 4.32506 6.02399 4.46906 6.02399L4.46906 6.02399Z" fill="#F4900C" transform="translate(19.374 10.342)" />
    <path id="Shape" d="M1.10699 2.21399C1.71899 2.21399 2.214 1.71899 2.214 1.10699C2.214 0.496002 1.71899 0 1.10699 0C0.496002 0 0 0.496002 0 1.10699C0 1.71899 0.496002 2.21399 1.10699 2.21399L1.10699 2.21399Z" fill="#FFFFFF" transform="translate(20.308 9.181)" />
    <path id="Shape" d="M8.04379 4.715C5.03479 4.715 2.4528 2.745 1.5498 0C0.388793 1.45401 -0.147202 2.96301 0.0347896 4.37701C0.219802 5.79999 1.1138 6.99799 2.4908 7.66199C3.79379 8.29099 5.6288 8.67999 7.3638 8.57098C8.3768 8.50699 9.3568 8.27399 10.1768 7.819C11.4078 7.138 12.1398 6.04401 12.2928 4.65601C12.3528 4.11401 12.3928 3.61401 12.4288 3.12C11.3258 4.043 9.9588 4.60699 8.47879 4.70001C8.33279 4.711 8.18779 4.715 8.04379 4.715L8.04379 4.715Z" fill="#FFFFFF" transform="translate(4.117 11.651)" />
    <path id="Shape" d="M5.25299 7.86644C5.366 7.86644 5.48 7.86244 5.59399 7.85546C7.30899 7.74745 8.78499 6.84246 9.68199 5.52346L9.72099 5.45543C9.69 2.46746 9.041 0.716449 7.74399 0.16643C6.81 -0.230542 4.05699 -0.143567 0.343002 3.02544C0.220993 3.12944 0.115997 3.23644 0 3.34145C0.403992 5.92943 2.61899 7.86644 5.25299 7.86644L5.25299 7.86644Z" fill="#292F33" transform="translate(6.908 7)" />
    <path id="Shape" d="M10.962 2.11298L10.923 2.181C10.026 3.5 8.55 4.405 6.83501 4.513C6.72099 4.51999 6.60699 4.52399 6.494 4.52399C3.86 4.52399 1.645 2.58698 1.241 0C0.770996 0.428986 0.354004 0.865997 0 1.30899C0.903 4.05399 3.485 6.02399 6.494 6.02399C6.638 6.02399 6.783 6.01898 6.929 6.00998C8.409 5.91699 9.776 5.353 10.879 4.42999C10.941 3.58899 10.97 2.81598 10.962 2.11298L10.962 2.11298Z" fill="#F4900C" transform="translate(5.666 10.342)" />
    <path id="Shape" d="M1.17718 2.21217C1.78718 2.17418 2.25117 1.64818 2.21217 1.03816C2.17417 0.428175 1.64817 -0.0358448 1.03817 0.0021801C0.428171 0.0401745 -0.0358181 0.566175 0.00217628 1.17616C0.0411777 1.78618 0.567179 2.25017 1.17718 2.21217L1.17718 2.21217Z" fill="#FFFFFF" transform="translate(8.606 9.181)" />
    <path id="Shape" d="M3 0C6 0 6 0.5 6 1.5C6 2.5 4.5 4.5 3 4.5C1.5 4.5 0 2.5 0 1.5C0 0.5 -0.00100708 0 3 0L3 0Z" fill="#E75A70" transform="translate(15.001 19.498)" />
    <path id="Shape" d="M0.28 0.404681C0.726991 -0.937299 5.92 1.40468 6.92 2.40468C6.92 2.40468 2.28 5.40468 1.28 8.40468C1.28 8.40468 -0.72 3.40468 0.28 0.404681L0.28 0.404681ZM32.28 0.404681C31.833 -0.937299 26.64 1.40468 25.64 2.40468C25.64 2.40468 30.28 5.40468 31.28 8.40468C31.28 8.40468 33.28 3.40468 32.28 0.404681L32.28 0.404681Z" fill="#F18F26" fill-rule="evenodd" transform="translate(1.721 2.594)" />
    <path id="Shape" d="M0 0.389987C0 -1.02401 6.06601 1.78696 5.06601 2.78696C4.06601 3.78696 3.06601 4.38999 2.06601 5.38999C1.06601 6.38999 0 1.38999 0 0.389987L0 0.389987ZM26.132 0.389987C26.132 -1.02401 20.066 1.78696 21.066 2.78696C22.066 3.78696 23.066 4.38999 24.066 5.38999C25.066 6.38999 26.132 1.38999 26.132 0.389987L26.132 0.389987Z" fill="#FFCC4D" fill-rule="evenodd" transform="translate(4.935 5.211)" />
    <path id="Shape" d="M0.70207 6.45874C0.554075 6.45874 0.408079 6.39376 0.30908 6.26876C0.138075 6.05175 0.175077 5.73776 0.392072 5.56674C0.554075 5.43975 4.41208 2.44674 11.0401 2.96176C11.3151 2.98175 11.5211 3.22274 11.5001 3.49774C11.4791 3.77276 11.2431 3.99874 10.9631 3.95776C4.73007 3.48376 1.04808 6.32376 1.01207 6.35275C0.919081 6.42376 0.810072 6.45874 0.70207 6.45874L0.70207 6.45874ZM9.57008 1.79574C9.52107 1.79574 9.47008 1.78875 9.42108 1.77374C4.63107 0.27676 0.68408 1.42675 0.644071 1.43774C0.379072 1.51876 0.101072 1.36776 0.0210703 1.10275C-0.0579245 0.837765 0.0920694 0.55975 0.356077 0.48074C0.529081 0.428738 4.64207 -0.766239 9.71808 0.818752C9.98207 0.90176 10.1291 1.18176 10.0461 1.44574C9.98007 1.65875 9.78308 1.79574 9.57008 1.79574L9.57008 1.79574ZM35.3001 6.45874C35.4481 6.45874 35.5941 6.39376 35.6931 6.26876C35.8641 6.05175 35.8271 5.73776 35.6101 5.56674C35.4481 5.43975 31.5901 2.44674 24.9621 2.96176C24.6871 2.98175 24.4811 3.22274 24.5021 3.49774C24.5231 3.77276 24.7591 3.99874 25.0391 3.95776C31.2721 3.48376 34.9541 6.32376 34.9901 6.35275C35.0831 6.42376 35.1921 6.45874 35.3001 6.45874L35.3001 6.45874ZM26.4321 1.79574C26.4811 1.79574 26.5321 1.78875 26.5811 1.77374C31.3711 0.27676 35.3181 1.42675 35.3581 1.43774C35.6231 1.51876 35.9011 1.36776 35.9811 1.10275C36.0601 0.837765 35.9101 0.55975 35.6461 0.48074C35.4731 0.428738 31.3601 -0.766239 26.2841 0.818752C26.0201 0.90176 25.8731 1.18176 25.9561 1.44574C26.0211 1.65875 26.2191 1.79574 26.4321 1.79574L26.4321 1.79574Z" fill="#FEE7B8" fill-rule="evenodd" transform="translate(0 18.54)" />
    <path id="Shape" d="M7 7.33301C7 9.35901 5.433 11 3.5 11C1.567 11 0 9.35901 0 7.33301C0 5.30801 2.8 0 3.5 0C4.2 0 7 5.30801 7 7.33301L7 7.33301Z" fill="#5DADEC" transform="translate(31 14)" />
  </g>
</svg>