<?xml version="1.0" encoding="utf-8"?>
<svg width="149" height="64" viewBox="0 0 149 64" fill="none" xmlns="http://www.w3.org/2000/svg">
  <g id="SingleElement">
    <g>
      <rect width="67" height="64" />
      <path id="Путь" d="M4 0C6 0 8 2.5 7.5 4.5C7 6.5 5.5 8 3.5 8C1.5 8 0 6.5 0 4.5C0 2.5 1 0 4 0C4 0 4 0 4 0Z" fill="#000000" transform="translate(49.5 34.5)" />
      <path id="Путь" d="M3.62274 0.0771294C6.62274 -0.422871 9.62274 1.57713 9.12274 4.07713C8.62274 6.57713 6.62274 8.07713 4.62274 8.07713C2.62274 8.07713 0.622744 7.07703 0.122744 5.07713C-0.377157 3.07713 0.622744 0.577129 3.62274 0.0771294C3.62274 0.0771294 3.62274 0.0771294 3.62274 0.0771294Z" fill="#000000" transform="translate(22.877 35.923)" />
      <path id="Фигура" d="M7.26346 6.49994C4.86347 8.49994 4.26346 16.5 4.26346 18.5C2.26346 20.5 1.26346 23.5 0.263462 28.5C-1.55651 37.5998 6.37286 43.4451 14.1841 49.2032C14.5445 49.4689 14.9046 49.7344 15.2635 50C16.9469 51.2457 19.2527 52.6685 21.7635 54C21.2222 53.5969 20.2635 51.5 21.7635 49C21.7635 51.7218 22.9215 54.3831 25.073 55.655C25.073 55.655 25.7635 56 25.7635 56C30.7635 58.5 35.4849 59.5052 37.7635 57C41.7408 58.9302 44.7635 55.5 45.7635 54C45.8458 53.8766 45.927 53.7606 46.0074 53.651C47.3355 51.6178 47.9208 48.472 47.7635 48C48.2453 49.2044 48.2918 50.5829 47.9033 51.7581C48.174 51.5319 48.4579 51.2902 48.7635 51C56.0117 44.1163 57.7635 37.0374 57.7635 31C57.7635 24.6192 57.348 24.0548 54.2449 19.8391C54.2449 19.8391 54.2437 19.8375 54.2437 19.8375C53.9429 19.4288 53.6169 18.9859 53.2635 18.5C53.7635 16 53.7635 14 53.7635 10C53.7635 6 52.7635 0 49.2635 0C47.2819 0 44.5482 1.98993 42.7916 3.26864C42.3916 3.55978 42.0417 3.81451 41.7635 3.99996C39.9302 3.49996 34.8635 2.49996 29.2635 2.49996C23.6635 2.49996 17.9302 4.83328 15.7635 5.99994C13.9302 5.33327 9.66346 4.49994 7.26346 6.49994C7.26346 6.49994 7.26346 6.49994 7.26346 6.49994ZM51.2635 15.5C49.7635 16 45.2635 12.5001 44.7635 10C44.2635 7.49997 47.2635 3.50007 49.7635 3.50002C52.2635 3.49998 52.7635 15 51.2635 15.5C51.2635 15.5 51.2635 15.5 51.2635 15.5ZM16.7635 18.5001C18.2635 15.5001 12.7635 9.00009 9.26346 11.0001C5.76346 13.0001 6.26346 23.0001 7.26346 23.5001C8.26346 24.0001 15.2635 21.5001 16.7635 18.5001C16.7635 18.5001 16.7635 18.5001 16.7635 18.5001ZM37.7635 55.5C39.7635 55 41.3628 54.404 41.7635 52C42.1642 49.5959 40.2635 49 37.2635 49.5C34.2635 50 31.7635 51.5 32.7635 53.5C33.7635 55.5 35.7635 56 37.7635 55.5C37.7635 55.5 37.7635 55.5 37.7635 55.5ZM15.7635 46C9.64836 45.3916 9.41396 33.4834 14.2635 31C19.113 28.5165 21.514 29.5 25.2635 32C27.3775 33.4095 28.6971 36.0905 29.8045 38.3404C30.6613 40.0811 31.3911 41.5638 32.2635 42C34.2635 43 31.7635 31.5 27.7635 24.5C23.7635 17.5 23.7635 11.0001 30.7635 9.49996C37.7635 7.99983 42.2635 15 42.7635 20.5C42.986 22.948 42.119 26.8819 41.2645 30.7585C40.1993 35.5914 39.1537 40.3353 40.2635 42C41.2 43.4047 42.2461 40.7531 43.5559 37.4333C45.0433 33.6634 46.8706 29.0317 49.2635 28.5C53.7635 27.5 55.2635 32 55.2635 36.5C55.2635 41 50.7635 49 45.7635 46C42.6082 44.1068 41.0458 45.0013 39.4429 45.919C38.5058 46.4555 37.5548 47 36.2635 47C34.8888 47 34.1311 46.0743 33.3846 45.1622C32.2306 43.7522 31.1032 42.3747 27.7635 44.5C23.444 47.2487 21.337 46.8866 18.4095 46.3835C17.6094 46.246 16.7481 46.0979 15.7635 46C15.7635 46 15.7635 46 15.7635 46Z" fill="#000000" fill-rule="evenodd" transform="translate(4.737 0)" />
      <path id="Путь" d="M29 21C18 16 12.5 11 8.5 7C5.66293 4.1628 4.8381 2.4996 4.24149 1.2965C3.99694 0.803398 3.79073 0.3876 3.5 0C2.5 2 3 5.5 4.5 7.5C2.5 7.5 0.603746 8.9484 0 10C0.302606 10 0.650063 9.9259 1.03365 9.8442C2.12893 9.611 3.51875 9.315 5 10.5C3.1866 10.6248 2.5 11.5 1.5 13C1.66667 12.8333 5 12.5 10.5 15.5C11.448 16.017 12.3217 16.5044 13.1467 16.9646C17.1084 19.1745 19.948 20.7585 24.5 22C32 24.0454 38.5 24.5 40 23C38.8333 23 33.3183 22.9628 29 21C29 21 29 21 29 21Z" fill="#000000" transform="translate(0 36.5)" />
      <path id="Путь" d="M6.9947 10.7962C7.662 10.1916 8.3332 9.5835 9 9C13 5.5 14 3 15 0C16 1.5 16 3 15.5 4C17 3.5 19 4 19.5 5C17.5 5 16.5 5.5 15.5 6.5C16.5 6.5 18.5 6.5 19.5 7.5C15.4246 8.3151 13.3423 9.7945 11.087 11.3968C10.5754 11.7603 10.0548 12.1302 9.5 12.5C7.2674 13.9884 3.5 16.5 0 16C1.979 15.3403 4.4594 13.0931 6.9947 10.7962C6.9947 10.7962 6.9947 10.7962 6.9947 10.7962Z" fill="#000000" transform="translate(47 42.5)" />
    </g>
    <g transform="translate(85 0)">
      <rect width="64" height="64" />
      <path id="Путь" d="M4 0C6 0 8 2.5 7.5 4.5C7 6.5 5.5 8 3.5 8C1.5 8 0 6.5 0 4.5C0 2.5 1 0 4 0C4 0 4 0 4 0Z" fill="#000000" transform="translate(47.764 37.5)" />
      <path id="Путь" d="M3.62278 0.0771294C6.62278 -0.422871 9.62278 1.57713 9.12278 4.07713C8.62278 6.57713 6.62278 8.07713 4.62278 8.07713C2.62278 8.07713 0.622776 7.07703 0.122776 5.07713C-0.377224 3.07713 0.622776 0.577129 3.62278 0.0771294C3.62278 0.0771294 3.62278 0.0771294 3.62278 0.0771294Z" fill="#000000" transform="translate(21.141 38.923)" />
      <path id="Фигура" d="M7.2635 6.49994C4.86347 8.4999 4.26346 16.5 4.26346 18.5C2.26346 20.5 1.26346 23.5 0.26346 28.5C-1.5565 37.5998 6.37284 43.4451 14.184 49.2032C14.5444 49.4689 14.9045 49.7344 15.2635 50C16.9469 51.2457 19.2527 52.6685 21.7635 54C21.2222 53.5969 20.2635 51.5 21.7635 49C21.7635 51.7218 22.9215 54.3831 25.073 55.655C25.073 55.655 25.7635 56 25.7635 56C30.7635 58.5 35.4849 59.5052 37.7635 57C41.7408 58.9302 44.7635 55.5 45.7635 54C45.8457 53.8766 45.927 53.7606 46.0074 53.651C47.3354 51.6178 47.9208 48.472 47.7635 48C48.2452 49.2044 48.2918 50.5829 47.9032 51.7581C48.174 51.5319 48.4578 51.2902 48.7635 51C56.0117 44.1163 57.7635 37.0374 57.7635 31C57.7635 24.6192 57.348 24.0548 54.2449 19.8391C54.2449 19.8391 54.2437 19.8375 54.2437 19.8375C53.9429 19.4288 53.6168 18.9859 53.2635 18.5C53.7635 16 53.7635 14 53.7635 10C53.7635 6 52.7635 0 49.2635 0C47.2818 0 44.5482 1.98993 42.7915 3.26864C42.3916 3.55978 42.0416 3.81451 41.7635 3.99996C39.9301 3.49996 34.8635 2.49996 29.2635 2.49996C23.6635 2.49996 17.9301 4.83328 15.7635 5.99994C13.9301 5.33327 9.6635 4.49994 7.2635 6.49994C7.2635 6.49994 7.2635 6.49994 7.2635 6.49994ZM51.2635 15.5C49.7635 16 45.2635 12.5001 44.7635 10C44.2635 7.5 47.2635 3.50007 49.7635 3.50002C52.2635 3.49998 52.7635 15 51.2635 15.5C51.2635 15.5 51.2635 15.5 51.2635 15.5ZM16.7635 18.5001C18.2635 15.5001 12.7634 9.0001 9.2634 11.0001C5.76345 13.0001 6.26346 23.0001 7.2635 23.5001C8.2635 24.0001 15.2635 21.5001 16.7635 18.5001C16.7635 18.5001 16.7635 18.5001 16.7635 18.5001ZM37.7635 55.5C39.7635 55 41.3628 54.404 41.7635 52C42.1641 49.5959 40.2635 49 37.2635 49.5C34.2635 50 31.7635 51.5 32.7635 53.5C33.7635 55.5 35.7635 56 37.7635 55.5C37.7635 55.5 37.7635 55.5 37.7635 55.5ZM15.7635 46C9.6483 45.3916 9.414 33.4834 14.2635 31C19.113 28.5165 21.5139 29.5 25.2635 32C27.3774 33.4095 28.6971 36.0905 29.8045 38.3404C30.6613 40.0811 31.3911 41.5638 32.2635 42C34.2635 43 31.7635 31.5 27.7635 24.5C23.7635 17.5 23.7635 11.0001 30.7635 9.5C37.7635 7.9998 42.2635 15 42.7635 20.5C42.986 22.948 42.1189 26.8819 41.2645 30.7585C40.1993 35.5914 39.1537 40.3353 40.2635 42C41.2 43.4047 42.2461 40.7531 43.5559 37.4333C45.0433 33.6634 46.8706 29.0317 49.2635 28.5C53.7635 27.5 55.2635 32 55.2635 36.5C55.2635 41 50.7635 49 45.7635 46C42.6082 44.1068 41.0458 45.0013 39.4429 45.919C38.5057 46.4555 37.5548 47 36.2635 47C34.8887 47 34.1311 46.0743 33.3846 45.1622C32.2306 43.7522 31.1031 42.3747 27.7635 44.5C23.444 47.2487 21.337 46.8866 18.4095 46.3835C17.6094 46.246 16.748 46.0979 15.7635 46C15.7635 46 15.7635 46 15.7635 46Z" fill="#000000" fill-rule="evenodd" transform="translate(3 3)" />
    </g>
  </g>
</svg>