<svg width="24" height="24" viewBox="0 0 24 24" fill="none" xmlns="http://www.w3.org/2000/svg">
<g clip-path="url(#clip0_1334_158)">
<path d="M17 20.6603C21.7829 17.8988 23.4217 11.7829 20.6603 7.00001C17.8988 2.21708 11.7829 0.578328 7.00001 3.33975C2.21708 6.10118 0.578328 12.2171 3.33975 17C6.10118 21.7829 12.2171 23.4217 17 20.6603Z" stroke="black" stroke-width="2" stroke-linecap="round" stroke-linejoin="round"/>
<path d="M4.7412 18.1761C4.7412 18.1761 5.31248 14 11 10.5C16.6875 7.00003 20.7412 8.17609 20.7412 8.17609" stroke="black" stroke-width="2" stroke-linecap="round" stroke-linejoin="round"/>
<path d="M8.50001 3.00002C11 4.00002 13.5432 6.82743 15.4641 10C17.2512 13.2498 17.797 16.3779 17 20C13.4647 18.8792 10.4568 17.1726 8.53591 14C6.74882 10.7502 6.00001 7.50002 6.00001 4.50002L7.00001 3.49997L8.50001 3.00002Z" stroke="black" stroke-width="2" stroke-linecap="round" stroke-linejoin="round"/>
</g>
<defs>
<clipPath id="clip0_1334_158">
<rect width="24" height="24" fill="white"/>
</clipPath>
</defs>
</svg>
