<svg width="24" height="24" viewBox="0 0 24 24" fill="none" xmlns="http://www.w3.org/2000/svg">
<path d="M12 12V7M12 3V7M12 7L14.5 4.5M12 7L9.5 4.5" stroke="black" stroke-width="2" stroke-linecap="round"/>
<path d="M12 12L12 17M12 21L12 17M12 17L9.5 19.5M12 17L14.5 19.5" stroke="black" stroke-width="2" stroke-linecap="round"/>
<path d="M12 12L16.3301 9.5M19.7943 7.5L16.3301 9.5M16.3301 9.5L19.7452 10.4151M16.3301 9.5L17.2452 6.08494" stroke="black" stroke-width="2" stroke-linecap="round"/>
<path d="M12 12L7.66985 14.5M4.20575 16.5L7.66985 14.5M7.66985 14.5L4.25479 13.5849M7.66985 14.5L6.75479 17.9151" stroke="black" stroke-width="2" stroke-linecap="round"/>
<path d="M12 12L16.3301 14.5M19.7943 16.5L16.3301 14.5M16.3301 14.5L17.2452 17.9151M16.3301 14.5L19.7452 13.5849" stroke="black" stroke-width="2" stroke-linecap="round"/>
<path d="M12 12L7.66985 9.50001M4.20575 7.50001L7.66985 9.50001M7.66985 9.50001L6.75479 6.08494M7.66985 9.50001L4.25479 10.4151" stroke="black" stroke-width="2" stroke-linecap="round"/>
</svg>
