<svg width="960" height="400" viewBox="0 0 960 400" fill="none" xmlns="http://www.w3.org/2000/svg">
<rect width="960" height="400" fill="#446ADB"/>
<path d="M358.5 206.71C355.167 203.21 349.5 194.61 353.5 188.21C358.5 180.21 356 146.21 328 154.21C361.5 154.21 367.5 153.21 372.5 168.21C377.5 183.21 397.5 184.71 398.5 183.71" stroke="white" stroke-width="4" stroke-linecap="round" stroke-linejoin="round"/>
<mask id="path-2-outside-1_1_2" maskUnits="userSpaceOnUse" x="167.991" y="100.517" width="180.039" height="187.395" fill="black">
<rect fill="white" x="167.991" y="100.517" width="180.039" height="187.395"/>
<path fill-rule="evenodd" clip-rule="evenodd" d="M342.664 157.216L230.988 105.823L184.017 207.892L184.037 207.901C183.932 208.095 183.833 208.292 183.74 208.493C178.094 220.762 198.517 242.212 229.355 256.404C260.193 270.596 289.77 272.154 295.416 259.885C295.509 259.685 295.594 259.481 295.673 259.276L295.693 259.285L342.664 157.216Z"/>
</mask>
<path fill-rule="evenodd" clip-rule="evenodd" d="M342.664 157.216L230.988 105.823L184.017 207.892L184.037 207.901C183.932 208.095 183.833 208.292 183.74 208.493C178.094 220.762 198.517 242.212 229.355 256.404C260.193 270.596 289.77 272.154 295.416 259.885C295.509 259.685 295.594 259.481 295.673 259.276L295.693 259.285L342.664 157.216Z" fill="white" fill-opacity="0.35"/>
<path d="M230.988 105.823L232.661 102.189C231.697 101.746 230.597 101.703 229.601 102.071C228.606 102.439 227.798 103.187 227.355 104.151L230.988 105.823ZM342.664 157.216L346.298 158.888C347.222 156.881 346.343 154.505 344.337 153.582L342.664 157.216ZM184.017 207.892L180.383 206.22C179.459 208.227 180.338 210.602 182.344 211.526L184.017 207.892ZM184.037 207.901L187.551 209.812C188.08 208.839 188.182 207.691 187.833 206.64C187.483 205.589 186.715 204.731 185.709 204.268L184.037 207.901ZM295.673 259.276L297.345 255.642C296.339 255.179 295.186 255.154 294.161 255.572C293.136 255.99 292.33 256.815 291.936 257.849L295.673 259.276ZM295.693 259.285L294.02 262.919C296.027 263.842 298.403 262.964 299.326 260.957L295.693 259.285ZM229.316 109.456L340.992 160.849L344.337 153.582L232.661 102.189L229.316 109.456ZM187.65 209.564L234.622 107.495L227.355 104.151L180.383 206.22L187.65 209.564ZM185.709 204.268L185.689 204.259L182.344 211.526L182.364 211.535L185.709 204.268ZM187.374 210.165C187.429 210.045 187.488 209.927 187.551 209.812L180.522 205.991C180.375 206.262 180.236 206.539 180.107 206.82L187.374 210.165ZM231.027 252.77C215.95 245.832 203.589 237.189 195.763 228.969C191.842 224.85 189.206 220.992 187.857 217.658C186.511 214.334 186.574 211.904 187.374 210.165L180.107 206.82C178.084 211.216 178.582 216.068 180.441 220.66C182.296 225.242 185.636 229.934 189.969 234.485C198.652 243.606 211.922 252.785 227.683 260.038L231.027 252.77ZM291.783 258.213C290.982 259.952 289.178 261.58 285.777 262.721C282.367 263.864 277.722 264.372 272.043 264.073C260.71 263.476 246.105 259.709 231.027 252.77L227.683 260.038C243.444 267.291 259.046 271.399 271.622 272.062C277.898 272.393 283.633 271.877 288.32 270.306C293.017 268.731 297.027 265.953 299.05 261.558L291.783 258.213ZM291.936 257.849C291.889 257.972 291.838 258.093 291.783 258.213L299.05 261.558C299.18 261.276 299.299 260.991 299.409 260.702L291.936 257.849ZM297.365 255.651L297.345 255.642L294 262.909L294.02 262.919L297.365 255.651ZM339.031 155.543L292.059 257.613L299.326 260.957L346.298 158.888L339.031 155.543Z" fill="#446ADB" mask="url(#path-2-outside-1_1_2)"/>
<mask id="path-4-outside-2_1_2" maskUnits="userSpaceOnUse" x="182.658" y="115.745" width="150.929" height="156.813" fill="black">
<rect fill="white" x="182.658" y="115.745" width="150.929" height="156.813"/>
<path fill-rule="evenodd" clip-rule="evenodd" d="M328.084 163.602L235.621 121.051L196.391 206.298C196.39 206.302 196.388 206.305 196.386 206.309C196.384 206.313 196.383 206.316 196.381 206.32L196.328 206.436L196.329 206.437C191.953 216.407 208.904 233.897 234.328 245.597C259.753 257.297 284.063 258.795 288.789 248.986L288.791 248.987L288.849 248.86L328.084 163.602Z"/>
</mask>
<path fill-rule="evenodd" clip-rule="evenodd" d="M328.084 163.602L235.621 121.051L196.391 206.298C196.39 206.302 196.388 206.305 196.386 206.309C196.384 206.313 196.383 206.316 196.381 206.32L196.328 206.436L196.329 206.437C191.953 216.407 208.904 233.897 234.328 245.597C259.753 257.297 284.063 258.795 288.789 248.986L288.791 248.987L288.849 248.86L328.084 163.602Z" fill="white" fill-opacity="0.35"/>
<path d="M235.621 121.051L237.294 117.417C235.287 116.494 232.911 117.372 231.988 119.379L235.621 121.051ZM328.084 163.602L331.718 165.274C332.162 164.31 332.204 163.21 331.836 162.215C331.468 161.22 330.72 160.412 329.757 159.968L328.084 163.602ZM196.391 206.298L200.022 207.976L200.025 207.97L196.391 206.298ZM196.381 206.32L200.015 207.992L200.017 207.987L196.381 206.32ZM196.328 206.436L192.694 204.764C192.251 205.728 192.208 206.828 192.576 207.823C192.944 208.818 193.692 209.626 194.656 210.07L196.328 206.436ZM196.329 206.437L199.992 208.044C200.868 206.046 199.983 203.715 198.001 202.803L196.329 206.437ZM288.789 248.986L290.462 245.353C288.48 244.441 286.133 245.285 285.186 247.25L288.789 248.986ZM288.791 248.987L287.118 252.621C288.082 253.064 289.183 253.107 290.178 252.739C291.173 252.371 291.981 251.623 292.424 250.659L288.791 248.987ZM288.849 248.86L285.215 247.188L285.215 247.188L288.849 248.86ZM233.949 124.685L326.412 167.236L329.757 159.968L237.294 117.417L233.949 124.685ZM200.025 207.97L239.255 122.723L231.988 119.379L192.758 204.626L200.025 207.97ZM200.02 207.981C200.021 207.979 200.022 207.978 200.022 207.976L192.76 204.62C192.758 204.626 192.755 204.631 192.752 204.637L200.02 207.981ZM200.017 207.987C200.018 207.985 200.019 207.983 200.02 207.981L192.752 204.637C192.75 204.642 192.747 204.648 192.745 204.654L200.017 207.987ZM199.961 208.108L200.015 207.992L192.747 204.648L192.694 204.764L199.961 208.108ZM198.001 202.803L198 202.802L194.656 210.07L194.657 210.07L198.001 202.803ZM236.001 241.963C223.622 236.266 213.471 229.229 207.025 222.583C203.793 219.251 201.639 216.168 200.526 213.551C199.413 210.934 199.492 209.182 199.992 208.044L192.666 204.829C190.978 208.676 191.535 212.849 193.164 216.681C194.793 220.513 197.646 224.404 201.283 228.153C208.574 235.67 219.611 243.227 232.656 249.23L236.001 241.963ZM285.186 247.25C284.646 248.37 283.368 249.569 280.656 250.426C277.944 251.283 274.202 251.653 269.568 251.365C260.327 250.792 248.379 247.66 236.001 241.963L232.656 249.23C245.702 255.234 258.621 258.701 269.073 259.35C274.286 259.673 279.096 259.309 283.067 258.054C287.037 256.799 290.569 254.507 292.393 250.723L285.186 247.25ZM290.463 245.353L290.462 245.353L287.117 252.62L287.118 252.621L290.463 245.353ZM285.215 247.188L285.157 247.315L292.424 250.659L292.483 250.532L285.215 247.188ZM324.451 161.93L285.215 247.188L292.483 250.532L331.718 165.274L324.451 161.93Z" fill="#446ADB" fill-opacity="0.35" mask="url(#path-4-outside-2_1_2)"/>
<path d="M301.829 220.656C303.396 217.25 307.489 202.78 291.826 197.003C276.162 191.227 251.903 201.989 239.436 191.004C225.84 179.023 213.987 168.156 208.694 179.564C203.401 190.973 194.766 209.829 194.766 209.829L194.783 209.837C194.709 209.967 194.641 210.1 194.579 210.236C191.248 217.518 208.796 233.847 234.328 245.597C259.059 256.978 274.867 258.322 284.045 254.401C286.102 253.523 287.578 251.74 288.564 249.733C293.694 239.298 297.343 230.403 301.829 220.656Z" fill="#5144DB"/>
<path d="M339.248 177.552C342.155 176.434 343.979 174.579 344.972 172.324C345.93 170.151 346.045 167.77 345.899 165.65C345.778 163.887 345.458 162.136 345.197 160.704C345.146 160.419 345.096 160.148 345.051 159.891C344.908 159.08 344.811 158.444 344.78 157.95C344.756 157.573 344.782 157.417 344.783 157.396C346.471 153.678 346.108 149.452 344.386 145.198C342.657 140.928 339.494 136.445 335.264 132.001C326.795 123.106 313.752 114.061 298.162 106.887C282.572 99.7122 267.219 95.6893 254.953 95.043C248.827 94.7201 243.364 95.2338 238.996 96.6983C234.651 98.1553 231.209 100.623 229.48 104.316C229.455 104.341 229.354 104.447 229.096 104.63C228.709 104.903 228.167 105.214 227.456 105.591C227.133 105.762 226.777 105.945 226.399 106.14C225.203 106.757 223.784 107.488 222.474 108.314C220.743 109.407 218.926 110.827 217.775 112.726C216.561 114.73 216.173 117.133 217.109 119.87C217.998 122.47 219.476 124.143 221.45 125.028C223.301 125.858 225.341 125.872 227.106 125.761C227.789 125.718 228.494 125.65 229.162 125.585C229.368 125.565 229.57 125.546 229.767 125.527C230.631 125.447 231.436 125.384 232.202 125.379C233.745 125.368 234.925 125.594 235.853 126.193C236.277 126.468 236.44 126.707 236.52 126.883C236.608 127.078 236.668 127.362 236.644 127.823C236.618 128.298 236.51 128.862 236.334 129.577C236.275 129.815 236.2 130.103 236.119 130.413C235.991 130.902 235.85 131.444 235.739 131.919C235.35 133.601 235.025 135.7 235.695 137.878C236.384 140.122 238.02 142.125 240.891 143.853C246.461 147.207 250.98 147.474 254.677 147.303C255.403 147.27 256.041 147.225 256.628 147.184C257.595 147.117 258.423 147.059 259.28 147.076C260.531 147.101 261.493 147.301 262.37 147.818C263.117 148.257 263.551 148.879 263.886 149.847C264.147 150.6 264.295 151.368 264.477 152.309C264.565 152.764 264.661 153.26 264.78 153.813C265.12 155.38 265.627 157.185 266.755 158.9C267.903 160.646 269.613 162.177 272.175 163.356C277.42 165.77 281.626 164.555 284.916 163.153C285.596 162.863 286.181 162.594 286.719 162.347C287.561 161.959 288.284 161.627 289.057 161.359C290.211 160.96 290.98 160.911 291.632 161.127C292.215 161.321 292.863 161.884 293.704 163.176C294.22 163.969 294.667 164.793 295.172 165.725C295.528 166.381 295.913 167.09 296.37 167.878C298.431 171.429 301.445 175.525 307.39 176.58C310.29 177.095 312.566 176.686 314.382 175.529C316.118 174.423 317.182 172.78 317.974 171.407C318.198 171.017 318.399 170.656 318.585 170.321C319.125 169.35 319.546 168.592 320.099 167.956C320.703 167.261 321.335 166.881 322.391 166.886C323.307 166.891 324.071 167.323 324.95 168.387C325.632 169.212 326.198 170.174 326.857 171.291C327.127 171.75 327.413 172.235 327.728 172.748C328.711 174.346 329.989 176.198 331.876 177.304C333.922 178.504 336.363 178.66 339.248 177.552Z" fill="white" stroke="#446ADB" stroke-width="4" stroke-linecap="round" stroke-linejoin="round"/>
<path d="M281.569 142.943C297.16 150.117 312.513 154.14 324.778 154.786C330.905 155.109 336.367 154.595 340.735 153.131C345.108 151.665 348.566 149.175 350.284 145.443C352.001 141.711 351.643 137.465 349.912 133.19C348.183 128.92 345.02 124.436 340.79 119.993C332.321 111.098 319.278 102.053 303.688 94.8786C288.098 87.7041 272.745 83.6812 260.48 83.0348C254.353 82.712 248.89 83.2257 244.522 84.6902C240.15 86.1563 236.691 88.6466 234.974 92.3781C233.257 96.1096 233.615 100.356 235.346 104.631C237.074 108.901 240.238 113.385 244.468 117.828C252.937 126.723 265.979 135.768 281.569 142.943Z" fill="white" stroke="#446ADB" stroke-width="4" stroke-linecap="round" stroke-linejoin="round"/>
<path d="M285.002 136.943C300.592 144.118 315.945 148.141 328.21 148.787C334.337 149.11 339.8 148.596 344.168 147.132C348.54 145.666 351.999 143.175 353.716 139.444C355.433 135.712 355.075 131.466 353.344 127.191C351.616 122.921 348.452 118.437 344.222 113.994C335.753 105.099 322.711 96.054 307.121 88.8795C291.53 81.705 276.177 77.682 263.912 77.0357C257.786 76.7128 252.323 77.2266 247.955 78.6911C243.582 80.1572 240.124 82.6475 238.406 86.379C236.689 90.1105 237.047 94.3571 238.778 98.6321C240.507 102.902 243.67 107.386 247.9 111.829C256.369 120.724 269.412 129.769 285.002 136.943Z" fill="white" stroke="#446ADB" stroke-width="4" stroke-linecap="round" stroke-linejoin="round"/>
<path d="M264.5 174.5C264.5 181.127 261.627 187 255 187C248.373 187 242 183.627 242 177C242 170.373 244.873 163 251.5 163C258.127 163 264.5 167.873 264.5 174.5Z" fill="#5144DB"/>
<circle cx="243" cy="157" r="4" fill="#5144DB"/>
<circle cx="238" cy="166" r="2" fill="#5144DB"/>
<path d="M87.2439 104.878C91.2356 109.077 94.7954 113.431 97.0989 117.218C99.8017 115.204 103.26 113.531 106.523 112.242C109.941 110.892 113.422 109.859 116.126 109.265C116.149 107.512 116.454 105.583 116.894 103.659C117.579 100.666 118.669 97.3653 119.936 94.1481C122.444 87.7747 125.784 81.3745 128.341 78.1257L129.656 76.4552L131.516 77.4844C133.73 78.7096 136.047 80.9251 138.267 83.4774C140.528 86.077 142.85 89.2171 145.054 92.4917C149.285 98.7786 153.187 105.718 155.494 110.599C172.757 123.494 180.885 140.033 185.768 154.946C187.709 160.871 189.153 166.597 190.44 171.695C190.78 173.044 191.11 174.35 191.434 175.604C193.02 181.731 194.453 186.436 196.4 189.533C203.478 200.793 211.065 207.699 218.434 214.406C220.317 216.12 222.186 217.822 224.029 219.579C233.126 228.257 241.123 237.977 245.611 256.519C250.039 274.818 249.895 292.834 245.993 307.42C242.376 320.937 235.409 331.885 225.466 336.991C225.586 337.314 225.714 337.649 225.856 338.004C226.363 339.268 227.041 340.733 228.084 342.326C230.153 345.488 233.784 349.346 240.72 353.034C247.805 356.802 253.159 358.142 257.741 357.516C262.271 356.897 266.54 354.285 271.314 349.019C275.942 343.915 276.89 340.386 277.445 337.884C277.481 337.719 277.518 337.546 277.556 337.365C277.791 336.259 278.08 334.897 278.695 333.774C279.564 332.188 280.95 331.169 282.927 330.523C285.54 329.668 288.083 330.63 289.902 332.375C291.708 334.108 292.958 336.707 293.419 339.743C294.351 345.89 292.13 354.061 284.328 362.349C276.606 370.552 267.897 375.471 258.408 377.175C248.939 378.874 238.909 377.334 228.582 372.993C209.905 365.143 202.558 353.685 198.674 347.629C198.605 347.521 198.537 347.415 198.47 347.31C194.753 348.23 187.938 349.524 181.09 350.65C172.848 352.006 164.052 353.202 160.037 353.198C122.686 353.168 97.3909 340.115 81.331 319.777C65.3553 299.546 58.7737 272.431 58.0837 244.665C57.9648 239.879 57.7837 234.352 57.5852 228.291C56.9804 209.833 56.2134 186.422 56.5462 163.895C56.7674 148.923 57.4743 134.27 59.0476 121.648C60.6111 109.104 63.0618 98.2716 66.929 91.1387L68.2641 88.6759L70.5597 90.2817C76.0952 94.1538 82.1317 99.501 87.2439 104.878Z" fill="white" stroke="#446ADB" stroke-width="5"/>
<path d="M232.162 280.249C218.372 269.207 207.099 265.159 198.342 268.104C192.452 270.084 196.122 281.333 209.35 301.849" fill="white"/>
<path d="M232.162 280.249C218.372 269.207 207.099 265.159 198.342 268.104C192.452 270.084 196.122 281.333 209.35 301.849" stroke="#446ADB" stroke-width="5" stroke-miterlimit="3" stroke-linecap="round" stroke-linejoin="round"/>
<path d="M172.53 313.599C170.032 293.396 165.251 282.494 158.188 280.895C151.125 279.296 145.579 289.188 141.548 310.57" fill="white"/>
<path d="M172.53 313.599C170.032 293.396 165.251 282.494 158.188 280.895C151.125 279.296 145.579 289.188 141.548 310.57" stroke="#446ADB" stroke-width="5" stroke-miterlimit="3" stroke-linecap="round" stroke-linejoin="round"/>
<path d="M107.804 153.592C109.962 152.158 115.803 167.688 112.79 168.968Z" stroke="#446ADB" stroke-width="5" stroke-miterlimit="3" stroke-linecap="round" stroke-linejoin="round"/>
<path d="M141.583 142.312C143.741 140.879 149.582 156.408 146.569 157.689Z" stroke="#446ADB" stroke-width="5" stroke-miterlimit="3" stroke-linecap="round" stroke-linejoin="round"/>
<path d="M144.389 177.309C142.213 181.788 136.842 184.175 130.819 181.706" stroke="#446ADB" stroke-width="5" stroke-miterlimit="3" stroke-linecap="round" stroke-linejoin="round"/>
<path d="M115.5 218C161.063 218 198 181.063 198 135.5C198 89.9365 161.063 53 115.5 53C69.9365 53 33 89.9365 33 135.5C33 181.063 69.9365 218 115.5 218Z" fill="white" fill-opacity="0.1" stroke="white" stroke-width="4.365" stroke-miterlimit="3" stroke-linecap="square"/>
<path d="M75.2856 80.3832C68.2076 84.0191 57.3363 95.3493 55.1308 102.924C54.6536 104.565 55.523 106.44 57.0731 107.111L60.8737 108.757C62.4227 109.427 64.1363 108.663 64.6964 107.05C67.3549 99.3973 77.7407 93.3706 82.8281 89.5335C84.18 88.5132 84.3939 86.6261 83.3043 85.3226L79.9829 81.347C78.8933 80.0424 76.7885 79.6111 75.2856 80.3832Z" fill="white" fill-opacity="0.15"/>
<path d="M96.6433 236.561C97.1733 238.495 98.7051 239.577 100.377 240.113C102.003 240.635 104.017 240.744 106.176 240.629C110.525 240.397 116.176 239.21 122.187 237.639C128.227 236.061 134.76 234.058 140.906 232.141C141.869 231.841 142.822 231.542 143.762 231.248C148.844 229.658 153.544 228.188 157.396 227.121C177.676 221.5 186.504 216.453 191.521 213.273C191.982 212.981 192.394 212.716 192.771 212.473C193.433 212.047 193.988 211.69 194.514 211.376C195.318 210.897 195.88 210.63 196.371 210.489C197.201 210.252 198.167 210.269 200.458 211.221C209.39 214.928 222.156 213.343 231.249 208.567C235.824 206.164 239.728 202.823 241.707 198.645C243.743 194.348 243.618 189.424 240.579 184.318C237.432 179.031 233.135 175.98 228.345 174.823C223.604 173.679 218.567 174.433 213.923 176.389C204.707 180.271 196.451 189.144 194.374 199.062C194.041 200.655 193.786 200.847 193.532 201.006C193.298 201.152 192.888 201.325 192.097 201.52C191.312 201.714 190.296 201.898 188.91 202.131C188.569 202.189 188.21 202.249 187.833 202.311C182.069 203.271 171.924 204.96 153.728 210.384C147.928 212.113 142.002 213.732 136.291 215.292C128.106 217.529 120.361 219.645 114.054 221.792C108.682 223.622 104.082 225.556 100.97 227.75C97.9 229.914 95.6249 232.845 96.6433 236.561Z" fill="white" stroke="#446ADB" stroke-width="4"/>
<path d="M184.892 192.515C191.904 211.448 190.316 222.927 180.128 226.954C174.895 229.022 167.661 221.823 158.426 205.357" fill="white"/>
<path d="M184.892 192.515C191.904 211.448 190.316 222.927 180.128 226.954C174.895 229.022 167.661 221.823 158.426 205.357" stroke="#446ADB" stroke-width="5" stroke-miterlimit="3" stroke-linecap="round" stroke-linejoin="round"/>
<path d="M138.819 210.11C146.321 225.213 147.002 233.763 140.862 235.758C130.05 239.272 119.154 233.089 108.175 217.208" fill="white"/>
<path d="M138.819 210.11C146.321 225.213 147.002 233.763 140.862 235.758C130.05 239.272 119.154 233.089 108.175 217.208" stroke="#446ADB" stroke-width="5" stroke-miterlimit="3" stroke-linecap="round" stroke-linejoin="round"/>
<rect opacity="0.2" x="218.33" y="133.634" width="6.42585" height="26.2123" rx="3.21293" transform="rotate(24.7645 218.33 133.634)" fill="white"/>
<path d="M646.418 168.586C647.094 168.916 647.833 169.089 648.587 169.121C649.703 169.074 650.772 168.649 651.637 167.91C653.051 166.684 654.215 165.191 655.048 163.509C655.535 162.519 656.4 161.764 657.437 161.403C658.49 161.041 659.638 161.12 660.628 161.607C661.618 162.094 662.373 162.959 662.735 164.012C663.08 165.049 663.017 166.197 662.53 167.187C661.194 169.891 659.339 172.28 657.06 174.229C654.702 176.257 651.715 177.405 648.619 177.452C646.339 177.436 644.107 176.839 642.111 175.723C640.413 174.748 639.14 173.161 638.542 171.29C638.008 169.671 637.772 167.973 637.819 166.276C637.851 164.059 638.102 161.843 638.542 159.673C639.03 157.158 639.643 154.659 640.382 152.207C642.016 146.705 643.966 141.298 646.213 136.016C648.288 130.986 650.615 126.05 653.161 121.24C654.183 119.322 655.284 117.42 656.431 115.581C657.311 114.119 658.317 112.751 659.433 111.478C660.157 110.645 661.178 110.126 662.294 110.048C663.395 109.969 664.479 110.346 665.312 111.069C666.146 111.792 666.649 112.814 666.727 113.93C666.806 115.031 666.444 116.115 665.721 116.948C664.904 117.876 664.165 118.882 663.536 119.951C662.467 121.633 661.461 123.378 660.534 125.138C658.097 129.728 655.881 134.444 653.9 139.238C651.762 144.253 649.923 149.377 648.367 154.596C647.707 156.797 647.157 159.045 646.716 161.308C646.371 163.006 646.182 164.735 646.151 166.48C646.119 167.187 646.213 167.895 646.418 168.586Z" fill="white"/>
<path d="M642.008 134.907C641.227 134.855 640.446 134.491 639.873 133.866C639.3 133.241 638.987 132.46 639.039 131.626C639.091 130.793 639.456 130.012 640.081 129.439C640.654 128.918 641.487 128.606 642.32 128.658C646.956 128.866 651.642 128.704 656.278 128.189C659.091 127.876 663.873 126.698 666.712 125.678C669.431 124.701 672.537 124.415 671.994 127.811C671.574 130.444 669.888 131.453 668.287 132.07C664.911 133.37 658.715 134.352 657.008 134.387C651.759 134.494 647.008 135.116 642.008 134.907Z" fill="white"/>
<path fill-rule="evenodd" clip-rule="evenodd" d="M702.017 173.255C701.404 173.774 700.76 174.261 700.084 174.717C697.679 176.273 695.053 177.483 692.318 178.332C690.369 178.945 688.404 179.464 686.408 179.904C685.638 180.077 684.867 180.25 684.097 180.454C682.95 183.347 681.739 186.239 680.497 189.116C678.438 193.926 676.064 198.61 673.361 203.106C672.182 205.071 670.877 206.957 669.447 208.749C668.158 210.4 666.68 211.924 665.077 213.276C663.882 214.235 662.514 214.927 661.053 215.351C659.622 215.776 658.129 215.996 656.62 215.996C653.523 216.074 650.473 215.068 648.037 213.135C646.638 211.987 645.538 210.51 644.814 208.843C644.06 207.02 643.683 205.055 643.714 203.074C643.714 203.074 643.73 203.059 643.73 203.043L643.746 202.288C643.746 202.257 643.746 202.241 643.746 202.21C643.934 198.029 645.396 193.989 647.943 190.656C649.845 188.298 652.093 186.27 654.623 184.604C659.874 180.91 665.548 177.876 671.537 175.581C673.628 174.827 675.719 174.135 677.856 173.506C678.312 172.312 678.752 171.101 679.208 169.875L685.26 152.898C687.021 147.805 688.829 142.728 690.683 137.666C692.303 133.202 694.063 128.785 695.981 124.431C696.421 123.409 697.254 122.623 698.276 122.214C699.313 121.806 700.461 121.837 701.467 122.277C702.473 122.717 703.275 123.55 703.683 124.588C704.076 125.61 704.061 126.757 703.605 127.763C701.781 131.96 700.068 136.22 698.512 140.527L693.136 155.634L687.65 171.023C688.388 170.818 689.111 170.598 689.85 170.378C691.831 169.765 693.733 168.885 695.494 167.769C696.28 167.219 697.003 166.606 697.663 165.898C698.009 165.505 698.386 165.144 698.795 164.814C699.769 163.996 700.995 163.556 702.269 163.572C703.542 163.635 704.768 164.185 705.68 165.081C706.057 165.427 706.418 165.804 706.749 166.181C707.55 167.077 708.446 167.879 709.405 168.602C709.751 168.822 710.128 168.979 710.537 169.074C711.307 169.309 712.093 169.419 712.895 169.404C714.058 169.467 715.19 169.074 716.086 168.335C716.526 167.91 716.872 167.376 717.092 166.794C717.501 165.662 717.721 164.452 717.705 163.226C717.705 163.21 717.705 163.195 717.705 163.179L717.721 162.99C717.689 161.717 717.453 160.444 716.998 159.265C716.416 157.756 715.74 156.309 714.985 154.895C713.822 152.741 712.848 150.509 712.046 148.214C711.684 147.098 711.512 145.935 711.496 144.772C711.449 140.999 713.256 137.431 716.322 135.261C718.145 133.988 720.283 133.312 722.499 133.296C724.496 133.281 726.461 133.894 728.095 135.026C729.872 136.315 731.176 138.154 731.789 140.26C731.994 140.873 732.104 141.518 732.151 142.162C732.308 143.545 731.899 144.944 731.035 146.045C730.17 147.129 728.913 147.837 727.53 147.994C725.486 148.151 723.553 146.988 722.735 145.102C722.264 143.986 722.295 142.744 722.798 141.659C722.719 141.643 722.641 141.628 722.562 141.628C722.043 141.628 721.54 141.785 721.116 142.068C720.283 142.681 719.796 143.671 719.843 144.709C719.827 145.007 719.874 145.306 719.953 145.589C720.597 147.428 721.399 149.22 722.326 150.949C723.254 152.663 724.056 154.439 724.763 156.262C725.58 158.384 726.02 160.632 726.052 162.912C726.052 162.943 726.052 162.974 726.052 163.006V163.242C726.052 165.442 725.659 167.627 724.904 169.702C724.213 171.542 723.097 173.192 721.666 174.528C719.214 176.682 716.023 177.829 712.769 177.751C711.276 177.735 709.782 177.531 708.352 177.122C707.016 176.776 705.743 176.194 704.611 175.408C703.699 174.748 702.834 174.025 702.017 173.255ZM673.769 183.661C668.661 185.689 663.803 188.314 659.308 191.489C657.5 192.668 655.865 194.13 654.498 195.796C653.036 197.761 652.187 200.103 652.077 202.556L652.045 203.247C652.045 204.049 652.187 204.851 652.485 205.59C652.674 205.998 652.941 206.36 653.287 206.658C654.215 207.366 655.346 207.712 656.51 207.664C657.264 207.68 658.003 207.57 658.726 207.35C659.119 207.24 659.481 207.067 659.811 206.816C660.942 205.841 661.98 204.756 662.907 203.593C664.118 202.068 665.218 200.481 666.224 198.815C668.724 194.633 670.94 190.295 672.842 185.815C673.156 185.092 673.471 184.384 673.769 183.661Z" fill="white"/>
<path d="M703.225 118.375C705.814 118.375 707.912 116.276 707.912 113.687C707.912 111.099 705.814 109 703.225 109C700.636 109 698.538 111.099 698.538 113.687C698.538 116.276 700.636 118.375 703.225 118.375Z" fill="white"/>
<path d="M671.391 172.003C674.281 172.003 676.623 169.661 676.623 166.771C676.623 163.881 674.281 161.539 671.391 161.539C668.502 161.539 666.159 163.881 666.159 166.771C666.159 169.661 668.502 172.003 671.391 172.003Z" fill="white"/>
<path d="M625.605 145.133C625.763 144.158 626.266 143.262 627.036 142.618C626.989 142.508 626.926 142.414 626.879 142.319C626.753 142.131 626.564 141.989 626.344 141.942L625.763 141.911C625.087 141.942 624.442 142.115 623.845 142.429C622.745 143.027 621.676 143.703 620.67 144.457C620.638 144.489 620.607 144.504 620.575 144.536L620.497 144.583C618.485 146.045 616.755 147.853 615.404 149.943C613.675 152.49 612.417 155.335 611.694 158.337C611.458 159.28 611.332 160.255 611.332 161.214C611.317 162.503 611.631 163.792 612.228 164.924C612.81 165.977 613.612 166.873 614.586 167.58C617.023 169.262 619.931 170.143 622.886 170.064C624.804 170.095 626.706 169.718 628.451 168.916C631.123 167.612 633.559 165.867 635.65 163.745C636.436 162.959 637.175 162.094 637.819 161.182C638.055 160.9 638.244 160.569 638.354 160.224C638.684 159.17 639.423 158.29 640.397 157.787C641.388 157.268 642.519 157.174 643.573 157.504C644.626 157.834 645.506 158.573 646.025 159.563C646.528 160.538 646.622 161.686 646.292 162.739C645.899 163.996 645.286 165.159 644.469 166.197C643.588 167.423 642.614 168.571 641.529 169.639C638.763 172.438 635.556 174.733 632.019 176.446C629.158 177.766 626.046 178.442 622.902 178.395C618.217 178.474 613.627 177.075 609.776 174.387C607.764 172.941 606.082 171.07 604.887 168.885C603.63 166.511 602.97 163.855 603.001 161.151C603.017 159.548 603.205 157.944 603.598 156.372C604.542 152.427 606.192 148.686 608.471 145.322C610.389 142.414 612.81 139.867 615.624 137.824C615.639 137.808 615.655 137.792 615.671 137.792L615.718 137.761C617.054 136.755 618.453 135.859 619.931 135.073C621.723 134.13 623.703 133.611 625.731 133.564C625.857 133.564 625.967 133.564 626.077 133.579L627.036 133.627C627.13 133.642 627.225 133.642 627.319 133.658C630.085 134.02 632.553 135.607 634 138.012C635.084 139.804 635.666 141.879 635.65 143.986C635.666 144.929 635.54 145.872 635.257 146.768C634.848 148.34 633.732 149.629 632.239 150.258C631.909 150.399 631.563 150.509 631.202 150.556L630.809 150.603C630.746 150.619 630.683 150.619 630.636 150.635C629.41 150.761 628.183 150.383 627.225 149.597C626.266 148.827 625.668 147.695 625.543 146.469C625.495 146.108 625.511 145.746 625.574 145.4L625.605 145.133Z" fill="white"/>
<path d="M531.6 269.69C532.554 269.69 533.287 270.167 533.8 271.12C534.387 272 534.68 273.137 534.68 274.53C534.68 276.217 534.424 277.537 533.91 278.49C533.397 279.443 532.59 280.287 531.49 281.02C527.164 283.88 520.27 288.573 510.81 295.1C507.95 310.28 504.247 322.233 499.7 330.96C495.154 339.687 489.397 344.05 482.43 344.05C478.69 344.05 475.647 342.877 473.3 340.53C470.954 338.257 469.78 335.25 469.78 331.51C469.78 328.063 470.55 324.58 472.09 321.06C473.63 317.54 476.49 313.47 480.67 308.85C484.924 304.23 490.9 298.95 498.6 293.01L498.93 290.92C493.137 293.34 487.454 294.55 481.88 294.55C473.667 294.55 466.444 292.973 460.21 289.82C453.977 286.593 449.137 282.047 445.69 276.18C442.244 270.313 440.52 263.493 440.52 255.72C440.52 244.867 442.574 235.297 446.68 227.01C450.787 218.65 456.434 212.197 463.62 207.65C470.88 203.03 478.984 200.72 487.93 200.72C496.51 200.72 502.927 202.737 507.18 206.77C511.507 210.73 513.67 216.01 513.67 222.61C513.67 226.937 512.864 230.42 511.25 233.06C509.71 235.627 507.474 236.91 504.54 236.91C502.56 236.91 500.947 236.433 499.7 235.48C498.527 234.527 497.94 233.207 497.94 231.52C497.94 230.787 498.087 229.54 498.38 227.78C498.82 225.727 499.04 224.113 499.04 222.94C499.04 219.86 498.087 217.477 496.18 215.79C494.347 214.103 491.23 213.26 486.83 213.26C481.477 213.26 476.49 214.8 471.87 217.88C467.324 220.96 463.657 225.58 460.87 231.74C458.084 237.827 456.69 245.16 456.69 253.74C456.69 262.54 459.074 269.36 463.84 274.2C468.68 278.967 475.647 281.35 484.74 281.35C489.8 281.35 495.08 280.213 500.58 277.94L502.12 264.52H490.9C488.847 264.52 487.27 264.043 486.17 263.09C485.07 262.063 484.52 260.413 484.52 258.14C484.52 256.087 485.07 254.473 486.17 253.3C487.27 252.127 488.737 251.54 490.57 251.54H511.14C512.754 251.54 514.074 252.09 515.1 253.19C516.2 254.217 516.64 255.72 516.42 257.7C516.2 260.047 515.467 265.363 514.22 273.65L513.01 282.01C518.877 277.61 524.23 273.797 529.07 270.57C530.024 269.983 530.867 269.69 531.6 269.69ZM483.64 333.38C485.547 333.38 487.637 331.217 489.91 326.89C492.184 322.563 494.31 315.597 496.29 305.99C490.717 310.757 486.684 315.047 484.19 318.86C481.77 322.747 480.56 326.157 480.56 329.09C480.56 331.95 481.587 333.38 483.64 333.38ZM540.376 294.55C535.83 294.55 532.2 292.9 529.486 289.6C526.773 286.3 525.416 281.973 525.416 276.62C525.416 270.753 526.773 265.217 529.486 260.01C532.2 254.73 535.793 250.513 540.266 247.36C544.813 244.133 549.616 242.52 554.676 242.52C556.29 242.52 557.353 242.85 557.866 243.51C558.453 244.097 558.93 245.197 559.296 246.81C560.836 246.517 562.45 246.37 564.136 246.37C567.73 246.37 569.526 247.653 569.526 250.22C569.526 251.76 568.976 255.427 567.876 261.22C566.19 269.653 565.346 275.52 565.346 278.82C565.346 279.92 565.603 280.8 566.116 281.46C566.703 282.12 567.436 282.45 568.316 282.45C569.71 282.45 571.396 281.57 573.376 279.81C575.356 277.977 578.033 275.043 581.406 271.01C582.286 269.983 583.276 269.47 584.376 269.47C585.33 269.47 586.063 269.91 586.576 270.79C587.163 271.67 587.456 272.88 587.456 274.42C587.456 277.353 586.76 279.627 585.366 281.24C582.36 284.98 579.17 288.133 575.796 290.7C572.423 293.267 569.16 294.55 566.006 294.55C563.586 294.55 561.35 293.743 559.296 292.13C557.316 290.443 555.813 288.17 554.786 285.31C550.973 291.47 546.17 294.55 540.376 294.55ZM544.336 283.44C545.95 283.44 547.49 282.487 548.956 280.58C550.423 278.673 551.486 276.143 552.146 272.99L556.216 252.75C553.136 252.823 550.276 253.997 547.636 256.27C545.07 258.47 543.016 261.403 541.476 265.07C539.936 268.737 539.166 272.623 539.166 276.73C539.166 279.003 539.606 280.69 540.486 281.79C541.44 282.89 542.723 283.44 544.336 283.44ZM586.326 294.55C583.54 294.55 581.56 293.083 580.386 290.15C579.286 287.217 578.736 282.523 578.736 276.07C578.736 266.537 580.093 257.48 582.806 248.9C583.466 246.773 584.53 245.233 585.996 244.28C587.536 243.253 589.663 242.74 592.376 242.74C593.843 242.74 594.87 242.923 595.456 243.29C596.043 243.657 596.336 244.353 596.336 245.38C596.336 246.553 595.786 249.193 594.686 253.3C593.953 256.233 593.366 258.8 592.926 261C592.486 263.127 592.12 265.803 591.826 269.03C593.806 263.31 596.153 258.47 598.866 254.51C601.653 250.55 604.476 247.617 607.336 245.71C610.27 243.73 613.02 242.74 615.586 242.74C618.153 242.74 619.95 243.327 620.976 244.5C622.076 245.673 622.626 247.47 622.626 249.89C622.626 252.237 621.93 256.49 620.536 262.65C619.95 265.29 619.546 267.27 619.326 268.59C622.993 259.57 627.063 253.007 631.536 248.9C636.01 244.793 640.19 242.74 644.076 242.74C648.843 242.74 651.226 245.123 651.226 249.89C651.226 252.75 650.42 257.92 648.806 265.4C647.413 271.78 646.716 275.997 646.716 278.05C646.716 280.983 647.78 282.45 649.906 282.45C651.373 282.45 653.096 281.57 655.076 279.81C657.13 277.977 659.843 275.043 663.216 271.01C664.096 269.983 665.086 269.47 666.186 269.47C667.14 269.47 667.873 269.91 668.386 270.79C668.973 271.67 669.266 272.88 669.266 274.42C669.266 277.353 668.57 279.627 667.176 281.24C664.023 285.127 660.613 288.317 656.946 290.81C653.353 293.303 649.246 294.55 644.626 294.55C640.886 294.55 638.063 293.487 636.156 291.36C634.25 289.16 633.296 286.007 633.296 281.9C633.296 279.847 633.81 276.18 634.836 270.9C635.79 266.28 636.266 263.09 636.266 261.33C636.266 260.157 635.863 259.57 635.056 259.57C634.103 259.57 632.746 260.817 630.986 263.31C629.226 265.73 627.466 268.957 625.706 272.99C623.946 277.023 622.516 281.277 621.416 285.75C620.61 289.27 619.656 291.617 618.556 292.79C617.53 293.963 615.843 294.55 613.496 294.55C611.076 294.55 609.243 293.413 607.996 291.14C606.823 288.793 606.236 285.97 606.236 282.67C606.236 279.883 606.603 275.85 607.336 270.57C607.923 265.877 608.216 262.797 608.216 261.33C608.216 260.157 607.813 259.57 607.006 259.57C605.906 259.57 604.513 260.89 602.826 263.53C601.14 266.17 599.49 269.543 597.876 273.65C596.336 277.757 595.09 281.79 594.136 285.75C593.33 289.197 592.376 291.543 591.276 292.79C590.25 293.963 588.6 294.55 586.326 294.55ZM699.752 272.77C700.705 272.77 701.438 273.21 701.952 274.09C702.538 274.97 702.832 276.18 702.832 277.72C702.832 280.36 702.208 282.633 700.962 284.54C698.908 287.693 696.195 290.15 692.822 291.91C689.522 293.67 685.562 294.55 680.942 294.55C673.902 294.55 668.438 292.46 664.552 288.28C660.665 284.027 658.722 278.307 658.722 271.12C658.722 266.06 659.785 261.367 661.912 257.04C664.038 252.64 666.972 249.157 670.712 246.59C674.525 244.023 678.815 242.74 683.582 242.74C687.835 242.74 691.245 244.023 693.812 246.59C696.378 249.083 697.662 252.493 697.662 256.82C697.662 261.88 695.828 266.243 692.162 269.91C688.568 273.503 682.408 276.363 673.682 278.49C675.442 281.863 678.412 283.55 682.592 283.55C685.598 283.55 688.055 282.853 689.962 281.46C691.942 280.067 694.215 277.72 696.782 274.42C697.662 273.32 698.652 272.77 699.752 272.77ZM681.712 253.52C678.998 253.52 676.688 255.097 674.782 258.25C672.948 261.403 672.032 265.217 672.032 269.69V269.91C676.358 268.883 679.768 267.343 682.262 265.29C684.755 263.237 686.002 260.853 686.002 258.14C686.002 256.747 685.598 255.647 684.792 254.84C684.058 253.96 683.032 253.52 681.712 253.52ZM746.478 235.48C743.398 235.48 741.088 234.783 739.548 233.39C738.008 231.923 737.238 229.907 737.238 227.34C737.238 224.773 738.228 222.647 740.208 220.96C742.261 219.2 744.791 218.32 747.798 218.32C750.511 218.32 752.711 218.98 754.398 220.3C756.084 221.62 756.928 223.49 756.928 225.91C756.928 228.843 755.974 231.19 754.068 232.95C752.161 234.637 749.631 235.48 746.478 235.48ZM766.278 269.69C767.231 269.69 767.964 270.167 768.478 271.12C769.064 272 769.358 273.137 769.358 274.53C769.358 276.217 769.101 277.537 768.588 278.49C768.074 279.443 767.268 280.287 766.168 281.02C761.034 284.393 754.178 289.05 745.598 294.99C742.738 310.243 739.034 322.233 734.488 330.96C729.941 339.687 724.148 344.05 717.108 344.05C713.294 344.05 710.251 342.877 707.978 340.53C705.631 338.257 704.458 335.25 704.458 331.51C704.458 326.303 706.474 320.73 710.508 314.79C714.541 308.923 722.131 301.663 733.278 293.01L734.048 287.4C735.074 280.36 735.881 273.43 736.468 266.61C736.908 262.65 737.604 256.747 738.558 248.9C738.851 246.773 739.658 245.233 740.978 244.28C742.298 243.253 744.314 242.74 747.028 242.74C749.228 242.74 750.658 243.07 751.318 243.73C752.051 244.39 752.418 245.307 752.418 246.48C752.418 249.853 751.208 259.167 748.788 274.42L747.688 282.01C753.554 277.61 758.908 273.797 763.748 270.57C764.701 269.983 765.544 269.69 766.278 269.69ZM718.318 333.38C720.224 333.38 722.314 331.217 724.588 326.89C726.861 322.563 728.988 315.597 730.968 305.99C725.394 310.757 721.398 315.047 718.978 318.86C716.484 322.747 715.238 326.157 715.238 329.09C715.238 331.95 716.264 333.38 718.318 333.38ZM775.093 294.55C770.547 294.55 766.917 292.9 764.203 289.6C761.49 286.3 760.133 281.973 760.133 276.62C760.133 270.753 761.49 265.217 764.203 260.01C766.917 254.73 770.51 250.513 774.983 247.36C779.53 244.133 784.333 242.52 789.393 242.52C791.007 242.52 792.07 242.85 792.583 243.51C793.17 244.097 793.647 245.197 794.013 246.81C795.553 246.517 797.167 246.37 798.853 246.37C802.447 246.37 804.243 247.653 804.243 250.22C804.243 251.76 803.693 255.427 802.593 261.22C800.907 269.653 800.063 275.52 800.063 278.82C800.063 279.92 800.32 280.8 800.833 281.46C801.42 282.12 802.153 282.45 803.033 282.45C804.427 282.45 806.113 281.57 808.093 279.81C810.073 277.977 812.75 275.043 816.123 271.01C817.003 269.983 817.993 269.47 819.093 269.47C820.047 269.47 820.78 269.91 821.293 270.79C821.88 271.67 822.173 272.88 822.173 274.42C822.173 277.353 821.477 279.627 820.083 281.24C817.077 284.98 813.887 288.133 810.513 290.7C807.14 293.267 803.877 294.55 800.723 294.55C798.303 294.55 796.067 293.743 794.013 292.13C792.033 290.443 790.53 288.17 789.503 285.31C785.69 291.47 780.887 294.55 775.093 294.55ZM779.053 283.44C780.667 283.44 782.207 282.487 783.673 280.58C785.14 278.673 786.203 276.143 786.863 272.99L790.933 252.75C787.853 252.823 784.993 253.997 782.353 256.27C779.787 258.47 777.733 261.403 776.193 265.07C774.653 268.737 773.883 272.623 773.883 276.73C773.883 279.003 774.323 280.69 775.203 281.79C776.157 282.89 777.44 283.44 779.053 283.44ZM821.043 294.55C818.256 294.55 816.276 293.083 815.103 290.15C814.003 287.217 813.453 282.523 813.453 276.07C813.453 266.537 814.81 257.48 817.523 248.9C818.183 246.773 819.246 245.233 820.713 244.28C822.253 243.253 824.38 242.74 827.093 242.74C828.56 242.74 829.586 242.923 830.173 243.29C830.76 243.657 831.053 244.353 831.053 245.38C831.053 246.553 830.503 249.193 829.403 253.3C828.67 256.233 828.083 258.8 827.643 261C827.203 263.127 826.836 265.803 826.543 269.03C828.523 263.31 830.87 258.47 833.583 254.51C836.37 250.55 839.193 247.617 842.053 245.71C844.986 243.73 847.736 242.74 850.303 242.74C852.87 242.74 854.666 243.327 855.693 244.5C856.793 245.673 857.343 247.47 857.343 249.89C857.343 252.237 856.646 256.49 855.253 262.65C854.666 265.29 854.263 267.27 854.043 268.59C856.463 262.43 859.14 257.407 862.073 253.52C865.08 249.633 868.013 246.883 870.873 245.27C873.733 243.583 876.373 242.74 878.793 242.74C881.14 242.74 882.9 243.363 884.073 244.61C885.32 245.783 885.943 247.543 885.943 249.89C885.943 251.797 885.54 255.39 884.733 260.67C884 265.143 883.413 269.397 882.973 273.43C882.533 277.39 882.313 281.827 882.313 286.74C882.313 289.527 881.726 291.543 880.553 292.79C879.453 293.963 877.62 294.55 875.053 294.55C872.633 294.55 870.873 293.927 869.773 292.68C868.673 291.433 868.123 289.563 868.123 287.07C868.123 284.137 868.636 279.297 869.663 272.55C870.543 266.683 870.983 262.943 870.983 261.33C870.983 260.157 870.58 259.57 869.773 259.57C868.82 259.57 867.463 260.817 865.703 263.31C863.943 265.73 862.183 268.957 860.423 272.99C858.663 277.023 857.233 281.277 856.133 285.75C855.326 289.27 854.373 291.617 853.273 292.79C852.246 293.963 850.56 294.55 848.213 294.55C845.793 294.55 843.96 293.413 842.713 291.14C841.54 288.793 840.953 285.97 840.953 282.67C840.953 279.883 841.32 275.85 842.053 270.57C842.64 265.877 842.933 262.797 842.933 261.33C842.933 260.157 842.53 259.57 841.723 259.57C840.623 259.57 839.23 260.89 837.543 263.53C835.856 266.17 834.206 269.543 832.593 273.65C831.053 277.757 829.806 281.79 828.853 285.75C828.046 289.197 827.093 291.543 825.993 292.79C824.966 293.963 823.316 294.55 821.043 294.55Z" fill="white"/>
</svg>
