<svg width="2400" height="480" viewBox="0 0 2400 480" fill="none" xmlns="http://www.w3.org/2000/svg">
<g clip-path="url(#clip0_807_17)">
<rect width="2400" height="480" fill="#446ADB"/>
<g filter="url(#filter0_i_807_17)">
<path d="M905.5 1171C1249.3 1171 1528 892.297 1528 548.5C1528 204.703 1249.3 -74 905.5 -74C561.703 -74 283 204.703 283 548.5C283 892.297 561.703 1171 905.5 1171Z" fill="#4451DB"/>
</g>
<g filter="url(#filter1_i_807_17)">
<path d="M905.5 1028.57C1170.63 1028.57 1385.57 813.633 1385.57 548.5C1385.57 283.367 1170.63 68.4341 905.5 68.4341C640.367 68.4341 425.434 283.367 425.434 548.5C425.434 813.633 640.367 1028.57 905.5 1028.57Z" fill="#463BE1"/>
</g>
<g filter="url(#filter2_i_807_17)">
<path d="M905.5 889.822C1094.01 889.822 1246.82 737.007 1246.82 548.5C1246.82 359.993 1094.01 207.178 905.5 207.178C716.993 207.178 564.178 359.993 564.178 548.5C564.178 737.007 716.993 889.822 905.5 889.822Z" fill="#452EDD"/>
</g>
<g filter="url(#filter3_i_807_17)">
<path d="M905.5 760.921C1022.82 760.921 1117.92 665.817 1117.92 548.5C1117.92 431.183 1022.82 336.079 905.5 336.079C788.183 336.079 693.079 431.183 693.079 548.5C693.079 665.817 788.183 760.921 905.5 760.921Z" fill="#412BD0"/>
</g>
<path d="M1877.5 204.498C1872.68 204.697 1862.47 203.289 1860.3 196.062C1857.58 187.028 1830.36 166.494 1817.92 192.822C1840.01 167.632 1843.21 162.461 1857.78 168.59C1872.36 174.719 1886.67 160.669 1886.58 159.258" stroke="white" stroke-width="4" stroke-linecap="round" stroke-linejoin="round"/>
<mask id="path-6-outside-1_807_17" maskUnits="userSpaceOnUse" x="1712.3" y="178.467" width="179.123" height="186.709" fill="black">
<rect fill="white" x="1712.3" y="178.467" width="179.123" height="186.709"/>
<path fill-rule="evenodd" clip-rule="evenodd" d="M1829.85 183.777L1717.58 233.869L1763.37 336.477L1763.39 336.468C1763.46 336.675 1763.55 336.879 1763.64 337.081C1769.14 349.415 1798.73 348.2 1829.73 334.367C1860.73 320.534 1881.4 299.322 1875.9 286.988C1875.81 286.786 1875.71 286.588 1875.61 286.394L1875.63 286.385L1829.85 183.777Z"/>
</mask>
<path fill-rule="evenodd" clip-rule="evenodd" d="M1829.85 183.777L1717.58 233.869L1763.37 336.477L1763.39 336.468C1763.46 336.675 1763.55 336.879 1763.64 337.081C1769.14 349.415 1798.73 348.2 1829.73 334.367C1860.73 320.534 1881.4 299.322 1875.9 286.988C1875.81 286.786 1875.71 286.588 1875.61 286.394L1875.63 286.385L1829.85 183.777Z" fill="white" fill-opacity="0.35"/>
<path d="M1717.58 233.869L1715.95 230.217C1713.94 231.117 1713.03 233.482 1713.93 235.499L1717.58 233.869ZM1829.85 183.777L1833.5 182.147C1833.07 181.178 1832.27 180.421 1831.28 180.041C1830.29 179.662 1829.19 179.692 1828.22 180.124L1829.85 183.777ZM1763.37 336.477L1759.71 338.107C1760.61 340.125 1762.98 341.03 1765 340.13L1763.37 336.477ZM1763.39 336.468L1767.14 335.085C1766.76 334.046 1765.96 333.213 1764.94 332.783C1763.92 332.352 1762.77 332.364 1761.76 332.815L1763.39 336.468ZM1875.61 286.394L1873.98 282.741C1872.97 283.192 1872.19 284.042 1871.83 285.088C1871.47 286.135 1871.56 287.284 1872.08 288.263L1875.61 286.394ZM1875.63 286.385L1877.26 290.038C1879.28 289.137 1880.19 286.772 1879.29 284.755L1875.63 286.385ZM1719.21 237.522L1831.48 187.43L1828.22 180.124L1715.95 230.217L1719.21 237.522ZM1767.02 334.847L1721.24 232.24L1713.93 235.499L1759.71 338.107L1767.02 334.847ZM1761.76 332.815L1761.74 332.824L1765 340.13L1765.02 340.121L1761.76 332.815ZM1767.29 335.451C1767.24 335.33 1767.19 335.208 1767.14 335.085L1759.63 337.852C1759.74 338.141 1759.86 338.428 1759.98 338.711L1767.29 335.451ZM1828.1 330.714C1812.95 337.477 1798.3 341.074 1786.96 341.54C1781.28 341.773 1776.64 341.211 1773.24 340.028C1769.85 338.848 1768.07 337.199 1767.29 335.451L1759.98 338.711C1761.96 343.13 1765.93 345.954 1770.61 347.583C1775.28 349.209 1781.01 349.791 1787.29 349.533C1799.87 349.016 1815.52 345.089 1831.36 338.02L1828.1 330.714ZM1872.25 288.618C1873.03 290.366 1873.06 292.797 1871.68 296.105C1870.29 299.423 1867.61 303.251 1863.64 307.324C1855.72 315.452 1843.26 323.951 1828.1 330.714L1831.36 338.02C1847.21 330.95 1860.58 321.926 1869.37 312.907C1873.76 308.406 1877.15 303.754 1879.06 299.193C1880.97 294.623 1881.53 289.777 1879.55 285.358L1872.25 288.618ZM1872.08 288.263C1872.14 288.379 1872.19 288.498 1872.25 288.618L1879.55 285.358C1879.43 285.075 1879.29 284.797 1879.15 284.524L1872.08 288.263ZM1874 282.732L1873.98 282.741L1877.24 290.046L1877.26 290.038L1874 282.732ZM1826.2 185.407L1871.98 288.015L1879.29 284.755L1833.5 182.147L1826.2 185.407Z" fill="#446ADB" mask="url(#path-6-outside-1_807_17)"/>
<mask id="path-8-outside-2_807_17" maskUnits="userSpaceOnUse" x="1726.81" y="193.579" width="150.166" height="156.235" fill="black">
<rect fill="white" x="1726.81" y="193.579" width="150.166" height="156.235"/>
<path fill-rule="evenodd" clip-rule="evenodd" d="M1825.04 198.95L1732.09 240.425L1770.33 326.121C1770.33 326.125 1770.33 326.129 1770.33 326.133C1770.33 326.136 1770.33 326.14 1770.34 326.144L1770.39 326.26L1770.39 326.26C1775 336.123 1799.33 334.907 1824.89 323.503C1850.44 312.098 1867.6 294.806 1863.34 284.786L1863.34 284.786L1863.28 284.658L1825.04 198.95Z"/>
</mask>
<path fill-rule="evenodd" clip-rule="evenodd" d="M1825.04 198.95L1732.09 240.425L1770.33 326.121C1770.33 326.125 1770.33 326.129 1770.33 326.133C1770.33 326.136 1770.33 326.14 1770.34 326.144L1770.39 326.26L1770.39 326.26C1775 336.123 1799.33 334.907 1824.89 323.503C1850.44 312.098 1867.6 294.806 1863.34 284.786L1863.34 284.786L1863.28 284.658L1825.04 198.95Z" fill="white" fill-opacity="0.35"/>
<path d="M1732.09 240.425L1730.46 236.772C1729.49 237.204 1728.73 238.004 1728.35 238.994C1727.97 239.985 1728 241.086 1728.44 242.055L1732.09 240.425ZM1825.04 198.95L1828.69 197.32C1828.26 196.351 1827.46 195.594 1826.47 195.215C1825.48 194.835 1824.38 194.865 1823.41 195.297L1825.04 198.95ZM1770.33 326.121L1773.98 324.497L1773.98 324.491L1770.33 326.121ZM1770.34 326.144L1773.99 324.514L1773.99 324.508L1770.34 326.144ZM1770.39 326.26L1766.74 327.89C1767.17 328.859 1767.97 329.616 1768.96 329.996C1769.95 330.375 1771.05 330.345 1772.02 329.913L1770.39 326.26ZM1770.39 326.26L1774.01 324.565C1773.09 322.589 1770.75 321.718 1768.76 322.607L1770.39 326.26ZM1863.34 284.786L1861.71 281.133C1859.72 282.022 1858.8 284.343 1859.66 286.351L1863.34 284.786ZM1863.34 284.786L1864.97 288.438C1865.94 288.006 1866.69 287.207 1867.07 286.216C1867.45 285.225 1867.42 284.124 1866.99 283.156L1863.34 284.786ZM1863.28 284.658L1859.63 286.288L1859.63 286.288L1863.28 284.658ZM1733.72 244.078L1826.67 202.603L1823.41 195.297L1730.46 236.772L1733.72 244.078ZM1773.98 324.491L1735.74 238.795L1728.44 242.055L1766.67 327.751L1773.98 324.491ZM1773.98 324.503C1773.98 324.501 1773.98 324.499 1773.98 324.497L1766.67 327.745C1766.67 327.751 1766.68 327.757 1766.68 327.762L1773.98 324.503ZM1773.99 324.508C1773.99 324.506 1773.98 324.504 1773.98 324.503L1766.68 327.762C1766.68 327.768 1766.68 327.774 1766.69 327.779L1773.99 324.508ZM1774.04 324.63L1773.99 324.514L1766.68 327.774L1766.74 327.89L1774.04 324.63ZM1768.76 322.607L1768.76 322.607L1772.02 329.913L1772.02 329.913L1768.76 322.607ZM1823.26 319.85C1810.81 325.402 1798.83 328.395 1789.58 328.861C1784.95 329.095 1781.21 328.682 1778.51 327.794C1775.8 326.905 1774.54 325.691 1774.01 324.565L1766.77 327.954C1768.55 331.759 1772.05 334.092 1776.01 335.393C1779.96 336.694 1784.77 337.114 1789.98 336.851C1800.44 336.324 1813.4 333.007 1826.52 327.155L1823.26 319.85ZM1859.66 286.351C1860.14 287.495 1860.2 289.247 1859.06 291.851C1857.92 294.455 1855.73 297.513 1852.45 300.807C1845.93 307.378 1835.7 314.297 1823.26 319.85L1826.52 327.155C1839.63 321.304 1850.75 313.875 1858.13 306.444C1861.81 302.737 1864.71 298.88 1866.38 295.067C1868.06 291.254 1868.66 287.087 1867.02 283.221L1859.66 286.351ZM1861.71 281.133L1861.71 281.133L1864.97 288.439L1864.97 288.438L1861.71 281.133ZM1859.63 286.288L1859.69 286.416L1866.99 283.156L1866.93 283.028L1859.63 286.288ZM1821.39 200.58L1859.63 286.288L1866.93 283.028L1828.69 197.32L1821.39 200.58Z" fill="#446ADB" fill-opacity="0.35" mask="url(#path-8-outside-2_807_17)"/>
<path d="M1850.63 256.305C1849.1 252.881 1840.92 240.264 1826.25 248.234C1811.58 256.203 1803.68 281.54 1787.2 283.672C1769.23 285.997 1753.25 287.746 1758.33 299.247C1763.42 310.747 1771.91 329.672 1771.91 329.672L1771.93 329.664C1771.98 329.805 1772.03 329.944 1772.09 330.081C1775.37 337.386 1799.22 334.955 1824.89 323.503C1849.75 312.409 1861.18 301.409 1864.28 291.923C1864.98 289.798 1864.61 287.513 1863.75 285.448C1859.29 274.711 1855 266.104 1850.63 256.305Z" fill="#5144DB"/>
<path d="M1842.89 199.752C1843.96 196.829 1843.77 194.235 1842.73 192.002C1841.73 189.849 1840.01 188.193 1838.32 186.905C1836.92 185.834 1835.39 184.919 1834.14 184.172C1833.89 184.023 1833.66 183.881 1833.43 183.746C1832.73 183.319 1832.19 182.972 1831.8 182.67C1831.5 182.439 1831.4 182.318 1831.38 182.303C1829.7 178.582 1826.28 176.069 1821.95 174.56C1817.6 173.045 1812.14 172.468 1806.01 172.719C1793.74 173.223 1778.34 177.068 1762.67 184.061C1746.99 191.054 1733.85 199.946 1725.28 208.743C1720.99 213.137 1717.78 217.583 1716 221.833C1714.23 226.061 1713.82 230.276 1715.46 234.01C1715.46 234.046 1715.47 234.192 1715.44 234.506C1715.39 234.977 1715.27 235.59 1715.08 236.372C1715 236.728 1714.9 237.117 1714.8 237.53C1714.47 238.835 1714.09 240.385 1713.84 241.914C1713.52 243.936 1713.39 246.238 1714.06 248.356C1714.77 250.59 1716.32 252.466 1719 253.567C1721.54 254.612 1723.77 254.603 1725.74 253.702C1727.58 252.857 1728.94 251.333 1730.02 249.932C1730.43 249.391 1730.85 248.816 1731.24 248.271C1731.36 248.103 1731.48 247.938 1731.59 247.778C1732.1 247.075 1732.59 246.429 1733.09 245.849C1734.1 244.681 1735.04 243.943 1736.11 243.641C1736.59 243.503 1736.88 243.538 1737.07 243.594C1737.27 243.656 1737.52 243.798 1737.85 244.12C1738.19 244.453 1738.55 244.906 1738.97 245.51C1739.11 245.71 1739.28 245.957 1739.46 246.222C1739.74 246.641 1740.05 247.105 1740.34 247.501C1741.35 248.903 1742.71 250.531 1744.79 251.463C1746.93 252.423 1749.52 252.514 1752.71 251.494C1758.9 249.517 1762.08 246.295 1764.39 243.402C1764.84 242.834 1765.23 242.326 1765.59 241.858C1766.17 241.086 1766.68 240.425 1767.25 239.792C1768.1 238.868 1768.88 238.276 1769.85 237.957C1770.67 237.685 1771.43 237.769 1772.37 238.155C1773.11 238.455 1773.79 238.85 1774.62 239.334C1775.02 239.568 1775.45 239.822 1775.95 240.097C1777.35 240.875 1779.04 241.684 1781.07 241.966C1783.14 242.253 1785.42 241.977 1788 240.828C1793.27 238.476 1795.13 234.512 1796.24 231.114C1796.47 230.412 1796.66 229.794 1796.83 229.227C1797.09 228.338 1797.32 227.576 1797.62 226.817C1798.09 225.687 1798.55 225.076 1799.15 224.728C1799.68 224.418 1800.53 224.301 1802.05 224.521C1802.99 224.656 1803.9 224.863 1804.94 225.098C1805.67 225.262 1806.45 225.441 1807.35 225.616C1811.38 226.408 1816.44 226.841 1821.16 223.067C1823.45 221.226 1824.65 219.244 1824.97 217.116C1825.29 215.081 1824.75 213.198 1824.24 211.698C1824.1 211.272 1823.96 210.884 1823.83 210.523C1823.45 209.476 1823.16 208.661 1823.05 207.825C1822.92 206.913 1823.06 206.187 1823.76 205.397C1824.36 204.711 1825.19 204.421 1826.57 204.461C1827.64 204.493 1828.74 204.701 1830.01 204.942C1830.53 205.042 1831.09 205.147 1831.68 205.247C1833.53 205.561 1835.77 205.822 1837.84 205.132C1840.09 204.384 1841.82 202.652 1842.89 199.752Z" fill="white" stroke="#446ADB" stroke-width="4" stroke-linecap="round" stroke-linejoin="round"/>
<path d="M1778.84 220.307C1794.51 213.314 1807.66 204.421 1816.23 195.625C1820.51 191.231 1823.73 186.785 1825.51 182.535C1827.29 178.28 1827.69 174.038 1826.02 170.287C1824.35 166.536 1820.92 164.005 1816.56 162.488C1812.21 160.973 1806.75 160.396 1800.62 160.648C1788.35 161.152 1772.95 164.996 1757.28 171.989C1741.61 178.982 1728.46 187.875 1719.89 196.671C1715.61 201.065 1712.39 205.512 1710.62 209.761C1708.84 214.016 1708.43 218.258 1710.1 222.009C1711.78 225.761 1715.2 228.291 1719.56 229.808C1723.91 231.323 1729.37 231.9 1735.5 231.648C1747.77 231.144 1763.17 227.3 1778.84 220.307Z" fill="white" stroke="#446ADB" stroke-width="4" stroke-linecap="round" stroke-linejoin="round"/>
<path d="M1776.59 213.771C1792.26 206.778 1805.41 197.885 1813.98 189.089C1818.26 184.695 1821.48 180.249 1823.26 175.999C1825.04 171.744 1825.44 167.502 1823.77 163.751C1822.1 160 1818.67 157.469 1814.31 155.953C1809.96 154.438 1804.51 153.86 1798.38 154.112C1786.1 154.616 1770.7 158.46 1755.03 165.453C1739.36 172.446 1726.21 181.339 1717.64 190.135C1713.36 194.529 1710.15 198.976 1708.37 203.225C1706.59 207.48 1706.18 211.722 1707.85 215.473C1709.53 219.225 1712.96 221.755 1717.31 223.272C1721.66 224.787 1727.12 225.364 1733.25 225.112C1745.52 224.608 1760.92 220.764 1776.59 213.771Z" fill="white" stroke="#446ADB" stroke-width="4" stroke-linecap="round" stroke-linejoin="round"/>
<path d="M1791.32 253.946C1796.3 258.315 1798.82 264.346 1794.45 269.33C1790.08 274.313 1783.35 276.881 1778.36 272.512C1773.38 268.143 1769.73 261.123 1774.1 256.14C1778.47 251.156 1786.33 249.577 1791.32 253.946Z" fill="#5144DB"/>
<circle cx="1763.98" cy="258.576" r="4" transform="rotate(-48.7581 1763.98 258.576)" fill="#5144DB"/>
<circle cx="1767.45" cy="268.268" r="2" transform="rotate(-48.7581 1767.45 268.268)" fill="#5144DB"/>
<path d="M2009.91 161.804C2005.59 165.661 2001.68 169.708 1999.08 173.293C1996.55 171.064 1993.24 169.112 1990.09 167.559C1986.8 165.933 1983.41 164.618 1980.77 163.804C1980.89 162.055 1980.74 160.108 1980.46 158.154C1980.03 155.115 1979.21 151.736 1978.21 148.425C1976.23 141.868 1973.43 135.215 1971.15 131.767L1969.98 129.994L1968.04 130.867C1965.73 131.906 1963.24 133.924 1960.82 136.286C1958.35 138.691 1955.78 141.63 1953.31 144.712C1948.58 150.63 1944.12 157.226 1941.42 161.901C1923.16 173.335 1913.7 189.151 1907.61 203.613C1905.19 209.358 1903.28 214.946 1901.58 219.921C1901.13 221.238 1900.69 222.513 1900.27 223.735C1898.18 229.711 1896.37 234.283 1894.17 237.21C1886.19 247.851 1878.07 254.11 1870.17 260.19C1868.15 261.743 1866.15 263.286 1864.17 264.886C1854.39 272.787 1845.62 281.818 1839.63 299.929C1833.71 317.803 1832.38 335.769 1835.07 350.626C1837.56 364.395 1843.61 375.878 1853.1 381.783C1852.95 382.095 1852.8 382.419 1852.63 382.76C1852.02 383.979 1851.22 385.383 1850.05 386.886C1847.73 389.867 1843.79 393.414 1836.58 396.52C1829.21 399.693 1823.76 400.589 1819.25 399.589C1814.78 398.6 1810.74 395.646 1806.42 390.006C1802.22 384.539 1801.57 380.945 1801.22 378.405C1801.2 378.238 1801.18 378.062 1801.15 377.879C1801.01 376.758 1800.83 375.376 1800.31 374.207C1799.58 372.555 1798.28 371.425 1796.36 370.619C1793.83 369.553 1791.21 370.302 1789.26 371.892C1787.32 373.471 1785.86 375.958 1785.15 378.946C1783.71 384.996 1785.26 393.322 1792.35 402.223C1799.37 411.032 1807.65 416.649 1816.97 419.126C1826.26 421.598 1836.39 420.886 1847.04 417.408C1866.29 411.118 1874.56 400.302 1878.93 394.585C1879 394.483 1879.08 394.383 1879.16 394.284C1882.78 395.506 1889.47 397.355 1896.2 399.04C1904.31 401.067 1912.97 402.982 1916.97 403.308C1954.2 406.345 1980.48 395.413 1998.16 376.462C2015.74 357.611 2024.53 331.128 2027.5 303.512C2028.01 298.752 2028.64 293.259 2029.34 287.235C2031.46 268.889 2034.14 245.62 2035.66 223.141C2036.67 208.202 2037.17 193.54 2036.64 180.832C2036.11 168.202 2034.55 157.205 2031.29 149.778L2030.16 147.214L2027.74 148.626C2021.9 152.031 2015.45 156.864 2009.91 161.804Z" fill="white" stroke="#446ADB" stroke-width="5"/>
<path d="M1851.08 324.683C1865.73 314.811 1877.3 311.702 1885.79 315.356C1891.49 317.813 1886.91 328.722 1872.04 348.083" fill="white"/>
<path d="M1851.08 324.683C1865.73 314.811 1877.3 311.702 1885.79 315.356C1891.49 317.813 1886.91 328.722 1872.04 348.083" stroke="#446ADB" stroke-width="5" stroke-miterlimit="3" stroke-linecap="round" stroke-linejoin="round"/>
<path d="M1907.78 362.817C1911.92 342.887 1917.58 332.415 1924.75 331.401C1931.92 330.387 1936.64 340.701 1938.9 362.342" fill="white"/>
<path d="M1907.78 362.817C1911.92 342.887 1917.58 332.415 1924.75 331.401C1931.92 330.387 1936.64 340.701 1938.9 362.342" stroke="#446ADB" stroke-width="5" stroke-miterlimit="3" stroke-linecap="round" stroke-linejoin="round"/>
<path d="M1985.42 208.664C1983.39 207.059 1976.29 222.056 1979.19 223.58Z" stroke="#446ADB" stroke-width="5" stroke-miterlimit="3" stroke-linecap="round" stroke-linejoin="round"/>
<path d="M1952.68 194.649C1950.65 193.044 1943.55 208.041 1946.45 209.565Z" stroke="#446ADB" stroke-width="5" stroke-miterlimit="3" stroke-linecap="round" stroke-linejoin="round"/>
<path d="M1947.01 229.297C1948.81 233.94 1953.97 236.76 1960.18 234.794" stroke="#446ADB" stroke-width="5" stroke-miterlimit="3" stroke-linecap="round" stroke-linejoin="round"/>
<path d="M1972.46 272.223C1927.05 268.482 1893.27 228.637 1897.02 183.228C1900.76 137.818 1940.6 104.039 1986.01 107.78C2031.42 111.522 2065.2 151.366 2061.46 196.776C2057.72 242.186 2017.87 275.964 1972.46 272.223Z" fill="white" fill-opacity="0.1" stroke="white" stroke-width="4.365" stroke-miterlimit="3" stroke-linecap="square"/>
<path d="M2023.84 138.373C2030.6 142.578 2040.5 154.763 2042.08 162.493C2042.42 164.167 2041.4 165.965 2039.8 166.506L2035.87 167.835C2034.28 168.375 2032.63 167.473 2032.2 165.82C2030.18 157.974 2020.33 151.115 2015.57 146.873C2014.31 145.745 2014.25 143.847 2015.44 142.637L2019.08 138.948C2020.27 137.737 2022.41 137.48 2023.84 138.373Z" fill="white" fill-opacity="0.15"/>
<path d="M1989.73 292.27C1989.04 294.154 1987.43 295.106 1985.72 295.504C1984.05 295.89 1982.04 295.833 1979.9 295.541C1975.58 294.953 1970.05 293.307 1964.19 291.247C1958.3 289.178 1951.95 286.646 1945.98 284.23C1945.05 283.852 1944.12 283.476 1943.21 283.106C1938.27 281.105 1933.71 279.253 1929.96 277.873C1910.21 270.607 1901.83 264.851 1897.09 261.27C1896.65 260.941 1896.26 260.643 1895.91 260.37C1895.28 259.891 1894.76 259.49 1894.26 259.134C1893.5 258.59 1892.96 258.278 1892.48 258.097C1891.67 257.793 1890.71 257.731 1888.35 258.491C1879.14 261.453 1866.55 258.824 1857.88 253.318C1853.52 250.548 1849.9 246.897 1848.27 242.571C1846.59 238.122 1847.12 233.224 1850.57 228.385C1854.14 223.374 1858.67 220.686 1863.54 219.927C1868.36 219.176 1873.32 220.341 1877.79 222.672C1886.65 227.297 1894.15 236.818 1895.41 246.873C1895.61 248.488 1895.85 248.7 1896.09 248.879C1896.31 249.044 1896.71 249.25 1897.48 249.51C1898.24 249.767 1899.24 250.034 1900.6 250.381C1900.94 250.466 1901.29 250.555 1901.66 250.648C1907.33 252.078 1917.3 254.594 1934.99 261.494C1940.63 263.693 1946.4 265.794 1951.96 267.818C1959.94 270.718 1967.48 273.463 1973.59 276.122C1978.8 278.386 1983.22 280.691 1986.14 283.134C1989.02 285.542 1991.05 288.65 1989.73 292.27Z" fill="white" stroke="#446ADB" stroke-width="4"/>
<path d="M1905.4 241.127C1896.85 259.42 1897.49 270.991 1907.32 275.84C1912.36 278.331 1920.16 271.75 1930.72 256.098" fill="white"/>
<path d="M1905.4 241.127C1896.85 259.42 1897.49 270.991 1907.32 275.84C1912.36 278.331 1920.16 271.75 1930.72 256.098" stroke="#446ADB" stroke-width="5" stroke-miterlimit="3" stroke-linecap="round" stroke-linejoin="round"/>
<path d="M1949.87 262.445C1941.15 276.882 1939.77 285.346 1945.73 287.839C1956.21 292.229 1967.58 286.961 1979.83 272.035" fill="white"/>
<path d="M1949.87 262.445C1941.15 276.882 1939.77 285.346 1945.73 287.839C1956.21 292.229 1967.58 286.961 1979.83 272.035" stroke="#446ADB" stroke-width="5" stroke-miterlimit="3" stroke-linecap="round" stroke-linejoin="round"/>
<rect opacity="0.2" width="6.42585" height="26.2123" rx="3.21293" transform="matrix(-0.939366 0.342917 0.342917 0.939366 1832.04 226)" fill="white"/>
</g>
<defs>
<filter id="filter0_i_807_17" x="283" y="-74" width="1295" height="1295" filterUnits="userSpaceOnUse" color-interpolation-filters="sRGB">
<feFlood flood-opacity="0" result="BackgroundImageFix"/>
<feBlend mode="normal" in="SourceGraphic" in2="BackgroundImageFix" result="shape"/>
<feColorMatrix in="SourceAlpha" type="matrix" values="0 0 0 0 0 0 0 0 0 0 0 0 0 0 0 0 0 0 127 0" result="hardAlpha"/>
<feOffset dx="50" dy="50"/>
<feGaussianBlur stdDeviation="100"/>
<feComposite in2="hardAlpha" operator="arithmetic" k2="-1" k3="1"/>
<feColorMatrix type="matrix" values="0 0 0 0 0 0 0 0 0 0 0 0 0 0 0 0 0 0 0.1 0"/>
<feBlend mode="normal" in2="shape" result="effect1_innerShadow_807_17"/>
</filter>
<filter id="filter1_i_807_17" x="425.434" y="68.4341" width="1010.13" height="1010.13" filterUnits="userSpaceOnUse" color-interpolation-filters="sRGB">
<feFlood flood-opacity="0" result="BackgroundImageFix"/>
<feBlend mode="normal" in="SourceGraphic" in2="BackgroundImageFix" result="shape"/>
<feColorMatrix in="SourceAlpha" type="matrix" values="0 0 0 0 0 0 0 0 0 0 0 0 0 0 0 0 0 0 127 0" result="hardAlpha"/>
<feOffset dx="50" dy="50"/>
<feGaussianBlur stdDeviation="100"/>
<feComposite in2="hardAlpha" operator="arithmetic" k2="-1" k3="1"/>
<feColorMatrix type="matrix" values="0 0 0 0 0 0 0 0 0 0 0 0 0 0 0 0 0 0 0.15 0"/>
<feBlend mode="normal" in2="shape" result="effect1_innerShadow_807_17"/>
</filter>
<filter id="filter2_i_807_17" x="564.178" y="207.178" width="732.645" height="732.645" filterUnits="userSpaceOnUse" color-interpolation-filters="sRGB">
<feFlood flood-opacity="0" result="BackgroundImageFix"/>
<feBlend mode="normal" in="SourceGraphic" in2="BackgroundImageFix" result="shape"/>
<feColorMatrix in="SourceAlpha" type="matrix" values="0 0 0 0 0 0 0 0 0 0 0 0 0 0 0 0 0 0 127 0" result="hardAlpha"/>
<feOffset dx="50" dy="50"/>
<feGaussianBlur stdDeviation="100"/>
<feComposite in2="hardAlpha" operator="arithmetic" k2="-1" k3="1"/>
<feColorMatrix type="matrix" values="0 0 0 0 0 0 0 0 0 0 0 0 0 0 0 0 0 0 0.2 0"/>
<feBlend mode="normal" in2="shape" result="effect1_innerShadow_807_17"/>
</filter>
<filter id="filter3_i_807_17" x="693.079" y="336.079" width="474.842" height="474.842" filterUnits="userSpaceOnUse" color-interpolation-filters="sRGB">
<feFlood flood-opacity="0" result="BackgroundImageFix"/>
<feBlend mode="normal" in="SourceGraphic" in2="BackgroundImageFix" result="shape"/>
<feColorMatrix in="SourceAlpha" type="matrix" values="0 0 0 0 0 0 0 0 0 0 0 0 0 0 0 0 0 0 127 0" result="hardAlpha"/>
<feOffset dx="50" dy="50"/>
<feGaussianBlur stdDeviation="100"/>
<feComposite in2="hardAlpha" operator="arithmetic" k2="-1" k3="1"/>
<feColorMatrix type="matrix" values="0 0 0 0 0 0 0 0 0 0 0 0 0 0 0 0 0 0 0.2 0"/>
<feBlend mode="normal" in2="shape" result="effect1_innerShadow_807_17"/>
</filter>
<clipPath id="clip0_807_17">
<rect width="2400" height="480" fill="white"/>
</clipPath>
</defs>
</svg>
