<svg width="203" height="203" viewBox="0 0 203 203" fill="none" xmlns="http://www.w3.org/2000/svg">
<g clip-path="url(#clip0_4_21)">
<path d="M154.72 134.087C154.256 129.276 155.101 119.012 162.197 116.442C171.067 113.23 190.074 84.9285 163.101 73.9521C189.468 94.6178 194.807 97.532 189.489 112.422C184.171 127.312 198.986 140.831 200.39 140.661" stroke="white" stroke-width="4" stroke-linecap="round" stroke-linejoin="round"/>
<path d="M165.679 84.0516C166.141 83.0482 165.702 81.8605 164.698 81.3987L53.0223 30.006C52.5405 29.7842 51.9903 29.763 51.4927 29.9469C50.9952 30.1308 50.5911 30.5049 50.3694 30.9867L3.39756 133.056C3.37066 133.115 3.34671 133.174 3.32572 133.234C3.2549 133.373 3.18673 133.514 3.12125 133.657L3.22332 133.703L3.12124 133.657C1.40401 137.388 1.76216 141.635 3.49292 145.91C5.22173 150.18 8.3849 154.663 12.6152 159.106C21.0842 168.002 34.1265 177.046 49.7167 184.221C65.3069 191.395 80.66 195.418 92.9253 196.065C99.0518 196.388 104.515 195.874 108.882 194.409C113.255 192.943 116.714 190.453 118.431 186.721C118.496 186.579 118.559 186.436 118.618 186.292C118.65 186.237 118.68 186.18 118.707 186.121L165.679 84.0516Z" fill="#859EE8" stroke="#446ADB" stroke-width="4" stroke-linecap="round" stroke-linejoin="round"/>
<path d="M149.282 89.602L56.8193 47.051L17.5891 132.298C17.5874 132.302 17.5857 132.305 17.584 132.309C17.5822 132.313 17.5805 132.316 17.5788 132.32L17.5255 132.436L17.5266 132.437C13.1509 142.407 30.1021 159.897 55.5262 171.597C80.9504 183.297 105.261 184.795 109.987 174.986L109.988 174.987L149.282 89.602Z" fill="white" fill-opacity="0.35"/>
<path d="M151.099 90.4381C151.561 89.4347 151.122 88.2469 150.118 87.7851L57.6554 45.2342C57.1735 45.0124 56.6233 44.9912 56.1258 45.1751C55.6283 45.359 55.2242 45.7331 55.0024 46.2149L15.7739 131.458L15.7723 131.462L15.767 131.473L15.762 131.484L15.7608 131.487L15.7087 131.6C15.6927 131.634 15.6779 131.669 15.664 131.705C14.3102 134.856 14.7134 138.397 16.2022 141.899C17.7025 145.427 20.3803 149.116 23.9159 152.76C30.9959 160.059 41.8114 167.487 54.6901 173.414C67.5689 179.34 80.2454 182.724 90.3946 183.354C95.4627 183.668 100.006 183.303 103.662 182.147C107.289 181.001 110.24 179.004 111.754 175.927C111.772 175.893 111.789 175.859 111.805 175.823L151.099 90.4381Z" stroke="#446ADB" stroke-opacity="0.35" stroke-width="4" stroke-linecap="round" stroke-linejoin="round"/>
<path d="M123.026 146.656C124.594 143.25 128.687 128.78 113.023 123.003C97.3601 117.227 73.1007 127.989 60.6339 117.004C47.0381 105.023 35.1848 94.1557 29.8918 105.564C24.5989 116.973 15.9639 135.829 15.9639 135.829L15.9804 135.837C15.9072 135.967 15.8392 136.1 15.7766 136.236C12.4457 143.518 29.9934 159.847 55.5263 171.597C80.2571 182.978 96.0647 184.322 105.243 180.401C107.3 179.523 108.775 177.74 109.762 175.733C114.892 165.298 118.541 156.403 123.026 146.656Z" fill="#5144DB"/>
<path d="M160.446 103.552C163.353 102.434 165.177 100.579 166.17 98.3244C167.128 96.1513 167.243 93.7701 167.097 91.6498C166.975 89.8866 166.656 88.1356 166.395 86.704C166.343 86.4195 166.294 86.1476 166.249 85.8907C166.106 85.0797 166.009 84.444 165.978 83.9496C165.954 83.5726 165.98 83.4172 165.98 83.3964C167.669 79.6781 167.306 75.4522 165.584 71.1981C163.855 66.9279 160.692 62.4446 156.461 58.0013C147.992 49.1058 134.95 40.0613 119.36 32.8868C103.77 25.7122 88.4165 21.6893 76.1513 21.043C70.0248 20.7201 64.562 21.2338 60.1941 22.6983C55.8487 24.1553 52.4063 26.6235 50.6782 30.3162C50.6531 30.3413 50.5518 30.4474 50.2937 30.6297C49.9069 30.903 49.3646 31.214 48.6543 31.5906C48.3311 31.762 47.975 31.9454 47.5966 32.1404C46.4006 32.7567 44.9815 33.4879 43.6719 34.3145C41.9412 35.4068 40.1238 36.8268 38.973 38.7257C37.7585 40.7297 37.3705 43.1329 38.3067 45.8701C39.1958 48.47 40.6741 50.143 42.6476 51.0276C44.499 51.8575 46.5388 51.8724 48.3041 51.7609C48.9868 51.7177 49.6916 51.6497 50.3599 51.5851C50.5655 51.5653 50.7677 51.5458 50.9647 51.5274C51.8291 51.4469 52.6334 51.3843 53.3996 51.3788C54.9433 51.3676 56.1224 51.5935 57.0504 52.1933C57.475 52.4677 57.6378 52.7066 57.7175 52.8828C57.8058 53.078 57.8658 53.3622 57.8414 53.8227C57.8162 54.298 57.7079 54.8618 57.5317 55.5771C57.4732 55.8148 57.3978 56.1033 57.3169 56.4126C57.1889 56.9023 57.0473 57.4441 56.9373 57.9194C56.5478 59.6013 56.2229 61.7002 56.8924 63.8784C57.5821 66.1218 59.218 68.1247 62.089 69.8533C67.6592 73.2071 72.1777 73.4737 75.8751 73.3031C76.6011 73.2696 77.2387 73.2251 77.8253 73.1841C78.7927 73.1166 79.6211 73.0588 80.4775 73.0761C81.7289 73.1013 82.6911 73.3013 83.568 73.8176C84.3147 74.2573 84.7489 74.879 85.0842 75.8474C85.3449 76.5999 85.4931 77.3679 85.6749 78.3094C85.7627 78.7642 85.8584 79.2596 85.9783 79.8132C86.3176 81.3802 86.8243 83.1846 87.9524 84.8995C89.101 86.6457 90.8109 88.1774 93.3728 89.3564C98.6175 91.77 102.824 90.5551 106.114 89.1528C106.793 88.8633 107.379 88.5938 107.916 88.3468C108.759 87.9593 109.482 87.627 110.255 87.3595C111.409 86.9605 112.178 86.9107 112.83 87.1275C113.413 87.3212 114.061 87.8837 114.901 89.1758C115.418 89.9691 115.865 90.7935 116.37 91.7255C116.726 92.381 117.11 93.0898 117.568 93.8785C119.628 97.4294 122.643 101.525 128.588 102.58C131.488 103.095 133.764 102.686 135.579 101.529C137.316 100.423 138.38 98.7797 139.171 97.4068C139.396 97.0169 139.597 96.6563 139.783 96.3212C140.323 95.3497 140.743 94.5925 141.297 93.9559C141.901 93.2609 142.533 92.8814 143.589 92.8864C144.505 92.8908 145.268 93.3227 146.148 94.3872C146.83 95.2119 147.396 96.1736 148.054 97.2913C148.325 97.7501 148.61 98.2351 148.926 98.7478C149.909 100.346 151.186 102.198 153.074 103.304C155.12 104.504 157.561 104.66 160.446 103.552Z" fill="white" stroke="#446ADB" stroke-width="4" stroke-linecap="round" stroke-linejoin="round"/>
<path d="M102.767 68.9426C118.357 76.1171 133.711 80.14 145.976 80.7864C152.102 81.1092 157.565 80.5955 161.933 79.131C166.306 77.6648 169.764 75.1746 171.481 71.4431C173.199 67.7115 172.841 63.465 171.11 59.19C169.381 54.9198 166.218 50.4365 161.987 45.9932C153.518 37.0977 140.476 28.0532 124.886 20.8787C109.296 13.7041 93.9427 9.68121 81.6774 9.03486C75.5509 8.71201 70.0881 9.22572 65.7202 10.6902C61.3474 12.1564 57.889 14.6466 56.1718 18.3781C54.4546 22.1097 54.8127 26.3563 56.5435 30.6313C58.2723 34.9014 61.4354 39.3848 65.6657 43.8281C74.1348 52.7235 87.177 61.768 102.767 68.9426Z" fill="white" stroke="#446ADB" stroke-width="4" stroke-linecap="round" stroke-linejoin="round"/>
<path d="M106.2 62.9434C121.79 70.1179 137.143 74.1409 149.408 74.7872C155.535 75.1101 160.998 74.5964 165.365 73.1319C169.738 71.6657 173.197 69.1755 174.914 65.4439C176.631 61.7124 176.273 57.4658 174.542 53.1908C172.813 48.9206 169.65 44.4373 165.42 39.994C156.951 31.0985 143.909 22.054 128.318 14.8795C112.728 7.70499 97.3751 3.68206 85.1098 3.03571C78.9833 2.71286 73.5205 3.22657 69.1527 4.69108C64.7799 6.15724 61.3215 8.64747 59.6042 12.379C57.887 16.1105 58.2451 20.3571 59.9759 24.6321C61.7047 28.9023 64.8679 33.3856 69.0982 37.8289C77.5672 46.7244 90.6095 55.7689 106.2 62.9434Z" fill="white" stroke="#446ADB" stroke-width="4" stroke-linecap="round" stroke-linejoin="round"/>
<path d="M85.6978 100.5C85.6978 107.127 82.8252 113 76.1978 113C69.5703 113 63.1978 109.627 63.1978 103C63.1978 96.3726 66.0703 89 72.6978 89C79.3252 89 85.6978 93.8726 85.6978 100.5Z" fill="#5144DB"/>
<circle cx="64.1978" cy="83" r="4" fill="#5144DB"/>
<circle cx="59.1978" cy="92" r="2" fill="#5144DB"/>
</g>
<defs>
<clipPath id="clip0_4_21">
<rect width="203" height="203" fill="white"/>
</clipPath>
</defs>
</svg>
