<?xml version="1.0" encoding="UTF-8" standalone="no"?><!-- Generator: Gravit.io --><svg xmlns="http://www.w3.org/2000/svg" xmlns:xlink="http://www.w3.org/1999/xlink" style="isolation:isolate" viewBox="0 0 1024 1024" width="1024pt" height="1024pt"><defs><clipPath id="_clipPath_XwyphLMA7ism3HX7Git6oYakuE6tNdvi"><rect width="1024" height="1024"/></clipPath></defs><g clip-path="url(#_clipPath_XwyphLMA7ism3HX7Git6oYakuE6tNdvi)"><rect width="1024" height="1024" style="fill:rgb(0,0,0)" fill-opacity="0"/><g id="Group" filter="url(#fWQbkavydl9Eh8OH97X2SG7w2ZJ3Do40)"><linearGradient id="_lgradient_6" x1="0.1464466094067262" y1="0.14644660940672627" x2="0.8535533905932737" y2="0.8535533905932737" gradientTransform="matrix(921.6,0,0,921.6,51.2,51.2)" gradientUnits="userSpaceOnUse"><stop offset="0%" stop-opacity="1" style="stop-color:rgb(68,106,219)"/><stop offset="100%" stop-opacity="1" style="stop-color:rgb(81,68,219)"/></linearGradient><circle vector-effect="non-scaling-stroke" cx="511.99999999999994" cy="511.99999999999994" r="460.79999999999995" id="Ellipse" fill="url(#_lgradient_6)"/><clipPath id="_clipPath_kowlnk7etXN67WtmxQBxQQF46msPywcM"><circle vector-effect="non-scaling-stroke" cx="511.99999999999994" cy="511.99999999999994" r="460.79999999999995" id="Ellipse" fill="url(#_lgradient_6)"/></clipPath><g clip-path="url(#_clipPath_kowlnk7etXN67WtmxQBxQQF46msPywcM)"><g id="Logo"><g id="Group"><path d=" M 1389.653 825.728 C 1394.848 827.947 1400.455 828.963 1406.126 828.912 C 1414.479 828.135 1422.335 824.545 1428.539 818.675 C 1438.684 808.941 1446.842 797.299 1452.452 784.366 C 1455.73 776.753 1461.928 770.766 1469.572 767.66 C 1477.334 764.548 1485.971 764.701 1493.584 767.98 C 1501.197 771.259 1507.185 777.457 1510.297 785.219 C 1513.285 792.869 1513.249 801.5 1509.971 809.113 C 1500.976 829.899 1487.972 848.525 1471.616 864.011 C 1454.702 880.117 1432.736 889.858 1409.527 891.388 C 1392.426 892.137 1375.456 888.504 1360.059 880.892 C 1346.955 874.227 1336.802 862.803 1331.611 848.999 C 1326.987 837.058 1324.573 824.415 1324.282 811.663 C 1323.676 795.027 1324.72 778.307 1327.197 761.87 C 1329.896 742.82 1333.545 723.841 1338.155 705.167 C 1348.326 663.28 1360.891 621.982 1375.744 581.512 C 1389.396 542.995 1404.97 505.09 1422.243 468.044 C 1429.178 453.272 1436.708 438.588 1444.616 424.357 C 1450.663 413.058 1457.689 402.418 1465.577 392.444 C 1470.684 385.921 1478.15 381.642 1486.491 380.628 C 1494.715 379.62 1502.993 382.038 1509.517 387.145 C 1516.04 392.252 1520.201 399.724 1521.215 408.066 C 1522.223 416.289 1519.923 424.561 1514.816 431.085 C 1509.038 438.352 1503.878 446.178 1499.568 454.435 C 1492.19 467.456 1485.307 480.926 1479.02 494.483 C 1462.489 529.836 1447.657 566.049 1434.623 602.762 C 1420.494 641.185 1408.646 680.32 1398.957 720.054 C 1394.841 736.811 1391.568 753.881 1389.127 771.026 C 1387.178 783.89 1386.421 796.931 1386.848 810.031 C 1386.881 815.348 1387.857 820.618 1389.653 825.728 Z " id="Path" fill="rgb(255,255,255)"/><path d=" M 1343.78 574.797 C 1337.901 574.703 1331.903 572.265 1327.368 567.795 C 1322.834 563.325 1320.193 557.585 1320.267 551.315 C 1320.341 545.045 1322.779 539.046 1327.249 534.512 C 1331.348 530.388 1337.479 527.727 1343.749 527.801 C 1378.595 527.603 1413.687 524.607 1448.262 518.982 C 1469.238 515.57 1504.655 504.916 1525.562 496.185 C 1545.587 487.821 1568.771 484.495 1565.994 510.179 C 1563.841 530.085 1551.578 538.298 1539.807 543.529 C 1514.979 554.562 1468.876 564.282 1456.086 565.191 C 1416.757 567.988 1381.361 574.46 1343.78 574.797 Z " id="Path" fill="rgb(255,255,255)"/><path d=" M 1808.446 839.619 C 1804.045 843.743 1799.396 847.643 1794.5 851.319 C 1777.052 863.905 1757.822 873.981 1737.63 881.387 C 1723.243 886.726 1708.702 891.363 1693.896 895.423 C 1688.184 897.012 1682.473 898.602 1676.773 900.427 C 1669.265 922.557 1661.286 944.711 1653.065 966.759 C 1639.447 1003.62 1623.424 1039.656 1604.853 1074.404 C 1596.757 1089.589 1587.687 1104.233 1577.639 1118.218 C 1568.598 1131.087 1558.095 1143.085 1546.583 1153.834 C 1537.986 1161.48 1527.992 1167.187 1517.188 1170.926 C 1506.62 1174.653 1495.503 1176.871 1484.184 1177.444 C 1460.988 1179.21 1437.732 1172.823 1418.723 1159.247 C 1407.794 1151.172 1398.979 1140.507 1392.922 1128.284 C 1386.57 1114.894 1382.994 1100.3 1382.477 1085.432 C 1382.477 1085.432 1382.589 1085.309 1382.583 1085.191 L 1382.415 1079.525 C 1382.403 1079.289 1382.397 1079.172 1382.385 1078.936 C 1382.211 1047.502 1391.641 1016.646 1409.475 990.683 C 1422.845 972.275 1438.934 956.212 1457.284 942.752 C 1495.259 913.05 1536.669 888.139 1580.718 868.65 C 1596.112 862.196 1611.53 856.214 1627.326 850.686 C 1630.291 841.552 1633.133 832.306 1636.086 822.937 L 1675.028 693.303 C 1686.298 654.434 1697.927 615.665 1709.917 576.995 C 1720.364 542.896 1731.891 509.097 1744.621 475.709 C 1747.534 467.878 1753.484 461.667 1760.992 458.213 C 1768.618 454.753 1777.237 454.553 1784.95 457.472 C 1792.663 460.391 1798.993 466.335 1802.452 473.961 C 1805.788 481.476 1806.106 490.089 1803.069 497.808 C 1790.987 529.98 1779.755 562.583 1769.719 595.479 L 1735.136 710.826 L 1699.835 828.336 C 1705.299 826.523 1710.639 824.598 1716.097 822.666 C 1730.72 817.315 1744.651 809.99 1757.432 800.95 C 1763.118 796.525 1768.309 791.652 1772.992 786.096 C 1775.437 783.017 1778.129 780.162 1781.069 777.53 C 1788.068 771.029 1797.097 767.262 1806.653 766.896 C 1816.227 766.884 1825.633 770.545 1832.812 776.919 C 1835.772 779.369 1838.628 782.062 1841.247 784.766 C 1847.6 791.182 1854.625 796.854 1862.092 801.913 C 1864.77 803.432 1867.659 804.468 1870.76 805.02 C 1876.627 806.496 1882.564 807.023 1888.571 806.6 C 1897.32 806.63 1905.659 803.252 1912.099 797.371 C 1915.239 794.02 1917.63 789.88 1919.059 785.434 C 1921.695 776.79 1922.886 767.628 1922.302 758.437 C 1922.296 758.319 1922.29 758.201 1922.284 758.084 L 1922.33 756.663 C 1921.611 747.125 1919.358 737.664 1915.491 728.995 C 1910.555 717.897 1904.936 707.307 1898.739 696.982 C 1889.196 681.272 1881.038 664.9 1874.153 647.991 C 1871.017 639.757 1869.279 631.098 1868.719 622.379 C 1866.931 594.101 1879.134 566.65 1901.301 549.215 C 1914.494 538.972 1930.272 533.09 1946.89 532.13 C 1961.858 531.253 1976.828 535.105 1989.52 542.973 C 2003.333 551.966 2013.818 565.265 2019.216 580.831 C 2020.982 585.351 2022.052 590.143 2022.65 594.96 C 2024.355 605.275 2021.821 615.924 2015.755 624.505 C 2009.682 632.969 2000.519 638.753 1990.203 640.457 C 1974.936 642.413 1959.992 634.423 1953.144 620.585 C 1949.183 612.393 1948.947 603.067 1952.308 594.74 C 1951.712 594.652 1951.117 594.564 1950.527 594.594 C 1946.636 594.791 1942.923 596.161 1939.847 598.445 C 1933.831 603.36 1930.553 610.973 1931.301 618.736 C 1931.296 620.982 1931.763 623.205 1932.46 625.297 C 1937.993 638.847 1944.687 651.983 1952.3 664.6 C 1959.908 677.099 1966.596 690.117 1972.594 703.525 C 1979.531 719.131 1983.687 735.824 1984.788 752.908 C 1984.8 753.143 1984.812 753.379 1984.824 753.615 L 1984.914 755.384 C 1985.75 771.89 1983.633 788.428 1978.762 804.277 C 1974.273 818.335 1966.529 831.139 1956.308 841.704 C 1938.733 858.788 1915.235 868.607 1890.799 869.254 C 1879.593 869.704 1868.314 868.738 1857.43 866.216 C 1847.277 864.13 1837.506 860.252 1828.718 854.787 C 1821.629 850.181 1814.87 845.086 1808.446 839.619 Z  M 1600.53 928.404 C 1562.982 945.554 1527.548 967.089 1495.034 992.614 C 1481.924 1002.143 1470.217 1013.729 1460.593 1026.746 C 1450.375 1042.04 1444.898 1059.93 1445.004 1078.364 L 1445.031 1083.564 C 1445.336 1089.577 1446.701 1095.536 1449.222 1100.964 C 1450.792 1103.958 1452.934 1106.568 1455.641 1108.677 C 1462.867 1113.63 1471.487 1115.794 1480.194 1114.998 C 1485.859 1114.829 1491.359 1113.723 1496.698 1111.798 C 1499.604 1110.823 1502.25 1109.389 1504.631 1107.377 C 1512.749 1099.637 1520.119 1091.108 1526.633 1082.03 C 1535.132 1070.134 1542.782 1057.808 1549.695 1044.928 C 1566.852 1012.616 1581.828 979.233 1594.392 944.909 C 1596.475 939.366 1598.565 933.94 1600.53 928.404 Z " fill-rule="evenodd" id="Compound Path" fill="rgb(255,255,255)"/><path d=" M 1759.717 394.157 C 1758.734 374.753 1773.689 358.202 1793.093 357.219 C 1812.497 356.236 1829.049 371.191 1830.032 390.595 C 1831.014 409.999 1816.059 426.551 1796.655 427.534 C 1777.251 428.517 1760.7 413.561 1759.717 394.157 Z " id="Ellipse" fill="rgb(255,255,255)"/><path d=" M 1537.031 804.611 C 1535.934 782.952 1552.628 764.477 1574.287 763.379 C 1595.946 762.282 1614.421 778.976 1615.519 800.635 C 1616.616 822.294 1599.922 840.77 1578.263 841.867 C 1556.604 842.964 1538.128 826.27 1537.031 804.611 Z " id="Ellipse" fill="rgb(255,255,255)"/><path d=" M 1224.639 657.726 C 1225.448 650.356 1228.88 643.445 1234.412 638.318 C 1234.017 637.51 1233.509 636.827 1233.12 636.137 C 1232.105 634.77 1230.636 633.781 1228.968 633.511 L 1224.594 633.496 C 1219.536 633.989 1214.767 635.53 1210.406 638.116 C 1202.38 643.014 1194.62 648.49 1187.361 654.531 C 1187.137 654.779 1186.907 654.909 1186.683 655.157 L 1186.112 655.54 C 1171.576 667.27 1159.293 681.485 1149.948 697.68 C 1137.946 717.437 1129.595 739.255 1125.313 762.049 C 1123.902 769.213 1123.329 776.571 1123.694 783.763 C 1124.066 793.437 1126.913 802.985 1131.824 811.247 C 1136.586 818.926 1142.94 825.341 1150.519 830.277 C 1169.432 841.967 1191.579 847.464 1213.714 845.752 C 1228.111 845.259 1242.233 841.706 1255.016 835.031 C 1274.563 824.229 1292.175 810.216 1307.05 793.505 C 1312.646 787.312 1317.859 780.546 1322.347 773.463 C 1324.008 771.251 1325.297 768.704 1325.991 766.068 C 1328.067 758.043 1333.274 751.16 1340.393 747.017 C 1347.624 742.75 1356.077 741.612 1364.101 743.688 C 1372.126 745.764 1379.01 750.971 1383.277 758.201 C 1387.42 765.32 1388.563 773.891 1386.487 781.916 C 1384.018 791.498 1379.861 800.455 1374.125 808.547 C 1367.988 818.078 1361.114 827.055 1353.385 835.485 C 1333.697 857.523 1310.517 875.955 1284.64 890.15 C 1263.684 901.141 1240.596 907.393 1216.998 908.234 C 1181.893 910.603 1146.934 901.854 1117.027 883.156 C 1101.386 873.073 1088.059 859.682 1078.269 843.748 C 1067.935 826.422 1061.973 806.748 1061.182 786.457 C 1060.69 774.425 1061.496 762.327 1063.846 750.387 C 1069.421 720.436 1080.38 691.748 1096.197 665.651 C 1109.476 643.11 1126.666 623.09 1146.994 606.694 C 1147.106 606.57 1147.218 606.446 1147.335 606.44 L 1147.677 606.186 C 1157.317 598.133 1167.47 590.881 1178.254 584.424 C 1191.336 576.669 1205.995 572.026 1221.186 570.902 C 1222.129 570.854 1222.955 570.812 1223.786 570.888 L 1230.996 570.878 C 1231.709 570.96 1232.417 570.924 1233.13 571.006 C 1254.018 572.667 1273.132 583.637 1284.893 601.127 C 1293.709 614.155 1298.86 629.497 1299.542 645.302 C 1300.019 652.37 1299.434 659.492 1297.652 666.32 C 1295.184 678.266 1287.302 688.358 1276.341 693.641 C 1273.918 694.828 1271.366 695.785 1268.673 696.276 L 1265.743 696.779 C 1265.277 696.92 1264.806 696.944 1264.458 697.08 C 1255.309 698.489 1245.97 696.125 1238.479 690.595 C 1230.994 685.182 1226.084 676.92 1224.675 667.771 C 1224.184 665.077 1224.164 662.36 1224.505 659.742 L 1224.639 657.726 Z " id="Path" fill="rgb(255,255,255)"/></g><path d=" M 515.882 576.016 C 515.283 580.538 513.848 584.866 511.805 588.871 C 509.862 592.515 507.311 595.836 504.135 598.479 C 500.847 601.246 497.17 603.324 493.103 604.712 C 488.341 606.371 483.307 607.336 478.237 607.593 C 473.173 607.967 468.062 607.399 463.156 606.229 C 458.846 605.147 454.842 603.104 451.397 600.441 C 447.835 597.785 444.944 594.385 442.854 590.472 C 440.381 585.987 438.48 581.119 437.515 576.085 C 437.03 573.509 437.488 570.886 438.914 568.686 C 440.345 566.604 442.513 565.075 445.089 564.59 C 447.659 563.987 450.289 564.563 452.489 565.989 C 454.571 567.42 456.099 569.588 456.702 572.158 C 457.329 575.2 458.427 578.217 459.868 580.981 C 460.771 582.472 461.903 583.833 463.378 584.941 C 464.735 586.054 466.309 586.802 467.984 587.19 C 470.979 587.984 474.068 588.3 477.134 588.145 C 480.435 587.977 483.712 587.339 486.848 586.234 C 488.593 585.673 490.084 584.77 491.563 583.631 C 492.688 582.51 493.689 581.278 494.449 579.939 C 495.52 577.757 496.232 575.475 496.584 573.093 C 496.931 570.593 498.35 568.275 500.4 566.753 C 502.569 565.225 505.133 564.504 507.757 564.962 C 510.256 565.308 512.574 566.727 514.096 568.778 C 515.619 570.828 516.346 573.51 515.882 576.016 L 515.882 576.016 L 515.882 576.016 Z  M 437.032 382.569 C 457.694 386.679 444.371 427.861 438.805 445.614 C 433.238 463.367 421.311 505.052 404 502.406 C 386.69 499.76 390.092 457.602 397.174 432.224 C 404.257 406.845 416.371 378.46 437.032 382.569 L 437.032 382.569 Z  M 74.48 1190.161 C 37.406 1108.077 92.01 881.762 167.364 661.441 C 177.427 632.02 187.611 603.899 197.917 577.076 Q 319.734 260.041 464.249 185.013 Q 459.349 244.848 461.638 267.091 Q 463.927 289.334 467.965 306.632 Q 513.997 303.329 576.2 309.555 Q 638.403 315.781 682.784 332.938 Q 728.167 294.571 765.168 276.75 Q 802.17 258.929 863.903 249.708 Q 776.89 582.489 775.791 706.463 C 773.991 909.291 798.807 1039.715 805.662 1097.054 C 831.982 1099.192 857.304 1094.953 894.756 1078.703 C 916.332 1069.341 944.545 1043.117 933.566 1002.455 C 926.452 976.106 890.198 973.209 869.071 977.273 C 860.33 978.955 842.454 977.564 837.573 963.854 C 832.045 948.33 844.327 935.626 854.853 930.579 C 877.995 919.484 925.483 909.079 962.29 939.851 C 993.443 965.897 996.45 1007.165 992.109 1038.862 C 988.02 1068.719 967.403 1092.332 950.174 1106.91 C 916.899 1135.065 858.951 1154.791 812.163 1163.969 C 810.744 1196.029 783.905 1209.821 762.903 1220.319 C 695.865 1253.826 568.744 1276.023 436.074 1277.065 C 244.329 1278.571 101.004 1248.887 74.48 1190.161 L 74.48 1190.161 L 74.48 1190.161 Z  M 613.844 400.159 C 634.505 404.269 625.048 444.857 619.482 462.61 C 613.915 480.363 601.988 522.048 584.678 519.402 C 567.367 516.756 570.769 474.598 577.851 449.22 C 584.934 423.841 593.183 396.05 613.844 400.159 Z " fill-rule="evenodd" id="Compound Shape" fill="rgb(255,255,255)"/></g></g></g><defs><filter id="fWQbkavydl9Eh8OH97X2SG7w2ZJ3Do40" x="-200%" y="-200%" width="400%" height="400%" filterUnits="objectBoundingBox" color-interpolation-filters="sRGB"><feGaussianBlur xmlns="http://www.w3.org/2000/svg" in="SourceGraphic" stdDeviation="20.609323501627337"/><feOffset xmlns="http://www.w3.org/2000/svg" dx="0" dy="24" result="pf_100_offsetBlur"/><feFlood xmlns="http://www.w3.org/2000/svg" flood-color="#000000" flood-opacity="0.65"/><feComposite xmlns="http://www.w3.org/2000/svg" in2="pf_100_offsetBlur" operator="in" result="pf_100_dropShadow"/><feBlend xmlns="http://www.w3.org/2000/svg" in="SourceGraphic" in2="pf_100_dropShadow" mode="normal"/></filter></defs></g></svg>