<?xml version="1.0" encoding="UTF-8" standalone="no"?><!-- Generator: Gravit.io --><svg xmlns="http://www.w3.org/2000/svg" xmlns:xlink="http://www.w3.org/1999/xlink" style="isolation:isolate" viewBox="0 0 436 433.565" width="436pt" height="433.565pt"><defs><clipPath id="_clipPath_onGzIyZ7fuWWvWbQvlTHValYPpGCAueg"><rect width="436" height="433.565"/></clipPath></defs><g clip-path="url(#_clipPath_onGzIyZ7fuWWvWbQvlTHValYPpGCAueg)"><rect width="436" height="433.565" style="fill:rgb(0,0,0)" fill-opacity="0"/><path d=" M 146 133 Q 109.508 123.374 110 94 Q 110.492 64.626 140.964 59" id="Path" fill="none" vector-effect="non-scaling-stroke" stroke-width="32" stroke="rgb(85,204,167)" stroke-linejoin="round" stroke-linecap="round" stroke-miterlimit="3"/><path d=" M 252.565 276 Q 289.057 285.626 288.565 315 Q 288.073 344.374 257.6 350" id="Path" fill="none" vector-effect="non-scaling-stroke" stroke-width="32" stroke="rgb(85,204,167)" stroke-linejoin="round" stroke-linecap="round" stroke-miterlimit="3"/><path d=" M 16 276 Q 18.6 253.329 46.559 244.318 Q 74.518 235.307 85.312 249.924" id="Path" fill="none" vector-effect="non-scaling-stroke" stroke-width="32" stroke="rgb(85,204,167)" stroke-linejoin="round" stroke-linecap="round" stroke-miterlimit="3"/><path d=" M 88.801 362.526 Q 79.211 341.82 98.383 319.564 Q 117.555 297.308 134.383 304.161" id="Path" fill="none" vector-effect="non-scaling-stroke" stroke-width="32" stroke="rgb(85,204,167)" stroke-linejoin="round" stroke-linecap="round" stroke-miterlimit="3"/><path d="M 373.051 99.978 L 373.051 99.978 C 404.274 149.01 389.815 214.166 340.783 245.389 L 229.804 316.058 C 180.772 347.281 115.616 332.822 84.393 283.79 L 84.393 283.79 C 53.171 234.759 67.629 169.602 116.661 138.38 L 227.64 67.71 C 276.672 36.488 341.829 50.946 373.051 99.978 Z" style="stroke:none;fill:#55CCA7;stroke-miterlimit:10;"/><circle vector-effect="non-scaling-stroke" cx="288" cy="148" r="136" id="Ellipse" fill="rgb(235,235,235)" fill-opacity="0.1" stroke-width="24" stroke="rgb(255,255,255)" stroke-linejoin="miter" stroke-linecap="square" stroke-miterlimit="3"/><g id="Group"><line x1="245.943" y1="110" x2="242.497" y2="158.879" id="Path" vector-effect="non-scaling-stroke" stroke-width="24" stroke="rgb(77,156,132)" stroke-linejoin="round" stroke-linecap="round" stroke-miterlimit="3"/><line x1="218" y1="133.092" x2="270.37" y2="136.785" id="Path" vector-effect="non-scaling-stroke" stroke-width="24" stroke="rgb(77,156,132)" stroke-linejoin="round" stroke-linecap="round" stroke-miterlimit="3"/></g><g id="Group"><line x1="298.512" y1="174.858" x2="295.065" y2="223.737" id="Path" vector-effect="non-scaling-stroke" stroke-width="24" stroke="rgb(77,156,132)" stroke-linejoin="round" stroke-linecap="round" stroke-miterlimit="3"/><line x1="270.568" y1="197.95" x2="322.938" y2="201.643" id="Path" vector-effect="non-scaling-stroke" stroke-width="24" stroke="rgb(77,156,132)" stroke-linejoin="round" stroke-linecap="round" stroke-miterlimit="3"/></g><circle vector-effect="non-scaling-stroke" cx="218" cy="206" r="23" id="Ellipse" fill="rgb(77,156,132)"/><circle vector-effect="non-scaling-stroke" cx="205.72205047911808" cy="302.5476944249038" r="23" id="Ellipse" fill="rgb(77,156,132)"/><path d=" M 199 291 C 182.608 300.755 192.149 313.987 190 337 C 189.149 346.109 187.547 352.78 183.457 357.993 C 173.674 370.465 155.881 374.815 151 386 C 144.079 401.861 139.822 428.69 206 433 C 272.178 437.31 311.26 416.143 292 397 C 272.74 377.857 247.203 391.388 233 372.63 C 221.951 358.037 250.76 331.987 233 316 C 219.333 303.698 215.782 281.012 199 291 Z " id="Path" fill="rgb(176,27,171)"/><g opacity="0.22"><circle vector-effect="non-scaling-stroke" cx="265.2470144858701" cy="87.75641136975553" r="36.524964006752086" id="Ellipse" fill="rgb(255,255,255)"/></g><g opacity="0.22"><circle vector-effect="non-scaling-stroke" cx="367.5309880739378" cy="216.82860046174733" r="17.530988073937806" id="Ellipse" fill="rgb(255,255,255)"/></g><circle vector-effect="non-scaling-stroke" cx="103.1348496044323" cy="193.5309880739378" r="17.530988073937834" id="Ellipse" fill="rgb(104,210,176)"/><circle vector-effect="non-scaling-stroke" cx="104.147920030898" cy="266.4690119260622" r="17.530988073937834" id="Ellipse" fill="rgb(104,210,176)"/><path d=" M 76.231 224.709 C 77.13 218.977 82.514 215.053 88.246 215.953 C 93.978 216.852 97.902 222.236 97.003 227.968 C 96.103 233.7 90.72 237.624 84.988 236.724 C 79.255 235.825 75.332 230.441 76.231 224.709 Z " id="Ellipse" fill="rgb(104,210,176)"/></g></svg>