<?xml version="1.0" encoding="UTF-8" standalone="no"?><!-- Generator: Gravit.io --><svg xmlns="http://www.w3.org/2000/svg" xmlns:xlink="http://www.w3.org/1999/xlink" style="isolation:isolate" viewBox="0 0 315.497 244.792" width="315.497pt" height="244.792pt"><defs><clipPath id="_clipPath_24HFENgTsJoSe49sjqn9gvE9q2AwL405"><rect width="315.497" height="244.792"/></clipPath></defs><g clip-path="url(#_clipPath_24HFENgTsJoSe49sjqn9gvE9q2AwL405)"><rect width="315.497" height="244.792" style="fill:rgb(0,0,0)" fill-opacity="0"/><g id="Group"><path d=" M 52.563 171.362 Q 7.666 165.446 0.948 189.311 C -2.446 201.366 3.735 214.552 12.178 218.188 C 18.696 220.996 35.173 222.6 34.639 216.584 C 34.137 210.946 22.651 213.681 16.546 211.249 C 10.306 208.763 8.91 199.51 11.341 192.256 C 14.933 181.534 29.324 182.592 51.03 187.706 L 52.563 171.362 Z " id="Path" fill="rgb(68,106,219)"/><path d=" M 52.286 121.929 C 34.729 162.17 35.288 183.417 45.869 200.541 C 58.42 220.853 81.313 227.814 105.229 227.814 C 126.887 227.814 146.518 218.702 154.963 213.375 C 181.033 196.931 174.044 103.92 161.38 59.36 Q 154.248 34.264 145.337 0 C 138.551 10.091 135.375 17.61 132.502 22.461 Q 118.515 19.854 110.042 20.856 Q 101.569 21.859 92.394 25.669 C 90.157 16.191 85.894 8.72 79.56 3.209 C 72.741 26.822 69.843 81.688 52.286 121.929 Z " id="Path" fill="rgb(68,106,219)"/><path d=" M 100.248 210.896 Q 100.217 236.458 113.251 233.765 Q 124.417 231.458 124.481 206.492" id="Path" fill="rgb(68,106,219)" vector-effect="non-scaling-stroke" stroke-width="2" stroke="rgb(255,255,255)" stroke-linejoin="round" stroke-linecap="round" stroke-miterlimit="3"/><path d=" M 146.941 198.47 Q 151.24 225.782 163.687 222.13 C 174.616 218.924 169.006 176.312 172.611 181.289" id="Path" fill="rgb(68,106,219)" vector-effect="non-scaling-stroke" stroke-width="2" stroke="rgb(255,255,255)" stroke-linejoin="round" stroke-linecap="round" stroke-miterlimit="3"/><g id="Group"><path d=" M 95.599 62.088 C 95.599 53.676 101.35 46.847 108.434 46.847 C 115.517 46.847 119.664 53.676 119.664 62.088 C 119.664 70.5 115.517 77.329 108.434 77.329 C 101.35 77.329 95.599 70.5 95.599 62.088 Z " id="Path" fill="rgb(255,255,255)"/><path d=" M 132.498 59.682 C 132.498 51.27 134.864 45.597 141.322 43.638 C 147.641 41.722 153.048 48.568 153.355 58.879 C 153.605 67.285 147.963 74.121 141.322 74.121 C 134.681 74.121 132.498 68.093 132.498 59.682 Z " id="Path" fill="rgb(255,255,255)"/><path d=" M 124.298 84.555 C 123.983 81.026 125.477 78.743 127.63 78.879 C 129.747 79.012 131.261 81.241 130.962 84.555 C 130.683 87.652 129.469 90.232 127.63 90.232 C 125.791 90.232 124.574 87.653 124.298 84.555 Z " id="Path" fill="rgb(255,255,255)"/></g><path d=" M 104.802 52.541 C 106.019 51.798 107.502 51.388 109.24 51.338 C 114.429 51.191 118.402 56.067 118.064 63.104 C 118.041 63.581 117.999 64.054 117.942 64.52 C 117.608 64.288 117.23 64.173 116.834 64.173 C 115.27 64.173 114 65.97 114 68.184 C 114 69.606 114.524 70.856 115.309 71.575 C 113.77 73.755 111.655 75.057 109.24 74.869 C 103.658 74.432 100.748 69.454 100.441 63.812 C 100.934 64.048 101.466 64.173 102.02 64.173 C 104.677 64.173 106.833 61.298 106.833 57.756 C 106.833 55.6 106.034 53.691 104.802 52.541 Z " fill-rule="evenodd" id="Compound Shape" fill="rgb(68,106,219)"/><path d=" M 139.642 50.655 C 140.945 49.654 142.476 49.232 144 49.232 C 148.042 49.232 151.126 53.857 151.126 60.001 C 151.126 60.399 151.11 60.794 151.086 61.187 C 150.947 61.111 150.794 61.063 150.635 61.035 C 149.226 60.787 147.797 62.206 147.446 64.201 C 147.153 65.869 147.707 67.416 148.722 68.018 C 147.415 69.954 145.702 71.178 144 71.232 C 140.375 71.346 136.402 66.954 136.024 60.928 C 138.193 60.915 140.243 58.805 140.777 55.903 C 141.154 53.846 140.678 51.891 139.642 50.655 Z " fill-rule="evenodd" id="Compound Shape" fill="rgb(68,106,219)"/><g id="Group"><path d=" M 202.854 231.113 C 198.979 223.342 213.101 211.51 230.931 208.803 C 248.923 206.072 263.783 209.006 263.527 217.644 C 263.253 226.858 251.394 235.524 237.254 237.349 C 225.417 238.876 205.964 237.349 202.854 231.113 Z " id="Path" fill="rgb(68,106,219)"/><path d=" M 306.546 72.887 L 151.113 108.511 C 146.46 109.577 142.479 114.314 142.229 119.081 L 136.037 237.276 C 135.787 242.043 139.299 244.807 143.874 243.444 L 299.59 197.041 C 304.166 195.678 308.102 190.701 308.376 185.935 L 314.482 79.59 C 314.756 74.824 311.2 71.82 306.546 72.887 Z " id="Path" fill="rgb(68,106,219)" vector-effect="non-scaling-stroke" stroke-width="2" stroke="rgb(255,255,255)" stroke-linejoin="round" stroke-linecap="round" stroke-miterlimit="3"/><path d=" M 228.496 213.265 L 224.118 222.741 L 246.012 218.739 L 247.106 208.887 L 228.496 213.265 Z " id="Path" fill="rgb(68,106,219)"/><path d=" M 225.212 178.235 Q 230.686 206.081 227.402 215.716 Q 224.913 223.018 222.355 226.018" id="Path" fill="none" vector-effect="non-scaling-stroke" stroke-width="2" stroke="rgb(255,255,255)" stroke-linejoin="round" stroke-linecap="round" stroke-miterlimit="3"/><path d=" M 241.033 174.507 Q 246.317 195.833 247.142 205.767 Q 247.871 214.534 244.917 222.741" id="Path" fill="none" vector-effect="non-scaling-stroke" stroke-width="2" stroke="rgb(255,255,255)" stroke-linejoin="round" stroke-linecap="round" stroke-miterlimit="3"/></g><g id="Group"><line x1="197" y1="69.232" x2="194" y2="49.232" id="Path" vector-effect="non-scaling-stroke" stroke-width="4" stroke="rgb(68,106,219)" stroke-linejoin="round" stroke-linecap="round" stroke-miterlimit="3"/></g><g id="Group"><line x1="241.858" y1="62.286" x2="244.651" y2="42.003" id="Path" vector-effect="non-scaling-stroke" stroke-width="4" stroke="rgb(68,106,219)" stroke-linejoin="round" stroke-linecap="round" stroke-miterlimit="3"/></g><g id="Group"><line x1="288.093" y1="62.965" x2="291.624" y2="49.146" id="Path" vector-effect="non-scaling-stroke" stroke-width="4" stroke="rgb(68,106,219)" stroke-linejoin="round" stroke-linecap="round" stroke-miterlimit="3"/></g><g id="Group"><line x1="111.211" y1="118.52" x2="95.599" y2="113.907" id="Path" vector-effect="non-scaling-stroke" stroke-width="4" stroke="rgb(255,255,255)" stroke-linejoin="round" stroke-linecap="round" stroke-miterlimit="3"/></g><g id="Group"><line x1="109.263" y1="163.544" x2="93.277" y2="162.232" id="Path" vector-effect="non-scaling-stroke" stroke-width="4" stroke="rgb(255,255,255)" stroke-linejoin="round" stroke-linecap="round" stroke-miterlimit="3"/></g></g></g></svg>