<?xml version="1.0" encoding="utf-8"?>
<svg width="135" height="135" viewBox="0 0 135 135" fill="none" xmlns="http://www.w3.org/2000/svg">
  <defs>
    <clipPath id="clip_path_1">
      <rect width="135" height="135" />
    </clipPath>
  </defs>
  <g>
    <rect width="135" height="135" />
    <g id="Группа">
      <rect id="Прямоугольник" width="135" height="135" />
      <g clip-path="url(#clip_path_1)">
        <rect width="135" height="135" />
        <g id="Группа" transform="translate(-36 0)">
          <rect id="Прямоугольник" width="135" height="135" transform="translate(36 0)" />
          <g id="Группа">
            <rect id="Прямоугольник" width="135" height="135" fill="#FFFFFF" fill-rule="evenodd" transform="translate(36 0)" />
            <path id="Путь" d="M34.5356 139.769C34.5232 140.716 19.6881 141.974 9.23237 149.408C-2.60213 157.822 -2.21453 175.012 5.61747 173.506C13.4495 172 2.52587 162.142 15.2566 155.432C25.222 150.18 36.1779 150.225 36.4636 150.98C39.1228 158.004 44.39 163.83 51.4038 168.686C49.1446 181.187 45.108 189.237 48.9938 190.374C61.3443 193.989 68.7474 184.615 71.8878 178.325C86.4479 182.369 96.6841 182.548 110.444 177.12C108.844 183.973 106.033 193.072 110.444 192.784C126.052 191.767 137.705 168.671 141.771 154.822C145.839 140.973 151.261 113.035 150.206 91.573C149.152 70.1098 141.764 42.284 139.362 31.3273C137.132 21.1549 132.324 11.7758 124.903 3.152C121.125 9.2068 118.326 15.7999 116.469 22.8932C106.732 20.6198 101.134 19.4388 89.961 21.6882C88.6335 16.9378 84.8214 6.8904 77.9119 0C70.5884 9.3468 63.9672 41.7589 62.2479 48.1955C56.9815 67.9159 52.29 101.147 45.9635 112.217C37.0408 127.832 34.8536 114.337 34.5356 139.769C34.5356 139.769 34.5356 139.769 34.5356 139.769C34.5356 139.769 34.5356 139.769 34.5356 139.769Z" fill="#BCBCBC" transform="translate(0 24)" />
            <path id="Путь#3" d="M0 0.9897C0.414101 4.04739 6.6253 3.5377 7.8676 0C9.1099 2.51849 14.0789 3.4918 14.0789 0" fill="none" stroke-width="1.656" stroke="#FFFFFF" stroke-linecap="round" stroke-linejoin="round" transform="translate(102.327 86.655)" />
          </g>
        </g>
      </g>
    </g>
    <path id="Овал" d="M0 7.83675C0 3.50863 3.38769 0 7.56661 0C11.7455 0 15.1332 3.50863 15.1332 7.83675C15.1332 12.1649 11.7455 15.6735 7.56661 15.6735C3.38769 15.6735 0 12.1649 0 7.83675Z" fill="#929292" fill-rule="evenodd" transform="translate(16 62)" />
    <path id="Вектор" d="M0 0.00140762C0 0.00140762 23.6017 -0.381603 15.9025 11.4922C8.20336 23.366 0 0.00140762 0 0.00140762Z" fill="#929292" fill-rule="evenodd" transform="translate(4 56)" />
    <path id="Вектор" d="M0 9.40401C0 9.40401 23.5464 13.562 17.2173 3.36431C10.8883 -6.83338 0 9.40401 0 9.40401Z" fill="#929292" fill-rule="evenodd" transform="translate(3 69)" />
    <path id="Вектор" d="M5.69203 8.77826C7.02782 7.12143 18.455 0.510357 43.741 0.0335922C69.0271 -0.443172 82.1491 4.27565 84.2416 6.53366C86.334 8.79168 90.5791 27.9463 88.741 29.5336C86.9029 31.1209 82.8917 25.2883 52.2413 24.5338C21.5909 23.7793 1.69804 33.8245 0.24095 32.0336C-1.21614 30.2426 4.35625 10.4351 5.69203 8.77826Z" fill="#929292" fill-rule="evenodd" transform="translate(22.259 52.966)" />
    <path id="Путь#1" d="M0 0C1.3052 3.3138 1.7066 7.3302 1.2042 12.0491C1.2042 12.0491 0 0 0 0C0 0 0 0 0 0Z" fill="none" stroke-width="3.615" stroke="#757575" stroke-linecap="round" stroke-linejoin="round" transform="translate(58.781 61.351)" />
  </g>
</svg>