<?xml version="1.0" encoding="utf-8"?>
<svg width="135" height="135" viewBox="0 0 135 135" fill="none" xmlns="http://www.w3.org/2000/svg">
  <defs>
    <clipPath id="clip_path_1">
      <rect width="135" height="135" />
    </clipPath>
  </defs>
  <g>
    <rect width="135" height="135" />
    <g clip-path="url(#clip_path_1)">
      <rect width="135" height="135" />
      <g id="Группа" transform="translate(-23 0)">
        <rect id="Прямоугольник" width="135" height="135" fill="#FFFFFF" fill-rule="evenodd" transform="translate(23 0)" />
        <path id="Путь" d="M29.9194 123.681C29.9086 124.502 17.0565 125.592 7.99838 132.032C-2.25432 139.322 -1.91852 154.213 4.86658 152.909C11.6518 151.604 2.18828 143.064 13.2173 137.251C21.8506 132.701 31.3421 132.739 31.5897 133.394C33.8935 139.479 38.4566 144.526 44.5329 148.733C42.5757 159.564 39.0787 166.537 42.445 167.523C53.1447 170.654 59.5583 162.533 62.2789 157.084C74.8929 160.587 83.7608 160.742 95.6817 156.04C94.2955 161.977 91.8604 169.859 95.6817 169.61C109.203 168.729 119.299 148.72 122.822 136.722C126.345 124.724 131.042 100.52 130.129 81.9271C129.399 67.0565 126.371 56.0464 123.047 44.9255C119.722 33.8047 111.208 24.3086 106.545 22.3251C101.881 20.3415 96.1551 19.7991 94.3479 19.4552C93.6182 19.3163 94.6974 0.189785 93.9892 0.0833855C90.9573 -0.372416 84.2158 1.17299 80.7159 1.51828C79.9497 1.59389 85.1327 20.0488 84.3033 20.1726C83.3118 20.3206 76.411 21.9663 70.3125 27.3474C64.214 32.7285 60.8124 44.1561 58.1154 54.2527C53.553 71.3372 45.3006 90.222 39.8198 99.812C32.0897 113.34 31.5897 121.5 29.9194 123.681C29.9194 123.681 29.9194 123.681 29.9194 123.681Z" fill="#E7A900" transform="translate(0 17)" />
        <path id="Путь" d="M0 0C1.1308 2.8709 1.4785 6.3504 1.0432 10.4386C1.0432 10.4386 0 0 0 0Z" fill="none" stroke-width="4.365" stroke="#FFFFFF" stroke-linecap="round" stroke-linejoin="round" transform="translate(85.112 50.953)" />
        <path id="Путь" d="M0 0C1.1307 2.8709 1.4787 6.3504 1.0439 10.4386C1.0439 10.4386 0 0 0 0Z" fill="none" stroke-width="4.365" stroke="#FFFFFF" stroke-linecap="round" stroke-linejoin="round" transform="translate(106.852 50.953)" />
        <path id="Путь" d="M0 0.696701C0.358803 2.84921 5.73981 2.4904 6.816 0C7.8922 1.773 12.1971 2.4581 12.1971 0" fill="none" stroke-width="3" stroke="#FFFFFF" stroke-linecap="round" stroke-linejoin="round" transform="translate(91.65 71.874)" />
      </g>
    </g>
  </g>
</svg>