<?xml version="1.0" encoding="utf-8"?>
<svg width="270" height="135" viewBox="0 0 270 135" fill="none" xmlns="http://www.w3.org/2000/svg">
  <defs>
    <clipPath id="clip_path_1">
      <rect width="135" height="135" />
    </clipPath>
    <clipPath id="clip_path_2">
      <rect width="135" height="135" />
    </clipPath>
  </defs>
  <g>
    <rect width="270" height="135" />
    <g clip-path="url(#clip_path_1)">
      <rect width="135" height="135" />
      <g id="Группа" transform="translate(-59 14)">
        <path id="Путь" d="M41.701 168.768C41.686 169.912 23.773 171.431 11.148 180.407C-3.14201 190.567 -2.67402 211.323 6.78298 209.505C16.24 207.686 3.04998 195.783 18.422 187.681C30.455 181.339 43.684 181.393 44.029 182.305C47.24 190.787 53.6 197.821 62.069 203.685C59.341 218.78 54.4669 228.5 59.159 229.873C74.072 234.238 83.011 222.918 86.803 215.324C104.384 220.207 116.744 220.423 133.359 213.869C131.427 222.144 128.033 233.13 133.359 232.783C152.205 231.555 166.276 203.666 171.186 186.944C176.097 170.222 182.644 136.487 181.371 110.572C180.098 84.656 171.177 51.057 168.277 37.827C165.584 25.544 159.779 14.219 150.818 3.806C146.256 11.117 142.876 19.078 140.634 27.643C128.877 24.898 122.117 23.472 108.626 26.188C107.023 20.452 102.42 8.32 94.077 0C85.234 11.286 77.239 50.423 75.163 58.195C68.804 82.007 63.139 122.133 55.5 135.5C44.726 154.354 42.085 138.06 41.701 168.768C41.701 168.768 41.701 168.768 41.701 168.768Z" fill="#446ADB" />
        <path id="Путь" d="M0 0C1.576 4.0013 2.0607 8.851 1.454 14.549C1.454 14.549 0 0 0 0Z" fill="none" stroke-width="4.365" stroke="#FFFFFF" stroke-linecap="round" stroke-linejoin="round" transform="translate(114.446 45.101)" />
        <path id="Путь" d="M0 0C1.576 4.0013 2.06099 8.851 1.455 14.549C1.455 14.549 0 0 0 0Z" fill="none" stroke-width="4.365" stroke="#FFFFFF" stroke-linecap="round" stroke-linejoin="round" transform="translate(144.746 45.101)" />
        <path id="Путь" d="M0 0.9711C0.5 3.9711 8 3.4711 9.5 0C11 2.4711 17 3.4261 17 0" fill="none" stroke-width="2" stroke="#FFFFFF" stroke-linecap="round" stroke-linejoin="round" transform="translate(123.558 75.654)" />
      </g>
    </g>
    <g clip-path="url(#clip_path_2)" transform="translate(135 0)">
      <rect width="135" height="135" />
      <g id="Группа" transform="translate(-59 15)">
        <path id="Путь" d="M41.701 167.768C41.686 168.912 23.773 170.431 11.148 179.407C-3.14201 189.567 -2.67402 210.323 6.78298 208.505C16.24 206.686 3.04999 194.783 18.422 186.681C30.455 180.339 43.684 180.393 44.029 181.305C47.24 189.787 53.6 196.821 62.069 202.685C59.341 217.78 54.467 227.5 59.159 228.873C74.072 233.238 83.011 221.918 86.803 214.324C104.384 219.207 116.744 219.423 133.359 212.869C131.427 221.144 128.033 232.13 133.359 231.783C152.205 230.555 166.276 202.666 171.186 185.944C176.097 169.222 182.644 135.487 181.371 109.572C180.098 83.656 173.9 51.73 171 38.5C168.307 26.217 159 6 146 0C146 8.5 142 13 137.5 20C125.743 17.255 112.491 17.284 99 20C97.397 14.264 92 4 77.5 0C77.5 20 73.076 52.728 71 60.5C64.641 84.312 63.139 121.133 55.5 134.5C44.726 153.354 42.085 137.06 41.701 167.768C41.701 167.768 41.701 167.768 41.701 167.768Z" fill="#446ADB" />
        <path id="Путь" d="M0 0C1.847 1.1001 2.414 2.4334 1.70399 4C1.70399 4 0 0 0 0Z" fill="none" stroke-width="4.365" stroke="#FFFFFF" stroke-linecap="round" stroke-linejoin="round" transform="translate(107 36)" />
        <path id="Путь" d="M0 0C0.923004 1.1001 1.207 2.4334 0.852005 4C0.852005 4 0 0 0 0Z" fill="none" stroke-width="4.365" stroke="#FFFFFF" stroke-linecap="round" stroke-linejoin="round" transform="translate(140 34)" />
        <path id="Путь" d="M68.0322 41.2704C76.5322 19.7705 61.5322 -2.72964 28.5322 0.270363C-10.4678 8.27036 -3.46783 45.7704 14.0322 55.2704C31.5322 64.7704 59.5322 62.7704 68.0322 41.2704C68.0322 41.2704 68.0322 41.2704 68.0322 41.2704Z" fill="#FFFFFF" transform="translate(94.968 48.23)" />
      </g>
    </g>
  </g>
</svg>