<?xml version="1.0" encoding="UTF-8" standalone="no"?><!-- Generator: Gravit.io --><svg xmlns="http://www.w3.org/2000/svg" xmlns:xlink="http://www.w3.org/1999/xlink" style="isolation:isolate" viewBox="0 0 1024 1024" width="1024pt" height="1024pt"><defs><clipPath id="_clipPath_rnWepXF1QiL1BFLqbj52absF1vDrQ11w"><rect width="1024" height="1024"/></clipPath></defs><g clip-path="url(#_clipPath_rnWepXF1QiL1BFLqbj52absF1vDrQ11w)"><g id="Group"/><linearGradient id="_lgradient_7" x1="0.1464466094067262" y1="0.14644660940672627" x2="0.8535533905932737" y2="0.8535533905932737" gradientTransform="matrix(1024,0,0,1024,0,0)" gradientUnits="userSpaceOnUse"><stop offset="0%" stop-opacity="1" style="stop-color:rgb(68,106,219)"/><stop offset="100%" stop-opacity="1" style="stop-color:rgb(81,68,219)"/></linearGradient><rect x="0" y="0" width="1024" height="1024" transform="matrix(1,0,0,1,0,0)" id="Rectangle" fill="url(#_lgradient_7)"/><clipPath id="_clipPath_h9mEzm8nGSFQWs6Yzscq94sur7AVrNVf"><path d=" M 228 106 L 984 133 L 858 1101 L -29 1065 L 228 106 Z " id="Path" fill="rgb(255,255,255)"/></clipPath><g clip-path="url(#_clipPath_h9mEzm8nGSFQWs6Yzscq94sur7AVrNVf)"><g id="Logo"><g id="Group"><path d=" M 1534.046 887.295 C 1539.988 889.834 1546.402 890.996 1552.888 890.938 C 1562.442 890.048 1571.428 885.943 1578.524 879.229 C 1590.128 868.095 1599.458 854.779 1605.874 839.987 C 1609.625 831.279 1616.714 824.431 1625.457 820.878 C 1634.335 817.319 1644.214 817.494 1652.921 821.245 C 1661.629 824.995 1668.478 832.084 1672.037 840.962 C 1675.455 849.712 1675.414 859.584 1671.664 868.291 C 1661.376 892.067 1646.502 913.371 1627.795 931.083 C 1608.448 949.504 1583.324 960.647 1556.779 962.397 C 1537.218 963.253 1517.809 959.098 1500.197 950.391 C 1485.21 942.768 1473.596 929.701 1467.659 913.913 C 1462.37 900.255 1459.61 885.793 1459.276 871.209 C 1458.583 852.181 1459.777 833.057 1462.61 814.256 C 1465.698 792.467 1469.871 770.759 1475.144 749.4 C 1486.777 701.491 1501.149 654.254 1518.138 607.966 C 1533.753 563.911 1551.566 520.555 1571.322 478.183 C 1579.254 461.287 1587.868 444.491 1596.913 428.215 C 1603.829 415.291 1611.866 403.121 1620.887 391.713 C 1626.728 384.251 1635.268 379.357 1644.809 378.198 C 1654.214 377.045 1663.683 379.811 1671.145 385.652 C 1678.606 391.493 1683.366 400.04 1684.525 409.58 C 1685.678 418.986 1683.047 428.448 1677.206 435.91 C 1670.597 444.221 1664.696 453.173 1659.766 462.617 C 1651.327 477.51 1643.455 492.917 1636.263 508.423 C 1617.356 548.86 1600.391 590.279 1585.482 632.271 C 1569.322 676.218 1555.771 720.98 1544.688 766.428 C 1539.981 785.594 1536.237 805.118 1533.445 824.728 C 1531.216 839.443 1530.35 854.359 1530.838 869.341 C 1530.876 875.423 1531.992 881.451 1534.046 887.295 Z " id="Path" fill="rgb(255,255,255)"/><path d=" M 1481.578 600.285 C 1474.853 600.178 1467.993 597.389 1462.806 592.277 C 1457.62 587.164 1454.599 580.598 1454.684 573.426 C 1454.769 566.255 1457.557 559.394 1462.669 554.208 C 1467.358 549.491 1474.371 546.448 1481.543 546.532 C 1521.399 546.305 1561.536 542.879 1601.083 536.445 C 1625.075 532.542 1665.584 520.357 1689.497 510.37 C 1712.401 500.804 1738.919 496.999 1735.742 526.376 C 1733.28 549.144 1719.254 558.538 1705.79 564.521 C 1677.393 577.141 1624.66 588.258 1610.032 589.298 C 1565.048 592.497 1524.562 599.899 1481.578 600.285 Z " id="Path" fill="rgb(255,255,255)"/><path d=" M 2013.055 903.184 C 2008.021 907.901 2002.704 912.362 1997.103 916.566 C 1977.147 930.962 1955.152 942.487 1932.056 950.957 C 1915.601 957.064 1898.97 962.368 1882.034 967.012 C 1875.502 968.83 1868.969 970.648 1862.45 972.736 C 1853.862 998.048 1844.736 1023.387 1835.332 1048.605 C 1819.757 1090.765 1801.43 1131.983 1780.188 1171.727 C 1770.928 1189.096 1760.555 1205.845 1749.062 1221.84 C 1738.721 1236.56 1726.708 1250.283 1713.54 1262.578 C 1703.708 1271.323 1692.276 1277.851 1679.919 1282.127 C 1667.832 1286.39 1655.116 1288.927 1642.17 1289.583 C 1615.638 1291.603 1589.039 1284.298 1567.296 1268.769 C 1554.795 1259.533 1544.714 1247.335 1537.786 1233.355 C 1530.521 1218.039 1526.43 1201.346 1525.839 1184.341 C 1525.839 1184.341 1525.967 1184.199 1525.96 1184.065 L 1525.767 1177.585 C 1525.754 1177.315 1525.747 1177.18 1525.733 1176.91 C 1525.534 1140.957 1536.32 1105.664 1556.718 1075.968 C 1572.011 1054.914 1590.414 1036.541 1611.401 1021.146 C 1654.837 987.174 1702.201 958.681 1752.583 936.389 C 1770.191 929.008 1787.826 922.165 1805.893 915.842 C 1809.285 905.395 1812.535 894.82 1815.913 884.103 L 1860.454 735.83 C 1873.344 691.372 1886.646 647.029 1900.359 602.8 C 1912.308 563.797 1925.493 525.138 1940.052 486.95 C 1943.384 477.993 1950.19 470.888 1958.778 466.938 C 1967.501 462.981 1977.359 462.752 1986.181 466.091 C 1995.003 469.429 2002.242 476.228 2006.199 484.951 C 2010.015 493.546 2010.379 503.397 2006.905 512.226 C 1993.086 549.024 1980.238 586.315 1968.759 623.941 L 1929.204 755.872 L 1888.828 890.279 C 1895.077 888.205 1901.185 886.003 1907.428 883.794 C 1924.153 877.674 1940.088 869.295 1954.706 858.955 C 1961.21 853.894 1967.147 848.32 1972.503 841.965 C 1975.299 838.443 1978.379 835.178 1981.741 832.168 C 1989.747 824.732 2000.075 820.423 2011.005 820.005 C 2021.955 819.991 2032.713 824.178 2040.924 831.468 C 2044.311 834.271 2047.576 837.351 2050.572 840.444 C 2057.839 847.782 2065.874 854.27 2074.415 860.057 C 2077.477 861.794 2080.782 862.979 2084.329 863.611 C 2091.039 865.299 2097.83 865.901 2104.701 865.418 C 2114.707 865.452 2124.246 861.589 2131.612 854.861 C 2135.203 851.029 2137.938 846.293 2139.573 841.208 C 2142.587 831.321 2143.949 820.841 2143.281 810.33 C 2143.275 810.195 2143.268 810.06 2143.261 809.925 L 2143.314 808.3 C 2142.491 797.39 2139.914 786.57 2135.491 776.654 C 2129.846 763.96 2123.419 751.848 2116.331 740.039 C 2105.416 722.069 2096.085 703.343 2088.21 684.003 C 2084.623 674.585 2082.634 664.681 2081.994 654.709 C 2079.95 622.364 2093.907 590.967 2119.261 571.025 C 2134.351 559.309 2152.397 552.581 2171.405 551.483 C 2188.525 550.481 2205.648 554.886 2220.165 563.885 C 2235.963 574.171 2247.955 589.382 2254.13 607.186 C 2256.15 612.357 2257.374 617.838 2258.058 623.347 C 2260.008 635.145 2257.11 647.325 2250.171 657.141 C 2243.225 666.821 2232.745 673.436 2220.946 675.386 C 2203.483 677.623 2186.39 668.484 2178.558 652.656 C 2174.027 643.287 2173.757 632.62 2177.601 623.096 C 2176.92 622.995 2176.239 622.895 2175.565 622.929 C 2171.115 623.154 2166.868 624.721 2163.35 627.333 C 2156.469 632.955 2152.719 641.662 2153.574 650.542 C 2153.569 653.111 2154.103 655.653 2154.901 658.046 C 2161.229 673.544 2168.885 688.569 2177.593 703 C 2186.294 717.296 2193.944 732.186 2200.805 747.522 C 2208.739 765.372 2213.492 784.465 2214.752 804.005 C 2214.766 804.275 2214.78 804.544 2214.793 804.814 L 2214.896 806.837 C 2215.852 825.717 2213.43 844.632 2207.859 862.761 C 2202.725 878.839 2193.867 893.484 2182.176 905.568 C 2162.075 925.109 2135.198 936.34 2107.249 937.08 C 2094.431 937.594 2081.531 936.49 2069.082 933.606 C 2057.469 931.22 2046.293 926.783 2036.242 920.532 C 2028.133 915.265 2020.402 909.437 2013.055 903.184 Z  M 1775.244 1004.734 C 1732.298 1024.351 1691.768 1048.982 1654.58 1078.177 C 1639.584 1089.076 1626.195 1102.328 1615.186 1117.217 C 1603.499 1134.709 1597.235 1155.171 1597.356 1176.257 L 1597.387 1182.204 C 1597.736 1189.081 1599.298 1195.898 1602.181 1202.106 C 1603.977 1205.53 1606.427 1208.516 1609.523 1210.928 C 1617.787 1216.593 1627.647 1219.068 1637.605 1218.158 C 1644.085 1217.965 1650.376 1216.7 1656.483 1214.498 C 1659.807 1213.383 1662.833 1211.742 1665.556 1209.441 C 1674.842 1200.588 1683.271 1190.832 1690.722 1180.45 C 1700.443 1166.843 1709.193 1152.745 1717.099 1138.013 C 1736.724 1101.055 1753.853 1062.872 1768.224 1023.612 C 1770.606 1017.272 1772.996 1011.067 1775.244 1004.734 Z " fill-rule="evenodd" id="Compound Path" fill="rgb(255,255,255)"/><path d=" M 1957.319 393.673 C 1956.195 371.479 1973.301 352.547 1995.495 351.423 C 2017.688 350.299 2036.62 367.405 2037.744 389.598 C 2038.868 411.792 2021.763 430.724 1999.569 431.848 C 1977.375 432.972 1958.443 415.866 1957.319 393.673 Z " id="Ellipse" fill="rgb(255,255,255)"/><path d=" M 1702.615 863.143 C 1701.36 838.369 1720.454 817.237 1745.228 815.982 C 1770.001 814.727 1791.133 833.821 1792.388 858.595 C 1793.643 883.368 1774.549 904.5 1749.775 905.755 C 1725.002 907.01 1703.87 887.916 1702.615 863.143 Z " id="Ellipse" fill="rgb(255,255,255)"/><path d=" M 1345.306 695.138 C 1346.231 686.708 1350.157 678.803 1356.485 672.939 C 1356.033 672.016 1355.452 671.234 1355.007 670.445 C 1353.846 668.882 1352.166 667.75 1350.258 667.441 L 1345.254 667.424 C 1339.469 667.988 1334.015 669.751 1329.027 672.708 C 1319.847 678.31 1310.971 684.574 1302.668 691.484 C 1302.412 691.767 1302.149 691.916 1301.893 692.199 L 1301.24 692.638 C 1284.613 706.054 1270.565 722.313 1259.876 740.837 C 1246.149 763.434 1236.597 788.39 1231.699 814.461 C 1230.086 822.655 1229.43 831.07 1229.847 839.297 C 1230.272 850.361 1233.53 861.283 1239.146 870.733 C 1244.593 879.515 1251.86 886.854 1260.529 892.498 C 1282.162 905.869 1307.493 912.157 1332.811 910.198 C 1349.277 909.635 1365.43 905.572 1380.051 897.936 C 1402.409 885.582 1422.553 869.554 1439.567 850.44 C 1445.968 843.356 1451.93 835.618 1457.063 827.516 C 1458.963 824.986 1460.438 822.072 1461.231 819.058 C 1463.606 809.879 1469.561 802.006 1477.704 797.267 C 1485.974 792.386 1495.642 791.085 1504.821 793.46 C 1514 795.834 1521.873 801.79 1526.753 810.06 C 1531.492 818.202 1532.8 828.006 1530.426 837.184 C 1527.601 848.143 1522.847 858.389 1516.286 867.645 C 1509.267 878.546 1501.404 888.814 1492.564 898.455 C 1470.046 923.662 1443.533 944.744 1413.935 960.98 C 1389.965 973.551 1363.558 980.703 1336.567 981.665 C 1296.414 984.375 1256.429 974.367 1222.221 952.981 C 1204.331 941.449 1189.089 926.132 1177.89 907.906 C 1166.07 888.09 1159.252 865.586 1158.347 842.378 C 1157.785 828.616 1158.706 814.779 1161.395 801.122 C 1167.771 766.864 1180.305 734.051 1198.397 704.202 C 1213.585 678.421 1233.246 655.522 1256.497 636.768 C 1256.625 636.626 1256.753 636.485 1256.888 636.478 L 1257.279 636.188 C 1268.304 626.976 1279.917 618.682 1292.252 611.297 C 1307.215 602.427 1323.982 597.116 1341.357 595.83 C 1342.436 595.775 1343.38 595.728 1344.331 595.815 L 1352.577 595.802 C 1353.393 595.896 1354.202 595.855 1355.019 595.949 C 1378.91 597.849 1400.772 610.396 1414.224 630.4 C 1424.308 645.303 1430.199 662.851 1430.98 680.928 C 1431.524 689.012 1430.855 697.158 1428.817 704.968 C 1425.994 718.631 1416.98 730.174 1404.442 736.217 C 1401.671 737.574 1398.753 738.669 1395.671 739.23 L 1392.32 739.806 C 1391.788 739.968 1391.248 739.995 1390.851 740.151 C 1380.387 741.762 1369.704 739.059 1361.136 732.733 C 1352.575 726.541 1346.959 717.091 1345.348 706.627 C 1344.786 703.546 1344.764 700.438 1345.153 697.444 L 1345.306 695.138 Z " id="Path" fill="rgb(255,255,255)"/></g><path d=" M 534.642 601.68 C 533.957 606.852 532.315 611.802 529.979 616.382 C 527.756 620.551 524.839 624.349 521.206 627.372 C 517.446 630.537 513.24 632.913 508.588 634.501 C 503.141 636.399 497.384 637.502 491.585 637.796 C 485.793 638.225 479.946 637.574 474.335 636.236 C 469.405 634.999 464.825 632.662 460.886 629.617 C 456.811 626.578 453.504 622.69 451.114 618.214 C 448.286 613.085 446.111 607.516 445.008 601.759 C 444.453 598.812 444.977 595.811 446.607 593.295 C 448.244 590.914 450.724 589.166 453.671 588.611 C 456.61 587.921 459.618 588.58 462.134 590.21 C 464.515 591.847 466.263 594.327 466.953 597.267 C 467.67 600.746 468.927 604.197 470.574 607.359 C 471.607 609.064 472.902 610.621 474.589 611.887 C 476.141 613.161 477.942 614.016 479.857 614.46 C 483.283 615.368 486.817 615.729 490.323 615.552 C 494.099 615.361 497.847 614.63 501.434 613.367 C 503.429 612.725 505.134 611.692 506.826 610.389 C 508.113 609.107 509.258 607.697 510.127 606.166 C 511.353 603.67 512.167 601.06 512.57 598.336 C 512.966 595.477 514.589 592.826 516.935 591.084 C 519.415 589.336 522.347 588.512 525.348 589.036 C 528.208 589.432 530.859 591.055 532.6 593.401 C 534.341 595.746 535.173 598.813 534.642 601.68 L 534.642 601.68 L 534.642 601.68 Z  M 444.455 380.418 C 468.087 385.119 452.849 432.222 446.482 452.528 C 440.116 472.833 426.473 520.512 406.674 517.486 C 386.874 514.459 390.765 466.24 398.866 437.212 C 406.967 408.184 420.824 375.718 444.455 380.418 L 444.455 380.418 Z  M 29.774 1304.127 C -12.63 1210.242 49.825 951.386 136.014 699.387 C 147.523 665.736 159.171 633.571 170.96 602.892 Q 310.292 240.273 475.585 154.456 Q 469.981 222.895 472.599 248.336 Q 475.217 273.777 479.835 293.562 Q 532.487 289.785 603.633 296.906 Q 674.78 304.027 725.542 323.651 Q 777.45 279.768 819.772 259.384 Q 862.093 239 932.703 228.454 Q 833.179 609.083 831.921 750.882 C 829.863 982.874 858.246 1132.05 866.088 1197.634 C 896.192 1200.08 925.155 1195.231 967.992 1176.644 C 992.67 1165.936 1024.94 1135.941 1012.382 1089.433 C 1004.245 1059.296 962.778 1055.982 938.614 1060.631 C 928.616 1062.554 908.17 1060.963 902.586 1045.282 C 896.264 1027.525 910.311 1012.995 922.351 1007.223 C 948.82 994.533 1003.137 982.631 1045.236 1017.828 C 1080.868 1047.619 1084.308 1094.821 1079.343 1131.075 C 1074.665 1165.224 1051.084 1192.233 1031.378 1208.907 C 993.319 1241.111 927.039 1263.673 873.523 1274.171 C 871.9 1310.84 841.203 1326.615 817.181 1338.622 C 740.504 1376.947 595.104 1402.335 443.36 1403.527 C 224.045 1405.25 60.112 1371.298 29.774 1304.127 L 29.774 1304.127 L 29.774 1304.127 Z  M 646.689 400.538 C 670.321 405.238 659.505 451.662 653.138 471.967 C 646.771 492.273 633.129 539.952 613.329 536.926 C 593.53 533.899 597.421 485.68 605.522 456.652 C 613.623 427.624 623.057 395.837 646.689 400.538 Z " fill-rule="evenodd" id="Compound Shape" fill="rgb(255,255,255)"/></g></g></g></svg>