<?xml version="1.0" encoding="UTF-8" standalone="no"?><!-- Generator: Gravit.io --><svg xmlns="http://www.w3.org/2000/svg" xmlns:xlink="http://www.w3.org/1999/xlink" style="isolation:isolate" viewBox="0 0 1024 1024" width="1024pt" height="1024pt"><defs><clipPath id="_clipPath_XGadzsfIiVZ4lOD2zk0PGCU2I8JHTKKv"><rect width="1024" height="1024"/></clipPath></defs><g clip-path="url(#_clipPath_XGadzsfIiVZ4lOD2zk0PGCU2I8JHTKKv)"><rect x="-41.721" y="0" width="1024" height="1024" transform="matrix(1,0,0.176,1,-90.279,0)" id="Rectangle" fill="rgb(255,255,255)"/><clipPath id="_clipPath_6kaUvISva4ApgTONdeeaHZvYIMOIaWfx"><rect x="-41.721" y="0" width="1024" height="1024" transform="matrix(1,0,0.176,1,-90.279,0)" id="Rectangle" fill="rgb(255,255,255)"/></clipPath><g clip-path="url(#_clipPath_6kaUvISva4ApgTONdeeaHZvYIMOIaWfx)"><g id="Logo"><g id="Group"><path d=" M 126.632 1302.926 C 67.719 1208.971 84.748 950.064 126.729 698.036 C 132.335 664.381 138.341 632.213 144.748 601.531 Q 220.473 238.881 370.783 153.161 Q 377.195 221.622 384.282 247.075 Q 391.369 272.528 399.464 292.324 Q 451.479 288.587 523.914 295.766 Q 596.348 302.946 650.583 322.618 Q 694.812 278.758 733.576 258.4 Q 772.34 238.041 841.135 227.546 Q 808.402 608.244 832.044 750.097 C 870.725 982.176 925.32 1131.432 944.683 1197.048 C 975.232 1199.518 1003.359 1194.69 1042.954 1176.129 C 1065.765 1165.437 1092.784 1135.456 1072.053 1088.919 C 1058.619 1058.764 1016.548 1055.417 993.188 1060.048 C 983.522 1061.965 962.786 1060.357 954.446 1044.666 C 945.002 1026.897 956.505 1012.372 967.538 1006.607 C 991.792 993.933 1044.047 982.07 1092.349 1017.313 C 1133.232 1047.143 1144.963 1094.366 1146.361 1130.63 C 1147.678 1164.789 1128.828 1191.79 1112.039 1208.455 C 1079.616 1240.641 1017.263 1263.16 965.563 1273.62 C 970.378 1310.302 942.435 1326.059 920.509 1338.052 C 850.523 1376.331 709.505 1401.615 557.89 1402.689 C 338.763 1404.24 168.782 1370.147 126.632 1302.926 Z " id="Path" fill="rgb(68,106,219)"/><path d=" M 418.696 600.581 C 417.553 597.685 417.616 594.728 418.875 592.203 C 420.013 589.684 422.309 587.969 425.121 587.458 C 427.906 586.826 431.086 587.404 433.763 588.993 C 436.588 590.697 438.734 593.173 439.878 596.069 C 441.186 599.696 443.042 603.048 445.353 606.255 C 446.611 608.038 448.295 609.553 450.045 610.819 C 451.889 611.957 453.825 612.967 455.865 613.357 C 459.369 614.288 462.977 614.599 466.475 614.423 C 470.214 614.235 473.816 613.438 477.214 612.282 C 479.007 611.577 480.744 610.628 482.009 609.211 C 483.209 608.043 484.112 606.643 484.599 605.019 C 485.402 602.64 485.789 600.036 485.787 597.329 C 485.729 594.378 486.84 591.737 488.867 589.912 C 490.921 588.209 493.799 587.449 496.832 587.912 C 499.864 588.374 502.782 589.951 504.901 592.305 C 507.14 594.654 508.431 597.666 508.489 600.617 C 508.559 605.782 507.824 610.619 506.309 615.249 C 504.953 619.502 502.643 623.31 499.537 626.297 C 496.365 629.534 492.519 631.942 488.09 633.396 C 482.899 635.257 477.423 636.394 471.661 636.807 C 465.871 637.098 460.009 636.532 454.196 635.101 C 449.041 633.884 444 631.553 439.518 628.455 C 434.915 625.364 430.871 621.506 427.681 617.113 C 423.937 611.886 420.861 606.38 418.696 600.581 Z " id="Path" fill="rgb(255,255,255)"/><path d=" M 379.318 379.186 C 403.788 383.907 396.813 431.016 394.009 451.325 C 391.205 471.633 385.929 519.32 365.587 516.277 C 345.246 513.233 340.671 464.999 343.679 435.966 C 346.686 406.933 354.849 374.466 379.318 379.186 Z " id="Path" fill="rgb(255,255,255)"/><path d=" M 585.191 399.472 C 609.661 404.192 606.991 450.626 604.187 470.934 C 601.383 491.243 596.106 538.929 575.765 535.886 C 555.423 532.843 550.849 484.608 553.856 455.576 C 556.864 426.543 560.721 394.751 585.191 399.472 Z " id="Path" fill="rgb(255,255,255)"/></g></g></g><rect x="921" y="973" width="134.057" height="72" transform="matrix(1,0,0,1,0,0)" id="Rectangle" fill="rgb(255,255,255)"/><g id="Group"><rect x="416.943" y="565.508" width="134.057" height="83.492" transform="matrix(1,0,0,1,0,0)" id="Rectangle" fill="rgb(68,106,219)"/><path d="M 773 620.436 L 773 700.508 C 773 715.129 761.129 727 746.508 727 L 221.436 727 C 206.814 727 194.943 715.129 194.943 700.508 L 194.943 620.436 C 194.943 605.814 206.814 593.943 221.436 593.943 L 746.508 593.943 C 761.129 593.943 773 605.814 773 620.436 Z" style="stroke:none;fill:#FFFFFF;stroke-miterlimit:10;"/><path d="M 749 401.332 L 749 511.611 C 749 526.727 736.727 539 721.611 539 L 278.332 539 C 263.216 539 250.943 526.727 250.943 511.611 L 250.943 401.332 C 250.943 386.216 263.216 373.943 278.332 373.943 L 721.611 373.943 C 736.727 373.943 749 386.216 749 401.332 Z" style="stroke:none;fill:#446ADB;stroke-miterlimit:10;"/><g id="Group"><g id="Group"><ellipse vector-effect="non-scaling-stroke" cx="324.12658328929984" cy="492.5183048991639" rx="109.3039349620562" ry="88.48169510083588" id="Ellipse" fill="rgb(255,255,255)"/><ellipse vector-effect="non-scaling-stroke" cx="316.44439175586126" cy="537.5443109925416" rx="31.555608244138625" ry="25.54431099254157" id="Ellipse" fill="rgb(68,106,219)"/></g><g id="Group"><ellipse vector-effect="non-scaling-stroke" cx="655.6960650379438" cy="492.5183048991639" rx="109.30393496205625" ry="88.48169510083588" id="Ellipse" fill="rgb(255,255,255)"/><ellipse vector-effect="non-scaling-stroke" cx="679.5556082441386" cy="444.54431099254157" rx="31.555608244138625" ry="25.54431099254157" id="Ellipse" fill="rgb(68,106,219)"/></g></g><path d="M 551 548.833 L 551 613.167 C 551 618.594 546.594 623 541.167 623 L 434.703 623 C 429.277 623 424.871 618.594 424.871 613.167 L 424.871 548.833 C 424.871 543.406 429.277 539 434.703 539 L 541.167 539 C 546.594 539 551 543.406 551 548.833 Z" style="stroke:none;fill:#FFFFFF;stroke-miterlimit:10;"/><rect x="397.443" y="581" width="179.557" height="12.943" transform="matrix(1,0,0,1,0,0)" id="Rectangle" fill="rgb(68,106,219)"/><rect x="312.092" y="651.185" width="152.129" height="18.572" transform="matrix(0,1,-1,0,1048.629,272.315)" id="Rectangle" fill="rgb(68,106,219)"/><rect x="411.871" y="651.185" width="152.129" height="18.572" transform="matrix(0,1,-1,0,1148.407,172.536)" id="Rectangle" fill="rgb(68,106,219)"/><rect x="511.649" y="651.185" width="152.129" height="18.572" transform="matrix(0,1,-1,0,1248.185,72.758)" id="Rectangle" fill="rgb(68,106,219)"/></g></g></svg>