<?xml version="1.0" encoding="utf-8"?>
<svg width="135" height="135" viewBox="0 0 135 135" fill="none" xmlns="http://www.w3.org/2000/svg">
  <defs>
    <clipPath id="clip_path_1">
      <rect width="135" height="135" />
    </clipPath>
  </defs>
  <g>
    <rect width="135" height="135" />
    <g clip-path="url(#clip_path_1)">
      <rect width="135" height="135" />
      <g id="Группа" transform="translate(-36 0)">
        <rect id="Прямоугольник" width="135" height="135" fill="#FFFFFF" fill-rule="evenodd" transform="translate(36 0)" />
        <path id="Путь" d="M34.5356 139.769C34.5232 140.716 19.6881 141.974 9.23237 149.408C-2.60213 157.822 -2.21453 175.012 5.61747 173.506C13.4495 172 2.52587 162.142 15.2566 155.432C25.222 150.18 36.1779 150.225 36.4636 150.98C39.1228 158.004 44.39 163.83 51.4038 168.686C49.1446 181.187 45.108 189.237 48.9938 190.374C61.3443 193.989 68.7474 184.615 71.8878 178.325C86.4479 182.369 96.6841 182.548 110.444 177.12C108.844 183.973 106.033 193.072 110.444 192.784C126.052 191.767 137.705 168.671 141.771 154.822C145.839 140.973 151.261 113.035 150.206 91.573C149.152 70.1098 141.764 42.284 139.362 31.3273C137.132 21.1549 132.324 11.7758 124.903 3.152C121.125 9.2068 118.326 15.7999 116.469 22.8932C106.732 20.6198 101.134 19.4388 89.961 21.6882C88.6335 16.9378 84.8214 6.8904 77.9119 0C70.5884 9.3468 63.9672 41.7589 62.2479 48.1955C56.9815 67.9159 52.29 101.147 45.9635 112.217C37.0408 127.832 34.8536 114.337 34.5356 139.769C34.5356 139.769 34.5356 139.769 34.5356 139.769Z" fill="#446ADB" transform="translate(0 24)" />
        <path id="Путь" d="M0 0C1.3052 3.3138 1.7066 7.3302 1.2042 12.0491C1.2042 12.0491 0 0 0 0Z" fill="none" stroke-width="3.615" stroke="#FFFFFF" stroke-linecap="round" stroke-linejoin="round" transform="translate(94.781 61.351)" />
        <path id="Путь" d="M0 0C1.3052 3.3138 1.70679 7.3302 1.20499 12.0491C1.20499 12.0491 0 0 0 0Z" fill="none" stroke-width="3.615" stroke="#FFFFFF" stroke-linecap="round" stroke-linejoin="round" transform="translate(119.875 61.351)" />
        <path id="Путь" d="M0 0.9897C0.414101 4.04739 6.6253 3.5377 7.8676 0C9.1099 2.51849 14.0789 3.4918 14.0789 0" fill="none" stroke-width="1.656" stroke="#FFFFFF" stroke-linecap="round" stroke-linejoin="round" transform="translate(102.327 86.655)" />
      </g>
    </g>
  </g>
</svg>